# Blender 4.4.0
# www.blender.org
mtllib obj_Flyer_Geschenk-Reisenf_rB_rgerderDDR_70s_OPEN.mtl
o obj_Flyer_Geschenk-ReisenfürBürgerderDDR_70s_OPEN
v -0.312193 0.006271 0.155119
v -0.001955 0.006271 0.155119
v -0.312193 0.006271 -0.155120
v -0.001955 0.006271 -0.155120
v -0.312193 0.006111 0.155119
v -0.001955 0.006111 0.155119
v -0.312193 0.006111 -0.155120
v -0.001955 0.006111 -0.155120
v 0.002339 0.004723 0.155119
v 0.311821 -0.016931 0.155120
v 0.002339 0.004709 -0.155119
v 0.311821 -0.016945 -0.155118
v 0.002327 0.004563 0.155119
v 0.311809 -0.017091 0.155120
v 0.002327 0.004549 -0.155119
v 0.311809 -0.017104 -0.155118
v 0.079709 -0.019213 0.155119
v 0.157080 -0.029721 0.155119
v 0.234450 -0.030039 0.155120
v 0.234450 -0.030053 -0.155119
v 0.157080 -0.029734 -0.155119
v 0.079709 -0.019226 -0.155119
v 0.079698 -0.019372 0.155119
v 0.157068 -0.029880 0.155119
v 0.234439 -0.030199 0.155120
v 0.234439 -0.030213 -0.155119
v 0.157068 -0.029894 -0.155119
v 0.079698 -0.019386 -0.155119
v -0.234634 0.005110 0.155119
v -0.157074 0.005110 0.155119
v -0.079514 0.001570 0.155119
v -0.079514 0.001570 -0.155120
v -0.157074 0.005110 -0.155120
v -0.234634 0.005110 -0.155120
v -0.234634 0.004950 0.155119
v -0.157074 0.004950 0.155119
v -0.079514 0.001410 0.155119
v -0.079514 0.001410 -0.155120
v -0.157074 0.004950 -0.155120
v -0.234634 0.004950 -0.155120
v 0.023714 -0.005798 -0.155119
v 0.023703 -0.005958 -0.155119
v 0.023714 -0.005784 0.155119
v 0.023703 -0.005944 0.155119
v -0.025714 0.001897 0.155119
v -0.025714 0.001737 0.155119
v -0.025714 0.001897 -0.155120
v -0.025714 0.001737 -0.155120
v -0.288779 -0.028956 0.155119
v -0.002116 0.005956 0.155119
v -0.288779 -0.028956 -0.155120
v -0.002116 0.005956 -0.155120
v -0.288807 -0.029114 0.155119
v -0.002053 0.005809 0.155119
v -0.288807 -0.029114 -0.155120
v -0.002053 0.005809 -0.155120
v -0.212611 -0.043631 0.155119
v -0.134712 -0.045310 0.155119
v -0.067678 -0.033514 0.155119
v -0.067678 -0.033514 -0.155120
v -0.134712 -0.045310 -0.155120
v -0.212611 -0.043631 -0.155120
v -0.212639 -0.043788 0.155119
v -0.134724 -0.045470 0.155119
v -0.067615 -0.033661 0.155119
v -0.067615 -0.033661 -0.155120
v -0.134724 -0.045470 -0.155120
v -0.212639 -0.043788 -0.155120
v -0.022295 -0.007326 0.155119
v -0.022233 -0.007473 0.155119
v -0.022295 -0.007326 -0.155120
v -0.022233 -0.007473 -0.155120
vn 0.1810 -0.9835 -0.0000
vn -0.1810 0.9835 -0.0000
vn 1.0000 -0.0000 -0.0000
vn -0.0000 -0.0000 1.0000
vn -0.0000 -0.0000 -1.0000
vn -1.0000 -0.0000 -0.0000
vn 0.1670 -0.9859 -0.0000
vn -0.1670 0.9859 -0.0000
vn 0.9976 -0.0698 -0.0000
vn -0.9976 0.0698 -0.0000
vn -0.3413 -0.9400 -0.0000
vn 0.2332 0.9724 -0.0000
vn 0.1346 0.9909 -0.0000
vn 0.0041 1.0000 -0.0000
vn -0.2332 -0.9724 -0.0000
vn -0.1346 -0.9909 -0.0000
vn -0.0041 -1.0000 -0.0000
vn 0.0150 0.9999 -0.0000
vn -0.0000 1.0000 -0.0000
vn 0.0456 0.9990 -0.0000
vn -0.0150 -0.9999 -0.0000
vn -0.0000 -1.0000 -0.0000
vn -0.0456 -0.9990 -0.0000
vn -0.4411 -0.8974 -0.0000
vn 0.4411 0.8974 -0.0000
vn -0.0061 1.0000 -0.0000
vn 0.0061 -1.0000 -0.0000
vn -0.5498 0.8353 -0.0000
vn 0.9847 -0.1742 -0.0000
vn -0.9210 -0.3895 -0.0000
vn -0.0000 0.0001 1.0000
vn 0.1892 0.9819 -0.0000
vn 0.0216 0.9998 -0.0000
vn -0.1733 0.9849 -0.0000
vn -0.0000 0.0001 -1.0000
vn -0.4998 0.8661 -0.0000
vt 0.679822 0.083273
vt 0.679822 0.281542
vt 0.697185 0.281542
vt 0.697185 0.083273
vt 0.258115 0.086318
vt 0.236246 0.086598
vt 0.241896 0.285193
vt 0.257770 0.285703
vt 0.183921 0.998705
vt 0.183921 0.750350
vt 0.246010 0.998706
vt 0.246009 0.998703
vt 0.413255 0.750350
vt 0.432275 0.750350
vt 0.413256 0.750351
vt 0.432275 0.998705
vt 0.399003 0.498244
vt 0.399001 0.742934
vt 0.468599 0.743422
vt 0.468599 0.499031
vt 0.294833 0.291496
vt 0.237292 0.292886
vt 0.239389 0.491589
vt 0.293481 0.490869
vt 0.195272 0.998704
vt 0.195273 0.998706
vt 0.371227 0.750351
vt 0.371225 0.750352
vt 0.464647 0.489346
vt 0.462375 0.489700
vt 0.463018 0.290248
vt 0.464368 0.290532
vt 0.195272 0.750350
vt 0.247044 0.750351
vt 0.247046 0.750356
vt 0.195273 0.750352
vt 0.309134 0.750351
vt 0.309133 0.750351
vt 0.371225 0.998709
vt 0.371221 0.998702
vt 0.309134 0.998709
vt 0.309131 0.998706
vt 0.247042 0.998705
vt 0.247046 0.998711
vt 0.454842 0.290236
vt 0.407760 0.289738
vt 0.405293 0.492834
vt 0.451908 0.492059
vt 0.351296 0.290371
vt 0.349388 0.492276
vt 0.198411 0.497249
vt 0.198410 0.743516
vt 0.257429 0.743380
vt 0.257431 0.497470
vt 0.328215 0.742153
vt 0.328215 0.497519
vt 0.246010 0.750351
vt 0.246009 0.750353
vt 0.308098 0.750351
vt 0.308098 0.750353
vt 0.370186 0.750351
vt 0.370187 0.750353
vt 0.413255 0.998706
vt 0.370186 0.998707
vt 0.370187 0.998703
vt 0.413256 0.998704
vt 0.308098 0.998702
vt 0.308098 0.998702
vt 0.463906 0.082717
vt 0.407083 0.081866
vt 0.406304 0.285344
vt 0.465721 0.281636
vt 0.352054 0.084262
vt 0.350916 0.284706
vt 0.296779 0.086058
vt 0.296216 0.284721
vt 0.470473 0.083273
vt 0.470473 0.281542
vt 0.527151 0.281543
vt 0.527151 0.083273
vt 0.583829 0.281540
vt 0.583829 0.083273
vt 0.640506 0.281543
vt 0.640506 0.083273
vt 0.184074 0.497249
vt 0.184883 0.743516
vt 0.463897 0.290345
vt 0.462324 0.490989
vt 0.486592 0.290688
vt 0.468036 0.290963
vt 0.466887 0.489960
vt 0.485479 0.490750
vt 0.697824 0.293428
vt 0.638943 0.292595
vt 0.638143 0.491534
vt 0.697140 0.490866
vt 0.582384 0.292071
vt 0.581468 0.490569
vt 0.525825 0.290915
vt 0.524792 0.490541
s 0
usemtl tex_Flyer_Collection_70s
f 45/1/1 47/2/1 4/3/1 2/4/1
f 46/5/2 6/6/2 8/7/2 48/8/2
f 3/9/3 1/10/3 5/10/3 7/9/3
f 34/11/4 3/9/4 7/9/4 40/12/4
f 45/13/5 2/14/5 6/14/5 46/15/5
f 2/14/6 4/16/6 8/16/6 6/14/6
f 19/17/7 20/18/7 12/19/7 10/20/7
f 25/21/8 14/22/8 16/23/8 26/24/8
f 11/9/9 9/10/9 13/10/9 15/9/9
f 41/25/4 11/9/4 15/9/4 42/26/4
f 19/27/5 10/14/5 14/14/5 25/28/5
f 10/14/10 12/16/10 16/16/10 14/14/10
f 8/29/11 15/30/11 13/31/11 6/32/11
f 43/33/5 17/34/5 23/35/5 44/36/5
f 17/34/5 18/37/5 24/38/5 23/35/5
f 18/37/5 19/27/5 25/28/5 24/38/5
f 12/16/4 20/39/4 26/40/4 16/16/4
f 20/39/4 21/41/4 27/42/4 26/40/4
f 21/41/4 22/43/4 28/44/4 27/42/4
f 44/45/12 23/46/12 28/47/12 42/48/12
f 23/46/13 24/49/13 27/50/13 28/47/13
f 24/49/14 25/21/14 26/24/14 27/50/14
f 43/51/15 41/52/15 22/53/15 17/54/15
f 17/54/16 22/53/16 21/55/16 18/56/16
f 18/56/17 21/55/17 20/18/17 19/17/17
f 1/10/5 29/57/5 35/58/5 5/10/5
f 29/57/5 30/59/5 36/60/5 35/58/5
f 30/59/5 31/61/5 37/62/5 36/60/5
f 47/63/4 32/64/4 38/65/4 48/66/4
f 32/64/4 33/67/4 39/68/4 38/65/4
f 33/67/4 34/11/4 40/12/4 39/68/4
f 5/69/18 35/70/18 40/71/18 7/72/18
f 35/70/19 36/73/19 39/74/19 40/71/19
f 36/73/20 37/75/20 38/76/20 39/74/20
f 1/77/21 3/78/21 34/79/21 29/80/21
f 29/80/22 34/79/22 33/81/22 30/82/22
f 30/82/23 33/81/23 32/83/23 31/84/23
f 9/85/24 11/86/24 41/52/24 43/51/24
f 13/87/25 44/45/25 42/48/25 15/88/25
f 9/10/5 43/33/5 44/36/5 13/10/5
f 22/43/4 41/25/4 42/26/4 28/44/4
f 4/16/4 47/63/4 48/66/4 8/16/4
f 31/61/5 45/13/5 46/15/5 37/62/5
f 37/75/26 46/5/26 48/8/26 38/76/26
f 31/84/27 32/83/27 47/2/27 45/1/27
f 70/89/28 54/90/28 56/91/28 72/92/28
f 51/9/29 49/10/29 53/10/29 55/9/29
f 62/11/4 51/9/4 55/9/4 68/12/4
f 69/13/5 50/14/5 54/14/5 70/15/5
f 50/14/30 52/16/30 56/16/30 54/14/30
f 49/10/5 57/57/5 63/58/5 53/10/5
f 57/57/5 58/59/5 64/60/5 63/58/5
f 58/59/5 59/61/5 65/62/5 64/60/5
f 71/63/31 60/64/31 66/65/31 72/66/31
f 60/64/4 61/67/4 67/68/4 66/65/4
f 61/67/4 62/11/4 68/12/4 67/68/4
f 53/93/32 63/94/32 68/95/32 55/96/32
f 63/94/33 64/97/33 67/98/33 68/95/33
f 64/97/34 65/99/34 66/100/34 67/98/34
f 52/16/4 71/63/4 72/66/4 56/16/4
f 59/61/35 69/13/35 70/15/35 65/62/35
f 65/99/36 70/89/36 72/92/36 66/100/36
