# Blender 4.4.0
# www.blender.org
mtllib obj_Booklet_Ferienhelfer_70s.mtl
o obj_Booklet_Ferienhelfer_70s
v 0.070621 -0.001094 0.058817
v 0.070621 -0.003766 0.058817
v -0.070621 -0.001094 0.058817
v -0.070621 -0.003766 0.058817
v 0.070621 0.003766 0.058817
v 0.070621 0.001095 0.058817
v -0.070621 0.003766 0.058817
v -0.070621 0.001095 0.058817
v 0.070621 0.000599 0.059044
v 0.070621 -0.000599 0.059044
v -0.070621 -0.000599 0.059044
v -0.070621 0.000599 0.059044
v -0.070621 -0.001741 0.060721
v -0.070621 0.001741 0.060721
v 0.070621 -0.001741 0.060721
v 0.070621 0.001741 0.060721
v 0.066586 -0.000461 -0.040881
v 0.070621 -0.000312 -0.037829
v 0.069439 -0.000345 -0.039987
v 0.066586 -0.001664 -0.040881
v 0.070621 -0.001898 -0.037832
v 0.069439 -0.001805 -0.039988
v -0.066586 -0.000461 -0.040881
v -0.070621 -0.000312 -0.037829
v -0.069439 -0.000345 -0.039987
v -0.066586 -0.001664 -0.040881
v -0.070621 -0.001898 -0.037832
v -0.069439 -0.001805 -0.039988
v 0.066586 0.001664 -0.040881
v 0.070621 0.001898 -0.037832
v 0.069439 0.001805 -0.039988
v 0.066586 0.000461 -0.040881
v 0.070621 0.000312 -0.037829
v 0.069439 0.000345 -0.039987
v -0.066586 0.001664 -0.040881
v -0.070621 0.001898 -0.037832
v -0.069439 0.001805 -0.039988
v -0.066586 0.000461 -0.040881
v -0.070621 0.000312 -0.037829
v -0.069439 0.000345 -0.039987
v -0.064385 0.000288 0.058905
v 0.064385 0.000288 0.058905
v -0.064385 0.000288 -0.036570
v 0.064385 0.000288 -0.036570
v -0.064385 0.000488 0.058905
v 0.064385 0.000488 0.058905
v -0.064385 0.000488 -0.036570
v 0.064385 0.000488 -0.036570
v -0.064385 0.000536 0.058905
v 0.064385 0.000536 0.058905
v -0.064385 0.000536 -0.036570
v 0.064385 0.000536 -0.036570
v -0.064385 0.000729 0.058905
v 0.064385 0.000729 0.058905
v -0.064385 0.000729 -0.036570
v 0.064385 0.000729 -0.036570
v -0.064385 0.000426 0.058905
v 0.064385 0.000426 0.058905
v -0.064385 0.000426 -0.036570
v 0.064385 0.000426 -0.036570
v -0.064385 0.000349 0.058905
v 0.064385 0.000349 0.058905
v -0.064385 0.000349 -0.036570
v 0.064385 0.000349 -0.036570
v -0.064385 -0.000955 0.058905
v 0.064385 -0.000955 0.058905
v -0.064385 -0.000955 -0.036570
v 0.064385 -0.000955 -0.036570
v -0.064385 0.000268 0.058905
v 0.064385 0.000268 0.058905
v -0.064385 0.000268 -0.036570
v 0.064385 0.000268 -0.036570
vn -0.0000 -0.0000 -1.0000
vn -1.0000 -0.0000 -0.0000
vn -0.0000 0.9998 -0.0193
vn -0.0000 -0.9998 -0.0193
vn 1.0000 -0.0000 -0.0000
vn -0.0000 -0.4159 -0.9094
vn -0.0000 -1.0000 0.0081
vn -0.0000 0.6849 0.7286
vn -0.0000 0.4159 -0.9094
vn -0.0000 -0.0000 1.0000
vn -0.0000 -0.6849 0.7286
vn 0.2988 0.0003 -0.9543
vn 0.8770 0.0006 -0.4805
vn -0.2988 0.0003 -0.9543
vn -0.8770 0.0006 -0.4805
vn -0.0000 0.9999 -0.0156
vn -0.0000 0.9917 -0.1289
vn -0.0000 -0.9991 -0.0430
vn -0.0000 -0.9878 -0.1556
vn 0.2988 -0.0003 -0.9543
vn 0.8770 -0.0006 -0.4805
vn -0.2988 -0.0003 -0.9543
vn -0.8770 -0.0006 -0.4805
vn -0.0000 0.9991 -0.0430
vn -0.0000 0.9878 -0.1556
vn -0.0000 -0.9999 -0.0156
vn -0.0000 -0.9917 -0.1289
vn -0.0000 1.0000 0.0081
vn -0.0000 -1.0000 -0.0000
vn -0.0000 1.0000 -0.0000
vt 0.180718 0.738069
vt 0.180718 0.505439
vt 0.006561 0.745118
vt 0.003236 0.745118
vt 0.006166 0.745118
vt 0.006561 0.498390
vt 0.175392 0.745118
vt 0.175392 0.498390
vt 0.175387 0.498390
vt 0.175387 0.745118
vt 0.006166 0.498390
vt 0.020485 0.746144
vt 0.020485 0.496807
vt 0.016910 0.496807
vt 0.016911 0.746144
vt 0.003236 0.498390
vt 0.010764 0.496807
vt 0.010764 0.746144
vt 0.007189 0.496807
vt 0.007189 0.746144
vt 0.179158 0.500455
vt 0.179156 0.500455
vt 0.179156 0.743053
vt 0.179158 0.743053
vt 0.179156 0.500455
vt 0.179156 0.743053
vt 0.006408 0.734224
vt 0.006408 0.509283
vt 0.173187 0.509283
vt 0.173187 0.734224
s 0
usemtl tex_Flyer_Collection_70s
f 23/1/1 17/2/1 20/2/1 26/1/1
f 8/3/2 12/5/2 14/4/2 7/3/2
f 5/6/3 30/8/3 36/7/3 7/3/3
f 4/3/4 27/7/4 21/8/4 2/6/4
f 18/9/5 1/6/5 2/6/5 21/8/5
f 3/3/2 24/10/2 27/7/2 4/3/2
f 35/1/1 29/2/1 32/2/1 38/1/1
f 6/6/6 9/11/6 12/5/6 8/3/6
f 8/3/7 39/10/7 33/9/7 6/6/7
f 30/8/5 5/6/5 6/6/5 33/9/5
f 7/3/2 36/7/2 39/10/2 8/3/2
f 7/12/8 14/15/8 16/14/8 5/13/8
f 5/6/5 16/16/5 9/11/5 6/6/5
f 9/11/1 10/11/1 11/5/1 12/5/1
f 10/11/9 1/6/9 3/3/9 11/5/9
f 12/5/2 11/5/2 13/4/2 14/4/2
f 11/5/2 3/3/2 4/3/2 13/4/2
f 14/15/10 13/18/10 15/17/10 16/14/10
f 13/18/11 4/20/11 2/19/11 15/17/11
f 16/16/5 15/16/5 10/11/5 9/11/5
f 15/16/5 2/6/5 1/6/5 10/11/5
f 17/2/12 19/22/12 22/21/12 20/2/12
f 19/22/13 18/9/13 21/8/13 22/21/13
f 26/1/14 28/24/14 25/23/14 23/1/14
f 28/24/15 27/7/15 24/10/15 25/23/15
f 18/9/16 19/22/16 25/23/16 24/10/16
f 19/22/17 17/2/17 23/1/17 25/23/17
f 27/7/18 28/24/18 22/21/18 21/8/18
f 28/24/19 26/1/19 20/2/19 22/21/19
f 29/2/20 31/21/20 34/25/20 32/2/20
f 31/21/21 30/8/21 33/9/21 34/25/21
f 38/1/22 40/26/22 37/24/22 35/1/22
f 40/26/23 39/10/23 36/7/23 37/24/23
f 30/8/24 31/21/24 37/24/24 36/7/24
f 31/21/25 29/2/25 35/1/25 37/24/25
f 39/10/26 40/26/26 34/25/26 33/9/26
f 40/26/27 38/1/27 32/2/27 34/25/27
f 1/6/28 18/9/28 24/10/28 3/3/28
f 41/27/29 43/30/29 44/29/29 42/28/29
f 45/27/29 47/30/29 48/29/29 46/28/29
f 57/27/29 59/30/29 60/29/29 58/28/29
f 61/27/29 63/30/29 64/29/29 62/28/29
usemtl writingonpaper
f 49/27/30 50/28/30 52/29/30 51/30/30
f 53/27/29 55/30/29 56/29/29 54/28/29
f 52/29/10 56/29/10 55/30/10 51/30/10
f 49/27/1 53/27/1 54/28/1 50/28/1
f 50/28/2 54/28/2 56/29/2 52/29/2
f 51/30/5 55/30/5 53/27/5 49/27/5
f 65/27/30 66/28/30 68/29/30 67/30/30
f 69/27/29 71/30/29 72/29/29 70/28/29
f 68/29/10 72/29/10 71/30/10 67/30/10
f 65/27/1 69/27/1 70/28/1 66/28/1
f 66/28/2 70/28/2 72/29/2 68/29/2
f 67/30/5 71/30/5 69/27/5 65/27/5
