# Blender 4.4.0
# www.blender.org
mtllib obj_Calender_Solidarit_tskommitteederDDR_1989.mtl
o obj_Calender_SolidaritätskommitteederDDR_1989
v -0.045024 0.000000 0.065203
v 0.045242 -0.000000 0.065243
v -0.045557 0.000000 -0.065628
v 0.045177 -0.000000 -0.065431
v -0.046364 0.000000 -0.063122
v -0.046364 0.000000 0.063122
v 0.046366 -0.000000 0.063122
v 0.046366 -0.000000 -0.063122
v -0.042983 0.000000 0.066646
v 0.042986 -0.000000 0.066646
v 0.042986 -0.000000 -0.066646
v -0.042983 0.000000 -0.066646
v 0.042986 -0.000000 0.063122
v -0.042983 0.000000 0.063122
v 0.042986 -0.000000 -0.063122
v -0.042983 0.000000 -0.063122
v -0.045024 -0.000925 0.065203
v 0.045242 -0.000925 0.065243
v -0.045557 -0.000925 -0.065628
v 0.045177 -0.000925 -0.065431
v -0.046364 -0.000925 -0.063122
v -0.046364 -0.000925 0.063122
v 0.046366 -0.000925 0.063122
v 0.046366 -0.000925 -0.063122
v -0.042983 -0.000925 0.066646
v 0.042986 -0.000925 0.066646
v 0.042986 -0.000925 -0.066646
v -0.042983 -0.000925 -0.066646
v 0.042986 -0.000925 0.063122
v -0.042983 -0.000925 0.063122
v 0.042986 -0.000925 -0.063122
v -0.042983 -0.000925 -0.063122
vn -0.0000 -1.0000 -0.0000
vn -0.0000 1.0000 -0.0000
vn -0.4846 -0.0000 0.8747
vn -0.8890 -0.0000 0.4579
vn -0.8835 -0.0000 -0.4684
vn -0.0000 -0.0000 1.0000
vn 0.3677 -0.0000 0.9300
vn 0.5774 -0.0000 -0.8165
vn 0.8406 -0.0000 -0.5416
vn -1.0000 -0.0000 -0.0000
vn 0.9518 -0.0000 0.3067
vn -0.0000 -0.0000 -1.0000
vn -0.5278 -0.0000 -0.8494
vn 1.0000 -0.0000 -0.0000
vt 0.199049 0.301128
vt 0.199049 0.309178
vt 0.203794 0.306404
vt 0.206370 0.301128
vt 0.199049 0.004627
vt 0.199049 0.012678
vt 0.206370 0.012678
vt 0.203935 0.007831
vt 0.005578 0.012678
vt 0.005578 0.301128
vt 0.012899 0.301128
vt 0.012899 0.012678
vt 0.008481 0.007924
vt 0.012899 0.004627
vt 0.007327 0.306854
vt 0.012899 0.309178
vt 0.409123 0.300214
vt 0.416303 0.300214
vt 0.413777 0.305465
vt 0.409123 0.308226
vt 0.407952 0.005138
vt 0.412743 0.008326
vt 0.415131 0.013149
vt 0.407952 0.013149
vt 0.219376 0.013149
vt 0.226555 0.013149
vt 0.226555 0.300214
vt 0.219376 0.300214
vt 0.222223 0.008418
vt 0.226555 0.005138
vt 0.226555 0.308226
vt 0.221091 0.305912
s 0
usemtl tex_Book-Calendar_Collection_80s
f 15/1/1 11/2/1 4/3/1 8/4/1
f 10/5/1 13/6/1 7/7/1 2/8/1
f 13/6/1 15/1/1 8/4/1 7/7/1
f 6/9/1 5/10/1 16/11/1 14/12/1
f 14/12/1 16/11/1 15/1/1 13/6/1
f 1/13/1 6/9/1 14/12/1 9/14/1
f 9/14/1 14/12/1 13/6/1 10/5/1
f 5/10/1 3/15/1 12/16/1 16/11/1
f 16/11/1 12/16/1 11/2/1 15/1/1
f 31/17/2 24/18/2 20/19/2 27/20/2
f 26/21/2 18/22/2 23/23/2 29/24/2
f 29/24/2 23/23/2 24/18/2 31/17/2
f 22/25/2 30/26/2 32/27/2 21/28/2
f 30/26/2 29/24/2 31/17/2 32/27/2
f 17/29/2 25/30/2 30/26/2 22/25/2
f 25/30/2 26/21/2 29/24/2 30/26/2
f 21/28/2 32/27/2 28/31/2 19/32/2
f 32/27/2 31/17/2 27/20/2 28/31/2
f 4/3/3 11/2/3 27/2/3 20/3/3
f 8/4/4 4/3/4 20/3/4 24/4/4
f 2/8/5 7/7/5 23/7/5 18/8/5
f 11/2/6 12/16/6 28/16/6 27/2/6
f 12/16/7 3/15/7 19/15/7 28/16/7
f 1/13/8 9/14/8 25/14/8 17/13/8
f 6/9/9 1/13/9 17/13/9 22/9/9
f 7/7/10 8/4/10 24/4/10 23/7/10
f 3/15/11 5/10/11 21/10/11 19/15/11
f 9/14/12 10/5/12 26/5/12 25/14/12
f 10/5/13 2/8/13 18/8/13 26/5/13
f 5/10/14 6/9/14 22/9/14 21/10/14
