# Blender 4.4.0
# www.blender.org
mtllib obj_Book_Pionierkalender-1980_closed.mtl
o obj_Book_Pionierkalender-1980_closed
v 0.147994 -0.003819 0.121951
v 0.147994 -0.009978 0.127561
v -0.147994 -0.003820 0.121951
v -0.147994 -0.009978 0.127561
v 0.147994 0.026409 0.127561
v 0.147994 0.020252 0.121951
v -0.147994 0.026409 0.127561
v -0.147994 0.020252 0.121951
v 0.147994 0.018271 0.124633
v 0.147994 -0.001841 0.124633
v -0.147994 -0.001840 0.124633
v -0.147994 0.018272 0.124633
v -0.147994 -0.004853 0.130301
v -0.147994 0.021285 0.130301
v 0.147994 -0.004854 0.130301
v 0.147994 0.021284 0.130301
v 0.139538 -0.005699 -0.085670
v 0.147994 -0.005229 -0.079275
v 0.145517 -0.005335 -0.083797
v 0.139538 -0.009467 -0.085670
v 0.147994 -0.010198 -0.079281
v 0.145517 -0.009908 -0.083799
v -0.139538 -0.005699 -0.085670
v -0.147994 -0.005229 -0.079275
v -0.145517 -0.005335 -0.083797
v -0.139538 -0.009467 -0.085670
v -0.147994 -0.010198 -0.079281
v -0.145517 -0.009908 -0.083799
v 0.139538 0.024013 -0.085670
v 0.147994 0.024744 -0.079281
v 0.145517 0.024453 -0.083799
v 0.139538 0.020244 -0.085670
v 0.147994 0.019775 -0.079275
v 0.145517 0.019881 -0.083797
v -0.139538 0.024013 -0.085670
v -0.147994 0.024744 -0.079281
v -0.145517 0.024453 -0.083799
v -0.139538 0.020244 -0.085670
v -0.147994 0.019775 -0.079275
v -0.145517 0.019881 -0.083797
v 0.000000 -0.003820 0.121951
v -0.000000 -0.009978 0.127561
v 0.000000 0.026409 0.127561
v 0.000000 0.020252 0.121951
v -0.000000 0.018271 0.124633
v 0.000000 -0.001841 0.124633
v 0.000000 0.021285 0.130301
v -0.000000 -0.004853 0.130301
v -0.000000 -0.005229 -0.079275
v -0.000000 -0.005335 -0.083797
v -0.000000 -0.005699 -0.085670
v -0.000000 -0.010198 -0.079281
v -0.000000 -0.009908 -0.083799
v -0.000000 -0.009467 -0.085670
v -0.000000 0.024744 -0.079281
v -0.000000 0.024453 -0.083799
v -0.000000 0.024013 -0.085670
v -0.000000 0.019775 -0.079275
v -0.000000 0.019881 -0.083797
v -0.000000 0.020244 -0.085670
v 0.147994 -0.003718 0.095379
v -0.147994 -0.003718 0.095379
v 0.147994 -0.010192 0.095379
v -0.147994 -0.010192 0.095379
v 0.000000 -0.003718 0.095379
v -0.000000 -0.010192 0.095379
v 0.147994 0.026623 0.095379
v -0.147994 0.026623 0.095379
v 0.147994 0.020150 0.095379
v -0.147994 0.020150 0.095379
v -0.000000 0.020150 0.095379
v -0.000000 0.026623 0.095379
v 0.147994 0.009171 0.125808
v -0.147994 0.009171 0.125808
v -0.147994 0.009171 0.132082
v 0.147994 0.009171 0.132082
v -0.000000 0.009171 0.132082
v -0.000000 0.009171 0.125808
v -0.147994 0.014959 0.125616
v -0.147994 0.015495 0.131622
v 0.147994 0.015495 0.131622
v 0.147994 0.014959 0.125616
v 0.000000 0.015495 0.131622
v -0.000000 0.014959 0.125616
v 0.147994 0.002430 0.125615
v 0.000000 0.001892 0.131622
v -0.000000 0.002428 0.125616
v -0.147994 0.002426 0.125616
v -0.147994 0.001890 0.131622
v 0.147994 0.001894 0.131621
v 0.143844 -0.003819 0.121417
v -0.143844 -0.003820 0.121417
v 0.143844 0.020252 0.121417
v -0.143844 0.020252 0.121417
v 0.143844 0.018271 0.124007
v 0.143844 -0.001841 0.124007
v -0.143844 -0.001840 0.124007
v -0.143844 0.018272 0.124007
v -0.000000 -0.003820 0.121417
v -0.000000 0.020252 0.121417
v -0.000000 0.018271 0.124007
v 0.000000 -0.001841 0.124007
v 0.143844 0.008635 0.125125
v -0.143844 0.008648 0.125125
v 0.000000 0.008582 0.125125
v -0.143844 0.014959 0.124956
v 0.143844 0.014959 0.124956
v -0.000000 0.014959 0.124956
v 0.143844 0.002430 0.124956
v -0.000000 0.002428 0.124956
v -0.143844 0.002426 0.124957
v -0.000000 -0.004491 -0.075422
v 0.143844 -0.004490 -0.075422
v -0.000000 0.019581 -0.075422
v -0.143844 0.019581 -0.075422
v 0.143844 -0.002512 -0.072832
v -0.143844 0.017601 -0.072832
v 0.143844 0.019581 -0.075422
v 0.143844 0.017600 -0.072833
v 0.143844 0.001759 -0.071884
v -0.143844 -0.004491 -0.075422
v -0.143844 -0.002511 -0.072832
v -0.143844 0.014288 -0.071883
v -0.000000 0.017600 -0.072832
v -0.000000 -0.002512 -0.072832
v -0.000000 0.001757 -0.071883
v 0.143844 0.014288 -0.071883
v 0.143844 0.008500 -0.071698
v -0.143844 0.001755 -0.071883
v -0.143844 0.008500 -0.071698
v -0.000000 0.014288 -0.071883
v -0.000000 0.008500 -0.071698
v -0.143844 0.008500 0.125125
v 0.143844 0.008514 0.125125
v 0.000000 0.008567 0.125125
v -0.143844 0.007306 -0.071730
v 0.143844 0.007307 -0.071731
v -0.000000 0.007306 -0.071730
vn -0.0000 -0.0000 1.0000
vn 1.0000 -0.0000 -0.0000
vn -0.0000 -0.9999 0.0108
vn -0.0000 1.0000 -0.0000
vn -1.0000 -0.0000 -0.0000
vn -0.0000 0.8045 0.5940
vn -0.0000 1.0000 -0.0021
vn -0.0000 -0.4715 -0.8819
vn -0.0000 -0.2245 0.9745
vn -0.0000 -0.8046 0.5938
vn -0.0000 0.1921 -0.9814
vn -0.0000 0.4715 -0.8819
vn -0.2988 -0.0002 0.9543
vn -0.8770 -0.0004 0.4805
vn 0.2988 -0.0002 0.9543
vn 0.8770 -0.0004 0.4805
vn -0.0000 -0.9997 0.0233
vn -0.0000 -0.9816 0.1907
vn -0.0000 0.9979 0.0642
vn -0.0000 0.9734 0.2292
vn -0.2988 0.0002 0.9543
vn -0.8770 0.0004 0.4805
vn 0.2988 0.0002 0.9543
vn 0.8770 0.0004 0.4805
vn -0.0000 -0.9979 0.0642
vn -0.0000 -0.9734 0.2292
vn -0.0000 0.9997 0.0233
vn -0.0000 0.9816 0.1907
vn -0.0000 -1.0000 0.0087
vn -0.0000 0.1922 -0.9813
vn -0.0000 -0.8047 0.5937
vn -0.0000 -0.2243 0.9745
vn -0.0000 -0.4715 -0.8818
vn -0.0000 0.8044 0.5941
vn -0.0000 1.0000 -0.0066
vn -0.0000 -1.0000 -0.0038
vn -0.0000 -1.0000 -0.0066
vn -0.0000 1.0000 -0.0038
vn -0.0000 0.0332 0.9994
vn -0.0000 -0.0727 -0.9974
vn -0.0000 0.2844 0.9587
vn -0.0000 -0.2224 -0.9749
vn -0.0000 -0.2224 -0.9750
vn -0.0000 0.2845 0.9587
vn -0.0000 -0.0285 0.9996
vn -0.0000 0.0631 -0.9980
vn -0.0000 0.0632 -0.9980
vn -0.0000 -0.7944 -0.6074
vn -0.0000 0.2172 -0.9761
vn -0.0000 0.7945 -0.6072
vn -0.0000 0.7946 -0.6071
vn -0.0000 0.2169 -0.9762
vn -0.0000 -0.7943 -0.6075
vn -0.0000 -0.0266 -0.9996
vn -0.0000 -0.0267 -0.9996
vn -0.0000 -0.2754 -0.9613
vn -0.0000 -0.2755 -0.9613
vn -0.0000 0.0277 -0.9996
vn -0.0000 0.7944 0.6074
vn -0.0000 -0.2172 0.9761
vn -0.0000 -0.7945 0.6072
vn -0.0000 -0.7946 0.6071
vn -0.0000 -0.2169 0.9762
vn -0.0000 0.7943 0.6075
vn -0.0000 0.0321 0.9995
vn -0.0000 0.2754 0.9613
vn -0.0000 0.2755 0.9613
vn -0.0000 -0.0276 0.9996
vn -0.0000 -0.0275 0.9996
vn -0.0000 1.0000 -0.0034
vn -0.0000 -1.0000 0.0034
vn -0.0000 -1.0000 0.0061
vn -0.0000 1.0000 -0.0007
vn -0.0000 -0.0000 -1.0000
vt 0.340626 0.322387
vt 0.340626 0.316272
vt 0.256071 0.316272
vt 0.256071 0.322387
vt 0.297563 0.336540
vt 0.293927 0.340324
vt 0.292151 0.337175
vt 0.295825 0.335323
vt 0.632994 0.490388
vt 0.632899 0.318554
vt 0.464315 0.318680
vt 0.461704 0.490515
vt 0.264828 0.486825
vt 0.264731 0.662125
vt 0.438323 0.661498
vt 0.441150 0.486955
vt 0.314784 0.321808
vt 0.314784 0.317830
vt 0.293927 0.317961
vt 0.297563 0.321746
vt 0.314784 0.321808
vt 0.314784 0.317830
vt 0.427977 0.317826
vt 0.427973 0.320880
vt 0.339524 0.338246
vt 0.339524 0.332130
vt 0.254969 0.332130
vt 0.254969 0.338246
vt 0.390912 0.316539
vt 0.408576 0.316539
vt 0.408576 0.316219
vt 0.390912 0.316219
vt 0.390912 0.319711
vt 0.373249 0.319711
vt 0.373249 0.340556
vt 0.390912 0.340556
vt 0.314784 0.340456
vt 0.314784 0.336477
vt 0.314784 0.340456
vt 0.314784 0.336477
vt 0.427973 0.336247
vt 0.427977 0.339301
vt 0.359246 0.336206
vt 0.441964 0.336206
vt 0.441964 0.333341
vt 0.359246 0.333342
vt 0.295825 0.335322
vt 0.292152 0.337174
vt 0.390912 0.316102
vt 0.408576 0.316102
vt 0.408576 0.316540
vt 0.295187 0.325585
vt 0.291295 0.325255
vt 0.292152 0.321111
vt 0.295825 0.322963
vt 0.297563 0.321746
vt 0.359246 0.322502
vt 0.441964 0.322504
vt 0.441964 0.318732
vt 0.359246 0.318732
vt 0.441964 0.315868
vt 0.359246 0.315868
vt 0.291296 0.325257
vt 0.295188 0.325587
vt 0.295825 0.322962
vt 0.292151 0.321110
vt 0.432118 0.320591
vt 0.432118 0.318275
vt 0.430905 0.318005
vt 0.430904 0.320815
vt 0.430905 0.318005
vt 0.408576 0.340556
vt 0.408280 0.341096
vt 0.390912 0.341096
vt 0.407567 0.341320
vt 0.390912 0.341320
vt 0.444258 0.657661
vt 0.445623 0.486959
vt 0.446732 0.648387
vt 0.447484 0.486961
vt 0.432118 0.338852
vt 0.432118 0.336536
vt 0.430904 0.336312
vt 0.430905 0.339122
vt 0.432118 0.336536
vt 0.432118 0.338852
vt 0.430904 0.336312
vt 0.459937 0.321559
vt 0.457324 0.490518
vt 0.458135 0.328502
vt 0.455518 0.490519
vt 0.373545 0.341096
vt 0.374258 0.341320
vt 0.408576 0.319711
vt 0.458210 0.659632
vt 0.456400 0.652690
vt 0.462591 0.662505
vt 0.445728 0.319716
vt 0.447585 0.326711
vt 0.441257 0.316816
vt 0.276528 0.318733
vt 0.276528 0.315868
vt 0.276528 0.322501
vt 0.023505 0.289272
vt 0.023531 0.244966
vt 0.024233 0.244966
vt 0.024206 0.289272
vt 0.023273 0.289274
vt 0.023299 0.244967
vt 0.276528 0.336206
vt 0.276528 0.333342
vt 0.088545 0.195059
vt 0.065509 0.195059
vt 0.034795 0.195059
vt 0.042474 0.195059
vt 0.424079 0.338246
vt 0.424079 0.332130
vt 0.264925 0.313741
vt 0.633089 0.662223
vt 0.425180 0.322387
vt 0.425180 0.316272
vt 0.241373 0.316842
vt 0.238640 0.486802
vt 0.012908 0.994281
vt 0.013050 0.753857
vt 0.051508 0.753884
vt 0.051366 0.994309
vt 0.239628 0.658181
vt 0.664347 0.662199
vt 0.664252 0.490364
vt 0.088545 0.217390
vt 0.065509 0.217390
vt 0.664157 0.318530
vt 0.030956 0.195059
vt 0.027117 0.195059
vt 0.019438 0.195059
vt 0.019438 0.195059
vt 0.276528 0.330106
vt 0.359246 0.330106
vt 0.359246 0.326571
vt 0.276528 0.326571
vt 0.291295 0.333617
vt 0.295188 0.333287
vt 0.295063 0.329730
vt 0.290997 0.329730
vt 0.441964 0.330106
vt 0.441964 0.326571
vt 0.291296 0.333617
vt 0.290997 0.329730
vt 0.295063 0.329730
vt 0.408576 0.316102
vt 0.408576 0.316079
vt 0.390912 0.316079
vt 0.011760 0.195059
vt 0.007921 0.195059
vt 0.689311 0.250000
vt 0.693754 0.250000
vt 0.693754 0.497614
vt 0.689311 0.497614
vt 0.705854 0.250000
vt 0.698525 0.250000
vt 0.698525 0.002386
vt 0.705849 0.002386
vt 0.345696 0.250000
vt 0.341229 0.250000
vt 0.341229 0.002386
vt 0.345696 0.002386
vt 0.345696 0.497614
vt 0.341229 0.497614
vt 0.705858 0.497614
vt 0.698525 0.497614
vt 0.689311 0.002386
vt 0.693754 0.002386
vt 0.727424 0.497614
vt 0.716535 0.497614
vt 0.716443 0.250000
vt 0.727423 0.250000
vt 0.716556 0.002386
vt 0.727422 0.002386
vt 0.733144 0.250000
vt 0.733144 0.002386
vt 0.733144 0.497614
vt 0.716328 0.497614
vt 0.716418 0.250000
vt 0.716302 0.002386
vt 0.814569 0.250000
vt 0.814569 0.002386
vt 0.819019 0.002386
vt 0.819018 0.250000
vt 0.705848 0.750000
vt 0.705845 0.997614
vt 0.698528 0.997614
vt 0.698527 0.750000
vt 0.794291 0.599982
vt 0.794291 0.847596
vt 0.789819 0.847596
vt 0.789819 0.599982
vt 0.794291 0.352368
vt 0.789819 0.352368
vt 0.705851 0.502386
vt 0.698525 0.502385
vt 0.814569 0.497614
vt 0.819018 0.497614
vt 0.747881 0.002386
vt 0.747881 0.250000
vt 0.737915 0.250000
vt 0.737915 0.002386
vt 0.747881 0.497614
vt 0.737915 0.497614
vt 0.753609 0.250000
vt 0.753610 0.497614
vt 0.753608 0.002386
vt 0.715395 0.502385
vt 0.715395 0.750000
vt 0.715395 0.997614
vt 0.774333 0.002740
vt 0.781667 0.004419
vt 0.780766 0.343261
vt 0.773433 0.341582
vt 0.793230 0.004298
vt 0.798935 0.002669
vt 0.799835 0.341511
vt 0.794131 0.343141
vt 0.809798 0.002386
vt 0.809798 0.341199
vt 0.002386 0.497614
vt 0.002386 0.250000
vt 0.774765 0.352795
vt 0.780467 0.354425
vt 0.779543 0.693268
vt 0.773841 0.691637
vt 0.309513 0.258867
vt 0.309512 0.496809
vt 0.013888 0.496808
vt 0.013889 0.258867
vt 0.737915 0.508898
vt 0.741293 0.504420
vt 0.742216 0.843262
vt 0.738838 0.847741
vt 0.763878 0.352511
vt 0.763878 0.691325
vt 0.002386 0.002386
vt 0.789819 0.008754
vt 0.790719 0.347596
vt 0.763878 0.002386
vt 0.763878 0.341262
vt 0.309513 0.020925
vt 0.013889 0.020925
vt 0.783880 0.358881
vt 0.782956 0.697723
vt 0.748635 0.502742
vt 0.749559 0.841584
vt 0.785047 0.008897
vt 0.784147 0.347740
vt 0.759107 0.502385
vt 0.759107 0.841262
vt 0.341262 0.502386
vt 0.341261 0.997614
vt 0.002386 0.997614
vt 0.002386 0.750000
vt 0.002386 0.502386
vt 0.346033 0.997614
vt 0.346033 0.750000
vt 0.346033 0.502386
vt 0.684846 0.502386
vt 0.684846 0.997614
s 0
usemtl tex_Book-Calendar_Collection_80s
f 51/1/1 54/2/1 20/3/1 17/4/1
f 8/5/2 7/6/2 14/7/2 12/8/2
f 72/9/3 68/10/3 36/11/3 55/12/3
f 66/13/4 63/14/4 21/15/4 52/16/4
f 61/17/5 63/18/5 2/19/5 1/20/5
f 62/21/2 64/22/2 27/23/2 24/24/2
f 57/25/1 60/26/1 32/27/1 29/28/1
f 44/29/6 8/30/6 12/31/6 45/32/6
f 71/33/7 69/34/7 33/35/7 58/36/7
f 67/37/5 69/38/5 6/5/5 5/6/5
f 68/39/2 70/40/2 39/41/2 36/42/2
f 43/43/8 5/44/8 16/45/8 47/46/8
f 5/6/5 6/5/5 9/47/5 16/48/5
f 87/49/9 88/50/9 11/31/9 46/32/9
f 46/32/10 11/31/10 3/51/10 41/29/10
f 88/52/2 89/53/2 13/54/2 11/55/2
f 11/55/2 13/54/2 4/19/2 3/56/2
f 86/57/11 90/58/11 15/59/11 48/60/11
f 48/60/12 15/59/12 2/61/12 42/62/12
f 90/63/5 85/64/5 10/65/5 15/66/5
f 15/66/5 10/65/5 1/20/5 2/19/5
f 17/67/13 20/68/13 22/69/13 19/70/13
f 19/70/14 22/69/14 21/23/14 18/24/14
f 26/68/15 23/67/15 25/70/15 28/71/15
f 28/71/16 25/70/16 24/24/16 27/23/16
f 49/36/17 24/72/17 25/73/17 50/74/17
f 50/74/18 25/73/18 23/75/18 51/76/18
f 52/16/19 21/15/19 22/77/19 53/78/19
f 53/78/20 22/77/20 20/79/20 54/80/20
f 29/81/21 32/82/21 34/83/21 31/84/21
f 31/84/22 34/83/22 33/41/22 30/42/22
f 38/85/23 35/86/23 37/84/23 40/87/23
f 40/87/24 37/84/24 36/42/24 39/41/24
f 55/12/25 36/11/25 37/88/25 56/89/25
f 56/89/26 37/88/26 35/90/26 57/91/26
f 58/36/27 33/35/27 34/92/27 59/74/27
f 59/74/28 34/92/28 32/93/28 60/76/28
f 65/33/29 62/94/29 24/72/29 49/36/29
f 61/34/29 65/33/29 49/36/29 18/35/29
f 40/73/28 59/74/28 60/76/28 38/75/28
f 39/72/27 58/36/27 59/74/27 40/73/27
f 31/95/26 56/89/26 57/91/26 29/96/26
f 30/97/25 55/12/25 56/89/25 31/95/25
f 28/98/20 53/78/20 54/80/20 26/99/20
f 27/100/19 52/16/19 53/78/19 28/98/19
f 19/92/18 50/74/18 51/76/18 17/93/18
f 18/35/17 49/36/17 50/74/17 19/92/17
f 13/101/12 48/60/12 42/62/12 4/102/12
f 89/103/30 86/57/30 48/60/30 13/101/30
f 10/104/31 46/105/31 41/106/31 1/107/31
f 85/108/32 87/109/32 46/105/32 10/104/32
f 7/110/33 43/43/33 47/46/33 14/111/33
f 70/94/7 71/33/7 58/36/7 39/72/7
f 6/112/34 44/113/34 45/114/34 9/115/34
f 35/116/1 38/117/1 60/26/1 57/25/1
f 64/118/4 66/13/4 52/16/4 27/100/4
f 67/119/3 72/9/3 55/12/3 30/97/3
f 23/120/1 26/121/1 54/2/1 51/1/1
f 4/122/35 42/123/35 66/13/35 64/118/35
f 1/124/36 41/125/36 65/126/36 61/127/36
f 41/29/36 3/51/36 62/94/36 65/33/36
f 3/56/2 4/19/2 64/22/2 62/21/2
f 18/24/5 21/23/5 63/18/5 61/17/5
f 42/123/35 2/128/35 63/14/35 66/13/35
f 5/129/37 43/130/37 72/9/37 67/119/37
f 8/30/38 44/29/38 71/33/38 70/94/38
f 7/6/2 8/5/2 70/40/2 68/39/2
f 30/42/5 33/41/5 69/38/5 67/37/5
f 44/113/38 6/112/38 69/131/38 71/132/38
f 43/130/37 7/133/37 68/10/37 72/9/37
f 82/134/39 84/135/39 78/136/39 73/137/39
f 80/138/40 83/139/40 77/140/40 75/141/40
f 81/142/5 82/143/5 73/144/5 76/145/5
f 83/139/40 81/146/40 76/147/40 77/140/40
f 79/143/2 80/148/2 75/149/2 74/150/2
f 84/49/39 79/151/39 74/152/39 78/153/39
f 45/32/41 12/31/41 79/151/41 84/49/41
f 12/8/2 14/7/2 80/148/2 79/143/2
f 47/46/42 16/45/42 81/146/42 83/139/42
f 16/48/5 9/47/5 82/143/5 81/142/5
f 14/111/43 47/46/43 83/139/43 80/138/43
f 9/115/44 45/114/44 84/135/44 82/134/44
f 73/137/45 78/136/45 87/154/45 85/155/45
f 75/141/46 77/140/46 86/57/46 89/103/46
f 76/145/5 73/144/5 85/64/5 90/63/5
f 77/140/47 76/147/47 90/58/47 86/57/47
f 74/150/2 75/149/2 89/53/2 88/52/2
f 78/153/45 74/152/45 88/50/45 87/49/45
usemtl Material.006
f 100/156/48 101/157/48 98/158/48 94/159/48
f 110/160/49 102/161/49 97/162/49 111/163/49
f 102/164/50 99/165/50 92/166/50 97/167/50
f 96/168/51 91/169/51 99/165/51 102/164/51
f 109/170/52 96/171/52 102/161/52 110/160/52
f 93/172/53 95/173/53 101/157/53 100/156/53
f 107/174/54 103/175/54 105/176/54 108/177/54
f 108/177/55 105/176/55 104/178/55 106/179/55
f 101/180/56 108/177/56 106/179/56 98/181/56
f 95/182/57 107/174/57 108/177/57 101/180/57
f 134/183/58 109/170/58 110/160/58 135/184/58
f 135/184/58 110/160/58 111/163/58 133/185/58
f 114/186/59 115/187/59 117/188/59 124/189/59
f 126/190/60 129/191/60 122/192/60 125/193/60
f 125/194/61 122/195/61 121/196/61 112/197/61
f 116/198/62 125/194/62 112/197/62 113/199/62
f 120/200/63 126/190/63 125/193/63 116/201/63
f 118/202/64 114/186/64 124/189/64 119/203/64
f 127/204/65 131/205/65 132/206/65 128/207/65
f 131/205/65 123/208/65 130/209/65 132/206/65
f 124/210/66 117/211/66 123/208/66 131/205/66
f 119/212/67 124/210/67 131/205/67 127/204/67
f 137/213/68 138/214/68 126/190/68 120/200/68
f 138/214/69 136/215/69 129/191/69 126/190/69
f 111/216/2 97/217/2 122/218/2 129/219/2
f 98/220/2 106/221/2 123/222/2 117/223/2
f 106/221/2 104/224/2 130/225/2 123/222/2
f 99/165/70 91/169/70 113/226/70 112/227/70
f 107/228/5 95/229/5 119/230/5 127/231/5
f 100/232/71 94/233/71 115/234/71 114/235/71
f 91/236/5 96/237/5 116/238/5 113/239/5
f 103/240/5 107/228/5 127/231/5 128/241/5
f 92/166/70 99/165/70 112/227/70 121/242/70
f 94/243/2 98/220/2 117/223/2 115/244/2
f 133/245/2 111/216/2 129/219/2 136/246/2
f 93/247/71 100/232/71 114/235/71 118/248/71
f 95/229/5 93/249/5 118/250/5 119/230/5
f 96/237/5 109/251/5 120/252/5 116/238/5
f 97/217/2 92/253/2 121/254/2 122/218/2
f 109/251/5 134/255/5 137/256/5 120/252/5
f 134/257/72 133/258/72 136/259/72 138/260/72 137/261/72
f 128/262/73 132/263/73 130/264/73 104/265/73 103/266/73
f 105/176/74 135/184/74 133/185/74 104/178/74
f 103/175/74 134/183/74 135/184/74 105/176/74
