# Blender 4.4.0
# www.blender.org
mtllib obj_Flyer_WE-u-Sonderfahrten_2_70s_OPEN.mtl
o obj_Flyer_WE-u-Sonderfahrten_2_70s_OPEN
v -0.312193 0.006271 0.155119
v -0.001955 0.006271 0.155119
v -0.312193 0.006271 -0.155120
v -0.001955 0.006271 -0.155120
v -0.312193 0.006111 0.155119
v -0.001955 0.006111 0.155119
v -0.312193 0.006111 -0.155120
v -0.001955 0.006111 -0.155120
v 0.002339 0.004723 0.155119
v 0.311821 -0.016931 0.155120
v 0.002339 0.004709 -0.155119
v 0.311821 -0.016945 -0.155118
v 0.002327 0.004563 0.155119
v 0.311809 -0.017091 0.155120
v 0.002327 0.004549 -0.155119
v 0.311809 -0.017104 -0.155118
v 0.079709 -0.019213 0.155119
v 0.157080 -0.029721 0.155119
v 0.234450 -0.030039 0.155120
v 0.234450 -0.030053 -0.155119
v 0.157080 -0.029734 -0.155119
v 0.079709 -0.019226 -0.155119
v 0.079698 -0.019372 0.155119
v 0.157068 -0.029880 0.155119
v 0.234439 -0.030199 0.155120
v 0.234439 -0.030213 -0.155119
v 0.157068 -0.029894 -0.155119
v 0.079698 -0.019386 -0.155119
v -0.234634 0.005110 0.155119
v -0.157074 0.005110 0.155119
v -0.079514 0.001570 0.155119
v -0.079514 0.001570 -0.155120
v -0.157074 0.005110 -0.155120
v -0.234634 0.005110 -0.155120
v -0.234634 0.004950 0.155119
v -0.157074 0.004950 0.155119
v -0.079514 0.001410 0.155119
v -0.079514 0.001410 -0.155120
v -0.157074 0.004950 -0.155120
v -0.234634 0.004950 -0.155120
v 0.023714 -0.005798 -0.155119
v 0.023703 -0.005958 -0.155119
v 0.023714 -0.005784 0.155119
v 0.023703 -0.005944 0.155119
v -0.025714 0.001897 0.155119
v -0.025714 0.001737 0.155119
v -0.025714 0.001897 -0.155120
v -0.025714 0.001737 -0.155120
vn 0.5734 -0.5820 -0.5766
vn -0.5265 -0.6323 -0.5684
vn 0.5734 -0.5820 0.5766
vn -0.5265 -0.6323 0.5684
vn 0.5813 0.5726 -0.5781
vn -0.8063 0.0230 -0.5910
vn 0.5813 0.5726 0.5781
vn -0.8063 0.0230 0.5911
vn 0.4132 -0.7184 -0.5597
vn -0.5538 -0.6109 -0.5659
vn 0.4132 -0.7183 0.5597
vn -0.5538 -0.6108 0.5659
vn 0.6593 -0.0675 -0.7488
vn -0.5977 0.5418 -0.5909
vn 0.6593 -0.0675 0.7488
vn -0.5977 0.5419 0.5909
vn -0.1280 -0.6836 -0.7186
vn -0.0481 -0.6901 -0.7221
vn 0.0561 -0.6844 -0.7269
vn 0.0561 -0.6844 0.7270
vn -0.0481 -0.6901 0.7221
vn -0.1280 -0.6835 0.7186
vn 0.1322 0.7058 -0.6960
vn 0.0501 0.7195 -0.6927
vn -0.0593 0.7230 -0.6883
vn -0.0593 0.7230 0.6883
vn 0.0501 0.7195 0.6927
vn 0.1322 0.7058 0.6960
vn -0.0053 -0.7054 -0.7088
vn -0.0162 -0.7120 -0.7020
vn -0.0139 -0.7011 -0.7130
vn -0.0139 -0.7011 0.7130
vn -0.0162 -0.7120 0.7020
vn -0.0053 -0.7054 0.7088
vn 0.0053 0.7088 -0.7054
vn 0.0160 0.7017 -0.7123
vn 0.0141 0.7127 -0.7013
vn 0.0141 0.7127 0.7013
vn 0.0160 0.7017 0.7123
vn 0.0053 0.7088 0.7054
vn -0.2308 -0.6400 0.7329
vn 0.2478 0.6871 0.6830
vn -0.2308 -0.6400 -0.7328
vn 0.2478 0.6870 -0.6831
vn 0.0644 -0.6832 -0.7274
vn -0.0682 0.7226 -0.6879
vn 0.0644 -0.6832 0.7274
vn -0.0682 0.7226 0.6879
vt 0.413255 0.750350
vt 0.413255 0.998706
vt 0.432275 0.998705
vt 0.432275 0.750350
vt 0.669589 0.753307
vt 0.653470 0.752777
vt 0.652401 0.989647
vt 0.668553 0.989119
vt 0.183921 0.998705
vt 0.183921 0.750350
vt 0.246010 0.998706
vt 0.246009 0.998703
vt 0.413256 0.750351
vt 0.371227 0.750351
vt 0.371225 0.998709
vt 0.493218 0.748838
vt 0.441093 0.748127
vt 0.440344 0.992285
vt 0.491949 0.992949
vt 0.195272 0.998704
vt 0.195273 0.998706
vt 0.371225 0.750352
vt 0.650268 0.994983
vt 0.653119 0.751017
vt 0.195272 0.750350
vt 0.247044 0.750351
vt 0.247046 0.750356
vt 0.195273 0.750352
vt 0.309134 0.750351
vt 0.309133 0.750351
vt 0.371221 0.998702
vt 0.309134 0.998709
vt 0.309131 0.998706
vt 0.247042 0.998705
vt 0.247046 0.998711
vt 0.643428 0.750885
vt 0.599229 0.750283
vt 0.596913 0.994298
vt 0.640673 0.994860
vt 0.546223 0.749560
vt 0.544432 0.993624
vt 0.246010 0.750351
vt 0.246009 0.750353
vt 0.308098 0.750351
vt 0.308098 0.750353
vt 0.370186 0.750351
vt 0.370187 0.750353
vt 0.370186 0.998707
vt 0.370187 0.998703
vt 0.413256 0.998704
vt 0.308098 0.998702
vt 0.308098 0.998702
vt 0.863946 0.759698
vt 0.811327 0.757968
vt 0.810583 0.984472
vt 0.863310 0.982747
vt 0.758708 0.756238
vt 0.757856 0.986197
vt 0.706089 0.754507
vt 0.705128 0.987922
s 1
usemtl tex_Flyer_Collection_70s
f 45/1/45 47/2/47 4/3/4 2/4/2
f 46/5/46 6/6/6 8/7/8 48/8/48
f 3/9/3 1/10/1 5/10/5 7/9/7
f 34/11/34 3/9/3 7/9/7 40/12/40
f 45/1/45 2/4/2 6/4/6 46/13/46
f 2/4/2 4/3/4 8/3/8 6/4/6
f 19/14/19 20/15/20 12/3/12 10/4/10
f 25/16/25 14/17/14 16/18/16 26/19/26
f 11/9/11 9/10/9 13/10/13 15/9/15
f 41/20/41 11/9/11 15/9/15 42/21/42
f 19/14/19 10/4/10 14/4/14 25/22/25
f 10/4/10 12/3/12 16/3/16 14/4/14
f 8/7/8 15/23/15 13/24/13 6/6/6
f 43/25/43 17/26/17 23/27/23 44/28/44
f 17/26/17 18/29/18 24/30/24 23/27/23
f 18/29/18 19/14/19 25/22/25 24/30/24
f 12/3/12 20/15/20 26/31/26 16/3/16
f 20/15/20 21/32/21 27/33/27 26/31/26
f 21/32/21 22/34/22 28/35/28 27/33/27
f 44/36/44 23/37/23 28/38/28 42/39/42
f 23/37/23 24/40/24 27/41/27 28/38/28
f 24/40/24 25/16/25 26/19/26 27/41/27
f 43/25/43 41/20/41 22/34/22 17/26/17
f 17/26/17 22/34/22 21/32/21 18/29/18
f 18/29/18 21/32/21 20/15/20 19/14/19
f 1/10/1 29/42/29 35/43/35 5/10/5
f 29/42/29 30/44/30 36/45/36 35/43/35
f 30/44/30 31/46/31 37/47/37 36/45/36
f 47/2/47 32/48/32 38/49/38 48/50/48
f 32/48/32 33/51/33 39/52/39 38/49/38
f 33/51/33 34/11/34 40/12/40 39/52/39
f 5/53/5 35/54/35 40/55/40 7/56/7
f 35/54/35 36/57/36 39/58/39 40/55/40
f 36/57/36 37/59/37 38/60/38 39/58/39
f 1/10/1 3/9/3 34/11/34 29/42/29
f 29/42/29 34/11/34 33/51/33 30/44/30
f 30/44/30 33/51/33 32/48/32 31/46/31
f 9/10/9 11/9/11 41/20/41 43/25/43
f 13/24/13 44/36/44 42/39/42 15/23/15
f 9/10/9 43/25/43 44/28/44 13/10/13
f 22/34/22 41/20/41 42/21/42 28/35/28
f 4/3/4 47/2/47 48/50/48 8/3/8
f 31/46/31 45/1/45 46/13/46 37/47/37
f 37/59/37 46/5/46 48/8/48 38/60/38
f 31/46/31 32/48/32 47/2/47 45/1/45
