# Blender 4.4.0
# www.blender.org
mtllib obj_Flyer_Trabant-601_70s_OPEN.mtl
o obj_Flyer_Trabant-601_70s_OPEN
v -0.339474 0.006271 0.120045
v -0.002126 0.006271 0.120045
v -0.339474 0.006271 -0.120045
v -0.002126 0.006271 -0.120045
v -0.339474 0.006111 0.120045
v -0.002126 0.006111 0.120045
v -0.339474 0.006111 -0.120045
v -0.002126 0.006111 -0.120045
v 0.002543 0.004723 0.120045
v 0.339069 -0.016931 0.120046
v 0.002543 0.004709 -0.120045
v 0.339069 -0.016945 -0.120044
v 0.002531 0.004563 0.120045
v 0.339057 -0.017091 0.120046
v 0.002531 0.004549 -0.120045
v 0.339057 -0.017104 -0.120044
v 0.086675 -0.019213 0.120045
v 0.170806 -0.029721 0.120045
v 0.254938 -0.030039 0.120045
v 0.254938 -0.030053 -0.120045
v 0.170806 -0.029734 -0.120045
v 0.086675 -0.019226 -0.120045
v 0.086662 -0.019372 0.120045
v 0.170794 -0.029880 0.120045
v 0.254925 -0.030199 0.120045
v 0.254925 -0.030213 -0.120045
v 0.170794 -0.029894 -0.120045
v 0.086662 -0.019386 -0.120045
v -0.255137 0.005110 0.120045
v -0.170800 0.005110 0.120045
v -0.086463 0.001570 0.120045
v -0.086463 0.001570 -0.120045
v -0.170800 0.005110 -0.120045
v -0.255137 0.005110 -0.120045
v -0.255137 0.004950 0.120045
v -0.170800 0.004950 0.120045
v -0.086463 0.001410 0.120045
v -0.086463 0.001410 -0.120045
v -0.170800 0.004950 -0.120045
v -0.255137 0.004950 -0.120045
v 0.025786 -0.005798 -0.120045
v 0.025774 -0.005958 -0.120045
v 0.025786 -0.005784 0.120045
v 0.025774 -0.005944 0.120045
v -0.027961 0.001897 0.120045
v -0.027961 0.001737 0.120045
v -0.027961 0.001897 -0.120045
v -0.027961 0.001737 -0.120045
vn 0.4871 -0.5377 -0.6882
vn -0.4469 -0.5836 -0.6780
vn 0.4871 -0.5377 0.6882
vn -0.4469 -0.5836 0.6780
vn 0.4938 0.5290 -0.6901
vn -0.6964 0.0216 -0.7173
vn 0.4938 0.5290 0.6901
vn -0.6964 0.0216 0.7173
vn 0.3493 -0.6603 -0.6648
vn -0.4714 -0.5654 -0.6768
vn 0.3493 -0.6603 0.6648
vn -0.4714 -0.5654 0.6768
vn 0.5301 -0.0590 -0.8459
vn -0.5063 0.4991 -0.7033
vn 0.5301 -0.0590 0.8459
vn -0.5063 0.4991 0.7033
vn -0.1016 -0.5898 -0.8011
vn -0.0381 -0.5942 -0.8034
vn 0.0444 -0.5883 -0.8074
vn 0.0444 -0.5883 0.8075
vn -0.0381 -0.5942 0.8034
vn -0.1016 -0.5898 0.8012
vn 0.1058 0.6139 -0.7823
vn 0.0401 0.6260 -0.7788
vn -0.0475 0.6301 -0.7751
vn -0.0475 0.6301 0.7750
vn 0.0401 0.6260 0.7788
vn 0.1058 0.6139 0.7823
vn -0.0042 -0.6102 -0.7923
vn -0.0129 -0.6174 -0.7866
vn -0.0110 -0.6055 -0.7957
vn -0.0110 -0.6055 0.7957
vn -0.0129 -0.6174 0.7866
vn -0.0042 -0.6102 0.7923
vn 0.0042 0.6138 -0.7894
vn 0.0127 0.6063 -0.7952
vn 0.0112 0.6181 -0.7860
vn 0.0112 0.6181 0.7860
vn 0.0127 0.6063 0.7952
vn 0.0042 0.6138 0.7894
vn -0.1826 -0.5505 0.8146
vn 0.1996 0.6019 0.7732
vn -0.1826 -0.5506 -0.8146
vn 0.1996 0.6019 -0.7732
vn 0.0509 -0.5871 -0.8079
vn -0.0546 0.6299 -0.7748
vn 0.0509 -0.5871 0.8079
vn -0.0546 0.6299 0.7748
vt 0.199483 0.340841
vt 0.199483 0.465528
vt 0.211822 0.465528
vt 0.211822 0.340841
vt 0.021603 0.178922
vt 0.003817 0.178922
vt 0.003817 0.326410
vt 0.021603 0.326410
vt 0.250022 0.306893
vt 0.393606 0.306893
vt 0.250022 0.353277
vt 0.393606 0.478220
vt 0.393606 0.492429
vt 0.250022 0.492429
vt 0.174087 0.331996
vt 0.175017 0.489107
vt 0.231724 0.488786
vt 0.230795 0.331675
vt 0.063511 0.009423
vt 0.002166 0.009814
vt 0.002721 0.175049
vt 0.063511 0.175541
vt 0.250022 0.494997
vt 0.393606 0.494997
vt 0.393606 0.494990
vt 0.250022 0.494990
vt 0.250022 0.507780
vt 0.250022 0.507773
vt 0.393606 0.633809
vt 0.393606 0.680080
vt 0.393606 0.680073
vt 0.393606 0.633802
vt 0.250023 0.680080
vt 0.250023 0.680073
vt 0.000612 0.326410
vt 0.000612 0.178922
vt 0.393606 0.507780
vt 0.393606 0.541267
vt 0.393606 0.541261
vt 0.393606 0.507773
vt 0.393606 0.587538
vt 0.393606 0.587531
vt 0.250023 0.633809
vt 0.250023 0.633802
vt 0.250023 0.587538
vt 0.250023 0.587531
vt 0.250022 0.541267
vt 0.250022 0.541261
vt 0.218363 0.009423
vt 0.177217 0.009423
vt 0.177217 0.175541
vt 0.218363 0.175542
vt 0.120364 0.009423
vt 0.120364 0.175541
vt 0.019632 0.332872
vt 0.020561 0.489983
vt 0.061602 0.489750
vt 0.060673 0.332639
vt 0.118309 0.489429
vt 0.117380 0.332318
vt 0.393606 0.353277
vt 0.393606 0.399661
vt 0.393606 0.446045
vt 0.250022 0.478220
vt 0.250022 0.446045
vt 0.250022 0.399661
vt 0.235276 0.178922
vt 0.178000 0.178922
vt 0.177999 0.326410
vt 0.235276 0.326410
vt 0.119939 0.178922
vt 0.119939 0.326410
vt 0.061878 0.178922
vt 0.061878 0.326410
vt 0.050705 0.340841
vt 0.050705 0.465528
vt 0.090984 0.465528
vt 0.090984 0.340841
vt 0.131263 0.465528
vt 0.131263 0.340841
vt 0.171543 0.465528
vt 0.171543 0.340841
vt 0.003965 0.332961
vt 0.004895 0.490072
vt 0.234535 0.009268
vt 0.234845 0.175309
s 1
usemtl tex_Flyer_Collection_70s
f 45/1/45 47/2/47 4/3/4 2/4/2
f 46/5/46 6/6/6 8/7/8 48/8/48
f 3/9/3 1/10/1 5/10/5 7/9/7
f 34/11/34 3/9/3 7/9/7 40/11/40
f 45/12/45 2/13/2 6/13/6 46/12/46
f 2/13/2 4/14/4 8/14/8 6/13/6
f 19/15/19 20/16/20 12/17/12 10/18/10
f 25/19/25 14/20/14 16/21/16 26/22/26
f 11/23/11 9/24/9 13/25/13 15/26/15
f 41/27/41 11/23/11 15/26/15 42/28/42
f 19/29/19 10/30/10 14/31/14 25/32/25
f 10/30/10 12/33/12 16/34/16 14/31/14
f 8/7/8 15/35/15 13/36/13 6/6/6
f 43/37/43 17/38/17 23/39/23 44/40/44
f 17/38/17 18/41/18 24/42/24 23/39/23
f 18/41/18 19/29/19 25/32/25 24/42/24
f 12/33/12 20/43/20 26/44/26 16/34/16
f 20/43/20 21/45/21 27/46/27 26/44/26
f 21/45/21 22/47/22 28/48/28 27/46/27
f 44/49/44 23/50/23 28/51/28 42/52/42
f 23/50/23 24/53/24 27/54/27 28/51/28
f 24/53/24 25/19/25 26/22/26 27/54/27
f 43/55/43 41/56/41 22/57/22 17/58/17
f 17/58/17 22/57/22 21/59/21 18/60/18
f 18/60/18 21/59/21 20/16/20 19/15/19
f 1/10/1 29/61/29 35/61/35 5/10/5
f 29/61/29 30/62/30 36/62/36 35/61/35
f 30/62/30 31/63/31 37/63/37 36/62/36
f 47/64/47 32/65/32 38/65/38 48/64/48
f 32/65/32 33/66/33 39/66/39 38/65/38
f 33/66/33 34/11/34 40/11/40 39/66/39
f 5/67/5 35/68/35 40/69/40 7/70/7
f 35/68/35 36/71/36 39/72/39 40/69/40
f 36/71/36 37/73/37 38/74/38 39/72/39
f 1/75/1 3/76/3 34/77/34 29/78/29
f 29/78/29 34/77/34 33/79/33 30/80/30
f 30/80/30 33/79/33 32/81/32 31/82/31
f 9/83/9 11/84/11 41/56/41 43/55/43
f 13/85/13 44/49/44 42/52/42 15/86/15
f 9/24/9 43/37/43 44/40/44 13/25/13
f 22/47/22 41/27/41 42/28/42 28/48/28
f 4/14/4 47/64/47 48/64/48 8/14/8
f 31/63/31 45/12/45 46/12/46 37/63/37
f 37/73/37 46/5/46 48/8/48 38/74/38
f 31/82/31 32/81/32 47/2/47 45/1/45
