# Blender 4.4.0
# www.blender.org
mtllib obj_Flyer-Patch_SymbolAntiApartheidsbewegung_1978.mtl
o obj_Flyer-Patch_SymbolAntiApartheidsbewegung_1978
v 0.000000 -0.000000 -0.072719
v -0.015769 -0.000000 -0.070241
v -0.030463 -0.000000 -0.062977
v -0.043082 -0.000000 -0.051420
v -0.052764 -0.000000 -0.036360
v -0.058851 -0.000000 -0.018821
v -0.060927 -0.000000 0.000000
v -0.058851 -0.000000 0.018821
v -0.052764 -0.000000 0.036360
v -0.043082 -0.000000 0.051420
v -0.030463 -0.000000 0.062977
v -0.015769 -0.000000 0.070241
v 0.000000 -0.000000 0.072719
v 0.015769 -0.000000 0.070241
v 0.030463 -0.000000 0.062977
v 0.043082 -0.000000 0.051420
v 0.052764 -0.000000 0.036360
v 0.058851 -0.000000 0.018821
v 0.060927 -0.000000 0.000000
v 0.058851 -0.000000 -0.018821
v 0.052764 -0.000000 -0.036360
v 0.043082 -0.000000 -0.051420
v 0.030463 -0.000000 -0.062977
v 0.015769 -0.000000 -0.070241
vn -0.0000 1.0000 -0.0000
vt 0.563073 0.520630
vt 0.545800 0.558392
vt 0.518322 0.590819
vt 0.482512 0.615702
vt 0.440810 0.631344
vt 0.396059 0.636679
vt 0.351307 0.631344
vt 0.309605 0.615702
vt 0.273795 0.590819
vt 0.246317 0.558392
vt 0.229044 0.520630
vt 0.223152 0.480106
vt 0.229044 0.439582
vt 0.246317 0.401819
vt 0.273795 0.369392
vt 0.309605 0.344510
vt 0.351307 0.328868
vt 0.396059 0.323533
vt 0.440810 0.328868
vt 0.482512 0.344510
vt 0.518322 0.369392
vt 0.545800 0.401819
vt 0.563073 0.439582
vt 0.568965 0.480106
s 0
usemtl tex_Documents_Collection_70s
f 2/1/1 3/2/1 4/3/1 5/4/1 6/5/1 7/6/1 8/7/1 9/8/1 10/9/1 11/10/1 12/11/1 13/12/1 14/13/1 15/14/1 16/15/1 17/16/1 18/17/1 19/18/1 20/19/1 21/20/1 22/21/1 23/22/1 24/23/1 1/24/1
