# Blender 4.4.0
# www.blender.org
mtllib obj_Flyer_Ausflugsverkehr-1987_80s_OPEN.mtl
o obj_Flyer_Ausflugsverkehr-1987_80s_OPEN
v -0.196786 0.003953 0.072549
v -0.001232 0.003953 0.072549
v -0.196786 0.003953 -0.072549
v -0.001232 0.003953 -0.072549
v -0.196786 0.003852 0.072549
v -0.001232 0.003852 0.072549
v -0.196786 0.003852 -0.072549
v -0.001232 0.003852 -0.072549
v 0.001474 0.002977 0.072549
v 0.196552 -0.010672 0.072549
v 0.001474 0.002968 -0.072549
v 0.196552 -0.010681 -0.072548
v 0.001467 0.002876 0.072549
v 0.196545 -0.010773 0.072549
v 0.001467 0.002868 -0.072549
v 0.196545 -0.010781 -0.072548
v 0.050243 -0.012110 0.072549
v 0.099013 -0.018734 0.072549
v 0.147782 -0.018935 0.072549
v 0.147782 -0.018944 -0.072549
v 0.099013 -0.018743 -0.072549
v 0.050243 -0.012119 -0.072549
v 0.050236 -0.012211 0.072549
v 0.099006 -0.018834 0.072549
v 0.147775 -0.019035 0.072549
v 0.147775 -0.019044 -0.072549
v 0.099006 -0.018843 -0.072549
v 0.050236 -0.012220 -0.072549
v -0.147898 0.003221 0.072549
v -0.099009 0.003221 0.072549
v -0.050121 0.000990 0.072549
v -0.050121 0.000990 -0.072549
v -0.099009 0.003221 -0.072549
v -0.147898 0.003221 -0.072549
v -0.147898 0.003120 0.072549
v -0.099009 0.003120 0.072549
v -0.050121 0.000889 0.072549
v -0.050121 0.000889 -0.072549
v -0.099009 0.003120 -0.072549
v -0.147898 0.003120 -0.072549
v 0.014948 -0.003655 -0.072549
v 0.014941 -0.003755 -0.072549
v 0.014948 -0.003646 0.072549
v 0.014941 -0.003747 0.072549
v -0.016208 0.001196 0.072549
v -0.016208 0.001095 0.072549
v -0.016208 0.001196 -0.072549
v -0.016208 0.001095 -0.072549
v -0.013932 -0.004695 -0.072549
v -0.013969 -0.004600 -0.072549
v -0.013932 -0.004695 0.072549
v -0.013969 -0.004600 0.072549
v -0.137538 -0.050168 -0.072549
v -0.091921 -0.032585 -0.072549
v -0.045501 -0.017084 -0.072549
v -0.045501 -0.017084 0.072549
v -0.091921 -0.032585 0.072549
v -0.137538 -0.050168 0.072549
v -0.137575 -0.050074 -0.072549
v -0.091957 -0.032491 -0.072549
v -0.045538 -0.016990 -0.072549
v -0.045538 -0.016990 0.072549
v -0.091957 -0.032491 0.072549
v -0.137575 -0.050074 0.072549
v -0.000950 0.003264 -0.072549
v -0.183419 -0.067069 -0.072549
v -0.000950 0.003264 0.072549
v -0.183419 -0.067069 0.072549
v -0.000986 0.003358 -0.072549
v -0.183455 -0.066975 -0.072549
v -0.000986 0.003358 0.072549
v -0.183455 -0.066975 0.072549
v 0.011563 -0.005801 0.072549
v 0.011520 -0.005892 0.072549
v 0.042074 -0.020607 -0.072549
v 0.011520 -0.005891 -0.072549
v 0.042117 -0.020516 -0.072549
v 0.011563 -0.005800 -0.072549
v 0.083524 -0.050837 0.072549
v 0.083524 -0.050837 -0.072549
v 0.131055 -0.065155 0.072549
v 0.131055 -0.065256 0.072549
v 0.042117 -0.020516 0.072549
v 0.042074 -0.020607 0.072549
v 0.083504 -0.050936 -0.072549
v -0.000831 0.003015 0.072549
v 0.131055 -0.065155 -0.072549
v 0.083504 -0.050936 0.072549
v -0.000788 0.003106 0.072549
v -0.000788 0.003107 -0.072549
v -0.000831 0.003016 -0.072549
v 0.179945 -0.064608 0.072549
v 0.179945 -0.064507 0.072549
v 0.179945 -0.064607 -0.072549
v 0.131055 -0.065256 -0.072549
v 0.179945 -0.064507 -0.072549
vn 0.5085 -0.5162 -0.6892
vn -0.4683 -0.5624 -0.6814
vn 0.5085 -0.5162 0.6892
vn -0.4683 -0.5624 0.6814
vn 0.5152 0.5075 -0.6906
vn -0.7112 0.0203 -0.7026
vn 0.5152 0.5075 0.6906
vn -0.7112 0.0203 0.7027
vn 0.3688 -0.6411 -0.6731
vn -0.4931 -0.5439 -0.6790
vn 0.3688 -0.6410 0.6731
vn -0.4931 -0.5439 0.6790
vn 0.5461 -0.0559 -0.8359
vn -0.5273 0.4780 -0.7025
vn 0.5461 -0.0559 0.8359
vn -0.5273 0.4780 0.7025
vn -0.1074 -0.5733 -0.8123
vn -0.0403 -0.5780 -0.8151
vn 0.0469 -0.5720 -0.8189
vn 0.0469 -0.5720 0.8189
vn -0.0403 -0.5779 0.8151
vn -0.1074 -0.5733 0.8123
vn 0.1119 0.5974 -0.7941
vn 0.0425 0.6099 -0.7914
vn -0.0504 0.6140 -0.7877
vn -0.0504 0.6140 0.7877
vn 0.0425 0.6099 0.7913
vn 0.1119 0.5975 0.7940
vn -0.0044 -0.5940 -0.8044
vn -0.0137 -0.6012 -0.7990
vn -0.0116 -0.5894 -0.8078
vn -0.0116 -0.5894 0.8078
vn -0.0137 -0.6012 0.7990
vn -0.0044 -0.5940 0.8044
vn 0.0045 0.5977 -0.8017
vn 0.0135 0.5901 -0.8072
vn 0.0119 0.6020 -0.7984
vn 0.0119 0.6020 0.7984
vn 0.0135 0.5901 0.8072
vn 0.0045 0.5977 0.8017
vn -0.1924 -0.5336 0.8235
vn 0.2109 0.5847 0.7834
vn -0.1925 -0.5337 -0.8235
vn 0.2108 0.5847 -0.7834
vn 0.0539 -0.5709 -0.8193
vn -0.0579 0.6138 -0.7874
vn 0.0539 -0.5709 0.8193
vn -0.0579 0.6138 0.7874
vn 0.2748 -0.5519 -0.7874
vn -0.2556 0.5133 -0.8193
vn 0.2748 -0.5519 0.7874
vn -0.2556 0.5133 0.8193
vn 0.2108 -0.5593 -0.8017
vn 0.1997 -0.5554 -0.8072
vn 0.2054 -0.5660 -0.7984
vn 0.2054 -0.5660 0.7984
vn 0.1997 -0.5554 0.8072
vn 0.2108 -0.5593 0.8017
vn -0.2095 0.5559 -0.8044
vn -0.2034 0.5659 -0.7990
vn -0.2011 0.5541 -0.8078
vn -0.2011 0.5541 0.8078
vn -0.2034 0.5659 0.7990
vn -0.2095 0.5559 0.8044
vn 0.6770 -0.2292 -0.6994
vn -0.2982 -0.6589 -0.6906
vn 0.6770 -0.2292 0.6994
vn -0.2982 -0.6589 0.6906
vn 0.2347 0.6932 -0.6814
vn -0.6601 0.2988 -0.6892
vn 0.2347 0.6932 0.6814
vn -0.6601 0.2988 0.6892
vn -0.2932 -0.4928 -0.8193
vn 0.3153 0.5298 -0.7874
vn 0.2945 0.4909 0.8199
vn 0.3153 0.5298 0.7874
vn -0.3176 -0.5293 0.7867
vn -0.2932 -0.4928 0.8193
vn -0.2457 -0.4930 -0.8346
vn -0.2457 -0.4930 0.8346
vn -0.0773 -0.5502 -0.8314
vn 0.0878 0.6244 -0.7762
vn -0.3176 -0.5293 -0.7867
vn 0.2945 0.4909 -0.8199
vn 0.2827 0.5675 0.7733
vn 0.6922 0.1780 -0.6994
vn -0.0773 -0.5502 0.8314
vn 0.2827 0.5675 -0.7733
vn 0.1822 -0.7088 -0.6814
vn 0.1822 -0.7088 0.6814
vn 0.6922 0.1780 0.6994
vn -0.5143 0.5085 -0.6906
vn -0.5094 -0.5153 -0.6892
vn -0.5142 0.5084 0.6907
vn 0.0878 0.6244 0.7762
vn -0.5095 -0.5153 0.6891
vt 0.821798 0.754100
vt 0.943038 0.754100
vt 0.943037 0.743483
vt 0.821798 0.743483
vt 0.810396 0.246988
vt 0.787885 0.247192
vt 0.783171 0.395821
vt 0.805979 0.395790
vt 0.183921 0.998705
vt 0.183921 0.750350
vt 0.246010 0.998706
vt 0.246009 0.998703
vt 0.413255 0.750350
vt 0.432275 0.750350
vt 0.413256 0.750351
vt 0.432275 0.998705
vt 0.809654 0.798168
vt 0.996291 0.798168
vt 0.996291 0.732629
vt 0.809654 0.732629
vt 0.631923 0.573504
vt 0.578785 0.573836
vt 0.579394 0.714417
vt 0.630797 0.714075
vt 0.195272 0.998704
vt 0.195273 0.998706
vt 0.371227 0.750351
vt 0.371225 0.750352
vt 0.996292 0.998421
vt 0.996292 0.994793
vt 0.809655 0.994793
vt 0.809655 0.998421
vt 0.195272 0.750350
vt 0.247044 0.750351
vt 0.247046 0.750356
vt 0.195273 0.750352
vt 0.309134 0.750351
vt 0.309133 0.750351
vt 0.371225 0.998709
vt 0.371221 0.998702
vt 0.309134 0.998709
vt 0.309131 0.998706
vt 0.247042 0.998705
vt 0.247046 0.998711
vt 0.770333 0.573180
vt 0.731950 0.573229
vt 0.729764 0.712926
vt 0.770685 0.712087
vt 0.681935 0.573663
vt 0.680245 0.712544
vt 0.809655 0.976678
vt 0.996292 0.976678
vt 0.996292 0.929245
vt 0.809654 0.929245
vt 0.996291 0.863707
vt 0.809654 0.863707
vt 0.246010 0.750351
vt 0.246009 0.750353
vt 0.308098 0.750351
vt 0.308098 0.750353
vt 0.370186 0.750351
vt 0.370187 0.750353
vt 0.413255 0.998706
vt 0.370186 0.998707
vt 0.370187 0.998703
vt 0.413256 0.998704
vt 0.308098 0.998702
vt 0.308098 0.998702
vt 0.995795 0.244174
vt 0.942339 0.245118
vt 0.943178 0.395063
vt 0.997062 0.393868
vt 0.892084 0.245620
vt 0.891045 0.396305
vt 0.842534 0.246305
vt 0.841090 0.396316
vt 0.821798 0.882115
vt 0.943038 0.882115
vt 0.943038 0.847457
vt 0.821798 0.847457
vt 0.943036 0.812799
vt 0.821798 0.812799
vt 0.943038 0.778141
vt 0.821798 0.778142
vt 0.809655 0.994784
vt 0.996292 0.994784
vt 0.778353 0.573255
vt 0.779912 0.711354
vt 0.728391 0.392779
vt 0.676168 0.392779
vt 0.676168 0.246884
vt 0.728391 0.246881
vt 0.992164 0.406289
vt 0.993796 0.560941
vt 0.938508 0.562236
vt 0.939209 0.405022
vt 0.889726 0.405131
vt 0.888703 0.562356
vt 0.839516 0.562541
vt 0.840515 0.405275
vt 0.780614 0.392780
vt 0.780614 0.246882
vt 0.803861 0.405172
vt 0.804946 0.560948
vt 0.784028 0.557851
vt 0.784197 0.405386
vt 0.587719 0.392779
vt 0.571722 0.392780
vt 0.571722 0.246882
vt 0.587719 0.246882
vt 0.623945 0.392779
vt 0.623945 0.246881
vt 0.798028 0.572431
vt 0.834220 0.571965
vt 0.834172 0.571965
vt 0.797980 0.572431
vt 0.934154 0.714578
vt 0.934154 0.570570
vt 0.880746 0.570570
vt 0.880500 0.713102
vt 0.567892 0.556981
vt 0.621780 0.557941
vt 0.621780 0.405728
vt 0.567765 0.405728
vt 0.678514 0.558349
vt 0.727198 0.558204
vt 0.727458 0.405250
vt 0.678254 0.405728
vt 0.986533 0.715648
vt 0.987119 0.570570
vt 0.834466 0.712609
vt 0.834418 0.712609
vt 0.880478 0.713102
vt 0.934153 0.714578
vt 0.784151 0.711638
vt 0.784151 0.573017
vt 0.784102 0.573017
vt 0.784102 0.711638
vt 0.798028 0.711638
vt 0.797980 0.711638
vt 0.987119 0.570570
vt 0.934153 0.570570
vt 0.880724 0.570570
vt 0.986533 0.715648
vt 0.765712 0.559522
vt 0.780381 0.559522
vt 0.780381 0.406362
vt 0.765712 0.405743
s 1
usemtl tex_Flyers-Fotos_Collection_80s_1
f 45/1/45 47/2/47 4/3/4 2/4/2
f 46/5/46 6/6/6 8/7/8 48/8/48
f 3/9/3 1/10/1 5/10/5 7/9/7
f 34/11/34 3/9/3 7/9/7 40/12/40
f 45/13/45 2/14/2 6/14/6 46/15/46
f 2/14/2 4/16/4 8/16/8 6/14/6
f 19/17/19 20/18/20 12/19/12 10/20/10
f 25/21/25 14/22/14 16/23/16 26/24/26
f 11/9/11 9/10/9 13/10/13 15/9/15
f 41/25/41 11/9/11 15/9/15 42/26/42
f 19/27/19 10/14/10 14/14/14 25/28/25
f 10/14/10 12/16/12 16/16/16 14/14/14
f 8/29/8 15/30/15 13/31/13 6/32/6
f 43/33/43 17/34/17 23/35/23 44/36/44
f 17/34/17 18/37/18 24/38/24 23/35/23
f 18/37/18 19/27/19 25/28/25 24/38/24
f 12/16/12 20/39/20 26/40/26 16/16/16
f 20/39/20 21/41/21 27/42/27 26/40/26
f 21/41/21 22/43/22 28/44/28 27/42/27
f 44/45/44 23/46/23 28/47/28 42/48/42
f 23/46/23 24/49/24 27/50/27 28/47/28
f 24/49/24 25/21/25 26/24/26 27/50/27
f 43/51/43 41/52/41 22/53/22 17/54/17
f 17/54/17 22/53/22 21/55/21 18/56/18
f 18/56/18 21/55/21 20/18/20 19/17/19
f 1/10/1 29/57/29 35/58/35 5/10/5
f 29/57/29 30/59/30 36/60/36 35/58/35
f 30/59/30 31/61/31 37/62/37 36/60/36
f 47/63/47 32/64/32 38/65/38 48/66/48
f 32/64/32 33/67/33 39/68/39 38/65/38
f 33/67/33 34/11/34 40/12/40 39/68/39
f 5/69/5 35/70/35 40/71/40 7/72/7
f 35/70/35 36/73/36 39/74/39 40/71/40
f 36/73/36 37/75/37 38/76/38 39/74/39
f 1/77/1 3/78/3 34/79/34 29/80/29
f 29/80/29 34/79/34 33/81/33 30/82/30
f 30/82/30 33/81/33 32/83/32 31/84/31
f 9/85/9 11/86/11 41/52/41 43/51/43
f 13/87/13 44/45/44 42/48/42 15/88/15
f 9/10/9 43/33/43 44/36/44 13/10/13
f 22/43/22 41/25/41 42/26/42 28/44/28
f 4/16/4 47/63/47 48/66/48 8/16/8
f 31/61/31 45/13/45 46/15/46 37/62/37
f 37/75/37 46/5/46 48/8/48 38/76/38
f 31/84/31 32/83/32 47/2/47 45/1/45
f 50/63/50 49/66/49 55/65/55 61/64/61
f 64/89/64 63/90/63 60/91/60 59/92/59
f 68/93/68 66/94/66 53/95/53 58/96/58
f 57/97/57 54/98/54 55/99/55 56/100/56
f 58/96/58 53/95/53 54/98/54 57/97/57
f 72/101/72 64/89/64 59/92/59 70/102/70
f 63/59/63 57/60/57 56/62/56 62/61/62
f 64/57/64 58/58/58 57/60/57 63/59/63
f 71/14/71 67/14/67 65/16/65 69/16/69
f 52/13/52 51/15/51 67/14/67 71/14/71
f 59/11/59 53/12/53 66/9/66 70/9/70
f 61/64/61 55/65/55 54/68/54 60/67/60
f 70/9/70 66/9/66 68/10/68 72/10/72
f 51/103/51 49/104/49 65/105/65 67/106/67
f 60/67/60 54/68/54 53/12/53 59/11/59
f 72/10/72 68/10/68 58/58/58 64/57/64
f 52/107/52 71/108/71 69/109/69 50/110/50
f 63/90/63 62/111/62 61/112/61 60/91/60
f 69/16/69 65/16/65 49/66/49 50/63/50
f 62/61/62 56/62/56 51/15/51 52/13/52
f 56/100/56 55/99/55 49/104/49 51/103/51
f 62/111/62 52/107/52 50/110/50 61/112/61
f 73/113/73 83/114/83 84/115/84 74/116/74
f 87/117/87 81/118/81 79/119/79 80/120/80
f 94/121/94 95/122/95 82/123/82 92/124/92
f 85/125/85 75/126/75 84/127/84 88/128/88
f 95/122/95 85/125/85 88/128/88 82/123/82
f 96/129/96 93/130/93 81/118/81 87/117/87
f 80/120/80 77/131/77 75/132/75 85/133/85
f 87/117/87 80/120/80 85/133/85 95/134/95
f 90/135/90 89/136/89 86/137/86 91/138/91
f 78/139/78 90/135/90 91/138/91 76/140/76
f 81/118/81 93/130/93 92/141/92 82/142/82
f 83/114/83 79/119/79 88/143/88 84/115/84
f 93/130/93 96/129/96 94/144/94 92/141/92
f 76/145/76 91/146/91 86/147/86 74/148/74
f 79/119/79 81/118/81 82/142/82 88/143/88
f 96/129/96 87/117/87 95/134/95 94/144/94
f 78/139/78 73/113/73 89/136/89 90/135/90
f 80/120/80 79/119/79 83/114/83 77/131/77
f 89/136/89 73/113/73 74/116/74 86/137/86
f 77/131/77 78/139/78 76/140/76 75/132/75
f 75/126/75 76/145/76 74/148/74 84/127/84
f 77/131/77 83/114/83 73/113/73 78/139/78
