# Blender 4.4.0
# www.blender.org
mtllib obj_Book_Staatsbuergerkunde-1987_closed.mtl
o obj_Book_Staatsbuergerkunde-1987_closed
v 0.147994 -0.003819 0.121951
v 0.147994 -0.009978 0.127561
v -0.147994 -0.003820 0.121951
v -0.147994 -0.009978 0.127561
v 0.147994 0.026409 0.127561
v 0.147994 0.020252 0.121951
v -0.147994 0.026409 0.127561
v -0.147994 0.020252 0.121951
v 0.147994 0.018271 0.124633
v 0.147994 -0.001841 0.124633
v -0.147994 -0.001840 0.124633
v -0.147994 0.018272 0.124633
v -0.147994 -0.004853 0.130301
v -0.147994 0.021285 0.130301
v 0.147994 -0.004854 0.130301
v 0.147994 0.021284 0.130301
v 0.139538 -0.005699 -0.085670
v 0.147994 -0.005229 -0.079275
v 0.145517 -0.005335 -0.083797
v 0.139538 -0.009467 -0.085670
v 0.147994 -0.010198 -0.079281
v 0.145517 -0.009908 -0.083799
v -0.139538 -0.005699 -0.085670
v -0.147994 -0.005229 -0.079275
v -0.145517 -0.005335 -0.083797
v -0.139538 -0.009467 -0.085670
v -0.147994 -0.010198 -0.079281
v -0.145517 -0.009908 -0.083799
v 0.139538 0.024013 -0.085670
v 0.147994 0.024744 -0.079281
v 0.145517 0.024453 -0.083799
v 0.139538 0.020244 -0.085670
v 0.147994 0.019775 -0.079275
v 0.145517 0.019881 -0.083797
v -0.139538 0.024013 -0.085670
v -0.147994 0.024744 -0.079281
v -0.145517 0.024453 -0.083799
v -0.139538 0.020244 -0.085670
v -0.147994 0.019775 -0.079275
v -0.145517 0.019881 -0.083797
v 0.000000 -0.003820 0.121951
v -0.000000 -0.009978 0.127561
v 0.000000 0.026409 0.127561
v 0.000000 0.020252 0.121951
v -0.000000 0.018271 0.124633
v 0.000000 -0.001841 0.124633
v 0.000000 0.021285 0.130301
v -0.000000 -0.004853 0.130301
v -0.000000 -0.005229 -0.079275
v -0.000000 -0.005335 -0.083797
v -0.000000 -0.005699 -0.085670
v -0.000000 -0.010198 -0.079281
v -0.000000 -0.009908 -0.083799
v -0.000000 -0.009467 -0.085670
v -0.000000 0.024744 -0.079281
v -0.000000 0.024453 -0.083799
v -0.000000 0.024013 -0.085670
v -0.000000 0.019775 -0.079275
v -0.000000 0.019881 -0.083797
v -0.000000 0.020244 -0.085670
v 0.147994 -0.003718 0.095379
v -0.147994 -0.003718 0.095379
v 0.147994 -0.010192 0.095379
v -0.147994 -0.010192 0.095379
v 0.000000 -0.003718 0.095379
v -0.000000 -0.010192 0.095379
v 0.147994 0.026623 0.095379
v -0.147994 0.026623 0.095379
v 0.147994 0.020150 0.095379
v -0.147994 0.020150 0.095379
v -0.000000 0.020150 0.095379
v -0.000000 0.026623 0.095379
v 0.147994 0.009171 0.125808
v -0.147994 0.009171 0.125808
v -0.147994 0.009171 0.132082
v 0.147994 0.009171 0.132082
v -0.000000 0.009171 0.132082
v -0.000000 0.009171 0.125808
v -0.147994 0.014959 0.125616
v -0.147994 0.015495 0.131622
v 0.147994 0.015495 0.131622
v 0.147994 0.014959 0.125616
v 0.000000 0.015495 0.131622
v -0.000000 0.014959 0.125616
v 0.147994 0.002430 0.125615
v 0.000000 0.001892 0.131622
v -0.000000 0.002428 0.125616
v -0.147994 0.002426 0.125616
v -0.147994 0.001890 0.131622
v 0.147994 0.001894 0.131621
v 0.143844 -0.003819 0.121417
v -0.143844 -0.003820 0.121417
v 0.143844 0.020252 0.121417
v -0.143844 0.020252 0.121417
v 0.143844 0.018271 0.124007
v 0.143844 -0.001841 0.124007
v -0.143844 -0.001840 0.124007
v -0.143844 0.018272 0.124007
v -0.000000 -0.003820 0.121417
v -0.000000 0.020252 0.121417
v -0.000000 0.018271 0.124007
v 0.000000 -0.001841 0.124007
v 0.143844 0.008635 0.125125
v -0.143844 0.008648 0.125125
v 0.000000 0.008582 0.125125
v -0.143844 0.014959 0.124956
v 0.143844 0.014959 0.124956
v -0.000000 0.014959 0.124956
v 0.143844 0.002430 0.124956
v -0.000000 0.002428 0.124956
v -0.143844 0.002426 0.124957
v -0.000000 -0.004491 -0.075422
v 0.143844 -0.004490 -0.075422
v -0.000000 0.019581 -0.075422
v -0.143844 0.019581 -0.075422
v 0.143844 -0.002512 -0.072832
v -0.143844 0.017601 -0.072832
v 0.143844 0.019581 -0.075422
v 0.143844 0.017600 -0.072833
v 0.143844 0.001759 -0.071884
v -0.143844 -0.004491 -0.075422
v -0.143844 -0.002511 -0.072832
v -0.143844 0.014288 -0.071883
v -0.000000 0.017600 -0.072832
v -0.000000 -0.002512 -0.072832
v -0.000000 0.001757 -0.071883
v 0.143844 0.014288 -0.071883
v 0.143844 0.008500 -0.071698
v -0.143844 0.001755 -0.071883
v -0.143844 0.008500 -0.071698
v -0.000000 0.014288 -0.071883
v -0.000000 0.008500 -0.071698
v -0.143844 0.008500 0.125125
v 0.143844 0.008514 0.125125
v 0.000000 0.008567 0.125125
v -0.143844 0.007306 -0.071730
v 0.143844 0.007307 -0.071731
v -0.000000 0.007306 -0.071730
vn -0.0000 -0.0000 1.0000
vn 1.0000 -0.0000 -0.0000
vn -0.0000 -0.9999 0.0108
vn -0.0000 1.0000 -0.0000
vn -1.0000 -0.0000 -0.0000
vn -0.0000 0.8045 0.5940
vn -0.0000 1.0000 -0.0021
vn -0.0000 -0.4715 -0.8819
vn -0.0000 -0.2245 0.9745
vn -0.0000 -0.8046 0.5938
vn -0.0000 0.1921 -0.9814
vn -0.0000 0.4715 -0.8819
vn -0.2988 -0.0002 0.9543
vn -0.8770 -0.0004 0.4805
vn 0.2988 -0.0002 0.9543
vn 0.8770 -0.0004 0.4805
vn -0.0000 -0.9997 0.0233
vn -0.0000 -0.9816 0.1907
vn -0.0000 0.9979 0.0642
vn -0.0000 0.9734 0.2292
vn -0.2988 0.0002 0.9543
vn -0.8770 0.0004 0.4805
vn 0.2988 0.0002 0.9543
vn 0.8770 0.0004 0.4805
vn -0.0000 -0.9979 0.0642
vn -0.0000 -0.9734 0.2292
vn -0.0000 0.9997 0.0233
vn -0.0000 0.9816 0.1907
vn -0.0000 -1.0000 0.0087
vn -0.0000 0.1922 -0.9813
vn -0.0000 -0.8047 0.5937
vn -0.0000 -0.2243 0.9745
vn -0.0000 -0.4715 -0.8818
vn -0.0000 0.8044 0.5941
vn -0.0000 1.0000 -0.0066
vn -0.0000 -1.0000 -0.0038
vn -0.0000 -1.0000 -0.0066
vn -0.0000 1.0000 -0.0038
vn -0.0000 0.0332 0.9994
vn -0.0000 -0.0727 -0.9974
vn -0.0000 0.2844 0.9587
vn -0.0000 -0.2224 -0.9749
vn -0.0000 -0.2224 -0.9750
vn -0.0000 0.2845 0.9587
vn -0.0000 -0.0285 0.9996
vn -0.0000 0.0631 -0.9980
vn -0.0000 0.0632 -0.9980
vn -0.0000 -0.7944 -0.6074
vn -0.0000 0.2172 -0.9761
vn -0.0000 0.7945 -0.6072
vn -0.0000 0.7946 -0.6071
vn -0.0000 0.2169 -0.9762
vn -0.0000 -0.7943 -0.6075
vn -0.0000 -0.0266 -0.9996
vn -0.0000 -0.0267 -0.9996
vn -0.0000 -0.2754 -0.9613
vn -0.0000 -0.2755 -0.9613
vn -0.0000 0.0277 -0.9996
vn -0.0000 0.7944 0.6074
vn -0.0000 -0.2172 0.9761
vn -0.0000 -0.7945 0.6072
vn -0.0000 -0.7946 0.6071
vn -0.0000 -0.2169 0.9762
vn -0.0000 0.7943 0.6075
vn -0.0000 0.0321 0.9995
vn -0.0000 0.2754 0.9613
vn -0.0000 0.2755 0.9613
vn -0.0000 -0.0276 0.9996
vn -0.0000 -0.0275 0.9996
vn -0.0000 1.0000 -0.0034
vn -0.0000 -1.0000 0.0034
vn -0.0000 -1.0000 0.0061
vn -0.0000 1.0000 -0.0007
vn -0.0000 -0.0000 -1.0000
vt 0.598776 0.838593
vt 0.607450 0.838593
vt 0.607450 0.718669
vt 0.598776 0.718669
vt 0.561839 0.975722
vt 0.554363 0.983111
vt 0.560584 0.986720
vt 0.564242 0.979254
vt 0.261368 0.252271
vt 0.261229 0.004937
vt 0.014622 0.005119
vt 0.014761 0.252452
vt 0.745682 0.733788
vt 0.516508 0.733650
vt 0.516337 0.980118
vt 0.745511 0.980256
vt 0.590941 0.940723
vt 0.598801 0.940723
vt 0.598541 0.983111
vt 0.591064 0.975722
vt 0.590941 0.940723
vt 0.598800 0.940723
vt 0.598809 0.710677
vt 0.592776 0.710685
vt 0.576284 0.837031
vt 0.584957 0.837031
vt 0.584957 0.717106
vt 0.576284 0.717106
vt 0.065509 0.195059
vt 0.042474 0.195059
vt 0.027117 0.195059
vt 0.034795 0.195059
vt 0.065509 0.217390
vt 0.088545 0.217390
vt 0.088545 0.239720
vt 0.065509 0.239720
vt 0.573629 0.943072
vt 0.582166 0.943072
vt 0.582032 0.978116
vt 0.573911 0.985515
vt 0.554103 0.940723
vt 0.561962 0.940723
vt 0.562417 0.710685
vt 0.556384 0.710677
vt 0.571896 0.846532
vt 0.571896 0.988478
vt 0.576812 0.988478
vt 0.576811 0.846532
vt 0.584644 0.981653
vt 0.580670 0.989128
vt 0.023299 0.244967
vt 0.023325 0.200661
vt 0.023557 0.200660
vt 0.023531 0.244966
vt 0.024259 0.200660
vt 0.024233 0.244966
vt 0.583481 0.980550
vt 0.584132 0.988460
vt 0.592319 0.986719
vt 0.588661 0.979254
vt 0.598541 0.983111
vt 0.591064 0.975722
vt 0.595412 0.846532
vt 0.595410 0.988478
vt 0.601882 0.988478
vt 0.601881 0.846532
vt 0.606797 0.988478
vt 0.606797 0.846532
vt 0.606243 0.990870
vt 0.605536 0.982949
vt 0.611169 0.981653
vt 0.615142 0.989128
vt 0.592320 0.986720
vt 0.588662 0.979254
vt 0.608464 0.713530
vt 0.597938 0.713530
vt 0.592904 0.704729
vt 0.598456 0.704726
vt 0.598809 0.710677
vt 0.607450 0.958518
vt 0.598776 0.958518
vt 0.597938 0.963657
vt 0.608464 0.963657
vt 0.598456 0.704726
vt 0.592904 0.704728
vt 0.304202 0.754062
vt 0.304344 0.513637
vt 0.310882 0.517665
vt 0.310742 0.754066
vt 0.313573 0.527380
vt 0.313439 0.754067
vt 0.520167 0.986506
vt 0.745506 0.986642
vt 0.529424 0.989169
vt 0.745503 0.989299
vt 0.585795 0.711967
vt 0.575269 0.711967
vt 0.576490 0.706766
vt 0.582521 0.706768
vt 0.582660 0.712732
vt 0.576107 0.712724
vt 0.584957 0.956955
vt 0.576284 0.956955
vt 0.575269 0.962094
vt 0.585795 0.962094
vt 0.562289 0.704728
vt 0.556737 0.704726
vt 0.008255 0.009262
vt 0.008391 0.252457
vt 0.005634 0.019256
vt 0.005764 0.252458
vt 0.088159 0.241130
vt 0.065509 0.241130
vt 0.042474 0.264166
vt 0.042474 0.286816
vt 0.037293 0.285885
vt 0.037293 0.264166
vt 0.051508 0.753884
vt 0.051649 0.513460
vt 0.051366 0.994309
vt 0.304060 0.994486
vt 0.042474 0.241516
vt 0.037293 0.242446
vt 0.042474 0.239720
vt 0.042859 0.241130
vt 0.008527 0.495651
vt 0.005895 0.485659
vt 0.014899 0.499786
vt 0.970844 0.986778
vt 0.961583 0.989430
vt 0.974685 0.980394
vt 0.310603 0.990467
vt 0.313305 0.980755
vt 0.601881 0.704587
vt 0.606797 0.704587
vt 0.595414 0.704587
vt 0.023505 0.289272
vt 0.024206 0.289272
vt 0.023273 0.289274
vt 0.571896 0.704587
vt 0.576811 0.704587
vt 0.042474 0.217390
vt 0.088545 0.195059
vt 0.974856 0.733926
vt 0.261506 0.499604
vt 0.974887 0.688521
vt 0.745714 0.688383
vt 0.012908 0.994281
vt 0.013050 0.753857
vt 0.013191 0.513432
vt 0.516540 0.688244
vt 0.306966 0.499569
vt 0.306828 0.252236
vt 0.306689 0.004903
vt 0.030956 0.195059
vt 0.019438 0.195059
vt 0.019438 0.195059
vt 0.582364 0.704587
vt 0.582364 0.846532
vt 0.588430 0.846532
vt 0.588430 0.704587
vt 0.588305 0.990870
vt 0.589012 0.982949
vt 0.596645 0.983203
vt 0.596645 0.991478
vt 0.582364 0.988478
vt 0.588430 0.988478
vt 0.568265 0.980549
vt 0.567614 0.988459
vt 0.575292 0.989066
vt 0.575292 0.980802
vt 0.023278 0.195059
vt 0.011760 0.195059
vt 0.007921 0.195059
vt 0.015599 0.195059
vt 0.689311 0.250000
vt 0.693754 0.250000
vt 0.693754 0.497614
vt 0.689311 0.497614
vt 0.705854 0.250000
vt 0.698525 0.250000
vt 0.698525 0.002386
vt 0.705849 0.002386
vt 0.345696 0.250000
vt 0.341229 0.250000
vt 0.341229 0.002386
vt 0.345696 0.002386
vt 0.345696 0.497614
vt 0.341229 0.497614
vt 0.705858 0.497614
vt 0.698525 0.497614
vt 0.689311 0.002386
vt 0.693754 0.002386
vt 0.727424 0.497614
vt 0.716535 0.497614
vt 0.716443 0.250000
vt 0.727423 0.250000
vt 0.716556 0.002386
vt 0.727422 0.002386
vt 0.733144 0.250000
vt 0.733144 0.002386
vt 0.733144 0.497614
vt 0.716328 0.497614
vt 0.716418 0.250000
vt 0.716302 0.002386
vt 0.814569 0.250000
vt 0.814569 0.002386
vt 0.819019 0.002386
vt 0.819018 0.250000
vt 0.705848 0.750000
vt 0.705845 0.997614
vt 0.698528 0.997614
vt 0.698527 0.750000
vt 0.794291 0.599982
vt 0.794291 0.847596
vt 0.789819 0.847596
vt 0.789819 0.599982
vt 0.794291 0.352368
vt 0.789819 0.352368
vt 0.705851 0.502386
vt 0.698525 0.502385
vt 0.814569 0.497614
vt 0.819018 0.497614
vt 0.747881 0.002386
vt 0.747881 0.250000
vt 0.737915 0.250000
vt 0.737915 0.002386
vt 0.747881 0.497614
vt 0.737915 0.497614
vt 0.753609 0.250000
vt 0.753610 0.497614
vt 0.753608 0.002386
vt 0.715395 0.502385
vt 0.715395 0.750000
vt 0.715395 0.997614
vt 0.774333 0.002740
vt 0.781667 0.004419
vt 0.780766 0.343261
vt 0.773433 0.341582
vt 0.793230 0.004298
vt 0.798935 0.002669
vt 0.799835 0.341511
vt 0.794131 0.343141
vt 0.809798 0.002386
vt 0.809798 0.341199
vt 0.002386 0.497614
vt 0.002386 0.250000
vt 0.774765 0.352795
vt 0.780467 0.354425
vt 0.779543 0.693268
vt 0.773841 0.691637
vt 0.309513 0.258867
vt 0.309512 0.496809
vt 0.013888 0.496808
vt 0.013889 0.258867
vt 0.737915 0.508898
vt 0.741293 0.504420
vt 0.742216 0.843262
vt 0.738838 0.847741
vt 0.763878 0.352511
vt 0.763878 0.691325
vt 0.002386 0.002386
vt 0.789819 0.008754
vt 0.790719 0.347596
vt 0.763878 0.002386
vt 0.763878 0.341262
vt 0.309513 0.020925
vt 0.013889 0.020925
vt 0.783880 0.358881
vt 0.782956 0.697723
vt 0.748635 0.502742
vt 0.749559 0.841584
vt 0.785047 0.008897
vt 0.784147 0.347740
vt 0.759107 0.502385
vt 0.759107 0.841262
vt 0.341262 0.502386
vt 0.341261 0.997614
vt 0.002386 0.997614
vt 0.002386 0.750000
vt 0.002386 0.502386
vt 0.346033 0.997614
vt 0.346033 0.750000
vt 0.346033 0.502386
vt 0.684846 0.502386
vt 0.684846 0.997614
s 0
usemtl tex_Book-Calendar_Collection_80s
f 51/1/1 54/2/1 20/3/1 17/4/1
f 8/5/2 7/6/2 14/7/2 12/8/2
f 72/9/3 68/10/3 36/11/3 55/12/3
f 66/13/4 63/14/4 21/15/4 52/16/4
f 61/17/5 63/18/5 2/19/5 1/20/5
f 62/21/2 64/22/2 27/23/2 24/24/2
f 57/25/1 60/26/1 32/27/1 29/28/1
f 44/29/6 8/30/6 12/31/6 45/32/6
f 71/33/7 69/34/7 33/35/7 58/36/7
f 67/37/5 69/38/5 6/39/5 5/40/5
f 68/41/2 70/42/2 39/43/2 36/44/2
f 43/45/8 5/46/8 16/47/8 47/48/8
f 5/40/5 6/39/5 9/49/5 16/50/5
f 87/51/9 88/52/9 11/53/9 46/54/9
f 46/54/10 11/53/10 3/55/10 41/56/10
f 88/57/2 89/58/2 13/59/2 11/60/2
f 11/60/2 13/59/2 4/61/2 3/62/2
f 86/63/11 90/64/11 15/65/11 48/66/11
f 48/66/12 15/65/12 2/67/12 42/68/12
f 90/69/5 85/70/5 10/71/5 15/72/5
f 15/73/5 10/74/5 1/20/5 2/19/5
f 17/4/13 20/3/13 22/75/13 19/76/13
f 19/77/14 22/78/14 21/79/14 18/24/14
f 26/80/15 23/81/15 25/82/15 28/83/15
f 28/84/16 25/85/16 24/24/16 27/23/16
f 49/86/17 24/87/17 25/88/17 50/89/17
f 50/89/18 25/88/18 23/90/18 51/91/18
f 52/16/19 21/15/19 22/92/19 53/93/19
f 53/93/20 22/92/20 20/94/20 54/95/20
f 29/28/21 32/27/21 34/96/21 31/97/21
f 31/98/22 34/99/22 33/100/22 30/101/22
f 38/102/23 35/103/23 37/104/23 40/105/23
f 40/106/24 37/107/24 36/44/24 39/43/24
f 55/12/25 36/11/25 37/108/25 56/109/25
f 56/109/26 37/108/26 35/110/26 57/111/26
f 58/36/27 33/35/27 34/112/27 59/113/27
f 59/114/28 34/115/28 32/116/28 60/117/28
f 65/118/29 62/119/29 24/87/29 49/86/29
f 61/120/29 65/118/29 49/86/29 18/121/29
f 40/122/28 59/114/28 60/117/28 38/123/28
f 39/124/27 58/36/27 59/113/27 40/125/27
f 31/126/26 56/109/26 57/111/26 29/127/26
f 30/128/25 55/12/25 56/109/25 31/126/25
f 28/129/20 53/93/20 54/95/20 26/130/20
f 27/131/19 52/16/19 53/93/19 28/129/19
f 19/132/18 50/89/18 51/91/18 17/133/18
f 18/121/17 49/86/17 50/89/17 19/132/17
f 13/134/12 48/66/12 42/68/12 4/135/12
f 89/136/30 86/63/30 48/66/30 13/134/30
f 10/137/31 46/54/31 41/56/31 1/138/31
f 85/139/32 87/51/32 46/54/32 10/137/32
f 7/140/33 43/45/33 47/48/33 14/141/33
f 70/142/7 71/33/7 58/36/7 39/124/7
f 6/143/34 44/29/34 45/32/34 9/30/34
f 35/103/1 38/102/1 60/26/1 57/25/1
f 64/144/4 66/13/4 52/16/4 27/131/4
f 67/145/3 72/9/3 55/12/3 30/128/3
f 23/81/1 26/80/1 54/2/1 51/1/1
f 4/146/35 42/147/35 66/13/35 64/144/35
f 1/148/36 41/149/36 65/118/36 61/120/36
f 41/149/36 3/150/36 62/119/36 65/118/36
f 3/62/2 4/61/2 64/22/2 62/21/2
f 18/24/5 21/79/5 63/18/5 61/17/5
f 42/147/35 2/151/35 63/14/35 66/13/35
f 5/152/37 43/153/37 72/9/37 67/145/37
f 8/30/38 44/29/38 71/33/38 70/142/38
f 7/6/2 8/5/2 70/42/2 68/41/2
f 30/101/5 33/100/5 69/38/5 67/37/5
f 44/29/38 6/143/38 69/34/38 71/33/38
f 43/153/37 7/154/37 68/10/37 72/9/37
f 82/155/39 84/31/39 78/156/39 73/157/39
f 80/158/40 83/159/40 77/160/40 75/161/40
f 81/162/5 82/163/5 73/164/5 76/165/5
f 83/159/40 81/166/40 76/167/40 77/160/40
f 79/168/2 80/169/2 75/170/2 74/171/2
f 84/31/39 79/172/39 74/157/39 78/156/39
f 45/32/41 12/31/41 79/172/41 84/31/41
f 12/8/2 14/7/2 80/169/2 79/168/2
f 47/48/42 16/47/42 81/166/42 83/159/42
f 16/50/5 9/49/5 82/163/5 81/162/5
f 14/141/43 47/48/43 83/159/43 80/158/43
f 9/30/44 45/32/44 84/31/44 82/155/44
f 73/157/45 78/156/45 87/173/45 85/174/45
f 75/161/46 77/160/46 86/63/46 89/136/46
f 76/165/5 73/164/5 85/70/5 90/69/5
f 77/160/47 76/167/47 90/64/47 86/63/47
f 74/171/2 75/170/2 89/58/2 88/57/2
f 78/156/45 74/157/45 88/175/45 87/173/45
usemtl Material.006
f 100/176/48 101/177/48 98/178/48 94/179/48
f 110/180/49 102/181/49 97/182/49 111/183/49
f 102/184/50 99/185/50 92/186/50 97/187/50
f 96/188/51 91/189/51 99/185/51 102/184/51
f 109/190/52 96/191/52 102/181/52 110/180/52
f 93/192/53 95/193/53 101/177/53 100/176/53
f 107/194/54 103/195/54 105/196/54 108/197/54
f 108/197/55 105/196/55 104/198/55 106/199/55
f 101/200/56 108/197/56 106/199/56 98/201/56
f 95/202/57 107/194/57 108/197/57 101/200/57
f 134/203/58 109/190/58 110/180/58 135/204/58
f 135/204/58 110/180/58 111/183/58 133/205/58
f 114/206/59 115/207/59 117/208/59 124/209/59
f 126/210/60 129/211/60 122/212/60 125/213/60
f 125/214/61 122/215/61 121/216/61 112/217/61
f 116/218/62 125/214/62 112/217/62 113/219/62
f 120/220/63 126/210/63 125/213/63 116/221/63
f 118/222/64 114/206/64 124/209/64 119/223/64
f 127/224/65 131/225/65 132/226/65 128/227/65
f 131/225/65 123/228/65 130/229/65 132/226/65
f 124/230/66 117/231/66 123/228/66 131/225/66
f 119/232/67 124/230/67 131/225/67 127/224/67
f 137/233/68 138/234/68 126/210/68 120/220/68
f 138/234/69 136/235/69 129/211/69 126/210/69
f 111/236/2 97/237/2 122/238/2 129/239/2
f 98/240/2 106/241/2 123/242/2 117/243/2
f 106/241/2 104/244/2 130/245/2 123/242/2
f 99/185/70 91/189/70 113/246/70 112/247/70
f 107/248/5 95/249/5 119/250/5 127/251/5
f 100/252/71 94/253/71 115/254/71 114/255/71
f 91/256/5 96/257/5 116/258/5 113/259/5
f 103/260/5 107/248/5 127/251/5 128/261/5
f 92/186/70 99/185/70 112/247/70 121/262/70
f 94/263/2 98/240/2 117/243/2 115/264/2
f 133/265/2 111/236/2 129/239/2 136/266/2
f 93/267/71 100/252/71 114/255/71 118/268/71
f 95/249/5 93/269/5 118/270/5 119/250/5
f 96/257/5 109/271/5 120/272/5 116/258/5
f 97/237/2 92/273/2 121/274/2 122/238/2
f 109/271/5 134/275/5 137/276/5 120/272/5
f 134/277/72 133/278/72 136/279/72 138/280/72 137/281/72
f 128/282/73 132/283/73 130/284/73 104/285/73 103/286/73
f 105/196/74 135/204/74 133/205/74 104/198/74
f 103/195/74 134/203/74 135/204/74 105/196/74
