# Blender 4.4.0
# www.blender.org
mtllib obj_Lampe_VEB_NARVA_Kombinat_70er.mtl
o obj_Lampe_VEB_NARVA_Kombinat_70er
v -0.001130 -0.272034 0.030545
v -0.001130 0.103356 0.030545
v -0.005467 -0.272034 0.029136
v -0.005467 0.103356 0.029136
v -0.008147 -0.272034 0.025447
v -0.008147 0.103356 0.025447
v -0.008147 -0.272034 0.020887
v -0.008147 0.103356 0.020887
v -0.005467 -0.272034 0.017198
v -0.005467 0.103356 0.017198
v -0.001130 -0.272034 0.015789
v -0.001130 0.103356 0.015789
v 0.003207 -0.272034 0.017198
v 0.003207 0.103356 0.017198
v 0.005887 -0.272034 0.020887
v 0.005887 0.103356 0.020887
v 0.005887 -0.272034 0.025447
v 0.005887 0.103356 0.025447
v 0.003207 -0.272034 0.029136
v 0.003207 0.103356 0.029136
v -0.001130 -0.273144 0.051608
v -0.017847 -0.273144 0.046176
v -0.028179 -0.273144 0.031955
v -0.028179 -0.273144 0.014378
v -0.017847 -0.273144 0.000158
v -0.001130 -0.273144 -0.005274
v 0.015587 -0.273144 0.000158
v 0.025919 -0.273144 0.014378
v 0.025919 -0.273144 0.031955
v 0.015587 -0.273144 0.046176
v -0.001130 -0.277288 0.051608
v -0.017847 -0.277288 0.046176
v -0.028179 -0.277288 0.031955
v -0.028179 -0.277288 0.014378
v -0.017847 -0.277288 0.000158
v -0.001130 -0.277288 -0.005274
v 0.015587 -0.277288 0.000158
v 0.025919 -0.277288 0.014378
v 0.025919 -0.277288 0.031955
v 0.015587 -0.277288 0.046176
v -0.001130 -0.282457 0.108425
v -0.051243 -0.282457 0.092142
v -0.082215 -0.282457 0.049513
v -0.082215 -0.282457 -0.003180
v -0.051244 -0.282457 -0.045809
v -0.001130 -0.282457 -0.062092
v 0.048984 -0.282457 -0.045809
v 0.079956 -0.282457 -0.003180
v 0.079956 -0.282457 0.049513
v 0.048984 -0.282457 0.092142
v -0.001130 -0.295765 0.108425
v -0.051243 -0.295765 0.092142
v -0.082215 -0.295765 0.049513
v -0.082215 -0.295765 -0.003180
v -0.051244 -0.295765 -0.045809
v -0.001130 -0.295765 -0.062092
v 0.048984 -0.295765 -0.045809
v 0.079956 -0.295765 -0.003180
v 0.079956 -0.295765 0.049513
v 0.048984 -0.295765 0.092142
v -0.025116 0.020663 0.047542
v 0.022856 0.020663 0.047542
v 0.025270 0.020663 0.047542
v -0.027530 0.020663 0.047542
v 0.025270 0.006580 0.039303
v -0.027530 0.006580 0.039303
v 0.025270 0.000029 0.024360
v -0.027530 0.000029 0.024360
v 0.025270 0.003513 0.008420
v -0.027530 0.003513 0.008420
v 0.025270 0.015701 -0.002427
v -0.027530 0.015701 -0.002427
v 0.025270 0.031937 -0.004040
v -0.027530 0.031937 -0.004040
v 0.025270 0.046020 0.004199
v -0.027530 0.046020 0.004199
v 0.025270 0.052571 0.019143
v -0.027530 0.052571 0.019143
v 0.025270 0.049087 0.035082
v -0.027530 0.049087 0.035083
v 0.025270 0.036899 0.045930
v -0.027530 0.036899 0.045930
v -0.025116 0.005524 0.039072
v 0.022856 0.005524 0.039072
v -0.025116 -0.001679 0.023987
v 0.022856 -0.001679 0.023986
v -0.025116 0.001805 0.008047
v 0.022856 0.001805 0.008047
v -0.025116 0.014645 -0.002658
v 0.022856 0.014645 -0.002658
v -0.025116 0.031937 -0.004040
v 0.022856 0.031937 -0.004040
v -0.025116 0.047076 0.004430
v 0.022856 0.047076 0.004430
v -0.025116 0.054279 0.019516
v 0.022856 0.054279 0.019516
v -0.025116 0.050795 0.035456
v 0.022856 0.050795 0.035456
v -0.025116 0.037955 0.046161
v 0.022856 0.037955 0.046161
v -0.027530 0.012490 0.034043
v -0.027530 0.022352 0.039812
v -0.027530 0.007903 0.023578
v -0.027530 0.010343 0.012416
v -0.027530 0.018878 0.004820
v -0.027530 0.030248 0.003691
v -0.027530 0.040109 0.009460
v -0.027530 0.044697 0.019925
v -0.027530 0.042257 0.031087
v -0.027530 0.033722 0.038683
v -0.030223 0.012490 0.034043
v -0.030223 0.022352 0.039812
v -0.030223 0.007903 0.023578
v -0.030223 0.010343 0.012416
v -0.030223 0.018878 0.004820
v -0.030223 0.030248 0.003691
v -0.030223 0.040109 0.009460
v -0.030223 0.044697 0.019925
v -0.030223 0.042257 0.031087
v -0.030223 0.033722 0.038683
v -0.030223 0.017962 0.029172
v -0.030223 0.023917 0.032655
v -0.030223 0.015193 0.022854
v -0.030223 0.016666 0.016115
v -0.030223 0.021819 0.011529
v -0.030223 0.028683 0.010847
v -0.030223 0.034637 0.014331
v -0.030223 0.037407 0.020648
v -0.030223 0.035934 0.027388
v -0.030223 0.030781 0.031974
v -0.050060 0.017962 0.029172
v -0.050060 0.023917 0.032655
v -0.050060 0.015193 0.022854
v -0.050060 0.016666 0.016115
v -0.050060 0.021819 0.011529
v -0.050060 0.028683 0.010847
v -0.050060 0.034637 0.014331
v -0.050060 0.037407 0.020648
v -0.050060 0.035934 0.027388
v -0.050060 0.030781 0.031974
v -0.040208 0.001359 0.071253
v -0.040208 0.034640 0.014040
v -0.042164 0.000809 0.070933
v -0.042164 0.034090 0.013720
v -0.043374 -0.000629 0.070097
v -0.043374 0.032651 0.012883
v -0.043374 -0.002408 0.069062
v -0.043374 0.030873 0.011849
v -0.042164 -0.003846 0.068225
v -0.042164 0.029435 0.011012
v -0.040208 -0.004396 0.067906
v -0.040208 0.028885 0.010692
v -0.038251 -0.003846 0.068225
v -0.038251 0.029435 0.011012
v -0.037042 -0.002408 0.069062
v -0.037042 0.030873 0.011849
v -0.037042 -0.000629 0.070097
v -0.037042 0.032651 0.012883
v -0.038251 0.000809 0.070933
v -0.038251 0.034090 0.013720
v -0.041652 0.033572 0.013209
v -0.040208 0.033978 0.013445
v -0.042545 0.032510 0.012591
v -0.042545 0.031197 0.011827
v -0.041652 0.030135 0.011210
v -0.040208 0.029729 0.010974
v -0.038763 0.030135 0.011210
v -0.037871 0.031197 0.011827
v -0.037871 0.032510 0.012591
v -0.038763 0.033572 0.013209
v -0.001130 -0.103955 0.204935
v -0.001130 0.095759 -0.059610
v -0.006407 -0.105319 0.203895
v -0.005467 0.094638 -0.060464
v -0.009668 -0.108888 0.201174
v -0.008147 0.091705 -0.062701
v -0.009668 -0.113300 0.197809
v -0.008147 0.088079 -0.065466
v -0.006407 -0.116869 0.195087
v -0.005467 0.085146 -0.067703
v -0.001130 -0.118232 0.194048
v -0.001130 0.084025 -0.068558
v 0.004147 -0.116869 0.195087
v 0.003207 0.085146 -0.067703
v 0.007408 -0.113300 0.197809
v 0.005887 0.088079 -0.065466
v 0.007408 -0.108888 0.201174
v 0.005887 0.091705 -0.062701
v 0.004147 -0.105319 0.203895
v 0.003207 0.094638 -0.060464
v -0.001130 -0.095666 0.191406
v -0.005467 -0.096787 0.190551
v -0.008147 -0.099720 0.188314
v -0.008147 -0.103346 0.185549
v -0.005467 -0.106280 0.183312
v -0.001130 -0.107400 0.182458
v 0.003207 -0.106280 0.183312
v 0.005887 -0.103346 0.185549
v 0.005887 -0.099720 0.188314
v 0.003207 -0.096787 0.190551
v -0.005929 -0.096367 0.191097
v -0.008895 -0.099613 0.188622
v -0.008895 -0.103626 0.185562
v -0.005929 -0.106872 0.183086
v -0.001130 -0.108112 0.182141
v 0.003669 -0.106872 0.183086
v 0.006635 -0.103626 0.185562
v 0.006635 -0.099613 0.188622
v 0.003669 -0.096367 0.191097
v -0.001130 -0.095127 0.192043
v -0.001130 -0.107485 0.202244
v -0.003798 -0.108174 0.201718
v -0.005446 -0.109979 0.200342
v -0.005446 -0.112209 0.198641
v -0.003798 -0.114014 0.197265
v -0.001130 -0.114703 0.196739
v 0.001538 -0.114014 0.197265
v 0.003187 -0.112209 0.198641
v 0.003187 -0.109979 0.200342
v 0.001538 -0.108174 0.201718
v 0.010581 -0.137873 0.234832
v 0.007913 -0.138563 0.234307
v 0.006265 -0.140367 0.232931
v 0.006265 -0.142598 0.231230
v 0.007913 -0.144402 0.229853
v 0.010581 -0.145092 0.229328
v 0.013249 -0.144402 0.229853
v 0.014898 -0.142598 0.231230
v 0.014898 -0.140367 0.232931
v 0.013249 -0.138563 0.234307
v 0.009296 -0.153953 0.246007
v 0.007157 -0.154280 0.245394
v 0.005835 -0.155136 0.243789
v 0.005835 -0.156194 0.241805
v 0.007157 -0.157051 0.240199
v 0.009296 -0.157378 0.239586
v 0.011435 -0.157051 0.240199
v 0.012757 -0.156194 0.241805
v 0.012757 -0.155136 0.243789
v 0.011435 -0.154280 0.245394
v 0.006088 -0.185910 0.257148
v 0.003949 -0.186039 0.256465
v 0.002627 -0.186378 0.254678
v 0.002627 -0.186796 0.252468
v 0.003949 -0.187135 0.250680
v 0.006088 -0.187264 0.249998
v 0.008227 -0.187135 0.250680
v 0.009549 -0.186796 0.252468
v 0.009549 -0.186378 0.254678
v 0.008227 -0.186039 0.256465
v 0.001645 -0.312927 0.260802
v -0.000846 -0.313302 0.259579
v -0.002167 -0.313399 0.257112
v -0.001813 -0.313181 0.254343
v 0.000080 -0.312731 0.252329
v 0.002790 -0.312221 0.251840
v 0.005281 -0.311846 0.253064
v 0.006602 -0.311749 0.255531
v 0.006248 -0.311967 0.258300
v 0.004355 -0.312417 0.260314
v 0.012965 -0.341472 0.260736
v 0.011235 -0.343324 0.259512
v 0.010629 -0.344614 0.257086
v 0.011379 -0.344850 0.254385
v 0.013197 -0.343942 0.252439
v 0.015390 -0.342236 0.251993
v 0.017120 -0.340385 0.253217
v 0.017726 -0.339095 0.255643
v 0.016976 -0.338859 0.258344
v 0.015158 -0.339767 0.260290
v 0.042071 -0.361418 0.262149
v 0.040838 -0.363819 0.260737
v 0.040700 -0.365318 0.258088
v 0.041709 -0.365341 0.255214
v 0.043480 -0.363879 0.253212
v 0.045337 -0.361491 0.252847
v 0.046570 -0.359090 0.254258
v 0.046708 -0.357591 0.256907
v 0.045699 -0.357569 0.259782
v 0.043928 -0.359030 0.261784
v 0.119684 -0.396606 0.253896
v 0.118451 -0.399008 0.252484
v 0.118312 -0.400506 0.249835
v 0.119321 -0.400529 0.246961
v 0.121093 -0.399068 0.244959
v 0.122949 -0.396680 0.244594
v 0.124182 -0.394278 0.246005
v 0.124321 -0.392780 0.248654
v 0.123312 -0.392757 0.251529
v 0.121540 -0.394219 0.253531
v -0.011794 0.058089 -0.066036
v 0.000444 0.057004 -0.064852
v 0.000558 -0.047807 -0.090180
v -0.000231 0.143082 -0.003292
v -0.024513 -0.045586 -0.092605
v -0.010020 0.143949 -0.004239
v -0.047876 -0.039261 -0.099821
v -0.019143 0.146419 -0.007057
v -0.067939 -0.029264 -0.111336
v -0.026977 0.150322 -0.011553
v -0.083335 -0.016277 -0.126365
v -0.032988 0.155394 -0.017421
v -0.093014 -0.001184 -0.143883
v -0.036768 0.161287 -0.024261
v -0.096317 0.014987 -0.162698
v -0.038057 0.167601 -0.031608
v -0.093019 0.031133 -0.181526
v -0.036769 0.173906 -0.038960
v -0.083344 0.046153 -0.199085
v -0.032992 0.179771 -0.045816
v -0.067952 0.059025 -0.214178
v -0.026982 0.184797 -0.051709
v -0.047892 0.068871 -0.225777
v -0.019149 0.188641 -0.056238
v -0.024531 0.075020 -0.233090
v -0.010027 0.191042 -0.059094
v 0.000539 0.077053 -0.235621
v -0.000238 0.191836 -0.060082
v 0.025610 0.074831 -0.233195
v 0.009552 0.190969 -0.059135
v 0.048973 0.068507 -0.225979
v 0.018674 0.188499 -0.056317
v 0.069036 0.058510 -0.214465
v 0.026508 0.184596 -0.051821
v 0.084432 0.045522 -0.199436
v 0.032520 0.179525 -0.045953
v 0.094111 0.030429 -0.181918
v 0.036299 0.173631 -0.039113
v 0.097414 0.014258 -0.163103
v 0.037589 0.167317 -0.031766
v 0.094116 -0.001887 -0.144275
v 0.036301 0.161012 -0.024414
v 0.084441 -0.016908 -0.126716
v 0.032523 0.155147 -0.017558
v 0.069049 -0.029780 -0.111623
v 0.026513 0.150121 -0.011665
v 0.048989 -0.039625 -0.100024
v 0.018680 0.146277 -0.007136
v 0.025628 -0.045774 -0.092710
v 0.009559 0.143876 -0.004280
v -0.023199 0.061176 -0.069558
v -0.032993 0.066056 -0.075179
v -0.040508 0.072396 -0.082515
v -0.045233 0.079764 -0.091067
v -0.046846 0.087658 -0.100252
v -0.045236 0.095539 -0.109443
v -0.040513 0.102872 -0.118015
v -0.032999 0.109155 -0.125382
v -0.023207 0.113961 -0.131044
v -0.011803 0.116963 -0.134614
v 0.000435 0.117956 -0.135850
v 0.012674 0.116871 -0.134666
v 0.024079 0.113784 -0.131143
v 0.033873 0.108904 -0.125522
v 0.041388 0.102564 -0.118186
v 0.046113 0.095196 -0.109634
v 0.047725 0.087302 -0.100450
v 0.046115 0.079420 -0.091258
v 0.041393 0.072088 -0.082687
v 0.033879 0.065804 -0.075319
v 0.024087 0.060998 -0.069657
v 0.012683 0.057996 -0.066087
v 0.012212 0.060561 -0.064834
v 0.023435 0.063515 -0.068347
v 0.000169 0.059585 -0.063618
v 0.033071 0.068245 -0.073919
v 0.039846 0.074723 -0.081583
v 0.044392 0.081780 -0.089833
v 0.045941 0.089366 -0.098680
v 0.044389 0.096964 -0.107520
v 0.039842 0.104055 -0.115751
v 0.033065 0.110658 -0.123323
v 0.023427 0.115460 -0.128854
v 0.012204 0.118498 -0.132321
v 0.000160 0.119566 -0.133486
v -0.011883 0.118589 -0.132270
v -0.023106 0.115635 -0.128757
v -0.032742 0.110905 -0.123185
v -0.040136 0.104722 -0.115935
v -0.044784 0.097506 -0.107500
v -0.046368 0.089750 -0.098455
v -0.044781 0.081982 -0.089416
v -0.040132 0.074732 -0.081001
v -0.032736 0.068492 -0.073781
v -0.023098 0.063690 -0.068250
v -0.011875 0.060652 -0.064783
v 0.011062 0.066908 -0.157271
v 0.003059 0.067595 -0.158074
v 0.003059 0.056277 -0.159553
v 0.003056 0.069576 -0.150325
v 0.009445 0.055729 -0.158913
v 0.009871 0.068991 -0.149641
v 0.015394 0.054123 -0.157040
v 0.016221 0.067277 -0.147643
v 0.020503 0.051570 -0.154063
v 0.021673 0.064551 -0.144465
v 0.024422 0.048241 -0.150185
v 0.025856 0.060999 -0.140326
v 0.026884 0.044365 -0.145669
v 0.028485 0.056862 -0.135506
v 0.027723 0.040205 -0.140824
v 0.029380 0.052422 -0.130334
v 0.026880 0.036046 -0.135979
v 0.028480 0.047982 -0.125164
v 0.024413 0.032170 -0.131465
v 0.025847 0.043845 -0.120346
v 0.020491 0.028841 -0.127590
v 0.021661 0.040293 -0.116210
v 0.015380 0.026287 -0.124617
v 0.016206 0.037567 -0.113037
v 0.009429 0.024682 -0.122750
v 0.009854 0.035853 -0.111044
v 0.003043 0.024134 -0.122115
v 0.003038 0.035269 -0.110366
v -0.003342 0.024682 -0.122755
v -0.003777 0.035853 -0.111049
v -0.009292 0.026288 -0.124628
v -0.010127 0.037567 -0.113048
v -0.014400 0.028842 -0.127605
v -0.015579 0.040293 -0.116226
v -0.018319 0.032170 -0.131483
v -0.019762 0.043846 -0.120365
v -0.020782 0.036046 -0.135999
v -0.022391 0.047983 -0.125185
v -0.021621 0.040206 -0.140844
v -0.023286 0.052423 -0.130357
v -0.020778 0.044365 -0.145689
v -0.022386 0.056862 -0.135527
v -0.018311 0.048241 -0.150203
v -0.019754 0.060999 -0.140345
v -0.014389 0.051570 -0.154078
v -0.015567 0.064552 -0.144481
v -0.009278 0.054124 -0.157051
v -0.010112 0.067278 -0.147654
v -0.003326 0.055729 -0.158918
v -0.003760 0.068991 -0.149647
v 0.018518 0.064896 -0.154924
v 0.024921 0.061695 -0.151193
v 0.029833 0.057523 -0.146332
v 0.032919 0.052665 -0.140672
v 0.033970 0.047452 -0.134599
v 0.032914 0.042238 -0.128527
v 0.029823 0.037381 -0.122870
v 0.024906 0.033209 -0.118013
v 0.018501 0.030008 -0.114288
v 0.011042 0.027996 -0.111947
v 0.003038 0.027310 -0.111151
v -0.004964 0.027996 -0.111954
v -0.012421 0.030008 -0.114301
v -0.018824 0.033210 -0.118032
v -0.023736 0.037381 -0.122893
v -0.026822 0.042239 -0.128553
v -0.027873 0.047452 -0.134626
v -0.026817 0.052666 -0.140697
v -0.023725 0.057524 -0.146354
v -0.018809 0.061696 -0.151211
v -0.012403 0.064896 -0.154937
v -0.004945 0.066908 -0.157278
v 0.010899 0.062888 -0.159919
v 0.018204 0.060916 -0.157620
v 0.024476 0.057781 -0.153965
v 0.029287 0.053694 -0.149203
v 0.032311 0.048935 -0.143659
v 0.033340 0.043828 -0.137710
v 0.032306 0.038722 -0.131762
v 0.029277 0.033963 -0.126221
v 0.024461 0.029876 -0.121463
v 0.018186 0.026741 -0.117814
v 0.010880 0.024770 -0.115521
v 0.003040 0.024098 -0.114741
v -0.004800 0.024770 -0.115527
v -0.012104 0.026741 -0.117826
v -0.018376 0.029877 -0.121481
v -0.023187 0.033964 -0.126243
v -0.026211 0.038722 -0.131787
v -0.027241 0.043829 -0.137736
v -0.026206 0.048936 -0.143684
v -0.023177 0.053695 -0.149225
v -0.018362 0.057781 -0.153983
v -0.012087 0.060917 -0.157633
v 0.003060 0.063560 -0.160705
v -0.004780 0.062888 -0.159926
v 0.007433 0.065350 -0.140795
v 0.003052 0.065726 -0.141235
v 0.011515 0.064249 -0.139510
v 0.015020 0.062496 -0.137468
v 0.017709 0.060212 -0.134806
v 0.019399 0.057553 -0.131708
v 0.019974 0.054699 -0.128383
v 0.019396 0.051845 -0.125059
v 0.017704 0.049185 -0.121962
v 0.015012 0.046901 -0.119303
v 0.011505 0.045149 -0.117264
v 0.007422 0.044048 -0.115982
v 0.003040 0.043672 -0.115547
v -0.001341 0.044048 -0.115986
v -0.005423 0.045149 -0.117271
v -0.008928 0.046902 -0.119314
v -0.011617 0.049186 -0.121975
v -0.013307 0.051845 -0.125073
v -0.013882 0.054699 -0.128398
v -0.013304 0.057553 -0.131722
v -0.011612 0.060213 -0.134819
v -0.008920 0.062497 -0.137478
v -0.005413 0.064249 -0.139518
v -0.001330 0.065351 -0.140799
v 0.006185 0.064220 -0.135641
v 0.003049 0.064490 -0.135955
v 0.009108 0.063432 -0.134721
v 0.011616 0.062178 -0.133259
v 0.013541 0.060543 -0.131354
v 0.014751 0.058639 -0.129136
v 0.015163 0.056596 -0.126757
v 0.014749 0.054553 -0.124377
v 0.013537 0.052649 -0.122160
v 0.011611 0.051015 -0.120257
v 0.009101 0.049760 -0.118797
v 0.006178 0.048972 -0.117880
v 0.003041 0.048703 -0.117568
v -0.000095 0.048972 -0.117883
v -0.003017 0.049761 -0.118802
v -0.005526 0.051015 -0.120265
v -0.007450 0.052650 -0.122169
v -0.008660 0.054553 -0.124387
v -0.009072 0.056596 -0.126767
v -0.008658 0.058639 -0.129146
v -0.007446 0.060543 -0.131363
v -0.005520 0.062178 -0.133266
v -0.003010 0.063432 -0.134726
v -0.000087 0.064221 -0.135644
v 0.005065 0.067196 -0.127592
v 0.003046 0.067369 -0.127795
v 0.006946 0.066689 -0.127000
v 0.008562 0.065881 -0.126059
v 0.009801 0.064828 -0.124832
v 0.010580 0.063603 -0.123404
v 0.010845 0.062288 -0.121872
v 0.010578 0.060972 -0.120340
v 0.009798 0.059746 -0.118913
v 0.008558 0.058694 -0.117688
v 0.006942 0.057886 -0.116748
v 0.005060 0.057379 -0.116157
v 0.003041 0.057206 -0.115956
v 0.001022 0.057379 -0.116159
v -0.000860 0.057886 -0.116751
v -0.002475 0.058694 -0.117692
v -0.003714 0.059747 -0.118919
v -0.004493 0.060972 -0.120347
v -0.004758 0.062288 -0.121879
v -0.004492 0.063603 -0.123411
v -0.003712 0.064829 -0.124838
v -0.002471 0.065881 -0.126064
v -0.000855 0.066689 -0.127004
v 0.001027 0.067196 -0.127594
v 0.003055 0.044986 -0.150773
v 0.005813 0.044749 -0.150497
v 0.008383 0.044056 -0.149688
v 0.010589 0.042953 -0.148403
v 0.012281 0.041515 -0.146727
v 0.013345 0.039841 -0.144777
v 0.013707 0.038045 -0.142684
v 0.013343 0.036248 -0.140592
v 0.012278 0.034574 -0.138643
v 0.010584 0.033137 -0.136969
v 0.008376 0.032034 -0.135685
v 0.005806 0.031340 -0.134879
v 0.003048 0.031104 -0.134605
v 0.000291 0.031341 -0.134881
v -0.002279 0.032034 -0.135690
v -0.004485 0.033137 -0.136976
v -0.006177 0.034574 -0.138651
v -0.007241 0.036248 -0.140601
v -0.007603 0.038045 -0.142694
v -0.007239 0.039841 -0.144786
v -0.006174 0.041515 -0.146735
v -0.004480 0.042953 -0.148409
v -0.002273 0.044056 -0.149693
v 0.000298 0.044749 -0.150499
v -0.011794 0.058089 -0.066036
v 0.000444 0.057004 -0.064852
v 0.000558 -0.047807 -0.090180
v -0.024513 -0.045586 -0.092605
v -0.047876 -0.039261 -0.099821
v -0.067939 -0.029264 -0.111336
v -0.083335 -0.016277 -0.126365
v -0.093014 -0.001184 -0.143883
v -0.096317 0.014987 -0.162698
v -0.093019 0.031133 -0.181526
v -0.083344 0.046153 -0.199085
v -0.067952 0.059025 -0.214178
v -0.047892 0.068871 -0.225777
v -0.024531 0.075020 -0.233090
v 0.000539 0.077053 -0.235621
v 0.025610 0.074831 -0.233195
v 0.048973 0.068507 -0.225979
v 0.069036 0.058510 -0.214465
v 0.084432 0.045522 -0.199436
v 0.094111 0.030429 -0.181918
v 0.097414 0.014258 -0.163103
v 0.094116 -0.001887 -0.144275
v 0.084441 -0.016908 -0.126716
v 0.069049 -0.029780 -0.111623
v 0.048989 -0.039625 -0.100024
v 0.025628 -0.045774 -0.092710
v -0.023199 0.061176 -0.069558
v -0.032993 0.066056 -0.075179
v -0.040508 0.072396 -0.082515
v -0.045233 0.079764 -0.091067
v -0.046846 0.087658 -0.100252
v -0.045236 0.095539 -0.109443
v -0.040513 0.102872 -0.118015
v -0.032999 0.109155 -0.125382
v -0.023207 0.113961 -0.131044
v -0.011803 0.116963 -0.134614
v 0.000435 0.117956 -0.135850
v 0.012674 0.116871 -0.134666
v 0.024079 0.113784 -0.131143
v 0.033873 0.108904 -0.125522
v 0.041388 0.102564 -0.118186
v 0.046113 0.095196 -0.109634
v 0.047725 0.087302 -0.100450
v 0.046115 0.079420 -0.091258
v 0.041393 0.072088 -0.082687
v 0.033879 0.065804 -0.075319
v 0.024087 0.060998 -0.069657
v 0.012683 0.057996 -0.066087
v -0.011590 0.058326 -0.067012
v 0.000409 0.057235 -0.065875
v -0.000462 0.143031 -0.004306
v -0.010060 0.143903 -0.005215
v -0.019004 0.146344 -0.007959
v -0.026685 0.150187 -0.012351
v -0.032579 0.155171 -0.018092
v -0.036285 0.160955 -0.024789
v -0.037549 0.167146 -0.031988
v -0.036286 0.173323 -0.039197
v -0.032582 0.179062 -0.045924
v -0.026690 0.183975 -0.051712
v -0.019010 0.187725 -0.056167
v -0.010067 0.190058 -0.058984
v -0.000469 0.190814 -0.059971
v 0.009129 0.189942 -0.059062
v 0.018074 0.187501 -0.056317
v 0.025754 0.183658 -0.051925
v 0.031648 0.178674 -0.046185
v 0.035354 0.172890 -0.039487
v 0.036618 0.166699 -0.032289
v 0.035356 0.160522 -0.025080
v 0.031652 0.154783 -0.018353
v 0.025759 0.149870 -0.012564
v 0.018079 0.146120 -0.008110
v 0.009136 0.143787 -0.005293
v -0.022772 0.061377 -0.070443
v -0.032374 0.066182 -0.075934
v -0.039743 0.072412 -0.083110
v -0.044375 0.079644 -0.091483
v -0.045956 0.087384 -0.100483
v -0.044378 0.095105 -0.109495
v -0.039747 0.102281 -0.117906
v -0.032380 0.108422 -0.125142
v -0.022779 0.113111 -0.130711
v -0.011598 0.116027 -0.134232
v 0.000401 0.116973 -0.135466
v 0.012400 0.115883 -0.134330
v 0.023582 0.112831 -0.130899
v 0.033184 0.108027 -0.125408
v 0.040553 0.101796 -0.118232
v 0.045185 0.094564 -0.109859
v 0.046766 0.086824 -0.100859
v 0.045187 0.079103 -0.091847
v 0.040557 0.071927 -0.083436
v 0.033190 0.065786 -0.076200
v 0.023589 0.061097 -0.070631
v 0.012408 0.058181 -0.067110
v 0.011942 0.060733 -0.065848
v 0.022945 0.063603 -0.069314
v 0.000134 0.059803 -0.064634
v 0.032393 0.068217 -0.074794
v 0.039035 0.074550 -0.082320
v 0.043492 0.081456 -0.090415
v 0.045011 0.088888 -0.099089
v 0.043490 0.096338 -0.107751
v 0.039031 0.103298 -0.115810
v 0.032387 0.109785 -0.123219
v 0.022937 0.114513 -0.128622
v 0.011934 0.117516 -0.131998
v 0.000125 0.118589 -0.133117
v -0.011682 0.117659 -0.131902
v -0.022685 0.114789 -0.128437
v -0.032134 0.110175 -0.122957
v -0.039383 0.104131 -0.115836
v -0.043940 0.097070 -0.107559
v -0.045493 0.089472 -0.098690
v -0.043938 0.081855 -0.089834
v -0.039379 0.074738 -0.081594
v -0.032128 0.068607 -0.074532
v -0.022678 0.063879 -0.069129
v -0.011675 0.060876 -0.065753
v -0.011590 0.058326 -0.067012
v 0.000409 0.057235 -0.065875
v 0.000711 -0.046792 -0.091821
v -0.023870 -0.044558 -0.094150
v -0.046776 -0.038307 -0.101177
v -0.066447 -0.028465 -0.112425
v -0.081542 -0.015702 -0.127127
v -0.091031 -0.000887 -0.144279
v -0.094270 0.014969 -0.162714
v -0.091036 0.030785 -0.181176
v -0.081550 0.045485 -0.198406
v -0.066459 0.058066 -0.213230
v -0.046791 0.067671 -0.224637
v -0.023887 0.073645 -0.231851
v 0.000694 0.075582 -0.234379
v 0.025274 0.073348 -0.232051
v 0.048181 0.067097 -0.225023
v 0.067851 0.057255 -0.213775
v 0.082946 0.044491 -0.199074
v 0.092436 0.029677 -0.181921
v 0.095674 0.013821 -0.163486
v 0.092440 -0.001995 -0.145024
v 0.082954 -0.016695 -0.127794
v 0.067863 -0.029276 -0.112971
v 0.048195 -0.038881 -0.101563
v 0.025291 -0.044855 -0.094349
v -0.022772 0.061377 -0.070443
v -0.032374 0.066182 -0.075934
v -0.039743 0.072412 -0.083110
v -0.044375 0.079644 -0.091483
v -0.045956 0.087384 -0.100483
v -0.044378 0.095105 -0.109495
v -0.039747 0.102281 -0.117906
v -0.032380 0.108422 -0.125142
v -0.022779 0.113111 -0.130711
v -0.011598 0.116027 -0.134232
v 0.000401 0.116973 -0.135466
v 0.012400 0.115883 -0.134330
v 0.023582 0.112831 -0.130899
v 0.033184 0.108027 -0.125408
v 0.040553 0.101796 -0.118232
v 0.045185 0.094564 -0.109859
v 0.046766 0.086824 -0.100859
v 0.045187 0.079103 -0.091847
v 0.040557 0.071927 -0.083436
v 0.033190 0.065786 -0.076200
v 0.023589 0.061097 -0.070631
v 0.012408 0.058181 -0.067110
v 0.005037 0.145953 -0.059976
v 0.003018 0.146126 -0.060178
v 0.006919 0.145446 -0.059384
v 0.008534 0.144638 -0.058442
v 0.009773 0.143585 -0.057216
v 0.010552 0.142360 -0.055788
v 0.010817 0.141045 -0.054256
v 0.010551 0.139729 -0.052724
v 0.009771 0.138503 -0.051297
v 0.008530 0.137451 -0.050071
v 0.006914 0.136643 -0.049131
v 0.005032 0.136136 -0.048541
v 0.003013 0.135963 -0.048340
v 0.000994 0.136136 -0.048542
v -0.000887 0.136643 -0.049135
v -0.002503 0.137451 -0.050076
v -0.003742 0.138504 -0.051302
v -0.004521 0.139729 -0.052730
v -0.004786 0.141045 -0.054262
v -0.004520 0.142360 -0.055794
v -0.003740 0.143585 -0.057221
v -0.002499 0.144638 -0.058447
v -0.000883 0.145446 -0.059387
v 0.000999 0.145953 -0.059978
vn -0.0000 0.7632 0.6461
vn -0.0000 0.6437 0.7653
vn -0.3798 0.7632 0.5227
vn -0.4498 0.6437 0.6191
vn -0.6145 0.7632 0.1997
vn -0.7278 0.6437 0.2365
vn -0.6145 0.7632 -0.1997
vn -0.7278 0.6437 -0.2365
vn -0.3798 0.7632 -0.5227
vn -0.4498 0.6437 -0.6191
vn -0.0000 0.7632 -0.6461
vn -0.0000 0.6437 -0.7653
vn 0.3798 0.7632 -0.5227
vn 0.4498 0.6437 -0.6191
vn 0.6145 0.7632 -0.1997
vn 0.7278 0.6437 -0.2365
vn 0.6145 0.7632 0.1997
vn 0.7278 0.6437 0.2365
vn 0.3798 0.7632 0.5227
vn 0.4498 0.6437 0.6191
vn -0.0000 0.6269 0.7791
vn -0.4580 0.6269 0.6303
vn -0.7410 0.6269 0.2408
vn -0.7410 0.6269 -0.2408
vn -0.4580 0.6269 -0.6303
vn -0.0000 0.6269 -0.7791
vn 0.4580 0.6269 -0.6303
vn 0.7410 0.6269 -0.2408
vn 0.7410 0.6269 0.2408
vn 0.4580 0.6269 0.6303
vn -0.0000 0.7479 0.6639
vn -0.3902 0.7479 0.5371
vn -0.6314 0.7479 0.2051
vn -0.6314 0.7479 -0.2051
vn -0.3902 0.7479 -0.5371
vn -0.0000 0.7479 -0.6639
vn 0.3902 0.7479 -0.5371
vn 0.6314 0.7479 -0.2051
vn 0.6314 0.7479 0.2051
vn 0.3902 0.7479 0.5371
vn -0.0000 0.6145 0.7890
vn -0.4637 0.6145 0.6383
vn -0.7503 0.6145 0.2438
vn -0.7503 0.6145 -0.2438
vn -0.4637 0.6145 -0.6383
vn -0.0000 0.6145 -0.7890
vn 0.4637 0.6145 -0.6383
vn 0.7503 0.6145 -0.2438
vn 0.7503 0.6145 0.2438
vn 0.4637 0.6145 0.6383
vn -0.0000 -0.6437 0.7653
vn -0.4498 -0.6437 0.6191
vn -0.7278 -0.6437 0.2365
vn -0.7278 -0.6437 -0.2365
vn -0.4498 -0.6437 -0.6191
vn -0.0000 -0.6437 -0.7653
vn 0.4498 -0.6437 -0.6191
vn 0.7278 -0.6437 -0.2365
vn 0.7278 -0.6437 0.2365
vn 0.4498 -0.6437 0.6191
vn -0.0350 -0.2134 0.9763
vn 0.0350 -0.2134 0.9763
vn 0.6733 -0.1579 0.7223
vn -0.6733 -0.1579 0.7223
vn 0.7276 -0.4692 0.5005
vn -0.7276 -0.4692 0.5005
vn 0.8295 -0.5514 0.0885
vn -0.8295 -0.5514 0.0885
vn 0.8295 -0.4642 -0.3105
vn -0.8295 -0.4642 -0.3105
vn 0.7276 -0.2176 -0.6506
vn -0.7276 -0.2176 -0.6506
vn 0.6733 0.1579 -0.7223
vn -0.6733 0.1579 -0.7223
vn 0.7276 0.4692 -0.5005
vn -0.7276 0.4692 -0.5005
vn 0.8295 0.5514 -0.0885
vn -0.8295 0.5514 -0.0885
vn 0.8295 0.4642 0.3105
vn -0.8295 0.4642 0.3105
vn 0.7276 0.2176 0.6506
vn -0.7276 0.2176 0.6506
vn -0.1484 -0.7429 0.6528
vn 0.1484 -0.7429 0.6528
vn -0.2649 -0.9594 0.0968
vn 0.2649 -0.9594 0.0968
vn -0.2649 -0.8315 -0.4883
vn 0.2649 -0.8315 -0.4883
vn -0.1484 -0.4028 -0.9032
vn 0.1484 -0.4028 -0.9032
vn -0.0350 0.2134 -0.9763
vn 0.0350 0.2134 -0.9763
vn -0.1484 0.7429 -0.6528
vn 0.1484 0.7429 -0.6528
vn -0.2650 0.9594 -0.0968
vn 0.2650 0.9594 -0.0968
vn -0.2650 0.8315 0.4883
vn 0.2650 0.8315 0.4883
vn -0.1484 0.4028 0.9032
vn 0.1484 0.4028 0.9032
vn -0.7837 -0.4640 0.4130
vn -0.7837 -0.1326 0.6068
vn -0.7837 -0.6181 0.0614
vn -0.7837 -0.5361 -0.3136
vn -0.7837 -0.2494 -0.5689
vn -0.7837 0.1326 -0.6068
vn -0.7837 0.4640 -0.4129
vn -0.7837 0.6181 -0.0614
vn -0.7837 0.5361 0.3136
vn -0.7837 0.2494 0.5689
vn -0.6437 -0.5716 0.5088
vn -0.6437 -0.1634 0.7476
vn -0.6437 -0.7615 0.0756
vn -0.6437 -0.6605 -0.3864
vn -0.6437 -0.3072 -0.7009
vn -0.6437 0.1634 -0.7476
vn -0.6437 0.5716 -0.5088
vn -0.6437 0.7615 -0.0756
vn -0.6437 0.6605 0.3864
vn -0.6437 0.3072 0.7009
vn -0.7837 0.4640 -0.4130
vn -0.0000 0.3378 0.9412
vn -0.0000 0.9962 -0.0870
vn -0.4498 0.2115 0.8677
vn -0.4804 0.8613 -0.1655
vn -0.7278 -0.1193 0.6753
vn -0.7774 0.5080 -0.3710
vn -0.7278 -0.5281 0.4375
vn -0.7773 0.0714 -0.6250
vn -0.4498 -0.8588 0.2451
vn -0.4804 -0.2819 -0.8305
vn -0.0000 -0.9852 0.1716
vn -0.0000 -0.4168 -0.9090
vn 0.4498 -0.8588 0.2451
vn 0.4804 -0.2819 -0.8305
vn 0.7278 -0.5281 0.4375
vn 0.7773 0.0714 -0.6250
vn 0.7278 -0.1193 0.6753
vn 0.7774 0.5080 -0.3710
vn 0.4498 0.2115 0.8677
vn 0.4804 0.8613 -0.1655
vn -0.0721 0.5848 -0.8079
vn -0.0000 0.6051 -0.7962
vn -0.1167 0.5318 -0.8388
vn -0.1167 0.4663 -0.8769
vn -0.0721 0.4133 -0.9078
vn -0.0000 0.3930 -0.9195
vn 0.0721 0.4133 -0.9078
vn 0.1167 0.4663 -0.8769
vn 0.1167 0.5318 -0.8388
vn 0.0721 0.5848 -0.8079
vn -0.0000 0.2424 0.9702
vn -0.0000 0.9989 -0.0478
vn -0.4592 0.1238 0.8797
vn -0.4498 0.8826 -0.1364
vn -0.7430 -0.1867 0.6427
vn -0.7278 0.5784 -0.3685
vn -0.7431 -0.5705 0.3497
vn -0.7278 0.2023 -0.6553
vn -0.4593 -0.8811 0.1126
vn -0.4498 -0.1020 -0.8873
vn -0.0000 -0.9998 0.0220
vn -0.0000 -0.2182 -0.9759
vn 0.4593 -0.8811 0.1126
vn 0.4498 -0.1020 -0.8873
vn 0.7431 -0.5705 0.3497
vn 0.7278 0.2023 -0.6553
vn 0.7430 -0.1867 0.6427
vn 0.7278 0.5784 -0.3685
vn 0.4592 0.1238 0.8797
vn 0.4498 0.8826 -0.1364
vn -0.0000 0.9933 -0.1155
vn -0.4242 0.8836 -0.1983
vn -0.6872 0.5958 -0.4156
vn -0.6883 0.2391 -0.6849
vn -0.4259 -0.0503 -0.9034
vn -0.0000 -0.1611 -0.9869
vn 0.4259 -0.0504 -0.9034
vn 0.6883 0.2391 -0.6849
vn 0.6872 0.5958 -0.4156
vn 0.4242 0.8836 -0.1983
vn -0.4732 0.8777 -0.0755
vn -0.7668 0.5573 -0.3185
vn -0.7683 0.1598 -0.6198
vn -0.4756 -0.1629 -0.8644
vn -0.0000 -0.2865 -0.9581
vn 0.4756 -0.1629 -0.8644
vn 0.7683 0.1598 -0.6199
vn 0.7668 0.5573 -0.3185
vn 0.4732 0.8777 -0.0755
vn -0.0000 0.9999 0.0171
vn -0.0284 -0.0347 0.9990
vn -0.3239 -0.1793 0.9290
vn -0.4900 -0.3920 0.7786
vn -0.5148 -0.6308 0.5806
vn -0.3692 -0.8542 0.3660
vn -0.0339 -0.9779 0.2063
vn 0.3961 -0.8938 0.2104
vn 0.6873 -0.5955 0.4160
vn 0.6569 -0.2429 0.7137
vn 0.3504 -0.0341 0.9360
vn 0.0332 0.6622 0.7486
vn -0.5460 0.5030 0.6700
vn -0.9275 0.1506 0.3420
vn -0.9520 -0.2754 -0.1335
vn -0.5749 -0.5997 -0.5566
vn 0.0314 -0.6816 -0.7311
vn 0.6053 -0.5127 -0.6088
vn 0.9508 -0.1647 -0.2624
vn 0.9525 0.2461 0.1791
vn 0.6040 0.5655 0.5616
vn 0.0027 0.4539 0.8910
vn -0.5672 0.4086 0.7150
vn -0.9380 0.2086 0.2769
vn -0.9587 -0.0802 -0.2728
vn -0.6007 -0.3511 -0.7182
vn 0.0022 -0.4942 -0.8694
vn 0.6025 -0.4460 -0.6618
vn 0.9556 -0.2246 -0.1905
vn 0.9347 0.0742 0.3475
vn 0.5692 0.3300 0.7531
vn -0.0461 0.1834 0.9820
vn -0.6117 0.1822 0.7698
vn -0.9536 0.1178 0.2771
vn -0.9465 0.0129 -0.3223
vn -0.5768 -0.0984 -0.8110
vn 0.0326 -0.1742 -0.9842
vn 0.6314 -0.1786 -0.7546
vn 0.9681 -0.1074 -0.2262
vn 0.9257 0.0075 0.3783
vn 0.5381 0.1181 0.8346
vn -0.1490 -0.0211 0.9886
vn -0.6872 -0.1217 0.7162
vn -0.9681 -0.1728 0.1816
vn -0.8977 -0.1596 -0.4108
vn -0.5102 -0.0923 -0.8551
vn 0.0698 0.0100 -0.9975
vn 0.6444 0.1155 -0.7559
vn 0.9656 0.1754 -0.1922
vn 0.8801 0.1618 0.4464
vn 0.4472 0.0870 0.8902
vn -0.1774 -0.1147 0.9774
vn -0.5854 -0.4355 0.6839
vn -0.7741 -0.6162 0.1452
vn -0.6826 -0.5788 -0.4462
vn -0.3603 -0.3232 -0.8750
vn 0.0786 0.0558 -0.9953
vn 0.5077 0.4230 -0.7505
vn 0.7576 0.6288 -0.1749
vn 0.6725 0.5530 0.4918
vn 0.3009 0.2523 0.9197
vn -0.0681 -0.1705 0.9830
vn -0.3316 -0.6173 0.7134
vn -0.4774 -0.8585 0.1876
vn -0.4482 -0.7806 -0.4356
vn -0.2452 -0.3780 -0.8928
vn 0.0412 0.1613 -0.9860
vn 0.3054 0.6268 -0.7168
vn 0.4659 0.8685 -0.1692
vn 0.4425 0.7635 0.4703
vn 0.2293 0.3504 0.9081
vn 0.0165 -0.1938 0.9809
vn -0.2345 -0.6801 0.6946
vn -0.4002 -0.9094 0.1135
vn -0.3940 -0.7419 -0.5426
vn -0.2238 -0.2743 -0.9352
vn 0.0032 0.2351 -0.9720
vn 0.2174 0.6502 -0.7280
vn 0.3778 0.8917 -0.2491
vn 0.4151 0.8261 0.3813
vn 0.2708 0.3910 0.8796
vn -0.2358 -0.3228 0.9166
vn 0.0043 -0.3316 0.9434
vn 0.0015 -0.2349 0.9720
vn 0.0019 0.0789 0.9969
vn -0.2270 -0.2156 0.9497
vn -0.1789 0.0940 0.9794
vn -0.4407 -0.1580 0.8837
vn -0.3482 0.1389 0.9271
vn -0.6252 -0.0658 0.7777
vn -0.4948 0.2111 0.8430
vn -0.7677 0.0550 0.6385
vn -0.6084 0.3061 0.7323
vn -0.8577 0.1963 0.4751
vn -0.6804 0.4176 0.6022
vn -0.8886 0.3481 0.2989
vn -0.7050 0.5380 0.4620
vn -0.8576 0.4995 0.1222
vn -0.6804 0.6585 0.3217
vn -0.7674 0.6398 -0.0422
vn -0.6083 0.7703 0.1915
vn -0.6246 0.7593 -0.1828
vn -0.4944 0.8655 0.0807
vn -0.4396 0.8501 -0.2900
vn -0.3474 0.9377 -0.0034
vn -0.2256 0.9065 -0.3569
vn -0.1778 0.9825 -0.0556
vn 0.0030 0.9253 -0.3793
vn 0.0031 0.9973 -0.0729
vn 0.2312 0.9054 -0.3560
vn 0.1836 0.9815 -0.0545
vn 0.4440 0.8483 -0.2884
vn 0.3521 0.9360 -0.0016
vn 0.6274 0.7573 -0.1810
vn 0.5064 0.8576 0.0898
vn 0.7688 0.6382 -0.0407
vn 0.6186 0.7602 0.1987
vn 0.8580 0.4986 0.1230
vn 0.6835 0.6560 0.3201
vn 0.8885 0.3481 0.2988
vn 0.7079 0.5359 0.4600
vn 0.8580 0.1972 0.4744
vn 0.6835 0.4158 0.6000
vn 0.7685 0.0564 0.6373
vn 0.6185 0.3114 0.7214
vn 0.6268 -0.0643 0.7765
vn 0.5060 0.2183 0.8344
vn 0.4430 -0.1567 0.8827
vn 0.3513 0.1398 0.9258
vn 0.2299 -0.2149 0.9492
vn 0.1825 0.0945 0.9786
vn -0.4628 -0.2730 0.8434
vn -0.6607 -0.1847 0.7276
vn -0.8149 -0.0631 0.5762
vn -0.9130 0.0836 0.3994
vn -0.9466 0.2445 0.2100
vn -0.9129 0.4075 0.0223
vn -0.8146 0.5604 -0.1496
vn -0.6601 0.6918 -0.2928
vn -0.4617 0.7929 -0.3978
vn -0.2344 0.8575 -0.4580
vn 0.0059 0.8824 -0.4705
vn 0.2432 0.8667 -0.4356
vn 0.4623 0.8120 -0.3562
vn 0.6444 0.7360 -0.2076
vn 0.7623 0.6469 -0.0206
vn 0.8349 0.5278 0.1560
vn 0.8646 0.3813 0.3273
vn 0.8348 0.2343 0.4982
vn 0.7620 0.0777 0.6429
vn 0.6438 -0.0938 0.7595
vn 0.4613 -0.2293 0.8571
vn 0.2417 -0.2995 0.9230
vn 0.2482 -0.4779 0.8426
vn 0.4835 -0.4052 0.7759
vn -0.0040 -0.5097 0.8603
vn 0.6922 -0.2624 0.6723
vn 0.8314 -0.0747 0.5506
vn 0.9108 0.0910 0.4026
vn 0.9434 0.2516 0.2159
vn 0.9109 0.4117 0.0288
vn 0.8316 0.5327 -0.1571
vn 0.6927 0.6244 -0.3609
vn 0.4846 0.7052 -0.5176
vn 0.2498 0.7602 -0.5997
vn -0.0023 0.7733 -0.6340
vn -0.2552 0.7434 -0.6182
vn -0.4924 0.6722 -0.5528
vn -0.6979 0.5638 -0.4416
vn -0.8569 0.4251 -0.2915
vn -0.9576 0.2653 -0.1127
vn -0.9920 0.0958 0.0823
vn -0.9576 -0.0713 0.2793
vn -0.8571 -0.2237 0.4641
vn -0.6985 -0.3509 0.6237
vn -0.4935 -0.4444 0.7476
vn -0.2567 -0.4984 0.8281
vn 0.2521 0.7874 -0.5626
vn 0.0003 0.8090 -0.5878
vn 0.0004 -0.3806 -0.9247
vn -0.0000 0.9985 0.0542
vn 0.1178 -0.3907 -0.9129
vn 0.1577 0.9850 0.0700
vn 0.2272 -0.4202 -0.8785
vn 0.3046 0.9453 0.1162
vn 0.3211 -0.4672 -0.8238
vn 0.4308 0.8823 0.1898
vn 0.3932 -0.5284 -0.7525
vn 0.5276 0.8001 0.2856
vn 0.4385 -0.5997 -0.6694
vn 0.5884 0.7043 0.3971
vn 0.4539 -0.6762 -0.5803
vn 0.6091 0.6016 0.5168
vn 0.4384 -0.7527 -0.4912
vn 0.5883 0.4989 0.6364
vn 0.3931 -0.8239 -0.4082
vn 0.5274 0.4031 0.7479
vn 0.3209 -0.8851 -0.3370
vn 0.4305 0.3209 0.8436
vn 0.2269 -0.9321 -0.2823
vn 0.3043 0.2578 0.9170
vn 0.1175 -0.9616 -0.2480
vn 0.1573 0.2182 0.9631
vn 0.0001 -0.9717 -0.2363
vn -0.0004 0.2047 0.9788
vn -0.1173 -0.9616 -0.2481
vn -0.1581 0.2182 0.9630
vn -0.2267 -0.9321 -0.2825
vn -0.3051 0.2579 0.9168
vn -0.3207 -0.8851 -0.3373
vn -0.4312 0.3209 0.8432
vn -0.3927 -0.8239 -0.4086
vn -0.5280 0.4032 0.7474
vn -0.4380 -0.7526 -0.4916
vn -0.5888 0.4989 0.6359
vn -0.4534 -0.6762 -0.5807
vn -0.6096 0.6016 0.5162
vn -0.4379 -0.5997 -0.6698
vn -0.5887 0.7043 0.3966
vn -0.3926 -0.5284 -0.7528
vn -0.5278 0.8001 0.2851
vn -0.3204 -0.4672 -0.8240
vn -0.4309 0.8823 0.1894
vn -0.2265 -0.4202 -0.8787
vn -0.3047 0.9454 0.1160
vn -0.1170 -0.3907 -0.9130
vn -0.1577 0.9850 0.0699
vn 0.4867 0.7241 -0.4887
vn 0.6882 0.6233 -0.3713
vn 0.8427 0.4921 -0.2184
vn 0.9399 0.3392 -0.0403
vn 0.9729 0.1752 0.1508
vn 0.9397 0.0111 0.3419
vn 0.8424 -0.1417 0.5199
vn 0.6877 -0.2730 0.6727
vn 0.4862 -0.3737 0.7899
vn 0.2515 -0.4370 0.8636
vn -0.0004 -0.4586 0.8886
vn -0.2522 -0.4370 0.8634
vn -0.4868 -0.3737 0.7895
vn -0.6883 -0.2730 0.6721
vn -0.8429 -0.1417 0.5191
vn -0.9400 0.0111 0.3411
vn -0.9730 0.1752 0.1500
vn -0.9398 0.3392 -0.0411
vn -0.8425 0.4921 -0.2191
vn -0.6878 0.6233 -0.3719
vn -0.4863 0.7241 -0.4892
vn -0.2516 0.7874 -0.5628
vn 0.2294 0.2028 -0.9520
vn 0.4427 0.1452 -0.8848
vn 0.6258 0.0536 -0.7781
vn 0.7664 -0.0657 -0.6390
vn 0.8547 -0.2047 -0.4771
vn 0.8847 -0.3538 -0.3034
vn 0.8545 -0.5030 -0.1297
vn 0.7661 -0.6419 0.0322
vn 0.6254 -0.7613 0.1711
vn 0.4422 -0.8529 0.2777
vn 0.2288 -0.9104 0.3446
vn -0.0002 -0.9301 0.3674
vn -0.2291 -0.9104 0.3444
vn -0.4424 -0.8528 0.2773
vn -0.6256 -0.7613 0.1706
vn -0.7661 -0.6419 0.0315
vn -0.8544 -0.5029 -0.1304
vn -0.8845 -0.3538 -0.3041
vn -0.8543 -0.2047 -0.4778
vn -0.7658 -0.0657 -0.6397
vn -0.6252 0.0537 -0.7786
vn -0.4419 0.1452 -0.8852
vn 0.0004 0.2224 -0.9749
vn -0.2286 0.2028 -0.9522
vn 0.0977 0.9402 0.3262
vn -0.0001 0.9486 0.3164
vn 0.1888 0.9157 0.3549
vn 0.2671 0.8765 0.4005
vn 0.3271 0.8255 0.4599
vn 0.3648 0.7662 0.5290
vn 0.3776 0.7025 0.6033
vn 0.3647 0.6388 0.6775
vn 0.3270 0.5794 0.7466
vn 0.2669 0.5284 0.8060
vn 0.1886 0.4893 0.8515
vn 0.0974 0.4647 0.8801
vn -0.0004 0.4563 0.8898
vn -0.0982 0.4647 0.8800
vn -0.1893 0.4893 0.8513
vn -0.2676 0.5284 0.8057
vn -0.3276 0.5794 0.7463
vn -0.3653 0.6388 0.6772
vn -0.3781 0.7025 0.6029
vn -0.3652 0.7662 0.5287
vn -0.3275 0.8256 0.4596
vn -0.2674 0.8765 0.4002
vn -0.1891 0.9157 0.3547
vn -0.0979 0.9402 0.3261
vn 0.1758 0.9842 -0.0196
vn -0.0000 0.9993 -0.0373
vn 0.3396 0.9400 0.0319
vn 0.4803 0.8697 0.1139
vn 0.5882 0.7781 0.2206
vn 0.6560 0.6714 0.3450
vn 0.6790 0.5568 0.4784
vn 0.6558 0.4423 0.6117
vn 0.5879 0.3356 0.7360
vn 0.4799 0.2440 0.8427
vn 0.3392 0.1737 0.9245
vn 0.1754 0.1295 0.9760
vn -0.0004 0.1144 0.9934
vn -0.1762 0.1295 0.9758
vn -0.3400 0.1737 0.9242
vn -0.4807 0.2440 0.8423
vn -0.5885 0.3356 0.7355
vn -0.6563 0.4423 0.6112
vn -0.6794 0.5569 0.4778
vn -0.6562 0.6714 0.3444
vn -0.5883 0.7781 0.2202
vn -0.4803 0.8697 0.1135
vn -0.3396 0.9400 0.0316
vn -0.1758 0.9842 -0.0198
vn 0.2499 0.8070 -0.5351
vn 0.0002 0.8284 -0.5602
vn 0.4825 0.7442 -0.4619
vn 0.6823 0.6443 -0.3455
vn 0.8355 0.5142 -0.1939
vn 0.9318 0.3626 -0.0173
vn 0.9646 0.2000 0.1721
vn 0.9316 0.0374 0.3616
vn 0.8352 -0.1142 0.5380
vn 0.6818 -0.2443 0.6895
vn 0.4820 -0.3442 0.8058
vn 0.2493 -0.4070 0.8788
vn -0.0004 -0.4284 0.9036
vn -0.2500 -0.4069 0.8786
vn -0.4827 -0.3442 0.8053
vn -0.6824 -0.2443 0.6889
vn -0.8356 -0.1142 0.5373
vn -0.9319 0.0374 0.3608
vn -0.9647 0.2000 0.1713
vn -0.9317 0.3627 -0.0181
vn -0.8353 0.5142 -0.1946
vn -0.6819 0.6443 -0.3461
vn -0.4821 0.7442 -0.4623
vn -0.2494 0.8070 -0.5353
vn 0.0003 -0.6837 -0.7297
vn 0.0283 -0.6861 -0.7269
vn 0.0544 -0.6932 -0.7187
vn 0.0769 -0.7044 -0.7056
vn 0.0941 -0.7190 -0.6886
vn 0.1049 -0.7360 -0.6688
vn 0.1086 -0.7543 -0.6475
vn 0.1049 -0.7725 -0.6263
vn 0.0940 -0.7895 -0.6065
vn 0.0768 -0.8042 -0.5894
vn 0.0544 -0.8154 -0.5764
vn 0.0283 -0.8224 -0.5682
vn 0.0002 -0.8248 -0.5654
vn -0.0278 -0.8224 -0.5682
vn -0.0539 -0.8154 -0.5764
vn -0.0763 -0.8042 -0.5895
vn -0.0935 -0.7895 -0.6065
vn -0.1044 -0.7725 -0.6264
vn -0.1080 -0.7543 -0.6476
vn -0.1043 -0.7360 -0.6689
vn -0.0935 -0.7190 -0.6887
vn -0.0763 -0.7044 -0.7057
vn -0.0539 -0.6932 -0.7188
vn -0.0277 -0.6861 -0.7270
vn -0.2273 -0.2155 0.9497
vn 0.0008 -0.2349 0.9720
vn 0.0202 -0.1937 0.9808
vn -0.2461 -0.2536 0.9355
vn -0.4242 -0.1286 0.8964
vn -0.6389 -0.0890 0.7641
vn -0.7580 0.0694 0.6485
vn -0.8628 0.1895 0.4688
vn -0.8886 0.3473 0.2997
vn -0.8525 0.5069 0.1279
vn -0.7775 0.6264 -0.0557
vn -0.6103 0.7754 -0.1621
vn -0.4575 0.8297 -0.3199
vn -0.2066 0.9241 -0.3216
vn -0.0178 0.9062 -0.4224
vn 0.2494 0.9170 -0.3113
vn 0.4260 0.8398 -0.3365
vn 0.6403 0.7560 -0.1360
vn 0.7579 0.6470 -0.0836
vn 0.8629 0.4796 0.1594
vn 0.9340 -0.2711 -0.2327
vn 0.9003 -0.4324 -0.0495
vn 0.7764 0.0980 0.6225
vn 0.6127 -0.1115 0.7824
vn 0.4585 -0.1105 0.8818
vn 0.2103 -0.2621 0.9418
vn -0.6250 -0.0659 0.7778
vn -0.7675 0.0549 0.6387
vn -0.8577 0.1962 0.4753
vn -0.8886 0.3480 0.2989
vn -0.8576 0.4996 0.1221
vn -0.7673 0.6399 -0.0423
vn -0.6244 0.7594 -0.1829
vn -0.4396 0.8501 -0.2901
vn -0.2259 0.9064 -0.3569
vn 0.0023 0.9253 -0.3793
vn 0.2302 0.9056 -0.3562
vn 0.4430 0.8487 -0.2889
vn 0.6266 0.7579 -0.1817
vn 0.7683 0.6387 -0.0414
vn 0.8579 0.4990 0.1225
vn 0.8885 0.3482 0.2988
vn 0.8578 0.1969 0.4747
vn 0.7681 0.0559 0.6379
vn 0.6260 -0.0648 0.7771
vn 0.4420 -0.1571 0.8832
vn 0.2288 -0.2150 0.9494
vn -0.2409 -0.4363 0.8670
vn 0.0090 -0.4346 0.9006
vn 0.0038 0.0782 0.9969
vn -0.1772 0.0931 0.9798
vn -0.3469 0.1379 0.9277
vn -0.4940 0.2101 0.8437
vn -0.6080 0.3053 0.7329
vn -0.6804 0.4172 0.6025
vn -0.7052 0.5379 0.4619
vn -0.6804 0.6588 0.3211
vn -0.6079 0.7708 0.1906
vn -0.4936 0.8660 0.0796
vn -0.3461 0.9382 -0.0045
vn -0.1761 0.9827 -0.0565
vn 0.0050 0.9973 -0.0736
vn 0.1854 0.9811 -0.0550
vn 0.3537 0.9354 -0.0020
vn 0.5077 0.8569 0.0895
vn 0.6197 0.7593 0.1984
vn 0.6844 0.6553 0.3197
vn 0.7088 0.5353 0.4594
vn 0.6845 0.4152 0.5992
vn 0.6197 0.3110 0.7206
vn 0.5074 0.2179 0.8337
vn 0.3530 0.1394 0.9252
vn 0.1844 0.0939 0.9784
vn -0.4781 -0.3945 0.7848
vn -0.6856 -0.3108 0.6583
vn -0.8476 -0.1903 0.4954
vn -0.9507 -0.0411 0.3074
vn -0.9861 0.1259 0.1081
vn -0.9507 0.2977 -0.0871
vn -0.8474 0.4612 -0.2632
vn -0.6850 0.6042 -0.4071
vn -0.4770 0.7166 -0.5089
vn -0.2394 0.7913 -0.5626
vn 0.0106 0.8245 -0.5658
vn 0.2560 0.8150 -0.5198
vn 0.4811 0.7647 -0.4287
vn 0.6644 0.7082 -0.2387
vn 0.7586 0.6516 -0.0025
vn 0.8116 0.5534 0.1873
vn 0.8402 0.4115 0.3532
vn 0.8115 0.2691 0.5187
vn 0.7583 0.0963 0.6447
vn 0.6639 -0.1288 0.7366
vn 0.4801 -0.3082 0.8213
vn 0.2546 -0.3906 0.8846
vn 0.2489 -0.4803 0.8411
vn 0.4841 -0.4072 0.7745
vn -0.0034 -0.5124 0.8587
vn 0.6930 -0.2646 0.6707
vn 0.8325 -0.0773 0.5486
vn 0.9121 0.0883 0.4004
vn 0.9446 0.2490 0.2137
vn 0.9121 0.4092 0.0265
vn 0.8327 0.5303 -0.1594
vn 0.6935 0.6225 -0.3628
vn 0.4852 0.7035 -0.5193
vn 0.2504 0.7584 -0.6018
vn -0.0017 0.7714 -0.6364
vn -0.2548 0.7414 -0.6208
vn -0.4922 0.6700 -0.5557
vn -0.6979 0.5615 -0.4446
vn -0.8572 0.4225 -0.2945
vn -0.9580 0.2625 -0.1155
vn -0.9925 0.0927 0.0796
vn -0.9580 -0.0746 0.2769
vn -0.8574 -0.2271 0.4619
vn -0.6985 -0.3543 0.6218
vn -0.4933 -0.4476 0.7458
vn -0.2563 -0.5014 0.8264
vn -0.2272 -0.2229 0.9480
vn 0.0017 -0.2420 0.9703
vn 0.0255 -0.2969 0.9546
vn -0.2357 -0.1667 0.9574
vn -0.4415 -0.2152 0.8711
vn -0.6187 -0.0345 0.7849
vn -0.7791 0.0222 0.6265
vn -0.8553 0.2020 0.4771
vn -0.8921 0.3419 0.2953
vn -0.8671 0.4870 0.1045
vn -0.7604 0.6490 -0.0239
vn -0.6333 0.7394 -0.2284
vn -0.4386 0.8639 -0.2475
vn -0.2142 0.8825 -0.4187
vn -0.0189 0.9436 -0.3305
vn 0.2675 0.8735 -0.4068
vn 0.4037 0.8765 -0.2623
vn 0.6702 0.7156 -0.1969
vn 0.7373 0.6735 -0.0536
vn 0.8777 0.4568 0.1446
vn 0.8955 -0.3376 -0.2900
vn 0.8629 -0.4920 -0.1155
vn 0.8040 0.0513 0.5924
vn 0.5867 -0.0505 0.8082
vn 0.4856 -0.1978 0.8515
vn 0.1974 -0.1717 0.9652
vn -0.4416 -0.1655 0.8818
vn -0.6270 -0.0733 0.7756
vn -0.7704 0.0479 0.6358
vn -0.8612 0.1898 0.4715
vn -0.8923 0.3425 0.2942
vn -0.8611 0.4949 0.1164
vn -0.7701 0.6360 -0.0488
vn -0.6263 0.7561 -0.1899
vn -0.4405 0.8471 -0.2972
vn -0.2258 0.9037 -0.3639
vn 0.0033 0.9225 -0.3860
vn 0.2319 0.9027 -0.3624
vn 0.4451 0.8456 -0.2945
vn 0.6291 0.7546 -0.1868
vn 0.7710 0.6352 -0.0460
vn 0.8607 0.4952 0.1185
vn 0.8914 0.3440 0.2952
vn 0.8606 0.1923 0.4715
vn 0.7708 0.0509 0.6351
vn 0.6285 -0.0704 0.7746
vn 0.4441 -0.1632 0.8810
vn 0.2305 -0.2217 0.9475
vn 0.1901 0.9771 -0.0958
vn 0.0001 0.9934 -0.1149
vn 0.3671 0.9293 -0.0401
vn 0.5192 0.8533 0.0485
vn 0.6358 0.7542 0.1640
vn 0.7091 0.6389 0.2983
vn 0.7340 0.5151 0.4426
vn 0.7090 0.3913 0.5867
vn 0.6356 0.2759 0.7210
vn 0.5188 0.1769 0.8364
vn 0.3667 0.1009 0.9248
vn 0.1896 0.0531 0.9804
vn -0.0004 0.0368 0.9993
vn -0.1904 0.0531 0.9803
vn -0.3675 0.1009 0.9245
vn -0.5195 0.1769 0.8359
vn -0.6362 0.2760 0.7205
vn -0.7095 0.3913 0.5861
vn -0.7344 0.5151 0.4419
vn -0.7094 0.6389 0.2977
vn -0.6359 0.7542 0.1634
vn -0.5192 0.8533 0.0481
vn -0.3671 0.9293 -0.0404
vn -0.1900 0.9771 -0.0960
vt 1.000000 0.500000
vt 1.000000 1.000000
vt 0.900000 1.000000
vt 0.900000 0.500000
vt 0.800000 1.000000
vt 0.800000 0.500000
vt 0.700000 1.000000
vt 0.700000 0.500000
vt 0.600000 1.000000
vt 0.600000 0.500000
vt 0.500000 1.000000
vt 0.500000 0.500000
vt 0.400000 1.000000
vt 0.400000 0.500000
vt 0.300000 1.000000
vt 0.300000 0.500000
vt 0.200000 1.000000
vt 0.200000 0.500000
vt 0.100000 1.000000
vt 0.100000 0.500000
vt -0.000000 1.000000
vt -0.000000 0.500000
vt 0.750000 0.490000
vt 0.891068 0.444164
vt 0.978254 0.324164
vt 0.978254 0.175836
vt 0.891068 0.055836
vt 0.750000 0.010000
vt 0.608932 0.055836
vt 0.521746 0.175836
vt 0.521746 0.324164
vt 0.608932 0.444164
vt 0.900000 0.522858
vt 0.900000 0.977142
vt 0.800000 0.977142
vt 0.800000 0.522858
vt 0.500000 0.522858
vt 0.400000 0.522858
vt 1.000000 0.977142
vt 1.000000 0.522858
vt 0.400000 0.977142
vt 0.300000 0.977142
vt 0.300000 0.522858
vt 0.700000 0.977142
vt 0.700000 0.522858
vt 0.200000 0.977142
vt 0.200000 0.522858
vt 0.600000 0.977142
vt 0.600000 0.522858
vt 0.500000 0.977142
vt 0.100000 0.977142
vt 0.100000 0.522858
vt -0.000000 0.977142
vt -0.000000 0.522858
vt 0.978254 0.324164
vt 0.978254 0.175836
vt 0.891068 0.055836
vt 0.750000 0.010000
vt 0.608932 0.055836
vt 0.521746 0.175836
vt 0.521746 0.324164
vt 0.391068 0.444164
vt 0.250000 0.490000
vt 0.108932 0.444164
vt 0.021746 0.324164
vt 0.021746 0.175836
vt 0.108932 0.055836
vt 0.250000 0.010000
vt 0.391068 0.055836
vt 0.478254 0.175836
vt 0.478254 0.324164
vt 1.000000 0.518649
vt 0.900000 0.518649
vt 0.800000 0.518649
vt 0.700000 0.518649
vt 0.600000 0.518649
vt 0.500000 0.518649
vt 0.400000 0.518649
vt 0.300000 0.518649
vt 0.200000 0.518649
vt 0.100000 0.518649
vt -0.000000 0.518649
vt 0.100000 0.516891
vt -0.000000 0.516890
vt 0.200000 0.516891
vt 0.300000 0.516890
vt 0.400000 0.516891
vt 0.500000 0.516890
vt 0.600000 0.516891
vt 0.700000 0.516891
vt 0.800000 0.516891
vt 0.900000 0.516891
vt 1.000000 0.516891
vt 0.900000 0.500000
vt 0.500000 0.500000
vt 0.400000 0.500000
vt 0.100000 0.500000
vt 0.916667 0.750000
vt 0.916667 0.757219
vt 0.875000 0.757219
vt 0.875000 0.750000
vt 0.958333 0.500000
vt 0.958333 0.750000
vt 0.916667 0.500000
vt 1.000000 0.757219
vt 0.958333 1.000000
vt 0.958333 0.757219
vt 0.875000 0.500000
vt 0.916667 1.000000
vt 0.833333 0.750000
vt 0.833333 0.757219
vt 0.791667 0.757219
vt 0.791667 0.750000
vt 0.833333 0.500000
vt 0.875000 1.000000
vt 0.750000 0.757219
vt 0.750000 0.750000
vt 0.791667 0.500000
vt 0.833333 1.000000
vt 0.708333 0.757218
vt 0.708333 0.750000
vt 0.750000 0.500000
vt 0.791667 1.000000
vt 0.666667 0.757219
vt 0.666667 0.750000
vt 0.708333 0.500000
vt 0.750000 1.000000
vt 0.625000 0.757218
vt 0.625000 0.750000
vt 0.666667 0.500000
vt 0.708333 1.000000
vt 0.583333 0.757219
vt 0.583333 0.750000
vt 0.625000 0.500000
vt 0.666667 1.000000
vt 0.541666 0.757219
vt 0.541666 0.750000
vt 0.583333 0.500000
vt 0.625000 1.000000
vt 0.500000 0.757219
vt 0.500000 0.750000
vt 0.541666 0.500000
vt 0.583333 1.000000
vt 0.458333 0.757219
vt 0.458333 0.750000
vt 0.500000 0.500000
vt 0.541666 1.000000
vt 0.416667 0.757219
vt 0.416666 0.750000
vt 0.458333 0.500000
vt 0.500000 1.000000
vt 0.375000 0.757219
vt 0.375000 0.750000
vt 0.416666 0.500000
vt 0.458333 1.000000
vt 0.333333 0.757219
vt 0.333333 0.750000
vt 0.375000 0.500000
vt 0.416666 1.000000
vt 0.291666 0.757218
vt 0.291666 0.750000
vt 0.333333 0.500000
vt 0.375000 1.000000
vt 0.250000 0.757218
vt 0.250000 0.750000
vt 0.291667 0.500000
vt 0.333333 1.000000
vt 0.208333 0.757219
vt 0.208333 0.750000
vt 0.250000 0.500000
vt 0.291667 1.000000
vt 0.166667 0.757219
vt 0.166666 0.750000
vt 0.208333 0.500000
vt 0.250000 1.000000
vt 0.125000 0.757218
vt 0.125000 0.750000
vt 0.166666 0.500000
vt 0.208333 1.000000
vt 0.083333 0.757219
vt 0.083333 0.750000
vt 0.125000 0.500000
vt 0.166666 1.000000
vt 0.041666 0.757219
vt 0.041666 0.750000
vt 0.083333 0.500000
vt 0.125000 1.000000
vt -0.000000 0.757219
vt -0.000000 0.750000
vt 0.041666 0.500000
vt 0.083333 1.000000
vt 0.312117 0.481822
vt 0.187883 0.481822
vt 0.130000 0.457846
vt 0.080294 0.419706
vt 0.042154 0.370000
vt 0.018178 0.312117
vt 0.010000 0.250000
vt 0.018178 0.187883
vt 0.042154 0.130000
vt 0.080294 0.080294
vt 0.130000 0.042154
vt 0.187883 0.018178
vt 0.312117 0.018178
vt 0.370000 0.042154
vt 0.419706 0.080294
vt 0.457846 0.130000
vt 0.481822 0.187883
vt 0.490000 0.250000
vt 0.481822 0.312117
vt 0.457846 0.370000
vt 0.419706 0.419706
vt 0.370000 0.457846
vt -0.000000 0.500000
vt 0.041666 1.000000
vt 1.000000 0.750000
vt -0.000000 1.000000
vt 0.000000 0.000000
vt 0.959398 0.625000
vt 0.960463 0.750000
vt 0.914440 0.749999
vt 0.915554 0.625000
vt 1.005278 0.749999
vt 0.875000 0.749999
vt 0.875000 0.625000
vt 0.833387 0.749999
vt 0.833360 0.625000
vt 0.791667 0.749999
vt 0.791667 0.625000
vt 0.750002 0.750000
vt 0.750001 0.625000
vt 0.708333 0.750000
vt 0.708333 0.625000
vt 0.666666 0.749999
vt 0.666667 0.625000
vt 0.625000 0.749999
vt 0.625000 0.625000
vt 0.583392 0.749999
vt 0.583363 0.625000
vt 0.541666 0.750000
vt 0.541666 0.625000
vt 0.500000 0.749999
vt 0.500000 0.625000
vt 0.458333 0.750000
vt 0.458333 0.625000
vt 0.416667 0.749999
vt 0.416666 0.625000
vt 0.375023 0.749999
vt 0.375011 0.625000
vt 0.333333 0.749999
vt 0.333333 0.625000
vt 0.291664 0.750000
vt 0.291665 0.625000
vt 0.249998 0.750000
vt 0.249999 0.625000
vt 0.208308 0.749999
vt 0.208321 0.625000
vt 0.166471 0.750000
vt 0.166569 0.625000
vt 0.125000 0.750000
vt 0.125000 0.625000
vt 0.083044 0.749999
vt 0.083189 0.625000
vt 0.041666 0.749999
vt 0.041666 0.625000
vt -0.005278 0.749999
vt -0.002639 0.625000
vt 1.002639 0.625000
vt 0.812117 0.481822
vt 0.870000 0.457846
vt 0.919706 0.419706
vt 0.957846 0.370000
vt 0.981822 0.312117
vt 0.990000 0.250000
vt 0.981822 0.187883
vt 0.957846 0.130000
vt 0.919706 0.080294
vt 0.870000 0.042154
vt 0.812117 0.018178
vt 0.687883 0.018178
vt 0.630000 0.042154
vt 0.580294 0.080294
vt 0.542154 0.130000
vt 0.518178 0.187883
vt 0.510000 0.250000
vt 0.518178 0.312117
vt 0.542154 0.370000
vt 0.580294 0.419706
vt 0.630000 0.457846
vt 0.687883 0.481822
vt 0.958333 0.500000
vt 0.958333 0.750000
vt 0.875000 0.500000
vt 0.791667 0.750000
vt 0.791667 0.500000
vt 0.750000 0.750000
vt 0.750000 0.500000
vt 0.625000 0.750000
vt 0.625000 0.500000
vt 0.500000 0.500000
vt 0.458333 0.750000
vt 0.416667 0.750000
vt 0.375000 0.750000
vt 0.333333 0.750000
vt 0.333333 0.500000
vt 0.250000 0.750000
vt 0.250000 0.500000
vt 0.083333 0.750000
vt 0.083333 0.500000
vt 0.041666 0.750000
vt 0.042154 0.370000
vt 0.042154 0.130000
vt 0.187883 0.018178
vt 0.312117 0.018178
vt 0.370000 0.042154
vt 0.419706 0.080294
vt 0.481822 0.187883
vt 0.490000 0.250000
s 1
usemtl Material.009
f 37/14/37 38/16/38 48/16/48 47/14/47
f 44/8/44 45/10/45 55/10/55 54/8/54
f 34/8/34 35/10/35 45/10/45 44/8/44
f 31/1/31 32/4/32 42/4/42 41/1/41
f 38/16/38 39/18/39 49/18/49 48/16/48
f 35/10/35 36/12/36 46/12/46 45/10/45
f 32/4/32 33/6/33 43/6/43 42/4/42
f 39/18/39 40/20/40 50/20/50 49/18/49
f 36/12/36 37/14/37 47/14/47 46/12/46
f 33/6/33 34/8/34 44/8/44 43/6/43
f 40/20/40 31/22/31 41/22/41 50/20/50
f 51/23/51 52/24/52 53/25/53 54/26/54 55/27/55 56/28/56 57/29/57 58/30/58 59/31/59 60/32/60
f 41/1/41 42/4/42 52/4/52 51/1/51
f 48/16/48 49/18/49 59/18/59 58/16/58
f 45/10/45 46/12/46 56/12/56 55/10/55
f 42/4/42 43/6/43 53/6/53 52/4/52
f 49/18/49 50/20/50 60/20/60 59/18/59
f 46/12/46 47/14/47 57/14/57 56/12/56
f 43/6/43 44/8/44 54/8/54 53/6/53
f 50/20/50 41/22/41 51/22/51 60/20/60
f 47/14/47 48/16/48 58/16/58 57/14/57
f 341/98/322 385/99/366 384/100/365 342/101/323
f 295/102/276 291/103/272 341/98/322 297/104/278
f 365/105/346 294/2/275 296/106/277 386/107/367
f 291/103/272 386/107/367 385/99/366 341/98/322
f 297/104/278 341/98/322 342/101/323 299/108/280
f 386/107/367 296/106/277 298/109/279 385/99/366
f 343/110/324 383/111/364 382/112/363 344/113/325
f 299/108/280 342/101/323 343/110/324 301/114/282
f 385/99/366 298/109/279 300/115/281 384/100/365
f 344/113/325 382/112/363 381/116/362 345/117/326
f 301/114/282 343/110/324 344/113/325 303/118/284
f 384/100/365 300/115/281 302/119/283 383/111/364
f 345/117/326 381/116/362 380/120/361 346/121/327
f 303/118/284 344/113/325 345/117/326 305/122/286
f 383/111/364 302/119/283 304/123/285 382/112/363
f 346/121/327 380/120/361 379/124/360 347/125/328
f 305/122/286 345/117/326 346/121/327 307/126/288
f 382/112/363 304/123/285 306/127/287 381/116/362
f 347/125/328 379/124/360 378/128/359 348/129/329
f 307/126/288 346/121/327 347/125/328 309/130/290
f 381/116/362 306/127/287 308/131/289 380/120/361
f 348/129/329 378/128/359 377/132/358 349/133/330
f 309/130/290 347/125/328 348/129/329 311/134/292
f 380/120/361 308/131/289 310/135/291 379/124/360
f 349/133/330 377/132/358 376/136/357 350/137/331
f 311/134/292 348/129/329 349/133/330 313/138/294
f 379/124/360 310/135/291 312/139/293 378/128/359
f 350/137/331 376/136/357 375/140/356 351/141/332
f 313/138/294 349/133/330 350/137/331 315/142/296
f 378/128/359 312/139/293 314/143/295 377/132/358
f 351/141/332 375/140/356 374/144/355 352/145/333
f 315/142/296 350/137/331 351/141/332 317/146/298
f 377/132/358 314/143/295 316/147/297 376/136/357
f 352/145/333 374/144/355 373/148/354 353/149/334
f 317/146/298 351/141/332 352/145/333 319/150/300
f 376/136/357 316/147/297 318/151/299 375/140/356
f 353/149/334 373/148/354 372/152/353 354/153/335
f 319/150/300 352/145/333 353/149/334 321/154/302
f 375/140/356 318/151/299 320/155/301 374/144/355
f 354/153/335 372/152/353 371/156/352 355/157/336
f 321/154/302 353/149/334 354/153/335 323/158/304
f 374/144/355 320/155/301 322/159/303 373/148/354
f 355/157/336 371/156/352 370/160/351 356/161/337
f 323/158/304 354/153/335 355/157/336 325/162/306
f 373/148/354 322/159/303 324/163/305 372/152/353
f 356/161/337 370/160/351 369/164/350 357/165/338
f 325/162/306 355/157/336 356/161/337 327/166/308
f 372/152/353 324/163/305 326/167/307 371/156/352
f 357/165/338 369/164/350 368/168/349 358/169/339
f 327/166/308 356/161/337 357/165/338 329/170/310
f 371/156/352 326/167/307 328/171/309 370/160/351
f 358/169/339 368/168/349 367/172/348 359/173/340
f 329/170/310 357/165/338 358/169/339 331/174/312
f 370/160/351 328/171/309 330/175/311 369/164/350
f 359/173/340 367/172/348 366/176/347 360/177/341
f 331/174/312 358/169/339 359/173/340 333/178/314
f 369/164/350 330/175/311 332/179/313 368/168/349
f 360/177/341 366/176/347 364/180/345 361/181/342
f 333/178/314 359/173/340 360/177/341 335/182/316
f 368/168/349 332/179/313 334/183/315 367/172/348
f 361/181/342 364/180/345 363/184/344 362/185/343
f 335/182/316 360/177/341 361/181/342 337/186/318
f 367/172/348 334/183/315 336/187/317 366/176/347
f 362/185/343 363/184/344 365/188/346 292/189/273
f 337/186/318 361/181/342 362/185/343 339/190/320
f 366/176/347 336/187/317 338/191/319 364/180/345
f 296/192/277 294/63/275 340/193/321 338/194/319 336/195/317 334/196/315 332/197/313 330/198/311 328/199/309 326/200/307 324/201/305 322/202/303 320/203/301 318/68/299 316/204/297 314/205/295 312/206/293 310/207/291 308/208/289 306/209/287 304/210/285 302/211/283 300/212/281 298/213/279
f 339/190/320 362/185/343 292/189/273 293/214/274
f 364/180/345 338/191/319 340/215/321 363/184/344
f 342/101/323 384/100/365 383/111/364 343/110/324
f 293/1/274 292/216/273 291/103/272 295/102/276
f 363/184/344 340/215/321 294/217/275 365/188/346
f 598/218/579 599/218/580 719/218/699 718/218/698
f 292/216/273 365/105/346 386/107/367 291/103/272
f 582/291/563 579/292/560 605/98/278 583/104/564
f 583/104/564 605/98/278 606/101/586 584/293/565
f 584/293/565 606/101/586 607/110/587 585/114/566
f 585/114/566 607/110/587 608/294/588 586/295/567
f 586/295/567 608/294/588 609/296/589 587/297/568
f 587/297/568 609/296/589 610/121/590 588/126/569
f 588/126/569 610/121/590 611/125/591 589/130/570
f 589/130/570 611/125/591 612/298/592 590/299/571
f 590/299/571 612/298/592 613/133/593 591/138/572
f 591/138/572 613/133/593 614/137/594 592/142/573
f 592/142/573 614/137/594 615/141/595 593/300/574
f 593/300/574 615/141/595 616/301/596 594/150/575
f 594/150/575 616/301/596 617/302/597 595/154/576
f 595/154/576 617/302/597 618/303/598 596/158/577
f 596/158/577 618/303/598 619/304/599 597/305/578
f 597/305/578 619/304/599 620/161/600 598/166/579
f 598/166/579 620/161/600 621/306/601 599/307/580
f 599/307/580 621/306/601 622/169/602 600/174/581
f 600/174/581 622/169/602 623/173/603 601/178/582
f 601/178/582 623/173/603 624/177/604 602/182/583
f 602/182/583 624/177/604 625/308/605 603/309/584
f 603/309/584 625/308/605 626/310/606 604/190/585
f 604/190/585 626/310/606 580/189/561 581/214/562
f 581/1/562 580/216/561 579/292/560 582/291/563
f 600/174/581 720/174/700 719/307/699 599/307/580
f 717/218/697 718/218/698 598/218/579 597/218/578
f 596/218/577 597/218/578 717/218/697 716/218/696
f 715/218/695 716/218/696 596/218/577 595/218/576
f 594/218/575 595/218/576 715/218/695 714/218/694
f 713/218/693 714/218/694 594/218/575 593/218/574
f 592/218/573 593/218/574 713/218/693 712/218/692
f 711/218/691 712/218/692 592/218/573 591/218/572
f 590/218/571 591/218/572 711/218/691 710/218/690
f 709/218/689 710/218/690 590/218/571 589/218/570
f 588/218/569 589/218/570 709/218/689 708/218/688
f 707/218/687 708/218/688 588/218/569 587/218/568
f 586/218/567 587/218/568 707/218/687 706/218/686
f 705/218/685 706/218/686 586/218/567 585/218/566
f 584/218/565 585/218/566 705/218/685 704/218/684
f 703/218/683 704/218/684 584/218/565 583/218/564
f 582/218/563 583/218/564 703/218/683 702/218/682
f 701/218/681 702/218/682 582/218/563 581/218/562
f 604/218/585 581/218/562 701/218/681 724/218/704
f 723/218/703 724/218/704 604/218/585 603/218/584
f 602/218/583 603/218/584 723/218/703 722/218/702
f 721/218/701 722/218/702 602/218/583 601/218/582
f 600/218/581 601/218/582 721/218/701 720/218/700
usemtl Material.010
f 1/1/1 2/2/2 4/3/4 3/4/3
f 3/4/3 4/3/4 6/5/6 5/6/5
f 5/6/5 6/5/6 8/7/8 7/8/7
f 7/8/7 8/7/8 10/9/10 9/10/9
f 9/10/9 10/9/10 12/11/12 11/12/11
f 11/12/11 12/11/12 14/13/14 13/14/13
f 13/14/13 14/13/14 16/15/16 15/16/15
f 15/16/15 16/15/16 18/17/18 17/18/17
f 4/3/4 2/2/2 20/19/20 18/17/18 16/15/16 14/13/14 12/11/12 10/9/10 8/7/8 6/5/6
f 17/18/17 18/17/18 20/19/20 19/20/19
f 19/20/19 20/19/20 2/21/2 1/22/1
f 15/16/15 17/18/17 29/18/29 28/16/28
f 23/6/23 24/8/24 34/8/34 33/6/33
f 13/14/13 15/16/15 28/16/28 27/14/27
f 11/12/11 13/14/13 27/14/27 26/12/26
f 9/10/9 11/12/11 26/12/26 25/10/25
f 7/8/7 9/10/9 25/10/25 24/8/24
f 1/1/1 3/4/3 22/4/22 21/1/21
f 5/6/5 7/8/7 24/8/24 23/6/23
f 3/4/3 5/6/5 23/6/23 22/4/22
f 19/20/19 1/22/1 21/22/21 30/20/30
f 17/18/17 19/20/19 30/20/30 29/18/29
f 30/20/30 21/22/21 31/22/31 40/20/40
f 27/14/27 28/16/28 38/16/38 37/14/37
f 24/8/24 25/10/25 35/10/35 34/8/34
f 21/1/21 22/4/22 32/4/32 31/1/31
f 28/16/28 29/18/29 39/18/39 38/16/38
f 25/10/25 26/12/26 36/12/36 35/10/35
f 22/4/22 23/6/23 33/6/33 32/4/32
f 29/18/29 30/20/30 40/20/40 39/18/39
f 26/12/26 27/14/27 37/14/37 36/12/36
f 106/11/106 105/9/105 115/9/115 116/11/116
f 113/5/113 111/3/111 121/3/101 123/5/103
f 103/5/103 101/3/101 111/3/111 113/5/113
f 110/19/110 109/17/109 119/17/119 120/19/120
f 107/13/107 106/11/106 116/11/116 117/13/117
f 104/7/104 103/5/103 113/5/113 114/7/114
f 102/21/102 110/19/110 120/19/120 112/21/112
f 108/15/108 107/13/107 117/13/117 118/15/118
f 105/9/105 104/7/104 114/7/114 115/9/115
f 101/3/101 102/2/102 112/2/112 111/3/111
f 109/17/109 108/15/108 118/15/118 119/17/119
f 130/19/110 129/17/109 139/17/119 140/19/120
f 120/19/120 119/17/119 129/17/109 130/19/110
f 117/13/117 116/11/116 126/11/106 127/13/121
f 114/7/114 113/5/113 123/5/103 124/7/104
f 112/21/112 120/19/120 130/19/110 122/21/102
f 118/15/118 117/13/117 127/13/121 128/15/108
f 115/9/115 114/7/114 124/7/104 125/9/105
f 111/3/111 112/2/112 122/2/102 121/3/101
f 119/17/119 118/15/118 128/15/108 129/17/109
f 116/11/116 115/9/115 125/9/105 126/11/106
f 131/62/111 132/63/112 140/64/120 139/65/119 138/66/118 137/67/117 136/68/116 135/69/115 134/70/114 133/71/113
f 127/13/121 126/11/106 136/11/116 137/13/117
f 124/7/104 123/5/103 133/5/113 134/7/114
f 122/21/102 130/19/110 140/19/120 132/21/112
f 128/15/108 127/13/121 137/13/117 138/15/118
f 125/9/105 124/7/104 134/7/114 135/9/115
f 121/3/101 122/2/102 132/2/112 131/3/111
f 129/17/109 128/15/108 138/15/118 139/17/119
f 126/11/106 125/9/105 135/9/115 136/11/116
f 123/5/103 121/3/101 131/3/111 133/5/113
f 141/1/122 142/2/123 144/3/125 143/4/124
f 143/4/124 144/3/125 146/5/127 145/6/126
f 145/6/126 146/5/127 148/7/129 147/8/128
f 147/8/128 148/7/129 150/9/131 149/10/130
f 149/10/130 150/9/131 152/11/133 151/12/132
f 151/12/132 152/11/133 154/13/135 153/14/134
f 153/14/134 154/13/135 156/15/137 155/16/136
f 155/16/136 156/15/137 158/17/139 157/18/138
f 146/5/127 144/3/125 161/3/142 163/5/144
f 157/18/138 158/17/139 160/19/141 159/20/140
f 159/20/140 160/19/141 142/21/123 141/22/122
f 161/3/142 162/2/143 170/19/151 169/17/150 168/15/149 167/13/148 166/11/147 165/9/146 164/7/145 163/5/144
f 142/21/123 160/19/141 170/19/151 162/21/143
f 160/19/141 158/17/139 169/17/150 170/19/151
f 158/17/139 156/15/137 168/15/149 169/17/150
f 156/15/137 154/13/135 167/13/148 168/15/149
f 154/13/135 152/11/133 166/11/147 167/13/148
f 152/11/133 150/9/131 165/9/146 166/11/147
f 150/9/131 148/7/129 164/7/145 165/9/146
f 144/3/125 142/2/123 162/2/143 161/3/142
f 148/7/129 146/5/127 163/5/144 164/7/145
f 191/72/172 172/2/153 174/3/155 192/73/173
f 192/73/173 174/3/155 176/5/157 193/74/174
f 193/74/174 176/5/157 178/7/159 194/75/175
f 194/75/175 178/7/159 180/9/161 195/76/176
f 195/76/176 180/9/161 182/11/163 196/77/177
f 196/77/177 182/11/163 184/13/165 197/78/178
f 197/78/178 184/13/165 186/15/167 198/79/179
f 198/79/179 186/15/167 188/17/169 199/80/180
f 174/3/155 172/2/153 190/19/171 188/17/169 186/15/167 184/13/165 182/11/163 180/9/161 178/7/159 176/5/157
f 199/80/180 188/17/169 190/19/171 200/81/181
f 200/81/181 190/19/171 172/21/153 191/82/172
f 141/22/122 143/4/124 145/6/126 147/8/128 149/10/130 151/12/132 153/14/134 155/16/136 157/18/138 159/20/140
usemtl Material.011
f 209/83/190 200/81/181 191/82/172 210/84/191
f 208/85/189 199/80/180 200/81/181 209/83/190
f 207/86/188 198/79/179 199/80/180 208/85/189
f 206/87/187 197/78/178 198/79/179 207/86/188
f 205/88/186 196/77/177 197/78/178 206/87/187
f 204/89/185 195/76/176 196/77/177 205/88/186
f 203/90/184 194/75/175 195/76/176 204/89/185
f 202/91/183 193/74/174 194/75/175 203/90/184
f 201/92/182 192/73/173 193/74/174 202/91/183
f 210/93/191 191/72/172 192/73/173 201/92/182
f 171/1/152 210/93/191 201/92/182 173/94/154
f 173/94/154 201/92/182 202/91/183 175/6/156
f 175/6/156 202/91/183 203/90/184 177/8/158
f 177/8/158 203/90/184 204/89/185 179/10/160
f 179/10/160 204/89/185 205/88/186 181/95/162
f 181/95/162 205/88/186 206/87/187 183/96/164
f 183/96/164 206/87/187 207/86/188 185/16/166
f 185/16/166 207/86/188 208/85/189 187/18/168
f 187/18/168 208/85/189 209/83/190 189/97/170
f 189/97/170 209/83/190 210/84/191 171/22/152
f 183/96/164 185/16/166 218/16/199 217/96/198
f 181/95/162 183/96/164 217/96/198 216/95/197
f 179/10/160 181/95/162 216/95/197 215/10/196
f 177/8/158 179/10/160 215/10/196 214/8/195
f 171/1/152 173/94/154 212/94/193 211/1/192
f 175/6/156 177/8/158 214/8/195 213/6/194
f 173/94/154 175/6/156 213/6/194 212/94/193
f 189/97/170 171/22/152 211/22/192 220/97/201
f 187/18/168 189/97/170 220/97/201 219/18/200
f 185/16/166 187/18/168 219/18/200 218/16/199
f 211/1/192 212/94/193 222/94/203 221/1/202
f 218/16/199 219/18/200 229/18/210 228/16/209
f 215/10/196 216/95/197 226/95/207 225/10/206
f 212/94/193 213/6/194 223/6/204 222/94/203
f 219/18/200 220/97/201 230/97/211 229/18/210
f 216/95/197 217/96/198 227/96/208 226/95/207
f 213/6/194 214/8/195 224/8/205 223/6/204
f 220/97/201 211/22/192 221/22/202 230/97/211
f 217/96/198 218/16/199 228/16/209 227/96/208
f 214/8/195 215/10/196 225/10/206 224/8/205
f 228/16/209 229/18/210 239/18/220 238/16/219
f 225/10/206 226/95/207 236/95/217 235/10/216
f 222/94/203 223/6/204 233/6/214 232/94/213
f 229/18/210 230/97/211 240/97/221 239/18/220
f 226/95/207 227/96/208 237/96/218 236/95/217
f 223/6/204 224/8/205 234/8/215 233/6/214
f 230/97/211 221/22/202 231/22/212 240/97/221
f 227/96/208 228/16/209 238/16/219 237/96/218
f 224/8/205 225/10/206 235/10/216 234/8/215
f 221/1/202 222/94/203 232/94/213 231/1/212
f 235/10/216 236/95/217 246/95/227 245/10/226
f 232/94/213 233/6/214 243/6/224 242/94/223
f 239/18/220 240/97/221 250/97/231 249/18/230
f 236/95/217 237/96/218 247/96/228 246/95/227
f 233/6/214 234/8/215 244/8/225 243/6/224
f 240/97/221 231/22/212 241/22/222 250/97/231
f 237/96/218 238/16/219 248/16/229 247/96/228
f 234/8/215 235/10/216 245/10/226 244/8/225
f 231/1/212 232/94/213 242/94/223 241/1/222
f 238/16/219 239/18/220 249/18/230 248/16/229
f 242/94/223 243/6/224 253/6/234 252/94/233
f 249/18/230 250/97/231 260/97/241 259/18/240
f 246/95/227 247/96/228 257/96/238 256/95/237
f 243/6/224 244/8/225 254/8/235 253/6/234
f 250/97/231 241/22/222 251/22/232 260/97/241
f 247/96/228 248/16/229 258/16/239 257/96/238
f 244/8/225 245/10/226 255/10/236 254/8/235
f 241/1/222 242/94/223 252/94/233 251/1/232
f 248/16/229 249/18/230 259/18/240 258/16/239
f 245/10/226 246/95/227 256/95/237 255/10/236
f 256/95/237 257/96/238 267/96/248 266/95/247
f 253/6/234 254/8/235 264/8/245 263/6/244
f 260/97/241 251/22/232 261/22/242 270/97/251
f 257/96/238 258/16/239 268/16/249 267/96/248
f 254/8/235 255/10/236 265/10/246 264/8/245
f 251/1/232 252/94/233 262/94/243 261/1/242
f 258/16/239 259/18/240 269/18/250 268/16/249
f 255/10/236 256/95/237 266/95/247 265/10/246
f 252/94/233 253/6/234 263/6/244 262/94/243
f 259/18/240 260/97/241 270/97/251 269/18/250
f 263/6/244 264/8/245 274/8/255 273/6/254
f 270/97/251 261/22/242 271/22/252 280/97/261
f 267/96/248 268/16/249 278/16/259 277/96/258
f 264/8/245 265/10/246 275/10/256 274/8/255
f 261/1/242 262/94/243 272/94/253 271/1/252
f 268/16/249 269/18/250 279/18/260 278/16/259
f 265/10/246 266/95/247 276/95/257 275/10/256
f 262/94/243 263/6/244 273/6/254 272/94/253
f 269/18/250 270/97/251 280/97/261 279/18/260
f 266/95/247 267/96/248 277/96/258 276/95/257
f 277/96/258 278/16/259 288/16/269 287/96/268
f 274/8/255 275/10/256 285/10/266 284/8/265
f 271/1/252 272/94/253 282/94/263 281/1/262
f 278/16/259 279/18/260 289/18/270 288/16/269
f 275/10/256 276/95/257 286/95/267 285/10/266
f 272/94/253 273/6/254 283/6/264 282/94/263
f 279/18/260 280/97/261 290/97/271 289/18/270
f 276/95/257 277/96/258 287/96/268 286/95/267
f 273/6/254 274/8/255 284/8/265 283/6/264
f 280/97/261 271/22/252 281/22/262 290/97/271
f 653/98/633 697/99/677 696/100/676 654/101/634
f 627/103/607 698/107/678 697/99/677 653/98/633
f 655/110/635 695/111/675 694/112/674 656/113/636
f 656/113/636 694/112/674 693/116/673 657/117/637
f 657/117/637 693/116/673 692/120/672 658/121/638
f 658/121/638 692/120/672 691/124/671 659/125/639
f 659/125/639 691/124/671 690/128/670 660/129/640
f 660/129/640 690/128/670 689/132/669 661/133/641
f 661/133/641 689/132/669 688/136/668 662/137/642
f 662/137/642 688/136/668 687/140/667 663/141/643
f 663/141/643 687/140/667 686/144/666 664/145/644
f 664/145/644 686/144/666 685/148/665 665/149/645
f 665/149/645 685/148/665 684/152/664 666/153/646
f 666/153/646 684/152/664 683/156/663 667/157/647
f 667/157/647 683/156/663 682/160/662 668/161/648
f 668/161/648 682/160/662 681/164/661 669/165/649
f 669/165/649 681/164/661 680/168/660 670/169/650
f 670/169/650 680/168/660 679/172/659 671/173/651
f 671/173/651 679/172/659 678/176/658 672/177/652
f 672/177/652 678/176/658 676/180/656 673/181/653
f 673/181/653 676/180/656 675/184/655 674/185/654
f 674/185/654 675/184/655 677/188/657 628/189/608
f 654/101/634 696/100/676 695/111/675 655/110/635
f 628/216/608 677/105/657 698/107/678 627/103/607
f 702/291/682 699/292/679 725/98/705 703/104/683
f 703/104/683 725/98/705 726/101/706 704/293/684
f 704/293/684 726/101/706 727/110/707 705/114/685
f 705/114/685 727/110/707 728/294/708 706/295/686
f 706/295/686 728/294/708 729/296/709 707/297/687
f 707/297/687 729/296/709 730/121/710 708/126/688
f 708/126/688 730/121/710 731/125/711 709/130/689
f 709/130/689 731/125/711 732/298/712 710/299/690
f 710/299/690 732/298/712 733/133/713 711/138/691
f 711/138/691 733/133/713 734/137/714 712/142/692
f 712/142/692 734/137/714 735/141/715 713/300/693
f 713/300/693 735/141/715 736/301/716 714/150/694
f 714/150/694 736/301/716 737/302/717 715/154/695
f 715/154/695 737/302/717 738/303/718 716/158/696
f 716/158/696 738/303/718 739/304/719 717/305/697
f 717/305/697 739/304/719 740/161/720 718/166/698
f 718/166/698 740/161/720 741/306/721 719/307/699
f 719/307/699 741/306/721 742/169/722 720/174/700
f 720/174/700 742/169/722 743/173/723 721/178/701
f 721/178/701 743/173/723 744/177/724 722/182/702
f 722/182/702 744/177/724 745/308/725 723/309/703
f 723/309/703 745/308/725 746/310/726 724/190/704
f 724/190/704 746/310/726 700/189/680 701/214/681
f 701/1/681 700/216/680 699/292/679 702/291/682
usemtl Material.002
f 84/33/84 83/34/83 85/35/85 86/36/86
f 73/12/73 92/37/92 94/38/94 75/14/75
f 61/39/61 64/2/64 66/3/66 83/34/83
f 63/1/63 62/40/62 84/33/84 65/4/65
f 94/38/94 93/41/93 95/42/95 96/43/96
f 83/34/83 66/3/66 68/5/68 85/35/85
f 86/36/86 85/35/85 87/44/87 88/45/88
f 75/14/75 94/38/94 96/43/96 77/16/77
f 85/35/85 68/5/68 70/7/70 87/44/87
f 67/6/67 86/36/86 88/45/88 69/8/69
f 96/43/96 95/42/95 97/46/97 98/47/98
f 87/44/87 70/7/70 72/9/72 89/48/89
f 88/45/88 87/44/87 89/48/89 90/49/90
f 77/16/77 96/43/96 98/47/98 79/18/79
f 89/48/89 72/9/72 74/11/74 91/50/91
f 69/8/69 88/45/88 90/49/90 71/10/71
f 98/47/98 97/46/97 99/51/99 100/52/100
f 91/50/91 74/11/74 76/13/76 93/41/93
f 90/49/90 89/48/89 91/50/91 92/37/92
f 79/18/79 98/47/98 100/52/100 81/20/81
f 93/41/93 76/13/76 78/15/78 95/42/95
f 71/10/71 90/49/90 92/37/92 73/12/73
f 100/52/100 99/51/99 61/53/61 62/54/62
f 95/42/95 78/15/78 80/17/80 97/46/97
f 70/7/70 68/5/68 103/5/103 104/7/104
f 81/20/81 100/52/100 62/54/62 63/22/63
f 97/46/97 80/17/80 82/19/82 99/51/99
f 65/4/65 84/33/84 86/36/86 67/6/67
f 92/37/92 91/50/91 93/41/93 94/38/94
f 99/51/99 82/19/82 64/21/64 61/53/61
f 63/23/63 65/24/65 67/55/67 69/56/69 71/57/71 73/58/73 75/59/75 77/60/77 79/61/79 81/32/81
f 62/40/62 61/39/61 83/34/83 84/33/84
f 80/17/80 78/15/78 108/15/108 109/17/109
f 76/13/76 74/11/74 106/11/106 107/13/107
f 72/9/72 70/7/70 104/7/104 105/9/105
f 68/5/68 66/3/66 101/3/101 103/5/103
f 64/21/64 82/19/82 110/19/110 102/21/102
f 66/3/66 64/2/64 102/2/102 101/3/101
f 82/19/82 80/17/80 109/17/109 110/19/110
f 78/15/78 76/13/76 107/13/107 108/15/108
f 74/11/74 72/9/72 105/9/105 106/11/106
f 677/105/657 629/2/609 630/106/610 698/107/678
f 698/107/678 630/106/610 631/109/611 697/99/677
f 697/99/677 631/109/611 632/115/612 696/100/676
f 696/100/676 632/115/612 633/119/613 695/111/675
f 695/111/675 633/119/613 634/123/614 694/112/674
f 694/112/674 634/123/614 635/127/615 693/116/673
f 693/116/673 635/127/615 636/131/616 692/120/672
f 692/120/672 636/131/616 637/135/617 691/124/671
f 691/124/671 637/135/617 638/139/618 690/128/670
f 690/128/670 638/139/618 639/143/619 689/132/669
f 689/132/669 639/143/619 640/147/620 688/136/668
f 688/136/668 640/147/620 641/151/621 687/140/667
f 687/140/667 641/151/621 642/155/622 686/144/666
f 686/144/666 642/155/622 643/159/623 685/148/665
f 685/148/665 643/159/623 644/163/624 684/152/664
f 684/152/664 644/163/624 645/167/625 683/156/663
f 683/156/663 645/167/625 646/171/626 682/160/662
f 682/160/662 646/171/626 647/175/627 681/164/661
f 681/164/661 647/175/627 648/179/628 680/168/660
f 680/168/660 648/179/628 649/183/629 679/172/659
f 679/172/659 649/183/629 650/187/630 678/176/658
f 678/176/658 650/187/630 651/191/631 676/180/656
f 630/192/610 629/63/609 652/193/632 651/194/631 650/195/630 649/196/629 648/197/628 647/198/627 646/199/626 645/200/625 644/201/624 643/202/623 642/203/622 641/68/621 640/204/620 639/205/619 638/206/618 637/207/617 636/208/616 635/209/615 634/210/614 633/211/613 632/212/612 631/213/611
f 676/180/656 651/191/631 652/215/632 675/184/655
f 675/184/655 652/215/632 629/217/609 677/188/657
usemtl Material.012
f 459/219/440 387/220/368 437/221/418 460/222/441
f 388/223/369 390/2/371 392/106/373 387/220/368
f 460/222/441 437/221/418 438/224/419 461/225/442
f 387/220/368 392/106/373 394/109/375 437/221/418
f 461/225/442 438/224/419 439/226/420 462/227/443
f 437/221/418 394/109/375 396/115/377 438/224/419
f 462/227/443 439/226/420 440/228/421 463/229/444
f 438/224/419 396/115/377 398/119/379 439/226/420
f 463/229/444 440/228/421 441/230/422 464/231/445
f 439/226/420 398/119/379 400/123/381 440/228/421
f 464/231/445 441/230/422 442/232/423 465/233/446
f 440/228/421 400/123/381 402/127/383 441/230/422
f 465/233/446 442/232/423 443/234/424 466/235/447
f 441/230/422 402/127/383 404/131/385 442/232/423
f 466/235/447 443/234/424 444/236/425 467/237/448
f 442/232/423 404/131/385 406/135/387 443/234/424
f 467/237/448 444/236/425 445/238/426 468/239/449
f 443/234/424 406/135/387 408/139/389 444/236/425
f 468/239/449 445/238/426 446/240/427 469/241/450
f 444/236/425 408/139/389 410/143/391 445/238/426
f 469/241/450 446/240/427 447/242/428 470/243/451
f 445/238/426 410/143/391 412/147/393 446/240/427
f 470/243/451 447/242/428 448/244/429 471/245/452
f 446/240/427 412/147/393 414/151/395 447/242/428
f 471/245/452 448/244/429 449/246/430 472/247/453
f 447/242/428 414/151/395 416/155/397 448/244/429
f 472/247/453 449/246/430 450/248/431 473/249/454
f 448/244/429 416/155/397 418/159/399 449/246/430
f 473/249/454 450/248/431 451/250/432 474/251/455
f 449/246/430 418/159/399 420/163/401 450/248/431
f 474/251/455 451/250/432 452/252/433 475/253/456
f 450/248/431 420/163/401 422/167/403 451/250/432
f 475/253/456 452/252/433 453/254/434 476/255/457
f 451/250/432 422/167/403 424/171/405 452/252/433
f 476/255/457 453/254/434 454/256/435 477/257/458
f 452/252/433 424/171/405 426/175/407 453/254/434
f 477/257/458 454/256/435 455/258/436 478/259/459
f 453/254/434 426/175/407 428/179/409 454/256/435
f 478/259/459 455/258/436 456/260/437 479/261/460
f 454/256/435 428/179/409 430/183/411 455/258/436
f 479/261/460 456/260/437 457/262/438 480/263/461
f 455/258/436 430/183/411 432/187/413 456/260/437
f 480/263/461 457/262/438 458/264/439 482/265/463
f 456/260/437 432/187/413 434/191/415 457/262/438
f 420/163/401 418/159/399 497/159/478 498/163/479
f 482/265/463 458/264/439 388/266/369 481/267/462
f 457/262/438 434/191/415 436/215/417 458/264/439
f 481/268/462 388/223/369 387/220/368 459/219/440
f 458/264/439 436/215/417 390/217/371 388/266/369
f 389/1/370 391/102/372 556/102/537 555/1/536
f 389/1/370 481/268/462 459/219/440 391/102/372
f 435/190/416 482/265/463 481/267/462 389/214/370
f 433/186/414 480/263/461 482/265/463 435/190/416
f 431/182/412 479/261/460 480/263/461 433/186/414
f 429/178/410 478/259/459 479/261/460 431/182/412
f 427/174/408 477/257/458 478/259/459 429/178/410
f 425/170/406 476/255/457 477/257/458 427/174/408
f 423/166/404 475/253/456 476/255/457 425/170/406
f 421/162/402 474/251/455 475/253/456 423/166/404
f 419/158/400 473/249/454 474/251/455 421/162/402
f 417/154/398 472/247/453 473/249/454 419/158/400
f 415/150/396 471/245/452 472/247/453 417/154/398
f 413/146/394 470/243/451 471/245/452 415/150/396
f 411/142/392 469/241/450 470/243/451 413/146/394
f 409/138/390 468/239/449 469/241/450 411/142/392
f 407/134/388 467/237/448 468/239/449 409/138/390
f 405/130/386 466/235/447 467/237/448 407/134/388
f 403/126/384 465/233/446 466/235/447 405/130/386
f 401/122/382 464/231/445 465/233/446 403/126/384
f 399/118/380 463/229/444 464/231/445 401/122/382
f 397/114/378 462/227/443 463/229/444 399/118/380
f 395/108/376 461/225/442 462/227/443 397/114/378
f 393/104/374 460/222/441 461/225/442 395/108/376
f 391/102/372 459/219/440 460/222/441 393/104/374
f 503/183/484 502/179/483 526/179/507 527/183/508
f 426/175/407 424/171/405 500/171/481 501/175/482
f 432/187/413 430/183/411 503/183/484 504/187/485
f 394/109/375 392/106/373 483/106/464 485/109/466
f 400/123/381 398/119/379 487/119/468 488/123/469
f 406/135/387 404/131/385 490/131/471 491/135/472
f 412/147/393 410/143/391 493/143/474 494/147/475
f 418/159/399 416/155/397 496/155/477 497/159/478
f 424/171/405 422/167/403 499/167/480 500/171/481
f 430/183/411 428/179/409 502/179/483 503/183/484
f 436/215/417 434/191/415 505/191/486 506/215/487
f 392/106/373 390/2/371 484/2/465 483/106/464
f 398/119/379 396/115/377 486/115/467 487/119/468
f 404/131/385 402/127/383 489/127/470 490/131/471
f 410/143/391 408/139/389 492/139/473 493/143/474
f 416/155/397 414/151/395 495/151/476 496/155/477
f 422/167/403 420/163/401 498/163/479 499/167/480
f 428/179/409 426/175/407 501/175/482 502/179/483
f 434/191/415 432/187/413 504/187/485 505/191/486
f 390/217/371 436/215/417 506/215/487 484/217/465
f 396/115/377 394/109/375 485/109/466 486/115/467
f 402/127/383 400/123/381 488/123/469 489/127/470
f 408/139/389 406/135/387 491/135/472 492/139/473
f 414/151/395 412/147/393 494/147/475 495/151/476
f 516/139/497 515/135/496 539/135/520 540/139/521
f 496/155/477 495/151/476 519/151/500 520/155/501
f 489/127/470 488/123/469 512/123/493 513/127/494
f 504/187/485 503/183/484 527/183/508 528/187/509
f 497/159/478 496/155/477 520/155/501 521/159/502
f 490/131/471 489/127/470 513/127/494 514/131/495
f 505/191/486 504/187/485 528/187/509 529/191/510
f 498/163/479 497/159/478 521/159/502 522/163/503
f 491/135/472 490/131/471 514/131/495 515/135/496
f 506/215/487 505/191/486 529/191/510 530/215/511
f 483/106/464 484/2/465 508/2/489 507/106/488
f 499/167/480 498/163/479 522/163/503 523/167/504
f 492/139/473 491/135/472 515/135/496 516/139/497
f 484/217/465 506/215/487 530/215/511 508/217/489
f 485/109/466 483/106/464 507/106/488 509/109/490
f 500/171/481 499/167/480 523/167/504 524/171/505
f 493/143/474 492/139/473 516/139/497 517/143/498
f 486/115/467 485/109/466 509/109/490 510/115/491
f 501/175/482 500/171/481 524/171/505 525/175/506
f 494/147/475 493/143/474 517/143/498 518/147/499
f 487/119/468 486/115/467 510/115/491 511/119/492
f 502/179/483 501/175/482 525/175/506 526/179/507
f 495/151/476 494/147/475 518/147/499 519/151/500
f 488/123/469 487/119/468 511/119/492 512/123/493
f 551/183/532 550/179/531 766/179/746 767/183/747
f 508/217/489 530/215/511 554/215/535 532/217/513
f 509/109/490 507/106/488 531/106/512 533/109/514
f 524/171/505 523/167/504 547/167/528 548/171/529
f 517/143/498 516/139/497 540/139/521 541/143/522
f 510/115/491 509/109/490 533/109/514 534/115/515
f 525/175/506 524/171/505 548/171/529 549/175/530
f 518/147/499 517/143/498 541/143/522 542/147/523
f 511/119/492 510/115/491 534/115/515 535/119/516
f 526/179/507 525/175/506 549/175/530 550/179/531
f 519/151/500 518/147/499 542/147/523 543/151/524
f 512/123/493 511/119/492 535/119/516 536/123/517
f 527/183/508 526/179/507 550/179/531 551/183/532
f 520/155/501 519/151/500 543/151/524 544/155/525
f 513/127/494 512/123/493 536/123/517 537/127/518
f 528/187/509 527/183/508 551/183/532 552/187/533
f 521/159/502 520/155/501 544/155/525 545/159/526
f 514/131/495 513/127/494 537/127/518 538/131/519
f 529/191/510 528/187/509 552/187/533 553/191/534
f 522/163/503 521/159/502 545/159/526 546/163/527
f 515/135/496 514/131/495 538/131/519 539/135/520
f 530/215/511 529/191/510 553/191/534 554/215/535
f 507/106/488 508/2/489 532/2/513 531/106/512
f 523/167/504 522/163/503 546/163/527 547/167/528
f 555/23/536 556/269/537 557/270/538 558/271/539 559/272/540 560/273/541 561/274/542 562/275/543 563/276/544 564/277/545 565/278/546 566/279/547 567/58/548 568/280/549 569/281/550 570/282/551 571/283/552 572/284/553 573/285/554 574/286/555 575/287/556 576/288/557 577/289/558 578/290/559
f 403/126/384 405/130/386 563/130/544 562/126/543
f 409/138/390 411/142/392 566/142/547 565/138/546
f 415/150/396 417/154/398 569/154/550 568/150/549
f 421/162/402 423/166/404 572/166/553 571/162/552
f 427/174/408 429/178/410 575/178/556 574/174/555
f 433/186/414 435/190/416 578/190/559 577/186/558
f 395/108/376 397/114/378 559/114/540 558/108/539
f 401/122/382 403/126/384 562/126/543 561/122/542
f 407/134/388 409/138/390 565/138/546 564/134/545
f 413/146/394 415/150/396 568/150/549 567/146/548
f 419/158/400 421/162/402 571/162/552 570/158/551
f 425/170/406 427/174/408 574/174/555 573/170/554
f 431/182/412 433/186/414 577/186/558 576/182/557
f 393/104/374 395/108/376 558/108/539 557/104/538
f 399/118/380 401/122/382 561/122/542 560/118/541
f 435/190/416 389/214/370 555/214/536 578/190/559
f 405/130/386 407/134/388 564/134/545 563/130/544
f 411/142/392 413/146/394 567/146/548 566/142/547
f 417/154/398 419/158/400 570/158/551 569/154/550
f 423/166/404 425/170/406 573/170/554 572/166/553
f 429/178/410 431/182/412 576/182/557 575/178/556
f 391/102/372 393/104/374 557/104/538 556/102/537
f 397/114/378 399/118/380 560/118/541 559/114/540
f 747/192/727 748/63/728 770/193/750 769/194/749 768/195/748 767/311/747 766/197/746 765/198/745 764/199/744 763/312/743 762/201/742 761/202/741 760/313/740 759/68/739 758/314/738 757/315/737 756/316/736 755/207/735 754/317/734 753/318/733 752/210/732 751/211/731 750/212/730 749/213/729
f 544/155/525 543/151/524 759/151/739 760/155/740
f 537/127/518 536/123/517 752/123/732 753/127/733
f 552/187/533 551/183/532 767/183/747 768/187/748
f 545/159/526 544/155/525 760/155/740 761/159/741
f 538/131/519 537/127/518 753/127/733 754/131/734
f 553/191/534 552/187/533 768/187/748 769/191/749
f 546/163/527 545/159/526 761/159/741 762/163/742
f 539/135/520 538/131/519 754/131/734 755/135/735
f 554/215/535 553/191/534 769/191/749 770/215/750
f 531/106/512 532/2/513 748/2/728 747/106/727
f 547/167/528 546/163/527 762/163/742 763/167/743
f 540/139/521 539/135/520 755/135/735 756/139/736
f 532/217/513 554/215/535 770/215/750 748/217/728
f 533/109/514 531/106/512 747/106/727 749/109/729
f 548/171/529 547/167/528 763/167/743 764/171/744
f 541/143/522 540/139/521 756/139/736 757/143/737
f 534/115/515 533/109/514 749/109/729 750/115/730
f 549/175/530 548/171/529 764/171/744 765/175/745
f 542/147/523 541/143/522 757/143/737 758/147/738
f 535/119/516 534/115/515 750/115/730 751/119/731
f 550/179/531 549/175/530 765/175/745 766/179/746
f 543/151/524 542/147/523 758/147/738 759/151/739
f 536/123/517 535/119/516 751/119/731 752/123/732
