# Blender 4.4.0
# www.blender.org
mtllib obj_Poster_002_003.mtl
o obj_Poster_002.003
v -0.126701 -0.005140 0.063814
v 0.126745 -0.005569 0.064374
v -0.126701 -0.005140 -0.063803
v 0.126700 -0.008450 -0.061831
v -0.117281 -0.002602 0.063814
v 0.117301 -0.005293 0.064287
v 0.117281 -0.004281 -0.062858
v -0.117281 -0.002602 -0.063803
v -0.126701 -0.002759 -0.060039
v -0.126701 -0.002759 0.060039
v 0.126736 -0.006770 0.060039
v 0.126700 -0.004537 -0.059029
v -0.117281 -0.001194 0.060039
v -0.117281 -0.001194 -0.060039
v 0.117281 -0.005867 0.060039
v 0.117281 -0.001969 -0.059657
v -0.058640 0.000000 0.062238
v -0.000000 -0.000000 0.062840
v 0.058640 -0.000000 0.062840
v 0.058640 -0.000000 -0.062875
v -0.000000 -0.000000 -0.062886
v -0.058640 0.000000 -0.062154
v 0.058640 -0.000000 0.059165
v -0.000000 -0.000000 0.059176
v -0.058640 0.000000 0.058487
v 0.058640 -0.000000 -0.059165
v -0.000000 -0.000000 -0.059176
v -0.058640 0.000000 -0.058487
v -0.126701 0.000000 -0.030019
v -0.126701 0.001739 -0.000775
v -0.126701 0.001739 0.029545
v 0.126390 -0.000237 0.030169
v 0.126701 0.000000 -0.000000
v 0.126701 0.000000 -0.030019
v -0.117281 0.000001 0.030019
v -0.117281 0.000001 -0.000000
v -0.117281 0.000001 -0.030019
v 0.117281 -0.000001 0.030019
v 0.117281 -0.000001 -0.000000
v 0.117281 -0.000001 -0.030019
v -0.058640 0.000000 0.029244
v -0.058640 0.000000 -0.000000
v -0.058640 0.000000 -0.029244
v -0.000000 -0.000000 0.029588
v -0.000000 -0.000000 -0.000000
v -0.000000 -0.000000 -0.029588
v 0.058640 -0.000000 0.029583
v 0.058640 -0.000000 -0.000000
v 0.058640 -0.000000 -0.030019
v 0.126581 -0.000983 -0.000000
v 0.126581 -0.000983 -0.030019
v 0.125645 0.001351 0.029916
v -0.126701 -0.000950 0.059104
v -0.126701 0.001739 -0.028712
v -0.126701 -0.005140 0.191431
v 0.124293 -0.015027 0.190658
v -0.117281 -0.002602 0.191431
v 0.117281 -0.008028 0.191431
v -0.126701 -0.002759 0.067589
v -0.126701 -0.002759 0.187667
v 0.126700 -0.008320 0.187667
v 0.126700 -0.004537 0.068599
v -0.117281 -0.001194 0.187667
v -0.117281 -0.001194 0.067589
v 0.117281 -0.005867 0.187667
v 0.117212 -0.004934 0.067971
v -0.058640 0.000000 0.189782
v -0.000000 -0.000000 0.190514
v 0.058640 -0.000000 0.190503
v 0.058640 -0.000000 0.186793
v -0.000000 -0.000000 0.186804
v -0.058640 0.000000 0.186115
v 0.058640 -0.000000 0.068462
v -0.000000 -0.000000 0.068452
v -0.058640 0.000000 0.069141
v -0.126701 0.000000 0.097608
v -0.126701 0.001739 0.126853
v -0.126701 0.001739 0.157173
v 0.126390 -0.000237 0.157796
v 0.126701 0.000000 0.127628
v 0.126701 0.000000 0.097608
v -0.117281 0.000001 0.157647
v -0.117281 0.000001 0.127628
v -0.117281 0.000001 0.097608
v 0.117281 -0.000001 0.157647
v 0.117281 -0.000001 0.127628
v 0.117281 -0.000001 0.097608
v -0.058640 0.000000 0.156871
v -0.058640 0.000000 0.127628
v -0.058640 0.000000 0.098384
v -0.000000 -0.000000 0.157216
v -0.000000 -0.000000 0.127628
v -0.000000 -0.000000 0.098040
v 0.058640 -0.000000 0.157210
v 0.058640 -0.000000 0.127628
v 0.058640 -0.000000 0.097608
v 0.126581 -0.000983 0.127628
v 0.126581 -0.000983 0.097608
v 0.125645 0.001351 0.157544
v -0.126701 -0.000950 0.186732
v -0.126701 0.001739 0.098915
v -0.126685 -0.002100 0.060039
v -0.126685 -0.004482 0.063814
v 0.117316 -0.004635 0.064287
v 0.126760 -0.004910 0.064375
v 0.126716 -0.003878 -0.059028
v 0.126716 -0.007791 -0.061831
v -0.117265 -0.001943 -0.063803
v -0.126685 -0.004482 -0.063803
v -0.117265 -0.001943 0.063814
v 0.058656 0.000658 0.062840
v 0.117296 -0.003622 -0.062857
v -0.058625 0.000659 -0.062154
v -0.117265 -0.000536 -0.060038
v 0.117296 -0.001310 -0.059656
v -0.126685 -0.002100 -0.060038
v 0.126752 -0.006111 0.060039
v 0.126716 0.000659 -0.030019
v -0.117265 -0.000536 0.060039
v -0.117265 0.000660 -0.030019
v 0.117296 -0.005209 0.060039
v 0.117296 0.000658 -0.030019
v -0.058625 0.000659 0.058488
v -0.058625 0.000659 -0.058487
v -0.058625 0.000659 0.062239
v 0.000015 0.000659 0.062840
v 0.058656 0.000658 -0.062874
v 0.000015 0.000659 -0.062886
v 0.058656 0.000658 0.059166
v 0.000015 0.000659 0.059176
v 0.058656 0.000658 -0.059165
v 0.000015 0.000659 -0.059175
v -0.058625 0.000659 -0.029243
v 0.000015 0.000659 -0.029587
v 0.058656 0.000658 -0.030019
v -0.126685 0.000659 -0.030019
v -0.126685 0.002398 -0.028712
v -0.126685 0.002398 -0.000774
v -0.126685 0.002398 0.029546
v 0.126406 0.000422 0.030169
v 0.125660 0.002010 0.029917
v 0.126716 0.000659 0.000001
v -0.117265 0.000660 0.030020
v -0.117265 0.000660 0.000001
v 0.117296 0.000658 0.030020
v 0.117296 0.000658 0.000001
v -0.058625 0.000659 0.029244
v -0.058625 0.000659 0.000001
v 0.000015 0.000659 0.029589
v 0.000015 0.000659 0.000001
v 0.058656 0.000658 0.029583
v 0.058656 0.000658 0.000001
v 0.126596 -0.000325 0.000001
v 0.126596 -0.000325 -0.030019
v -0.126685 -0.000292 0.059105
v -0.126685 -0.004482 0.191432
v -0.126685 -0.002100 0.187667
v 0.124309 -0.014369 0.190659
v 0.117296 -0.007369 0.191432
v -0.117265 -0.000536 0.067590
v -0.117265 -0.001943 0.191432
v 0.058656 0.000658 0.190503
v -0.058625 0.000659 0.069141
v 0.126716 -0.007661 0.187667
v 0.126716 -0.003878 0.068600
v 0.126716 0.000659 0.097609
v -0.117265 -0.000536 0.187667
v -0.117265 0.000660 0.097609
v 0.117296 -0.005209 0.187667
v 0.117296 0.000658 0.097609
v 0.117228 -0.004276 0.067972
v -0.058625 0.000659 0.186115
v -0.126685 -0.002100 0.067590
v -0.058625 0.000659 0.189783
v 0.000015 0.000659 0.190515
v 0.058656 0.000658 0.186794
v 0.000015 0.000659 0.186804
v 0.058656 0.000658 0.068463
v 0.000015 0.000659 0.068452
v -0.058625 0.000659 0.098385
v 0.000015 0.000659 0.098040
v 0.058656 0.000658 0.097609
v -0.126685 0.000659 0.097609
v -0.126685 0.002398 0.126854
v -0.126685 0.002398 0.098916
v -0.126685 0.002398 0.157174
v 0.126406 0.000422 0.157797
v 0.126716 0.000659 0.127628
v 0.125660 0.002010 0.157545
v -0.117265 0.000660 0.157648
v -0.117265 0.000660 0.127628
v 0.117296 0.000658 0.157648
v 0.117296 0.000658 0.127628
v -0.058625 0.000659 0.156872
v -0.058625 0.000659 0.127628
v 0.000015 0.000659 0.157216
v 0.000015 0.000659 0.127628
v 0.058656 0.000658 0.157211
v 0.058656 0.000658 0.127628
v 0.126596 -0.000325 0.097609
v 0.126596 -0.000325 0.127628
v -0.126685 -0.000292 0.186733
vn -0.7961 -0.6051 -0.0000
vn 0.8352 -0.5392 0.1079
vn -0.4331 -0.3290 -0.8392
vn 0.4782 -0.4526 -0.7527
vn 0.1227 -0.9924 -0.0110
vn -0.0612 -0.9906 0.1223
vn -0.0059 -0.3087 -0.9512
vn 0.0514 -0.3053 -0.9509
vn -0.8447 -0.5154 0.1443
vn -0.4130 -0.2430 -0.8777
vn 0.8224 -0.5689 -0.0050
vn 0.7972 -0.5302 0.2886
vn -0.0397 -0.9631 -0.2663
vn 0.0819 -0.9784 0.1898
vn -0.0672 -0.9977 -0.0056
vn -0.1507 -0.9237 0.3523
vn 0.0149 -0.9998 -0.0165
vn -0.0000 -1.0000 -0.0000
vn -0.0460 -0.9986 0.0278
vn -0.0076 -0.3040 -0.9527
vn -0.0060 -0.2922 -0.9563
vn 0.0125 -0.3075 -0.9515
vn -0.0361 -0.9993 -0.0073
vn 0.0091 -0.9987 -0.0503
vn -0.0169 -0.9958 0.0905
vn 0.0091 -0.9987 0.0508
vn -0.4250 -0.2594 0.8672
vn -0.8845 -0.4666 -0.0000
vn -0.8816 -0.4718 -0.0141
vn 0.4172 -0.2621 -0.8702
vn 0.4454 -0.2700 -0.8537
vn 0.3952 -0.2661 0.8792
vn -0.0671 -0.9975 -0.0224
vn -0.0916 -0.9958 -0.0000
vn -0.1215 -0.9865 0.1098
vn 0.0142 -0.9916 -0.1284
vn -0.0074 -0.9992 0.0393
vn -0.0652 -0.9979 0.0026
vn 0.0024 -1.0000 -0.0050
vn 0.0024 -1.0000 0.0050
vn -0.0121 -0.9996 -0.0243
vn -0.0042 -1.0000 0.0084
vn 0.4148 -0.2826 0.8649
vn 0.4137 -0.2812 -0.8659
vn 0.4257 -0.2573 0.8675
vn -0.5295 -0.2824 0.7999
vn -0.5532 -0.2684 -0.7887
vn -0.4342 -0.3304 0.8380
vn 0.3231 -0.5186 0.7916
vn 0.0517 -0.3071 0.9503
vn -0.0382 -0.2932 0.9553
vn -0.8447 -0.5155 0.1439
vn -0.4131 -0.2429 -0.8777
vn 0.8585 -0.5099 0.0547
vn 0.8426 -0.5303 0.0944
vn -0.0397 -0.9628 -0.2671
vn 0.0834 -0.9810 0.1753
vn -0.1943 -0.8778 -0.4379
vn -0.0289 -0.9931 0.1139
vn 0.0126 -0.3093 0.9509
vn -0.0060 -0.2939 0.9558
vn -0.0252 -0.3030 0.9527
vn -0.0401 -0.9947 -0.0952
vn 0.0091 -0.9987 -0.0508
vn -0.0322 -0.9990 0.0305
vn 0.0103 -0.9993 0.0370
vn 0.4010 -0.2617 -0.8779
vn 0.4231 -0.2596 0.8681
vn -0.0061 -0.9909 -0.1344
vn -0.0328 -0.9991 0.0280
vn -0.0104 -0.9997 0.0210
vn 0.4257 -0.2572 0.8675
vn -0.4607 0.2875 -0.8397
vn -0.8971 0.4418 -0.0000
vn 0.0612 0.9906 -0.1223
vn 0.8618 0.4992 -0.0903
vn 0.8486 0.4684 -0.2462
vn 0.5272 0.1680 -0.8330
vn -0.0208 0.2740 -0.9615
vn -0.4303 0.2122 -0.8774
vn -0.1227 0.9924 0.0110
vn 0.0460 0.9986 -0.0278
vn 0.0972 0.2456 -0.9645
vn 0.0025 0.2971 -0.9549
vn -0.0819 0.9784 -0.1898
vn 0.1507 0.9237 -0.3523
vn -0.8448 0.5144 -0.1471
vn 0.8803 0.4744 -0.0054
vn 0.4724 0.2634 0.8411
vn -0.1183 0.9647 0.2351
vn -0.1014 0.9936 -0.0503
vn 0.0672 0.9977 0.0056
vn 0.0654 0.9979 -0.0026
vn -0.0091 0.9987 0.0503
vn -0.0091 0.9987 -0.0508
vn -0.0149 0.9998 0.0165
vn -0.0000 1.0000 -0.0000
vn 0.0076 0.2856 -0.9583
vn -0.0057 0.2942 -0.9557
vn 0.0361 0.9993 0.0073
vn 0.0169 0.9958 -0.0905
vn -0.0024 1.0000 -0.0050
vn 0.0042 1.0000 -0.0084
vn -0.4421 0.2720 0.8547
vn -0.4943 0.3283 -0.8049
vn -0.8138 0.5812 -0.0000
vn -0.8180 0.5749 0.0179
vn 0.4682 0.2761 -0.8394
vn 0.4467 0.2798 0.8498
vn 0.4335 0.2630 -0.8619
vn 0.0671 0.9975 0.0224
vn 0.0916 0.9958 -0.0000
vn 0.0327 0.9911 0.1288
vn 0.0072 0.9992 -0.0393
vn -0.0024 1.0000 0.0050
vn 0.0121 0.9996 0.0243
vn 0.4507 0.2493 0.8572
vn 0.4520 0.2506 -0.8561
vn -0.4698 0.2941 0.8323
vn -0.4291 0.2109 0.8783
vn -0.4607 0.2876 -0.8396
vn 0.3979 0.1088 0.9110
vn 0.1110 0.2420 0.9639
vn -0.0834 0.9810 -0.1753
vn -0.0205 0.2725 0.9619
vn 0.0096 0.2916 0.9565
vn -0.0103 0.9993 -0.0370
vn 0.7814 0.3918 0.4857
vn 0.8549 0.5124 -0.0812
vn 0.4435 0.2728 0.8537
vn -0.1183 0.9645 0.2360
vn 0.1943 0.8778 0.4379
vn 0.0329 0.9991 -0.0280
vn 0.0289 0.9931 -0.1139
vn -0.0091 0.9987 0.0508
vn -0.8449 0.5144 -0.1468
vn 0.0026 0.2954 0.9554
vn -0.0057 0.2925 0.9563
vn 0.0401 0.9947 0.0952
vn 0.0322 0.9990 -0.0305
vn 0.0104 0.9997 -0.0210
vn 0.4859 0.2743 -0.8299
vn 0.0529 0.9895 0.1347
vt 0.710678 0.464171
vt 0.706956 0.464113
vt 0.707675 0.453698
vt 0.711126 0.453797
vt 0.709613 0.731190
vt 0.705269 0.731130
vt 0.705547 0.720884
vt 0.709793 0.720920
vt 0.711276 0.528403
vt 0.707232 0.528403
vt 0.844277 0.528403
vt 0.840272 0.528403
vt 0.840768 0.464073
vt 0.845457 0.464066
vt 0.743049 0.528403
vt 0.743185 0.464221
vt 0.844389 0.731130
vt 0.840514 0.731190
vt 0.840694 0.720920
vt 0.844667 0.720884
vt 0.742617 0.731260
vt 0.742639 0.720950
vt 0.840699 0.453701
vt 0.845546 0.453722
vt 0.743207 0.453911
vt 0.711742 0.656768
vt 0.743621 0.656768
vt 0.711128 0.592586
vt 0.743383 0.592586
vt 0.839259 0.656768
vt 0.843348 0.656768
vt 0.840147 0.592586
vt 0.844141 0.592586
vt 0.707744 0.656768
vt 0.707083 0.592586
vt 0.807892 0.592586
vt 0.808023 0.528403
vt 0.775637 0.592586
vt 0.775774 0.528403
vt 0.807380 0.656768
vt 0.775501 0.656768
vt 0.808089 0.720950
vt 0.775364 0.720950
vt 0.808636 0.464221
vt 0.808796 0.454245
vt 0.807726 0.731304
vt 0.774673 0.731304
vt 0.744217 0.731304
vt 0.775910 0.464221
vt 0.743108 0.454017
vt 0.775833 0.454017
vt 0.808679 0.455101
vt 0.775932 0.453911
vt 0.839677 0.731236
vt 0.859623 0.468002
vt 0.855511 0.467895
vt 0.855601 0.457397
vt 0.860381 0.457473
vt 0.858846 0.738989
vt 0.854426 0.738928
vt 0.854708 0.728530
vt 0.859029 0.728566
vt 0.860534 0.533189
vt 0.854313 0.533189
vt 0.995551 0.533189
vt 0.991447 0.533189
vt 0.991951 0.467902
vt 0.995894 0.467847
vt 0.892779 0.533189
vt 0.892917 0.468053
vt 0.995613 0.738928
vt 0.991692 0.738989
vt 0.991875 0.728566
vt 0.995895 0.728530
vt 0.892341 0.739060
vt 0.892363 0.728597
vt 0.991722 0.457376
vt 0.994339 0.459878
vt 0.892940 0.457589
vt 0.861007 0.663461
vt 0.893360 0.663461
vt 0.860383 0.598325
vt 0.893117 0.598325
vt 0.990419 0.663461
vt 0.994476 0.663461
vt 0.991320 0.598325
vt 0.995425 0.598325
vt 0.853370 0.663461
vt 0.854175 0.598325
vt 0.958586 0.598325
vt 0.958718 0.533189
vt 0.925852 0.598325
vt 0.925990 0.533189
vt 0.958066 0.663461
vt 0.925713 0.663461
vt 0.958786 0.728597
vt 0.925574 0.728597
vt 0.959340 0.468053
vt 0.959503 0.457928
vt 0.958417 0.739104
vt 0.924873 0.739104
vt 0.893965 0.739104
vt 0.926129 0.468053
vt 0.892839 0.457697
vt 0.926050 0.457697
vt 0.959385 0.458796
vt 0.926151 0.457589
vt 0.990843 0.739035
vt 0.993410 0.758000
vt 0.992744 0.749506
vt 0.995379 0.750581
vt 0.996487 0.758596
vt 0.993829 0.997993
vt 0.993861 0.989110
vt 0.997542 0.988719
vt 0.997469 0.997287
vt 0.992980 0.815195
vt 0.996642 0.815195
vt 0.872510 0.815195
vt 0.873846 0.759549
vt 0.876956 0.759002
vt 0.876172 0.815195
vt 0.964209 0.815195
vt 0.964242 0.757487
vt 0.872365 0.997287
vt 0.871731 0.988719
vt 0.875083 0.989110
vt 0.875454 0.997993
vt 0.964104 0.998821
vt 0.964109 0.989444
vt 0.876345 0.754631
vt 0.877586 0.750546
vt 0.964247 0.748234
vt 0.963374 0.931172
vt 0.992335 0.931172
vt 0.963749 0.873089
vt 0.993004 0.873089
vt 0.872860 0.931172
vt 0.876492 0.931172
vt 0.872317 0.873089
vt 0.875986 0.873089
vt 0.995967 0.931172
vt 0.996672 0.873089
vt 0.905374 0.815195
vt 0.905241 0.873089
vt 0.934576 0.815195
vt 0.934495 0.873089
vt 0.905453 0.931172
vt 0.934413 0.931172
vt 0.904554 0.989443
vt 0.934332 0.989443
vt 0.904988 0.748606
vt 0.905072 0.757487
vt 0.904678 0.999349
vt 0.934885 0.999349
vt 0.962718 0.999349
vt 0.934657 0.757487
vt 0.934784 0.748629
vt 0.964294 0.748629
vt 0.904941 0.748890
vt 0.934670 0.748234
vt 0.875918 0.998535
vt 0.813240 0.605352
vt 0.812967 0.601235
vt 0.814803 0.601205
vt 0.814840 0.605310
vt 0.813406 0.711331
vt 0.813406 0.707255
vt 0.815046 0.707241
vt 0.815046 0.711308
vt 0.813026 0.630846
vt 0.815469 0.630846
vt 0.759997 0.630846
vt 0.759593 0.605292
vt 0.761229 0.605313
vt 0.761609 0.630846
vt 0.800362 0.630846
vt 0.800362 0.605372
vt 0.759593 0.711308
vt 0.759593 0.707241
vt 0.761229 0.707255
vt 0.761229 0.711331
vt 0.800362 0.711359
vt 0.800362 0.707267
vt 0.759929 0.602175
vt 0.761229 0.601197
vt 0.800362 0.601280
vt 0.800024 0.681793
vt 0.812731 0.681793
vt 0.800174 0.656320
vt 0.813031 0.656320
vt 0.760310 0.681793
vt 0.761904 0.681793
vt 0.759992 0.656320
vt 0.761604 0.656320
vt 0.815731 0.681793
vt 0.815469 0.656320
vt 0.774463 0.630846
vt 0.774461 0.656320
vt 0.787317 0.630846
vt 0.787317 0.656320
vt 0.774611 0.681793
vt 0.787317 0.681793
vt 0.774273 0.707267
vt 0.787317 0.707267
vt 0.774208 0.601413
vt 0.774273 0.605372
vt 0.774479 0.711376
vt 0.787654 0.711376
vt 0.799794 0.711376
vt 0.787317 0.605372
vt 0.787317 0.601322
vt 0.800362 0.601322
vt 0.774318 0.601752
vt 0.787317 0.601280
vt 0.761635 0.711350
vt 0.923669 0.469941
vt 0.923669 0.459567
vt 0.957080 0.459567
vt 0.957080 0.469941
vt 0.808747 0.455100
vt 0.808703 0.464221
vt 0.890258 0.469941
vt 0.890373 0.460668
vt 0.890786 0.741461
vt 0.857887 0.741392
vt 0.991943 0.728566
vt 0.990912 0.739035
vt 0.957080 0.730935
vt 0.955626 0.741461
vt 0.856847 0.741345
vt 0.852657 0.741284
vt 0.994693 0.741284
vt 0.990492 0.741345
vt 0.852657 0.469734
vt 0.853517 0.461752
vt 0.989367 0.459343
vt 0.994070 0.459267
vt 0.852657 0.730868
vt 0.853690 0.535189
vt 0.856847 0.459246
vt 0.957080 0.459459
vt 0.957080 0.741416
vt 0.924531 0.741461
vt 0.890092 0.459798
vt 0.775978 0.464221
vt 0.776000 0.453911
vt 0.923669 0.459459
vt 0.856847 0.730904
vt 0.707811 0.656767
vt 0.707150 0.592585
vt 0.994544 0.663460
vt 0.995964 0.728530
vt 0.854492 0.665686
vt 0.853678 0.600438
vt 0.995619 0.533188
vt 0.995493 0.598324
s 1
usemtl tex_Flyer_Collection_70s
f 16/1/16 7/2/7 4/3/4 12/4/12
f 9/5/9 3/6/3 8/7/8 14/8/14
f 26/9/25 20/10/20 7/2/7 16/1/16
f 19/11/19 23/12/23 15/13/15 6/14/6
f 49/15/42 26/9/25 16/1/16 40/16/38
f 1/17/1 10/18/10 13/19/13 5/20/5
f 29/21/27 9/5/9 14/8/14 37/22/35
f 6/14/6 15/13/15 11/23/11 2/24/2
f 40/16/38 16/1/16 12/4/12 34/25/32
f 37/22/35 14/8/14 28/26/26 43/27/40
f 43/27/40 28/26/26 27/28/18 46/29/18
f 46/29/18 27/28/18 26/9/25 49/15/42
f 5/20/5 13/19/13 25/30/24 17/31/17
f 17/31/17 25/30/24 24/32/18 18/33/18
f 18/33/18 24/32/18 23/12/23 19/11/19
f 14/8/14 8/7/8 22/34/22 28/26/26
f 28/26/26 22/34/22 21/35/21 27/28/18
f 27/28/18 21/35/21 20/10/20 26/9/25
f 24/32/18 44/36/18 47/37/41 23/12/23
f 44/36/18 45/38/18 48/39/18 47/37/41
f 45/38/18 46/29/18 49/15/42 48/39/18
f 25/30/24 41/40/39 44/36/18 24/32/18
f 41/40/39 42/41/18 45/38/18 44/36/18
f 42/41/18 43/27/40 46/29/18 45/38/18
f 13/19/13 35/42/33 41/40/39 25/30/24
f 35/42/33 36/43/34 42/41/18 41/40/39
f 36/43/34 37/22/35 43/27/40 42/41/18
f 15/13/15 38/44/36 32/45/30 11/23/11
f 31/46/29 30/47/28 36/43/34 35/42/33
f 30/47/28 54/48/47 37/22/35 36/43/34
f 23/12/23 47/37/41 38/44/36 15/13/15
f 47/37/41 48/39/18 39/49/37 38/44/36
f 39/49/37 40/16/38 51/50/44 50/51/43
f 48/39/18 49/15/42 40/16/38 39/49/37
f 52/52/45 38/44/36 39/49/37 33/53/31
f 53/54/46 31/46/29 35/42/33 13/19/13
f 66/55/59 6/56/6 2/57/2 62/58/55
f 59/59/52 1/60/1 5/61/5 64/62/57
f 73/63/65 19/64/19 6/56/6 66/55/59
f 69/65/62 70/66/63 65/67/58 58/68/51
f 96/69/71 73/63/65 66/55/59 87/70/70
f 55/71/48 60/72/53 63/73/56 57/74/50
f 76/75/27 59/59/52 64/62/57 84/76/35
f 58/68/51 65/67/58 61/77/54 56/78/49
f 87/70/70 66/55/59 62/58/55 81/79/68
f 84/76/35 64/62/57 75/80/66 90/81/40
f 90/81/40 75/80/66 74/82/18 93/83/18
f 93/83/18 74/82/18 73/63/65 96/69/71
f 57/74/50 63/73/56 72/84/64 67/85/60
f 67/85/60 72/84/64 71/86/18 68/87/61
f 68/87/61 71/86/18 70/66/63 69/65/62
f 64/62/57 5/61/5 17/88/17 75/80/66
f 75/80/66 17/88/17 18/89/18 74/82/18
f 74/82/18 18/89/18 19/64/19 73/63/65
f 71/86/18 91/90/18 94/91/41 70/66/63
f 91/90/18 92/92/18 95/93/18 94/91/41
f 92/92/18 93/83/18 96/69/71 95/93/18
f 72/84/64 88/94/39 91/90/18 71/86/18
f 88/94/39 89/95/18 92/92/18 91/90/18
f 89/95/18 90/81/40 93/83/18 92/92/18
f 63/73/56 82/96/33 88/94/39 72/84/64
f 82/96/33 83/97/34 89/95/18 88/94/39
f 83/97/34 84/76/35 90/81/40 89/95/18
f 65/67/58 85/98/69 79/99/67 61/77/54
f 78/100/29 77/101/28 83/97/34 82/96/33
f 77/101/28 101/102/47 84/76/35 83/97/34
f 70/66/63 94/91/41 85/98/69 65/67/58
f 94/91/41 95/93/18 86/103/37 85/98/69
f 86/103/37 87/70/70 98/104/44 97/105/43
f 95/93/18 96/69/71 87/70/70 86/103/37
f 99/106/72 85/98/69 86/103/37 80/107/31
f 100/108/46 78/100/29 82/96/33 63/73/56
f 115/109/86 106/110/77 107/111/78 112/112/83
f 116/113/87 114/114/85 108/115/79 109/116/80
f 131/117/101 115/109/86 112/112/83 127/118/98
f 111/119/82 104/120/75 121/121/92 129/122/100
f 135/123/103 122/124/93 115/109/86 131/117/101
f 103/125/74 110/126/81 119/127/90 102/128/73
f 136/129/104 120/130/91 114/114/85 116/113/87
f 104/120/75 105/131/76 117/132/88 121/121/92
f 122/124/93 118/133/89 106/110/77 115/109/86
f 120/130/91 133/134/102 124/135/95 114/114/85
f 133/134/102 134/136/97 132/137/97 124/135/95
f 134/136/97 135/123/103 131/117/101 132/137/97
f 110/126/81 125/138/96 123/139/94 119/127/90
f 125/138/96 126/140/97 130/141/97 123/139/94
f 126/140/97 111/119/82 129/122/100 130/141/97
f 114/114/85 124/135/95 113/142/84 108/115/79
f 124/135/95 132/137/97 128/143/99 113/142/84
f 132/137/97 131/117/101 127/118/98 128/143/99
f 130/141/97 129/122/100 151/144/116 149/145/97
f 149/145/97 151/144/116 152/146/97 150/147/97
f 150/147/97 152/146/97 135/123/103 134/136/97
f 123/139/94 130/141/97 149/145/97 147/148/115
f 147/148/115 149/145/97 150/147/97 148/149/97
f 148/149/97 150/147/97 134/136/97 133/134/102
f 119/127/90 123/139/94 147/148/115 143/150/111
f 143/150/111 147/148/115 148/149/97 144/151/112
f 144/151/112 148/149/97 133/134/102 120/130/91
f 121/121/92 117/132/88 140/152/108 145/153/113
f 139/154/107 143/150/111 144/151/112 138/155/106
f 138/155/106 144/151/112 120/130/91 137/156/105
f 129/122/100 121/121/92 145/153/113 151/144/116
f 151/144/116 145/153/113 146/157/114 152/146/97
f 146/157/114 153/158/117 154/159/118 122/124/93
f 152/146/97 146/157/114 122/124/93 135/123/103
f 141/160/109 142/161/110 146/157/114 145/153/113
f 155/162/119 119/127/90 143/150/111 139/154/107
f 171/163/134 165/164/129 105/165/76 104/166/75
f 173/167/136 160/168/124 110/169/81 103/170/74
f 178/171/140 171/163/134 104/166/75 111/172/82
f 162/173/126 159/174/123 169/175/132 176/176/139
f 182/177/141 170/178/133 171/163/134 178/171/140
f 156/179/120 161/180/125 167/181/131 157/182/121
f 183/183/104 168/184/91 160/168/124 173/167/136
f 159/174/123 158/185/122 164/186/128 169/175/132
f 170/178/133 166/187/130 165/164/129 171/163/134
f 168/184/91 180/188/102 163/189/127 160/168/124
f 180/188/102 181/190/97 179/191/97 163/189/127
f 181/190/97 182/177/141 178/171/140 179/191/97
f 161/180/125 174/192/137 172/193/135 167/181/131
f 174/192/137 175/194/138 177/195/97 172/193/135
f 175/194/138 162/173/126 176/176/139 177/195/97
f 160/168/124 163/189/127 125/196/96 110/169/81
f 163/189/127 179/191/97 126/197/97 125/196/96
f 179/191/97 178/171/140 111/172/82 126/197/97
f 177/195/97 176/176/139 198/198/116 196/199/97
f 196/199/97 198/198/116 199/200/97 197/201/97
f 197/201/97 199/200/97 182/177/141 181/190/97
f 172/193/135 177/195/97 196/199/97 194/202/115
f 194/202/115 196/199/97 197/201/97 195/203/97
f 195/203/97 197/201/97 181/190/97 180/188/102
f 167/181/131 172/193/135 194/202/115 190/204/111
f 190/204/111 194/202/115 195/203/97 191/205/112
f 191/205/112 195/203/97 180/188/102 168/184/91
f 169/175/132 164/186/128 187/206/142 192/207/143
f 186/208/107 190/204/111 191/205/112 184/209/106
f 184/209/106 191/205/112 168/184/91 185/210/105
f 176/176/139 169/175/132 192/207/143 198/198/116
f 198/198/116 192/207/143 193/211/114 199/200/97
f 193/211/114 201/212/117 200/213/118 170/178/133
f 199/200/97 193/211/114 170/178/133 182/177/141
f 189/214/109 188/215/110 193/211/114 192/207/143
f 202/216/119 167/181/131 190/204/111 186/208/107
f 86/217/37 97/218/43 201/218/117 193/217/114
f 51/159/44 40/124/38 122/124/93 154/159/118
f 98/219/44 87/220/70 170/220/133 200/219/118
f 4/111/4 7/112/7 112/112/83 107/111/78
f 38/44/36 52/52/45 141/221/109 145/222/113
f 85/223/69 99/224/72 189/224/109 192/223/143
f 22/142/22 8/115/8 108/115/79 113/142/84
f 31/154/29 53/162/46 155/162/119 139/154/107
f 78/225/29 100/226/46 202/226/119 186/225/107
f 53/162/46 13/127/13 119/127/90 155/162/119
f 100/108/46 63/73/56 167/227/131 202/228/119
f 37/130/35 54/156/47 137/156/105 120/130/91
f 84/229/35 101/230/47 185/230/105 168/229/91
f 3/116/3 9/113/9 116/113/87 109/116/80
f 60/231/53 55/232/48 156/232/120 157/231/121
f 1/233/1 59/234/52 173/234/136 103/233/74
f 2/131/2 11/132/11 117/132/88 105/131/76
f 58/235/51 56/236/49 158/236/122 159/235/123
f 62/237/55 2/238/2 105/238/76 165/237/129
f 34/133/32 12/110/12 106/110/77 118/133/89
f 55/232/48 57/239/50 161/239/125 156/232/120
f 69/240/62 58/235/51 159/235/123 162/240/126
f 56/236/49 61/241/54 164/241/128 158/236/122
f 81/242/68 62/237/55 165/237/129 166/242/130
f 9/113/9 29/129/27 136/129/104 116/113/87
f 59/234/52 76/243/27 183/243/104 173/234/136
f 54/156/47 30/155/28 138/155/106 137/156/105
f 13/127/13 10/128/10 102/128/73 119/127/90
f 101/230/47 77/244/28 184/244/106 185/230/105
f 32/152/30 38/153/36 145/153/113 140/152/108
f 30/155/28 31/154/29 139/154/107 138/155/106
f 79/245/67 85/223/69 192/223/143 187/245/142
f 77/244/28 78/225/29 186/225/107 184/244/106
f 33/53/31 39/49/37 146/246/114 142/247/110
f 11/132/11 32/152/30 140/152/108 117/132/88
f 80/248/31 86/217/37 193/217/114 188/248/110
f 61/241/54 79/245/67 187/245/142 164/241/128
f 40/124/38 34/133/32 118/133/89 122/124/93
f 52/160/45 33/161/31 142/161/110 141/160/109
f 87/220/70 81/242/68 166/242/130 170/220/133
f 99/224/72 80/248/31 188/248/110 189/224/109
f 63/249/56 60/231/53 157/231/121 167/249/131
f 29/129/27 37/130/35 120/130/91 136/129/104
f 76/243/27 84/229/35 168/229/91 183/243/104
f 7/112/7 20/118/20 127/118/98 112/112/83
f 10/128/10 1/125/1 103/125/74 102/128/73
f 20/118/20 21/143/21 128/143/99 127/118/98
f 21/35/21 22/34/22 113/250/84 128/251/99
f 12/110/12 4/111/4 107/111/78 106/110/77
f 57/74/50 67/85/60 174/252/137 161/253/125
f 50/158/43 51/159/44 154/159/118 153/158/117
f 97/218/43 98/219/44 200/219/118 201/218/117
f 8/115/8 3/116/3 109/116/80 108/115/79
f 67/254/60 68/255/61 175/255/138 174/254/137
f 68/87/61 69/65/62 162/256/126 175/257/138
f 39/157/37 50/158/43 153/158/117 146/157/114
