# Blender 4.4.0
# www.blender.org
mtllib obj_Letter_half-folded_001.mtl
o obj_Letter_half-folded_001
v -0.077066 -0.017181 0.093297
v 0.159676 -0.025173 0.091596
v -0.077850 -0.057782 -0.030074
v 0.161698 -0.061715 -0.028031
v -0.067125 -0.014580 0.094273
v 0.151746 -0.022846 0.092953
v 0.152776 -0.057825 -0.027607
v -0.068954 -0.055285 -0.029132
v -0.077846 -0.054171 -0.025582
v -0.076909 -0.015073 0.091140
v 0.161637 -0.022120 0.089273
v 0.161694 -0.056882 -0.023934
v -0.067643 -0.013813 0.090862
v -0.068947 -0.052650 -0.024983
v 0.151783 -0.019465 0.090360
v 0.152779 -0.054467 -0.023687
v -0.013017 -0.013963 0.093529
v 0.042323 -0.013861 0.094426
v 0.097660 -0.014804 0.094570
v 0.097331 -0.053251 -0.026417
v 0.041900 -0.052963 -0.026727
v -0.013528 -0.052433 -0.026316
v 0.097641 -0.014449 0.090248
v 0.042300 -0.013803 0.090040
v -0.013073 -0.013760 0.089206
v 0.097343 -0.052044 -0.022817
v 0.041913 -0.051755 -0.023127
v -0.013515 -0.051239 -0.022758
v -0.077756 -0.041638 0.004518
v -0.077664 -0.030378 0.033508
v -0.077564 -0.020511 0.062929
v 0.161682 -0.023546 0.064130
v 0.161874 -0.033128 0.034941
v 0.161774 -0.042897 0.005812
v -0.068652 -0.022146 0.062825
v -0.068752 -0.031915 0.033696
v -0.068851 -0.041684 0.004566
v 0.153070 -0.023313 0.064022
v 0.152970 -0.033082 0.034893
v 0.152870 -0.042851 0.005764
v -0.013224 -0.022690 0.062371
v -0.013321 -0.032206 0.033995
v -0.013418 -0.041723 0.005619
v 0.042207 -0.022870 0.063005
v 0.042109 -0.032498 0.034294
v 0.042011 -0.042127 0.005584
v 0.097638 -0.023163 0.063299
v 0.097540 -0.032790 0.034593
v 0.097440 -0.042559 0.005464
v 0.161765 -0.034112 0.034594
v 0.161665 -0.043881 0.005465
v 0.160971 -0.022033 0.064441
v -0.076925 -0.014004 0.089043
v -0.077757 -0.039470 0.006398
v -0.077333 -0.042932 0.084376
v 0.159943 -0.051283 0.082500
v -0.068438 -0.040435 0.085318
v 0.153303 -0.047037 0.084605
v -0.013022 -0.038656 0.084933
v 0.042411 -0.038709 0.085943
v 0.097841 -0.039005 0.086231
v -0.077245 -0.068266 0.075474
v 0.159752 -0.075899 0.074986
v -0.068344 -0.067385 0.075849
v 0.153396 -0.073987 0.075136
v -0.012928 -0.065606 0.075464
v 0.042504 -0.065659 0.076473
v 0.097935 -0.065955 0.076762
v -0.076474 -0.097138 0.065335
v 0.160613 -0.103556 0.065015
v -0.068242 -0.096642 0.065569
v 0.153498 -0.103244 0.064856
v -0.012827 -0.094863 0.065184
v 0.042606 -0.094916 0.066194
v 0.098037 -0.095212 0.066482
v -0.077045 -0.125769 0.055270
v 0.160207 -0.127270 0.055801
v -0.068141 -0.125816 0.055318
v 0.153581 -0.126984 0.056515
v -0.012716 -0.126645 0.054017
v 0.042717 -0.126698 0.055027
v 0.098147 -0.126994 0.055315
v -0.077028 -0.124052 0.060391
v 0.160224 -0.125553 0.060922
v -0.068123 -0.124099 0.060439
v 0.153598 -0.125266 0.061636
v -0.012698 -0.124927 0.059138
v 0.042734 -0.124981 0.060148
v 0.098165 -0.125276 0.060436
v -0.077018 -0.100280 0.086571
v 0.160234 -0.101780 0.087102
v -0.068113 -0.100327 0.086619
v 0.153608 -0.101494 0.087816
v -0.012688 -0.101155 0.085318
v 0.042744 -0.101209 0.086328
v 0.098175 -0.101504 0.086616
v -0.076825 -0.077498 0.110448
v 0.160427 -0.078998 0.110979
v -0.067921 -0.077545 0.110496
v 0.153801 -0.078712 0.111693
v -0.012496 -0.078373 0.109195
v 0.042937 -0.078427 0.110204
v 0.098367 -0.078722 0.110493
v -0.076827 -0.053354 0.134803
v 0.160426 -0.054855 0.135334
v -0.067922 -0.053401 0.134851
v 0.153799 -0.054568 0.136048
v -0.012497 -0.054229 0.133550
v 0.042935 -0.054283 0.134560
v 0.098366 -0.054579 0.134848
v -0.076181 -0.032492 0.155784
v 0.160427 -0.033659 0.157341
v -0.067922 -0.032133 0.156643
v 0.153801 -0.033373 0.158055
v -0.012495 -0.033034 0.155557
v 0.042937 -0.033088 0.156567
v 0.098368 -0.033383 0.156855
v -0.074176 -0.028403 0.155805
v 0.160425 -0.030042 0.160593
v -0.067931 -0.029360 0.157811
v 0.153799 -0.029756 0.161307
v -0.012498 -0.029417 0.158809
v 0.042935 -0.029471 0.159819
v 0.098366 -0.029766 0.160107
vn -0.0812 0.0559 0.9951
vn 0.1817 0.0849 0.9797
vn -0.1311 0.8035 -0.5807
vn 0.2152 0.6831 -0.6979
vn -0.0345 0.0996 0.9944
vn 0.1021 0.0635 0.9927
vn 0.1432 0.7652 -0.6276
vn -0.0803 0.8481 -0.5238
vn -0.1027 0.8649 -0.4914
vn -0.1911 0.8670 0.4602
vn 0.2349 0.8894 0.3921
vn 0.1793 0.7935 -0.5816
vn -0.0383 0.9987 0.0341
vn -0.0543 0.8980 -0.4367
vn 0.1824 0.9029 0.3891
vn 0.1083 0.8535 -0.5098
vn -0.0006 0.1091 0.9940
vn -0.0091 0.1099 0.9939
vn 0.0157 0.0994 0.9949
vn 0.0266 0.9042 -0.4263
vn 0.0067 0.9481 -0.3180
vn -0.0042 0.9228 -0.3853
vn 0.0499 0.9987 0.0044
vn 0.0073 0.9896 -0.1437
vn 0.0002 0.9920 -0.1260
vn 0.0203 0.9252 -0.3789
vn -0.0007 0.9352 -0.3542
vn -0.0636 0.9286 -0.3656
vn 0.1677 0.9345 -0.3140
vn 0.1346 0.9475 -0.2902
vn 0.1488 0.9841 -0.0970
vn -0.0597 0.9402 -0.3354
vn 0.1214 0.9109 -0.3943
vn 0.0696 0.9513 -0.3004
vn 0.0879 0.9443 -0.3170
vn 0.0205 0.9420 -0.3350
vn 0.0339 0.9680 -0.2487
vn 0.0128 0.9465 -0.3226
vn 0.0632 0.9369 -0.3439
vn 0.0045 0.9496 -0.3133
vn 0.0046 0.9468 -0.3218
vn 0.0072 0.9486 -0.3164
vn 0.0173 0.9553 -0.2951
vn 0.0104 0.9459 -0.3244
vn 0.0998 0.9433 -0.3167
vn 0.1011 0.9587 -0.2658
vn -0.0072 -0.3296 0.9441
vn 0.0375 -0.3168 0.9477
vn 0.0045 -0.3295 0.9442
vn 0.0198 -0.3249 0.9455
vn 0.0001 -0.3293 0.9442
vn -0.0119 -0.3283 0.9445
vn -0.0136 -0.3284 0.9444
vn -0.0068 -0.3315 0.9434
vn -0.0219 -0.3251 0.9454
vn 0.0052 -0.3315 0.9435
vn -0.0184 -0.3274 0.9447
vn -0.0002 -0.3315 0.9435
vn -0.0121 -0.3315 0.9434
vn -0.0135 -0.3315 0.9434
vn -0.0170 -0.3415 0.9397
vn 0.0052 -0.3315 0.9434
vn -0.0186 -0.3365 0.9415
vn -0.0046 0.1359 0.9907
vn 0.0324 0.1056 0.9939
vn 0.0104 0.1284 0.9917
vn 0.0061 0.1306 0.9914
vn 0.0035 0.1252 0.9921
vn -0.0112 0.1277 0.9918
vn -0.0129 0.1263 0.9919
vn 0.0073 0.8515 -0.5243
vn -0.0175 0.8613 -0.5077
vn 0.0038 0.8495 -0.5276
vn -0.0055 0.8445 -0.5355
vn 0.0054 0.8530 -0.5219
vn 0.0089 0.8502 -0.5263
vn 0.0092 0.8517 -0.5239
vn 0.0075 0.7319 -0.6814
vn -0.0416 0.7321 -0.6799
vn 0.0012 0.7318 -0.6815
vn -0.0136 0.7314 -0.6819
vn 0.0040 0.7320 -0.6813
vn 0.0103 0.7318 -0.6815
vn 0.0110 0.7319 -0.6813
vn 0.0075 0.7168 -0.6972
vn -0.0440 0.7169 -0.6958
vn 0.0009 0.7167 -0.6973
vn -0.0147 0.7164 -0.6976
vn 0.0039 0.7169 -0.6971
vn 0.0104 0.7167 -0.6973
vn 0.0112 0.7168 -0.6972
vn 0.0157 0.7111 -0.7029
vn -0.0444 0.7140 -0.6987
vn 0.0055 0.7127 -0.7015
vn -0.0147 0.7154 -0.6985
vn 0.0043 0.7146 -0.6996
vn 0.0104 0.7152 -0.6988
vn 0.0112 0.7151 -0.6989
vn 0.1148 0.4477 -0.8868
vn -0.0472 0.6958 -0.7167
vn 0.0966 0.4375 -0.8940
vn -0.0163 0.6925 -0.7212
vn 0.0070 0.6672 -0.7448
vn 0.0106 0.6939 -0.7200
vn 0.0114 0.6942 -0.7197
vn 0.1970 0.1113 -0.9741
vn -0.0512 0.6677 -0.7427
vn 0.1247 0.3026 -0.9449
vn -0.0162 0.6685 -0.7435
vn 0.0090 0.6175 -0.7865
vn 0.0108 0.6686 -0.7436
vn 0.0117 0.6686 -0.7436
vt -0.017877 -1.026796
vt -0.056441 -1.028867
vt -0.056624 -1.055461
vt -0.018000 -1.051857
vt 0.978481 -1.042866
vt 0.940073 -1.038556
vt 0.939981 -1.064798
vt 0.978350 -1.071508
vt 0.221686 -1.021814
vt 0.221650 -1.044258
vt 0.223200 -0.290580
vt -0.010643 -0.301876
vt -0.010793 -0.316752
vt 0.223210 -0.316982
vt 0.221972 -0.845485
vt -0.017509 -0.842648
vt 0.978019 -0.302552
vt 0.935139 -0.295580
vt 0.937322 -0.316273
vt 0.977339 -0.315133
vt 0.978884 -0.854457
vt 0.940415 -0.853998
vt -0.044973 -0.310749
vt -0.053433 -0.324028
vt -0.055978 -0.842189
vt 0.700942 -0.846467
vt 0.700655 -1.023387
vt 0.461457 -0.845713
vt 0.461167 -1.024715
vt 0.701367 -0.298886
vt 0.701529 -0.325342
vt 0.462294 -0.292268
vt 0.462312 -0.319150
vt 0.700619 -1.045573
vt 0.461131 -1.047163
vt 0.222557 -0.484901
vt 0.462038 -0.487707
vt 0.222267 -0.663872
vt 0.461748 -0.666710
vt 0.701516 -0.492628
vt 0.701229 -0.669548
vt 0.941004 -0.490772
vt 0.940710 -0.672385
vt -0.054130 -0.478658
vt -0.016920 -0.479421
vt 0.979537 -0.489813
vt 0.979240 -0.673245
vt 0.978966 -0.842266
vt -0.017214 -0.661034
vt -0.055234 -0.663004
vt -0.055528 -0.844617
vt -0.051026 -0.476309
vt -0.055683 -0.660576
vt 0.977390 -0.327668
vt -0.001212 0.416752
vt 0.232290 0.396933
vt 0.232222 0.465664
vt -0.007225 0.485576
vt 0.471369 0.393983
vt 0.471716 0.464177
vt -0.035372 0.426335
vt -0.035747 0.500963
vt 0.710514 0.395851
vt 0.944240 0.390662
vt 0.950675 0.464240
vt 0.711268 0.466385
vt 0.987266 0.397979
vt 0.989185 0.471315
vt 0.711668 0.543781
vt 0.472117 0.541573
vt 0.232622 0.543061
vt -0.006825 0.562972
vt -0.034256 0.566290
vt 0.951075 0.541637
vt 0.989561 0.544073
vt 0.712102 0.627803
vt 0.472551 0.625595
vt 0.233056 0.627083
vt -0.006391 0.646994
vt -0.037136 0.646944
vt 0.951510 0.625659
vt 0.987093 0.626995
vt 0.233528 0.718357
vt -0.006038 0.715172
vt -0.034620 0.719187
vt 0.473022 0.716869
vt 0.951943 0.709444
vt 0.712574 0.719077
vt 0.990414 0.709215
vt 0.227006 -0.285018
vt 0.466503 -0.284933
vt 0.466174 -0.253006
vt 0.226677 -0.253091
vt 0.706046 -0.289344
vt 0.945441 -0.279352
vt 0.945112 -0.247425
vt 0.705717 -0.257417
vt 0.983913 -0.279349
vt 0.983584 -0.247422
vt -0.012550 -0.279419
vt -0.012879 -0.247492
vt -0.041142 -0.284097
vt -0.041471 -0.252170
vt 0.465048 -0.085224
vt 0.225550 -0.085309
vt 0.943986 -0.079642
vt 0.704591 -0.089635
vt 0.982458 -0.079640
vt -0.014005 -0.079710
vt -0.042598 -0.084387
vt 0.942182 0.073705
vt 0.702787 0.063713
vt 0.980654 0.073708
vt 0.463244 0.068123
vt 0.223746 0.068039
vt -0.015809 0.073638
vt -0.044402 0.068960
vt 0.701814 0.220417
vt 0.462271 0.224828
vt 0.222774 0.224743
vt -0.016782 0.230342
vt -0.045375 0.225664
vt 0.941209 0.230409
vt 0.979681 0.230412
vt 0.221872 0.366149
vt -0.017684 0.371748
vt -0.046276 0.367070
vt 0.461369 0.366233
vt 0.940326 0.370521
vt 0.700912 0.361823
vt 0.976050 0.365406
vt -0.017799 0.392791
vt -0.046392 0.388113
vt 0.461253 0.387277
vt 0.221756 0.387192
vt 0.940339 0.378526
vt 0.700797 0.382866
vt 0.967442 0.366712
s 1
usemtl writingonpaper
f 16/1/16 12/2/12 4/3/4 7/4/7
f 9/5/9 14/6/14 8/7/8 3/8/3
f 26/9/26 16/1/16 7/4/7 20/10/20
f 19/11/19 6/12/6 15/13/15 23/14/23
f 49/15/44 40/16/39 16/1/16 26/9/26
f 1/17/1 5/18/5 13/19/13 10/20/10
f 29/21/28 37/22/36 14/6/14 9/5/9
f 6/12/6 2/23/2 11/24/11 15/13/15
f 40/16/39 34/25/33 12/2/12 16/1/16
f 37/22/36 43/26/41 28/27/27 14/6/14
f 43/26/41 46/28/21 27/29/21 28/27/27
f 46/28/21 49/15/44 26/9/26 27/29/21
f 5/18/5 17/30/17 25/31/25 13/19/13
f 17/30/17 18/32/18 24/33/24 25/31/25
f 18/32/18 19/11/19 23/14/23 24/33/24
f 14/6/14 28/27/27 22/34/22 8/7/8
f 28/27/27 27/29/21 21/35/21 22/34/22
f 27/29/21 26/9/26 20/10/20 21/35/21
f 24/33/24 23/14/23 47/36/43 44/37/42
f 44/37/42 47/36/43 48/38/21 45/39/21
f 45/39/21 48/38/21 49/15/44 46/28/21
f 25/31/25 24/33/24 44/37/42 41/40/40
f 41/40/40 44/37/42 45/39/21 42/41/21
f 42/41/21 45/39/21 46/28/21 43/26/41
f 13/19/13 25/31/25 41/40/40 35/42/34
f 35/42/34 41/40/40 42/41/21 36/43/35
f 36/43/35 42/41/21 43/26/41 37/22/36
f 15/13/15 11/24/11 32/44/31 38/45/37
f 31/46/30 35/42/34 36/43/35 30/47/29
f 30/47/29 36/43/35 37/22/36 54/48/29
f 23/14/23 15/13/15 38/45/37 47/36/43
f 47/36/43 38/45/37 39/49/38 48/38/21
f 39/49/38 50/50/45 51/51/45 40/16/39
f 48/38/21 39/49/38 40/16/39 49/15/44
f 52/52/32 33/53/32 39/49/38 38/45/37
f 53/54/46 13/19/13 35/42/34 31/46/30
f 6/55/6 19/56/19 61/57/53 58/58/50
f 19/56/19 18/59/18 60/60/52 61/57/53
f 2/61/2 6/55/6 58/58/50 56/62/48
f 17/63/17 5/64/5 57/65/49 59/66/51
f 5/64/5 1/67/1 55/68/47 57/65/49
f 18/59/18 17/63/17 59/66/51 60/60/52
f 60/60/52 59/66/51 66/69/58 67/70/59
f 58/58/50 61/57/53 68/71/60 65/72/57
f 56/62/48 58/58/50 65/72/57 63/73/55
f 61/57/53 60/60/52 67/70/59 68/71/60
f 59/66/51 57/65/49 64/74/56 66/69/58
f 57/65/49 55/68/47 62/75/54 64/74/56
f 67/70/59 66/69/58 73/76/58 74/77/59
f 65/72/57 68/71/60 75/78/60 72/79/63
f 63/73/55 65/72/57 72/79/63 70/80/61
f 68/71/60 67/70/59 74/77/59 75/78/60
f 66/69/58 64/74/56 71/81/62 73/76/58
f 64/74/56 62/75/54 69/82/54 71/81/62
f 72/79/63 75/78/60 82/83/70 79/84/67
f 70/80/61 72/79/63 79/84/67 77/85/65
f 75/78/60 74/77/59 81/86/69 82/83/70
f 73/76/58 71/81/62 78/87/66 80/88/68
f 71/81/62 69/82/54 76/89/64 78/87/66
f 74/77/59 73/76/58 80/88/68 81/86/69
f 82/90/70 81/91/69 88/92/76 89/93/77
f 80/94/68 78/95/66 85/96/73 87/97/75
f 78/95/66 76/98/64 83/99/71 85/96/73
f 81/91/69 80/94/68 87/97/75 88/92/76
f 79/100/67 82/90/70 89/93/77 86/101/74
f 77/102/65 79/100/67 86/101/74 84/103/72
f 89/93/77 88/92/76 95/104/83 96/105/84
f 87/97/75 85/96/73 92/106/80 94/107/82
f 85/96/73 83/99/71 90/108/78 92/106/80
f 88/92/76 87/97/75 94/107/82 95/104/83
f 86/101/74 89/93/77 96/105/84 93/109/81
f 84/103/72 86/101/74 93/109/81 91/110/79
f 94/107/82 92/106/80 99/111/87 101/112/89
f 92/106/80 90/108/78 97/113/85 99/111/87
f 95/104/83 94/107/82 101/112/89 102/114/90
f 93/109/81 96/105/84 103/115/91 100/116/88
f 91/110/79 93/109/81 100/116/88 98/117/86
f 96/105/84 95/104/83 102/114/90 103/115/91
f 102/114/90 101/112/89 108/118/96 109/119/97
f 100/116/88 103/115/91 110/120/98 107/121/95
f 98/117/86 100/116/88 107/121/95 105/122/93
f 103/115/91 102/114/90 109/119/97 110/120/98
f 101/112/89 99/111/87 106/123/94 108/118/96
f 99/111/87 97/113/85 104/124/92 106/123/94
f 107/121/95 110/120/98 117/125/105 114/126/102
f 105/122/93 107/121/95 114/126/102 112/127/100
f 110/120/98 109/119/97 116/128/104 117/125/105
f 108/118/96 106/123/94 113/129/101 115/130/103
f 106/123/94 104/124/92 111/131/99 113/129/101
f 109/119/97 108/118/96 115/130/103 116/128/104
f 112/127/100 114/126/102 121/132/109 119/133/107
f 117/125/105 116/128/104 123/134/111 124/135/112
f 115/130/103 113/129/101 120/136/108 122/137/110
f 113/129/101 111/131/99 118/138/106 120/136/108
f 116/128/104 115/130/103 122/137/110 123/134/111
f 114/126/102 117/125/105 124/135/112 121/132/109
