# Blender 4.4.0
# www.blender.org
mtllib obj_Lampe_Artas.mtl
o obj_Lampe_Artas
v 0.011929 1.090748 0.308212
v 0.011929 1.117999 0.308212
v -0.065247 1.090748 0.203514
v -0.065253 1.118003 0.203521
v 0.073059 1.090748 0.263151
v 0.073059 1.117999 0.263151
v -0.004117 1.090748 0.158454
v -0.004121 1.118003 0.158463
v -0.005740 1.118007 0.177979
v -0.006223 1.126141 0.179322
v 0.011366 1.118007 0.193521
v 0.010075 1.126141 0.194130
v 0.012472 1.118007 0.216607
v 0.011128 1.126141 0.216124
v -0.003070 1.118007 0.233713
v -0.003679 1.126141 0.232421
v -0.026156 1.118007 0.234819
v -0.025673 1.126141 0.233475
v -0.043262 1.118007 0.219277
v -0.041971 1.126141 0.218668
v -0.044368 1.118007 0.196191
v -0.043024 1.126141 0.196673
v -0.028826 1.118007 0.179085
v -0.028217 1.126141 0.180376
v 0.037340 1.118001 0.283159
v 0.001242 1.118001 0.234188
v 0.040744 1.118001 0.280650
v 0.004645 1.118001 0.231677
v 0.010500 1.117999 0.302952
v -0.025603 1.117999 0.253974
v 0.013907 1.117999 0.300441
v -0.022196 1.117999 0.251463
v 0.064190 1.117999 0.263376
v 0.028098 1.117999 0.214399
v 0.067597 1.117999 0.260864
v 0.031504 1.117999 0.211888
v 0.002406 1.118553 0.232201
v 0.002406 1.119731 0.232201
v 0.005880 1.118553 0.231342
v 0.005880 1.119731 0.231342
v 0.008945 1.118553 0.233191
v 0.008945 1.119731 0.233191
v 0.009804 1.118553 0.236665
v 0.009804 1.119731 0.236665
v 0.007955 1.118553 0.239729
v 0.007955 1.119731 0.239729
v 0.004481 1.118553 0.240589
v 0.004481 1.119731 0.240589
v 0.001417 1.118553 0.238740
v 0.001417 1.119731 0.238740
v 0.000558 1.118553 0.235266
v 0.000558 1.119731 0.235266
v 0.008403 1.118553 0.296450
v 0.008403 1.119731 0.296450
v 0.011877 1.118553 0.295591
v 0.011877 1.119731 0.295591
v 0.014942 1.118553 0.297440
v 0.014942 1.119731 0.297440
v 0.015801 1.118553 0.300914
v 0.015801 1.119731 0.300914
v 0.013952 1.118553 0.303978
v 0.013952 1.119731 0.303978
v 0.010478 1.118553 0.304838
v 0.010478 1.119731 0.304838
v 0.007414 1.118553 0.302989
v 0.007414 1.119731 0.302989
v 0.006554 1.118553 0.299515
v 0.006554 1.119731 0.299515
v 0.062042 1.118553 0.256911
v 0.062042 1.119731 0.256911
v 0.065516 1.118553 0.256052
v 0.065516 1.119731 0.256052
v 0.068581 1.118553 0.257901
v 0.068581 1.119731 0.257901
v 0.069440 1.118553 0.261375
v 0.069440 1.119731 0.261375
v 0.067591 1.118553 0.264439
v 0.067591 1.119731 0.264439
v 0.064117 1.118553 0.265299
v 0.064117 1.119731 0.265299
v 0.061053 1.118553 0.263450
v 0.061053 1.119731 0.263450
v 0.060193 1.118553 0.259976
v 0.060193 1.119731 0.259976
v 0.005701 1.120414 0.232527
v 0.003118 1.120414 0.233167
v 0.007980 1.120414 0.233902
v 0.008619 1.120414 0.236485
v 0.007244 1.120414 0.238764
v 0.004661 1.120414 0.239403
v 0.002382 1.120414 0.238028
v 0.001743 1.120414 0.235445
v 0.011698 1.120414 0.296777
v 0.009115 1.120414 0.297416
v 0.013976 1.120414 0.298151
v 0.014616 1.120414 0.300734
v 0.013241 1.120414 0.303013
v 0.010658 1.120414 0.303652
v 0.008379 1.120414 0.302277
v 0.007740 1.120414 0.299694
v 0.065337 1.120414 0.257238
v 0.062754 1.120414 0.257877
v 0.067615 1.120414 0.258612
v 0.068255 1.120414 0.261196
v 0.066880 1.120414 0.263474
v 0.064297 1.120414 0.264113
v 0.062018 1.120414 0.262738
v 0.061379 1.120414 0.260155
v 0.005337 1.120993 0.234934
v 0.004562 1.120993 0.235125
v 0.006021 1.120993 0.235346
v 0.006212 1.120993 0.236121
v 0.005800 1.120993 0.236805
v 0.005025 1.120993 0.236997
v 0.004341 1.120993 0.236584
v 0.004149 1.120993 0.235809
v 0.011334 1.120992 0.299183
v 0.010559 1.120992 0.299374
v 0.012018 1.120992 0.299595
v 0.012209 1.120992 0.300370
v 0.011797 1.120992 0.301054
v 0.011022 1.120992 0.301246
v 0.010338 1.120992 0.300833
v 0.010146 1.120992 0.300058
v 0.064973 1.120992 0.259644
v 0.064198 1.120992 0.259836
v 0.065657 1.120992 0.260056
v 0.065848 1.120992 0.260831
v 0.065436 1.120992 0.261515
v 0.064661 1.120992 0.261707
v 0.063977 1.120992 0.261294
v 0.063785 1.120992 0.260519
v 0.002952 1.118194 0.232941
v 0.005743 1.118194 0.232251
v 0.008205 1.118194 0.233736
v 0.008895 1.118194 0.236527
v 0.007410 1.118194 0.238989
v 0.004619 1.118194 0.239679
v 0.002157 1.118194 0.238194
v 0.001467 1.118194 0.235403
v 0.008949 1.118194 0.297190
v 0.011740 1.118194 0.296500
v 0.014202 1.118194 0.297985
v 0.014892 1.118194 0.300776
v 0.013407 1.118194 0.303238
v 0.010616 1.118194 0.303928
v 0.008154 1.118194 0.302443
v 0.007464 1.118194 0.299652
v 0.062588 1.118194 0.257652
v 0.065379 1.118194 0.256961
v 0.067841 1.118194 0.258446
v 0.068531 1.118194 0.261237
v 0.067046 1.118194 0.263699
v 0.064255 1.118194 0.264390
v 0.061793 1.118194 0.262904
v 0.061103 1.118194 0.260113
v 0.004344 1.118007 0.184065
v 0.003392 1.126141 0.185113
v -0.006457 1.121718 0.179975
v 0.009447 1.121718 0.194426
v 0.014193 1.118007 0.204955
v 0.012779 1.126141 0.205023
v 0.010475 1.121718 0.215890
v 0.006386 1.118007 0.226691
v 0.005338 1.126141 0.225738
v -0.003975 1.121718 0.231794
v -0.014504 1.118007 0.236540
v -0.014572 1.126141 0.235125
v -0.025439 1.121718 0.232822
v -0.036240 1.118007 0.228733
v -0.035288 1.126141 0.227685
v -0.041343 1.121718 0.218372
v -0.046089 1.118007 0.207843
v -0.044675 1.126141 0.207775
v -0.042371 1.121718 0.196908
v -0.038282 1.118007 0.186107
v -0.037234 1.126141 0.187059
v -0.027921 1.121718 0.181004
v -0.017392 1.118007 0.176258
v -0.017324 1.126141 0.177672
v -0.017291 1.121718 0.178356
v -0.036727 1.121718 0.187520
v -0.043990 1.121718 0.207742
v -0.034827 1.121718 0.227178
v -0.014605 1.121718 0.234441
v 0.004831 1.121718 0.225278
v 0.012094 1.121718 0.205055
v 0.002931 1.121718 0.185620
v -0.027180 1.090748 0.255156
v -0.027180 1.117999 0.255146
v 0.033950 1.090748 0.210095
v 0.033950 1.117999 0.210095
v 0.018077 1.118014 0.188562
v 0.011108 1.117976 0.179108
v 0.021231 1.090748 0.192903
v 0.008543 1.090748 0.175689
v -0.052558 1.090748 0.220728
v -0.039869 1.090748 0.237942
v -0.043052 1.118012 0.233624
v -0.050016 1.117974 0.224177
v -0.033418 1.090748 0.180052
v -0.036818 1.090748 0.182558
v -0.039449 1.118003 0.184501
v -0.029975 1.118003 0.177519
v 0.043760 1.090748 0.284746
v 0.040357 1.090748 0.287254
v 0.043764 1.118001 0.284744
v 0.040365 1.118001 0.287250
v -0.020717 1.090748 0.197250
v -0.008019 1.090748 0.214475
v 0.004664 1.090748 0.231699
v 0.001250 1.090748 0.234199
v -0.024128 1.090748 0.199774
v -0.011440 1.090748 0.216985
v 0.037340 1.114596 0.283159
v 0.001242 1.114596 0.234188
v 0.004645 1.114596 0.231677
v 0.040744 1.114596 0.280650
v 0.010500 1.114594 0.302952
v -0.025603 1.114594 0.253974
v -0.022196 1.114594 0.251463
v 0.013907 1.114594 0.300441
v 0.064190 1.114594 0.263376
v 0.028098 1.114594 0.214399
v 0.031504 1.114594 0.211888
v 0.067597 1.114594 0.260864
v 0.002531 1.127133 0.186060
v -0.006655 1.127133 0.180527
v 0.011500 1.127133 0.205084
v 0.008917 1.127133 0.194676
v 0.004391 1.127133 0.224878
v 0.009924 1.127133 0.215691
v -0.014633 1.127133 0.233847
v -0.004225 1.127133 0.231263
v -0.034427 1.127133 0.226737
v -0.025241 1.127133 0.232270
v -0.043396 1.127133 0.207714
v -0.040813 1.127133 0.218122
v -0.036287 1.127133 0.187920
v -0.041819 1.127133 0.197106
v -0.017263 1.127133 0.178950
v -0.027671 1.127133 0.181534
v 0.001548 1.125574 0.187143
v -0.007150 1.125574 0.181904
v 0.010040 1.125574 0.205154
v 0.007594 1.125574 0.195300
v 0.003308 1.125574 0.223894
v 0.008547 1.125574 0.215197
v -0.014703 1.125574 0.232386
v -0.004849 1.125574 0.229940
v -0.033444 1.125574 0.225655
v -0.024746 1.125574 0.230893
v -0.041935 1.125574 0.207644
v -0.039489 1.125574 0.217498
v -0.035204 1.125574 0.188903
v -0.040443 1.125574 0.197601
v -0.017193 1.125574 0.180411
v -0.027047 1.125574 0.182857
v -0.000114 1.125053 0.188972
v -0.007986 1.125053 0.184231
v 0.007571 1.125053 0.205272
v 0.005357 1.125053 0.196354
v 0.001479 1.125053 0.222232
v 0.006220 1.125053 0.214361
v -0.014821 1.125053 0.229917
v -0.005903 1.125053 0.227704
v -0.031781 1.125053 0.223826
v -0.023910 1.125053 0.228566
v -0.039466 1.125053 0.207525
v -0.037253 1.125053 0.216443
v -0.033375 1.125053 0.190565
v -0.038115 1.125053 0.198437
v -0.017075 1.125053 0.182880
v -0.025993 1.125053 0.185094
v -0.000593 1.119732 0.189498
v -0.008226 1.119732 0.184901
v 0.006860 1.119732 0.205306
v 0.004714 1.119732 0.196657
v 0.000953 1.119732 0.221754
v 0.005550 1.119732 0.214121
v -0.014855 1.119732 0.229207
v -0.006207 1.119732 0.227060
v -0.031303 1.119732 0.223299
v -0.023670 1.119732 0.227897
v -0.038756 1.119732 0.207491
v -0.036609 1.119732 0.216140
v -0.032848 1.119732 0.191043
v -0.037446 1.119732 0.198677
v -0.017041 1.119732 0.183590
v -0.025689 1.119732 0.185737
v -0.012936 1.119732 0.203083
v -0.014433 1.119732 0.202182
v -0.011474 1.119732 0.206184
v -0.011895 1.119732 0.204488
v -0.012633 1.119732 0.209411
v -0.011731 1.119732 0.207914
v -0.015734 1.119732 0.210873
v -0.014037 1.119732 0.210452
v -0.018960 1.119732 0.209714
v -0.017463 1.119732 0.210616
v -0.020422 1.119732 0.206613
v -0.020001 1.119732 0.208310
v -0.019263 1.119732 0.203387
v -0.020165 1.119732 0.204884
v -0.016162 1.119732 0.201924
v -0.017859 1.119732 0.202346
v -0.012414 1.121887 0.202509
v -0.014171 1.121887 0.201451
v -0.010699 1.121887 0.206147
v -0.011193 1.121887 0.204157
v -0.012058 1.121887 0.209933
v -0.011000 1.121887 0.208176
v -0.015696 1.121887 0.211648
v -0.013706 1.121887 0.211154
v -0.019482 1.121887 0.210288
v -0.017725 1.121887 0.211347
v -0.021197 1.121887 0.206650
v -0.020703 1.121887 0.208641
v -0.019838 1.121887 0.202865
v -0.020896 1.121887 0.204622
v -0.016199 1.121887 0.201149
v -0.018190 1.121887 0.201644
v -0.013265 1.123951 0.203445
v -0.014599 1.123951 0.202642
v -0.011962 1.123951 0.206208
v -0.012337 1.123951 0.204697
v -0.012995 1.123951 0.209082
v -0.012191 1.123951 0.207748
v -0.015757 1.123951 0.210384
v -0.014246 1.123951 0.210009
v -0.018631 1.123951 0.209352
v -0.017297 1.123951 0.210155
v -0.019934 1.123951 0.206590
v -0.019558 1.123951 0.208101
v -0.018901 1.123951 0.203716
v -0.019705 1.123951 0.205049
v -0.016139 1.123951 0.202413
v -0.017650 1.123951 0.202788
v -0.014856 1.125180 0.205197
v -0.015399 1.125180 0.204870
v -0.014326 1.125180 0.206321
v -0.014478 1.125180 0.205706
v -0.014746 1.125180 0.207491
v -0.014419 1.125180 0.206948
v -0.015870 1.125180 0.208021
v -0.015255 1.125180 0.207868
v -0.017040 1.125180 0.207601
v -0.016497 1.125180 0.207928
v -0.017570 1.125180 0.206476
v -0.017417 1.125180 0.207092
v -0.017150 1.125180 0.205307
v -0.017477 1.125180 0.205850
v -0.016026 1.125180 0.204777
v -0.016641 1.125180 0.204929
v -0.000593 1.125158 0.189498
v -0.008226 1.125158 0.184901
v 0.006860 1.125158 0.205306
v 0.004714 1.125158 0.196657
v 0.000953 1.125158 0.221754
v 0.005550 1.125158 0.214121
v -0.014855 1.125158 0.229207
v -0.006207 1.125158 0.227060
v -0.031303 1.125158 0.223299
v -0.023670 1.125158 0.227897
v -0.038756 1.125158 0.207491
v -0.036609 1.125158 0.216140
v -0.032848 1.125158 0.191043
v -0.037446 1.125158 0.198677
v -0.017041 1.125158 0.183590
v -0.025689 1.125158 0.185737
v -0.004538 1.129411 0.193840
v -0.010210 1.129411 0.190424
v 0.001000 1.129411 0.205587
v -0.000595 1.129411 0.199160
v -0.003390 1.129411 0.217809
v 0.000027 1.129411 0.212137
v -0.015136 1.129411 0.223347
v -0.008709 1.129411 0.221752
v -0.027358 1.129411 0.218957
v -0.021686 1.129411 0.222373
v -0.032896 1.129411 0.207211
v -0.031301 1.129411 0.213637
v -0.028506 1.129411 0.194989
v -0.031923 1.129411 0.200661
v -0.016760 1.129411 0.189451
v -0.023186 1.129411 0.191046
v -0.008865 1.132302 0.198603
v -0.012386 1.132302 0.196482
v -0.005427 1.132302 0.205895
v -0.006417 1.132302 0.201905
v -0.008152 1.132302 0.213482
v -0.006031 1.132302 0.209961
v -0.015444 1.132302 0.216920
v -0.011454 1.132302 0.215930
v -0.023031 1.132302 0.214195
v -0.019510 1.132302 0.216315
v -0.026469 1.132302 0.206903
v -0.025479 1.132302 0.210892
v -0.023744 1.132302 0.199316
v -0.025865 1.132302 0.202837
v -0.016452 1.132302 0.195878
v -0.020441 1.132302 0.196868
v -0.012284 1.133231 0.202366
v -0.014105 1.133231 0.201269
v -0.010506 1.133231 0.206138
v -0.011018 1.133231 0.204074
v -0.011915 1.133231 0.210063
v -0.010818 1.133231 0.208241
v -0.015687 1.133231 0.211841
v -0.013624 1.133231 0.211329
v -0.019612 1.133231 0.210431
v -0.017790 1.133231 0.211528
v -0.021390 1.133231 0.206659
v -0.020878 1.133231 0.208723
v -0.019981 1.133231 0.202735
v -0.021078 1.133231 0.204556
v -0.016209 1.133231 0.200956
v -0.018272 1.133231 0.201469
v 0.045835 1.090748 0.311770
v 0.011090 1.090748 0.274120
v 0.065702 1.090748 0.295735
v 0.040669 1.090748 0.252317
v 0.041475 1.090748 0.311908
v 0.066349 1.090748 0.290559
v 0.065296 1.090748 0.284436
v 0.034505 1.090748 0.307132
v 0.025981 1.090748 0.263144
v 0.025373 1.090748 0.263592
v 0.053959 1.090748 0.307777
v 0.059926 1.090748 0.302914
v 0.055600 1.090748 0.298914
v 0.051371 1.090748 0.302590
v 0.051968 1.090748 0.298690
v 0.051662 1.090748 0.298915
v 0.047191 1.090748 0.259808
v 0.016331 1.090748 0.282556
v 0.031301 1.090748 0.271520
v 0.031885 1.090748 0.271091
v 0.045646 1.090748 0.257606
v 0.014685 1.090748 0.280429
v 0.029652 1.090748 0.269395
v 0.030295 1.090748 0.268922
v 0.041475 1.089177 0.311908
v 0.045835 1.089177 0.311771
v 0.025373 1.089177 0.263592
v 0.011090 1.089177 0.274120
v 0.059926 1.089177 0.302914
v 0.065702 1.089177 0.295735
v 0.046067 1.089177 0.258178
v 0.040669 1.089177 0.252317
v 0.034505 1.089177 0.307132
v 0.066349 1.089177 0.290559
v 0.051371 1.089177 0.302590
v 0.065296 1.089177 0.284436
v 0.016330 1.089177 0.282556
v 0.051662 1.089177 0.298915
v 0.025981 1.089177 0.263144
v 0.053959 1.089177 0.307777
v 0.055600 1.089177 0.298914
v 0.051968 1.089177 0.298690
v 0.031301 1.089177 0.271520
v 0.031885 1.089177 0.271091
v 0.047191 1.089177 0.259808
v 0.015106 1.089177 0.281001
v 0.030074 1.089177 0.269967
v 0.030717 1.089177 0.269494
v 0.055036 1.089591 0.299136
v 0.051689 1.089591 0.302163
v 0.051916 1.089591 0.298786
v 0.051779 1.089591 0.298881
v 0.031577 1.089591 0.271664
v 0.031972 1.089591 0.271373
v 0.054865 1.090209 0.299142
v 0.051740 1.090209 0.302005
v 0.051889 1.090209 0.298748
v 0.051760 1.090209 0.298843
v 0.031433 1.090209 0.271424
v 0.031796 1.090209 0.271156
v 0.057094 1.090748 0.305551
v 0.054667 1.090748 0.302347
v 0.057094 1.089177 0.305551
v 0.054667 1.089177 0.302347
v 0.054574 1.089591 0.302222
v 0.054517 1.090209 0.302144
v 0.016763 1.088630 0.272097
v 0.013419 1.088630 0.274752
v 0.042847 1.088630 0.258458
v 0.040454 1.088630 0.254822
v 0.036818 1.088630 0.257216
v 0.016073 1.088630 0.278096
v 0.019417 1.088630 0.275441
v 0.039212 1.088630 0.260851
v 0.025780 1.088498 0.264114
v 0.012061 1.088498 0.274226
v 0.045059 1.088498 0.258100
v 0.040474 1.088498 0.253283
v 0.026365 1.088498 0.263683
v 0.015319 1.088498 0.280022
v 0.029697 1.088498 0.269424
v 0.030314 1.088498 0.268969
v 0.016763 1.088199 0.272097
v 0.013419 1.088199 0.274752
v 0.042847 1.088199 0.258458
v 0.040454 1.088199 0.254822
v 0.036818 1.088199 0.257216
v 0.016073 1.088199 0.278096
v 0.019417 1.088199 0.275441
v 0.039212 1.088199 0.260851
v 0.016781 1.087841 0.272774
v 0.014066 1.087841 0.274929
v 0.042363 1.087841 0.258454
v 0.040420 1.087841 0.255502
v 0.037468 1.087841 0.257445
v 0.016221 1.087841 0.277644
v 0.018936 1.087841 0.275489
v 0.039411 1.087841 0.260397
v 0.016640 1.088445 0.273163
v 0.014485 1.088445 0.274874
v 0.041776 1.088445 0.258237
v 0.040233 1.088445 0.255894
v 0.037890 1.088445 0.257437
v 0.016196 1.088445 0.277029
v 0.018351 1.088445 0.275319
v 0.039432 1.088445 0.259780
v -0.050056 1.090748 0.139067
v -0.015311 1.090748 0.176718
v -0.069923 1.090748 0.155103
v -0.044890 1.090748 0.198521
v -0.045695 1.090748 0.138930
v -0.070569 1.090748 0.160279
v -0.069516 1.090748 0.166402
v -0.038726 1.090748 0.143705
v -0.030202 1.090748 0.187694
v -0.029593 1.090748 0.187246
v -0.058179 1.090748 0.143061
v -0.064147 1.090748 0.147924
v -0.059820 1.090748 0.151924
v -0.055592 1.090748 0.148248
v -0.056189 1.090748 0.152148
v -0.055883 1.090748 0.151922
v -0.051411 1.090748 0.191030
v -0.020551 1.090748 0.168282
v -0.035522 1.090748 0.179317
v -0.036105 1.090748 0.179747
v -0.049866 1.090748 0.193231
v -0.018905 1.090748 0.170409
v -0.033873 1.090748 0.181442
v -0.034516 1.090748 0.181916
v -0.045695 1.089177 0.138930
v -0.050056 1.089177 0.139067
v -0.029593 1.089177 0.187246
v -0.015311 1.089177 0.176718
v -0.064147 1.089177 0.147924
v -0.069923 1.089177 0.155103
v -0.050288 1.089177 0.192659
v -0.044890 1.089177 0.198521
v -0.038726 1.089177 0.143705
v -0.070569 1.089177 0.160279
v -0.055592 1.089177 0.148248
v -0.069516 1.089177 0.166402
v -0.020551 1.089177 0.168282
v -0.055883 1.089177 0.151922
v -0.030202 1.089177 0.187694
v -0.058179 1.089177 0.143061
v -0.059820 1.089177 0.151924
v -0.056189 1.089177 0.152148
v -0.035522 1.089177 0.179317
v -0.036105 1.089177 0.179747
v -0.051411 1.089177 0.191030
v -0.019327 1.089177 0.169837
v -0.034295 1.089177 0.180870
v -0.034937 1.089177 0.181344
v -0.059257 1.089591 0.151702
v -0.055909 1.089591 0.148675
v -0.056137 1.089591 0.152052
v -0.055999 1.089591 0.151957
v -0.035797 1.089591 0.179174
v -0.036193 1.089591 0.179465
v -0.059086 1.090209 0.151696
v -0.055960 1.090209 0.148832
v -0.056110 1.090209 0.152089
v -0.055981 1.090209 0.151995
v -0.035653 1.090209 0.179414
v -0.036016 1.090209 0.179682
v -0.061315 1.090748 0.145287
v -0.058887 1.090748 0.148491
v -0.061315 1.089177 0.145287
v -0.058887 1.089177 0.148491
v -0.058795 1.089591 0.148616
v -0.058738 1.090209 0.148693
v -0.020983 1.088630 0.178740
v -0.017639 1.088630 0.176086
v -0.047068 1.088630 0.192380
v -0.044674 1.088630 0.196015
v -0.041039 1.088630 0.193622
v -0.020294 1.088630 0.172742
v -0.023638 1.088630 0.175397
v -0.043432 1.088630 0.189987
v -0.030001 1.088498 0.186724
v -0.016282 1.088498 0.176611
v -0.049280 1.088498 0.192738
v -0.044694 1.088498 0.197555
v -0.030585 1.088498 0.187155
v -0.019539 1.088498 0.170816
v -0.033917 1.088498 0.181414
v -0.034534 1.088498 0.181869
v -0.020983 1.088199 0.178740
v -0.017639 1.088199 0.176086
v -0.047068 1.088199 0.192380
v -0.044674 1.088199 0.196015
v -0.041039 1.088199 0.193622
v -0.020294 1.088199 0.172742
v -0.023638 1.088199 0.175397
v -0.043432 1.088199 0.189987
v -0.021001 1.087841 0.178064
v -0.018286 1.087841 0.175909
v -0.046584 1.087841 0.192384
v -0.044641 1.087841 0.195336
v -0.041689 1.087841 0.193393
v -0.020442 1.087841 0.173194
v -0.023157 1.087841 0.175349
v -0.043632 1.087841 0.190441
v -0.020861 1.088445 0.177674
v -0.018706 1.088445 0.175964
v -0.045996 1.088445 0.192601
v -0.044454 1.088445 0.194944
v -0.042111 1.088445 0.193401
v -0.020416 1.088445 0.173808
v -0.022571 1.088445 0.175519
v -0.043653 1.088445 0.191058
vn -0.8048 -0.0002 0.5935
vn -0.5933 0.0002 -0.8050
vn 0.8049 -0.0000 -0.5933
vn 0.5933 -0.0000 0.8049
vn -0.0000 -1.0000 -0.0000
vn 0.7944 -0.1511 -0.5883
vn 0.9777 -0.1511 0.1457
vn 0.5883 -0.1511 0.7944
vn -0.1457 -0.1511 0.9777
vn -0.7944 -0.1511 0.5883
vn -0.9777 -0.1511 -0.1457
vn -0.4980 0.7847 0.3691
vn -0.5883 -0.1511 -0.7944
vn 0.1457 -0.1511 -0.9777
vn -0.8050 -0.0000 0.5933
vn -0.5933 -0.0000 -0.8050
vn -0.5111 -0.5078 -0.6934
vn -0.5282 0.4555 -0.7166
vn 0.1332 0.4555 -0.8802
vn 0.1289 -0.5078 -0.8518
vn 0.7166 0.4555 -0.5282
vn 0.6934 -0.5078 -0.5111
vn 0.8802 0.4555 0.1332
vn 0.8518 -0.5078 0.1289
vn 0.5282 0.4555 0.7166
vn 0.5111 -0.5078 0.6934
vn -0.1332 0.4555 0.8802
vn -0.1289 -0.5078 0.8518
vn -0.7166 0.4555 0.5282
vn -0.6934 -0.5078 0.5111
vn -0.2354 0.9180 -0.3193
vn 0.0593 0.9180 -0.3922
vn -0.8802 0.4555 -0.1332
vn -0.8518 -0.5078 -0.1289
vn -0.1841 -0.9735 0.1357
vn -0.0342 -0.9735 0.2262
vn 0.6934 -0.5078 -0.5112
vn -0.3922 0.9180 -0.0593
vn 0.1357 -0.9735 0.1841
vn 0.2262 -0.9735 0.0342
vn 0.6934 -0.5079 -0.5111
vn 0.5112 -0.5078 0.6934
vn 0.3193 0.9180 -0.2354
vn 0.3922 0.9180 0.0593
vn -0.2262 -0.9735 -0.0342
vn -0.3922 0.9180 -0.0594
vn -0.1433 0.9894 -0.0217
vn -0.0860 0.9894 -0.1166
vn -0.3193 0.9180 0.2354
vn -0.1166 0.9894 0.0860
vn -0.1432 0.9895 -0.0217
vn -0.0593 0.9180 0.3922
vn -0.0217 0.9895 0.1432
vn -0.1166 0.9895 0.0859
vn 0.3922 0.9180 0.0594
vn 0.2354 0.9180 0.3193
vn -0.0594 0.9180 0.3922
vn 0.0217 0.9895 -0.1432
vn 0.0860 0.9894 0.1166
vn 0.1432 0.9895 0.0217
vn 0.1166 0.9895 -0.0860
vn -0.0860 0.9895 -0.1166
vn 0.0859 0.9895 0.1166
vn -0.0859 0.9895 -0.1166
vn 0.1166 0.9895 -0.0859
vn -0.1357 -0.9735 -0.1841
vn 0.0342 -0.9735 -0.2262
vn 0.1841 -0.9735 -0.1357
vn 0.1358 -0.9735 0.1841
vn 0.1283 0.4873 -0.8638
vn -0.2103 0.4873 -0.8475
vn -0.2385 -0.1511 -0.9593
vn -0.5200 0.4873 -0.7015
vn -0.7480 0.4873 -0.4506
vn -0.8470 -0.1511 -0.5097
vn -0.8638 0.4873 -0.1283
vn -0.8475 0.4873 0.2103
vn -0.9593 -0.1511 0.2385
vn -0.7015 0.4873 0.5200
vn -0.4506 0.4873 0.7480
vn -0.5097 -0.1511 0.8470
vn -0.1283 0.4873 0.8638
vn 0.2103 0.4873 0.8475
vn 0.2385 -0.1511 0.9593
vn 0.5200 0.4873 0.7015
vn 0.7480 0.4873 0.4506
vn 0.8470 -0.1511 0.5097
vn 0.8638 0.4873 0.1283
vn 0.8475 0.4873 -0.2103
vn 0.9593 -0.1511 -0.2385
vn 0.7015 0.4873 -0.5200
vn 0.4506 0.4873 -0.7480
vn 0.5097 -0.1511 -0.8470
vn 0.0012 1.0000 0.0016
vn -0.0001 1.0000 -0.0000
vn 0.0001 1.0000 -0.0000
vn 0.0008 1.0000 0.0008
vn 0.0004 1.0000 0.0002
vn 0.0005 1.0000 0.0010
vn -0.0000 1.0000 0.0005
vn 0.8045 -0.0007 -0.5940
vn -0.8050 0.0001 0.5933
vn -0.0022 1.0000 -0.0004
vn -0.5933 0.0001 -0.8050
vn -0.0012 1.0000 -0.0016
vn -0.5933 -0.0000 -0.8049
vn -0.0000 1.0000 -0.0000
vn -0.0000 1.0000 -0.0001
vn 0.0003 1.0000 0.0004
vn 0.0004 1.0000 -0.0006
vn -0.0014 1.0000 0.0017
vn -0.0010 1.0000 0.0002
vn 0.0003 1.0000 0.0005
vn 0.0001 1.0000 -0.0021
vn 0.0019 1.0000 -0.0008
vn -0.0000 1.0000 -0.0002
vn -0.0002 1.0000 -0.0000
vn -0.0005 1.0000 -0.0005
vn -0.0004 1.0000 -0.0006
vn -0.5934 -0.0000 -0.8049
vn 0.5938 -0.0000 0.8046
vn 0.8050 -0.0000 -0.5932
vn 0.5934 -0.0000 0.8049
vn -0.8049 -0.0000 0.5934
vn -0.8049 -0.0000 0.5933
vn -0.1773 0.6770 -0.7143
vn 0.5310 0.7847 0.3198
vn -0.1493 0.7847 -0.6016
vn 0.3691 0.7847 0.4980
vn 0.3198 0.7847 -0.5310
vn 0.0911 0.7847 -0.6131
vn 0.4979 0.7848 -0.3691
vn -0.6016 0.7847 0.1493
vn -0.6132 0.7847 -0.0911
vn 0.1493 0.7847 0.6016
vn -0.0911 0.7847 0.6131
vn 0.6016 0.7847 -0.1493
vn -0.5310 0.7847 -0.3198
vn 0.6131 0.7847 0.0911
vn -0.3691 0.7847 -0.4980
vn -0.3198 0.7847 0.5310
vn -0.1686 0.9777 0.1250
vn 0.1082 0.6770 -0.7280
vn 0.3797 0.6770 -0.6304
vn 0.5913 0.6770 -0.4382
vn 0.7143 0.6770 -0.1773
vn 0.7280 0.6770 0.1082
vn 0.6305 0.6770 0.3797
vn 0.4382 0.6771 0.5913
vn 0.1773 0.6770 0.7143
vn -0.3797 0.6770 0.6304
vn -0.1082 0.6770 0.7280
vn -0.5912 0.6770 0.4382
vn -0.7143 0.6770 0.1773
vn -0.7279 0.6771 -0.1082
vn -0.6305 0.6770 -0.3797
vn -0.4382 0.6770 -0.5913
vn 0.9807 0.1300 0.1458
vn -0.2037 0.9777 0.0506
vn -0.2076 0.9777 -0.0309
vn -0.1798 0.9777 -0.1083
vn -0.1250 0.9777 -0.1686
vn -0.0506 0.9777 -0.2037
vn 0.0309 0.9777 -0.2076
vn 0.1083 0.9777 -0.1798
vn 0.1687 0.9777 -0.1250
vn 0.2037 0.9777 -0.0506
vn 0.2076 0.9777 0.0309
vn 0.1798 0.9777 0.1083
vn 0.1250 0.9777 0.1686
vn 0.0506 0.9777 0.2037
vn -0.1083 0.9777 0.1798
vn -0.0309 0.9777 0.2076
vn -0.9989 -0.0000 0.0478
vn -0.9045 -0.0000 0.4265
vn -0.8153 0.4330 0.3844
vn -0.9003 0.4331 0.0431
vn 0.8494 0.1300 0.5116
vn 0.5904 0.1300 0.7966
vn 0.2389 0.1300 0.9623
vn -0.5116 0.1300 0.8494
vn -0.1458 0.1300 0.9807
vn -0.7966 0.1300 0.5904
vn -0.9623 0.1300 0.2389
vn -0.9807 0.1300 -0.1458
vn -0.8494 0.1300 -0.5116
vn -0.5904 0.1300 -0.7966
vn -0.2389 0.1300 -0.9623
vn 0.1458 0.1300 -0.9807
vn 0.5116 0.1300 -0.8494
vn 0.7966 0.1300 -0.5904
vn 0.9623 0.1300 -0.2389
vn 0.8477 0.5153 0.1260
vn 0.9152 -0.3330 -0.2272
vn 0.9327 -0.3330 0.1387
vn 0.8078 -0.3330 0.4865
vn 0.5614 -0.3330 0.7576
vn 0.2272 -0.3330 0.9152
vn -0.1386 -0.3330 0.9327
vn -0.4865 -0.3330 0.8077
vn -0.7576 -0.3330 0.5615
vn -0.9152 -0.3330 0.2272
vn -0.9327 -0.3330 -0.1386
vn -0.8078 -0.3330 -0.4865
vn -0.5615 -0.3330 -0.7576
vn -0.2272 -0.3330 -0.9152
vn 0.4865 -0.3330 -0.8077
vn 0.1386 -0.3330 -0.9327
vn 0.7575 -0.3330 -0.5615
vn -0.2786 0.8838 -0.3758
vn 0.7341 0.5153 0.4422
vn 0.5103 0.5153 0.6885
vn 0.2065 0.5153 0.8318
vn -0.1260 0.5153 0.8477
vn -0.4422 0.5153 0.7342
vn -0.6885 0.5153 0.5103
vn -0.8318 0.5152 0.2065
vn -0.8477 0.5153 -0.1260
vn -0.7341 0.5153 -0.4422
vn -0.5103 0.5153 -0.6885
vn -0.2065 0.5153 -0.8318
vn 0.4422 0.5153 -0.7342
vn 0.1260 0.5153 -0.8477
vn 0.6885 0.5153 -0.5103
vn 0.8318 0.5153 -0.2065
vn -0.1127 0.8838 -0.4540
vn 0.2414 0.8838 -0.4007
vn 0.0688 0.8838 -0.4627
vn 0.3758 0.8838 -0.2786
vn 0.4540 0.8838 -0.1127
vn 0.4627 0.8838 0.0688
vn 0.4007 0.8838 0.2414
vn 0.2786 0.8838 0.3758
vn 0.1127 0.8838 0.4540
vn -0.0688 0.8838 0.4627
vn -0.2414 0.8838 0.4007
vn -0.3758 0.8838 0.2786
vn -0.4540 0.8839 0.1127
vn -0.4627 0.8838 -0.0688
vn -0.4007 0.8838 -0.2414
vn 0.8483 0.4330 0.3047
vn 0.9003 0.4331 -0.0431
vn 0.5098 0.8599 -0.0244
vn 0.4803 0.8600 0.1725
vn -0.9411 -0.0000 -0.3380
vn -0.8483 0.4330 -0.3047
vn -0.7401 -0.0000 -0.6725
vn -0.6671 0.4331 -0.6061
vn -0.4265 -0.0000 -0.9045
vn -0.3844 0.4330 -0.8153
vn -0.0478 -0.0000 -0.9989
vn -0.0431 0.4331 -0.9003
vn 0.6725 -0.0000 -0.7401
vn 0.3380 -0.0000 -0.9411
vn 0.3047 0.4330 -0.8483
vn 0.6061 0.4331 -0.6671
vn 0.9045 -0.0000 -0.4265
vn 0.8153 0.4330 -0.3844
vn 0.9989 -0.0000 -0.0478
vn 0.9411 -0.0000 0.3380
vn 0.7401 -0.0000 0.6725
vn 0.6671 0.4331 0.6061
vn 0.4265 -0.0000 0.9045
vn 0.3844 0.4330 0.8153
vn 0.0478 -0.0000 0.9989
vn 0.0431 0.4331 0.9003
vn -0.3380 -0.0000 0.9411
vn -0.3047 0.4330 0.8483
vn -0.6725 -0.0000 0.7401
vn -0.6061 0.4331 0.6671
vn -0.2176 0.8600 -0.4616
vn -0.3778 0.8599 -0.3432
vn -0.2298 0.9506 -0.2088
vn -0.1324 0.9506 -0.2809
vn 0.3778 0.8599 0.3432
vn 0.2176 0.8600 0.4616
vn 0.0244 0.8599 0.5098
vn -0.1725 0.8600 0.4803
vn -0.3432 0.8599 0.3778
vn -0.4616 0.8600 0.2176
vn -0.5098 0.8599 0.0244
vn -0.4803 0.8600 -0.1725
vn -0.0244 0.8599 -0.5098
vn 0.1725 0.8600 -0.4803
vn 0.3432 0.8599 -0.3778
vn 0.4616 0.8600 -0.2176
vn -0.2088 0.9506 0.2298
vn -0.1050 0.9506 0.2922
vn -0.0343 0.9948 0.0955
vn -0.0682 0.9948 0.0750
vn -0.0148 0.9506 -0.3101
vn 0.1050 0.9506 -0.2922
vn 0.2088 0.9506 -0.2298
vn 0.2809 0.9506 -0.1324
vn 0.3101 0.9506 -0.0149
vn 0.2922 0.9506 0.1050
vn 0.2298 0.9506 0.2088
vn 0.1324 0.9506 0.2809
vn 0.0149 0.9506 0.3101
vn -0.2809 0.9506 0.1324
vn -0.3101 0.9506 0.0149
vn -0.2922 0.9506 -0.1050
vn 0.0918 0.9948 -0.0433
vn 0.0682 0.9948 -0.0750
vn 0.0343 0.9948 -0.0955
vn -0.0048 0.9948 -0.1013
vn -0.0433 0.9948 -0.0918
vn -0.0750 0.9948 -0.0682
vn -0.0955 0.9948 -0.0343
vn -0.1013 0.9948 0.0049
vn -0.0918 0.9948 0.0433
vn 0.0048 0.9948 0.1013
vn 0.0433 0.9948 0.0918
vn 0.0750 0.9948 0.0682
vn 0.0955 0.9948 0.0343
vn 0.1013 0.9948 -0.0049
vn 0.8049 -0.0013 -0.5933
vn 0.8053 -0.0006 -0.5929
vn -0.8049 0.0001 0.5934
vn 0.7762 0.2557 -0.5762
vn 0.9260 0.3751 0.0422
vn -0.7872 -0.2286 0.5727
vn -0.0773 -0.4077 0.9099
vn -0.0001 -1.0000 -0.0000
vn -0.4252 -0.6975 -0.5768
vn 0.4931 -0.7377 -0.4611
vn 0.4252 -0.6974 0.5769
vn 0.9855 -0.0000 -0.1695
vn 0.0314 -0.0000 0.9995
vn -0.8040 -0.0000 0.5946
vn 0.8206 0.0061 -0.5715
vn 0.8057 -0.0000 -0.5923
vn 0.7792 -0.0000 0.6268
vn -0.8659 -0.0252 0.4996
vn -0.7887 0.0061 0.6147
vn 0.7319 -0.0257 -0.6809
vn -0.5932 -0.0000 -0.8050
vn -0.5652 -0.0000 0.8249
vn 0.4412 -0.0000 0.8974
vn 0.9923 -0.0000 0.1240
vn 0.5788 -0.0000 0.8154
vn 0.4918 -0.5594 0.6672
vn -0.0248 -0.5504 -0.8345
vn 0.8956 -0.4422 0.0490
vn 0.7687 -0.2885 -0.5709
vn -0.1210 0.0057 0.9926
vn -0.9737 -0.1871 -0.1296
vn -0.0882 0.3179 0.9440
vn -0.7937 0.1902 0.5778
vn 0.5933 -0.0000 0.8050
vn -0.7660 0.6246 -0.1525
vn -0.8085 -0.0119 0.5884
vn 0.5408 0.4109 0.7340
vn 0.8028 -0.0289 -0.5956
vn 0.9996 -0.0241 0.0172
vn -0.0138 0.5880 -0.8087
vn 0.0343 -0.1866 -0.9818
vn -0.7820 -0.6005 -0.1673
vn 0.6814 -0.0000 0.7319
vn 0.7832 -0.0000 -0.6217
vn 0.5499 -0.0000 0.8352
vn -0.5910 -0.7319 0.3391
vn -0.4252 -0.6975 -0.5769
vn 0.4252 -0.6975 0.5768
vn -0.4252 -0.6974 -0.5769
vn 0.0706 -0.9930 0.0945
vn -0.0694 -0.9959 0.0573
vn 0.0730 -0.9922 0.1012
vn 0.0870 -0.9946 -0.0564
vn -0.0088 -0.9999 0.0067
vn 0.0089 -0.9999 -0.0063
vn -0.0646 -0.9939 -0.0896
vn -0.0648 -0.9941 -0.0867
vn -0.5251 -0.7420 0.4168
vn -0.5444 -0.7583 0.3585
vn -0.5499 -0.0000 -0.8352
vn -0.6217 -0.0000 -0.7833
vn 0.6217 -0.0000 0.7833
vn -0.8353 -0.0000 0.5498
vn -0.7833 -0.0000 0.6217
vn 0.8353 -0.0000 -0.5498
vn -0.4799 -0.6358 -0.6045
vn 0.5848 -0.3394 0.7367
vn 0.5557 -0.7465 -0.3659
vn 0.4393 -0.6013 0.6674
vn 0.5180 -0.7502 -0.4110
vn -0.3005 -0.8374 -0.4565
vn -0.3432 -0.8339 -0.4323
vn 0.5021 -0.5899 0.6325
vn 0.7188 -0.5092 -0.4733
vn 0.6715 -0.5149 -0.5330
vn -0.7111 -0.5246 0.4682
vn -0.4220 -0.6410 -0.6411
vn -0.6764 -0.5043 0.5368
vn 0.5153 -0.3491 0.7827
vn -0.7763 0.2557 0.5762
vn -0.9260 0.3751 -0.0422
vn 0.7872 -0.2286 -0.5728
vn 0.0773 -0.4076 -0.9099
vn 0.0001 -1.0000 -0.0000
vn -0.4932 -0.7377 0.4611
vn -0.9855 -0.0000 0.1695
vn -0.0314 -0.0000 -0.9995
vn 0.8040 -0.0000 -0.5946
vn -0.8206 0.0061 0.5715
vn -0.8057 -0.0000 0.5923
vn -0.7791 -0.0000 -0.6269
vn 0.8659 -0.0252 -0.4996
vn 0.7887 0.0061 -0.6147
vn -0.7319 -0.0257 0.6809
vn 0.5932 -0.0000 0.8050
vn 0.5652 -0.0000 -0.8249
vn -0.4412 -0.0000 -0.8974
vn -0.9923 -0.0000 -0.1240
vn -0.5788 -0.0000 -0.8154
vn -0.4917 -0.5594 -0.6673
vn 0.0248 -0.5504 0.8345
vn -0.8956 -0.4422 -0.0490
vn -0.7687 -0.2885 0.5709
vn 0.1210 0.0057 -0.9926
vn 0.9738 -0.1871 0.1296
vn 0.0883 0.3179 -0.9440
vn 0.7937 0.1903 -0.5778
vn 0.7659 0.6246 0.1525
vn 0.8085 -0.0119 -0.5884
vn -0.5408 0.4109 -0.7340
vn -0.8028 -0.0289 0.5956
vn -0.9996 -0.0241 -0.0172
vn 0.0138 0.5880 0.8087
vn -0.0343 -0.1865 0.9818
vn 0.7820 -0.6004 0.1673
vn -0.6814 -0.0000 -0.7319
vn -0.7832 -0.0000 0.6217
vn 0.5911 -0.7318 -0.3391
vn 0.4251 -0.6974 0.5769
vn -0.0707 -0.9930 -0.0946
vn 0.0693 -0.9959 -0.0573
vn -0.0730 -0.9922 -0.1012
vn -0.0872 -0.9946 0.0564
vn 0.0088 -0.9999 -0.0067
vn -0.0089 -0.9999 0.0063
vn 0.0646 -0.9939 0.0896
vn 0.0649 -0.9941 0.0868
vn 0.5251 -0.7420 -0.4168
vn 0.5445 -0.7583 -0.3585
vn 0.6218 -0.0000 0.7832
vn -0.6218 -0.0000 -0.7832
vn 0.8352 -0.0000 -0.5500
vn -0.8352 -0.0000 0.5500
vn 0.4798 -0.6358 0.6045
vn -0.5849 -0.3394 -0.7367
vn -0.5558 -0.7465 0.3659
vn -0.4393 -0.6014 -0.6673
vn -0.5179 -0.7502 0.4111
vn 0.3005 -0.8375 0.4565
vn 0.3432 -0.8339 0.4323
vn -0.5020 -0.5899 -0.6325
vn -0.7189 -0.5092 0.4733
vn -0.6715 -0.5149 0.5330
vn 0.7111 -0.5246 -0.4682
vn 0.4220 -0.6410 0.6411
vn 0.6764 -0.5043 -0.5369
vn -0.5153 -0.3491 -0.7827
vt 0.000000 0.000000
vt 0.125000 0.500000
vt 0.125000 0.541104
vt 0.375000 0.416730
vt 0.625000 0.416603
vt 0.625000 0.500000
vt 0.375000 0.500000
vt 0.375000 0.623312
vt 0.625000 0.623312
vt 0.625000 0.750000
vt 0.375000 0.750000
vt 0.625000 0.833333
vt 0.625000 0.916667
vt 0.625000 1.000000
vt 0.375000 1.000000
vt 0.375000 0.916667
vt 0.375000 0.833333
vt 0.125000 0.623312
vt 0.208333 0.623312
vt 0.937500 0.750000
vt 0.937500 1.000000
vt 0.875000 1.000000
vt 0.875000 0.750000
vt 0.812500 0.750000
vt 0.812500 1.000000
vt 0.750000 1.000000
vt 0.750000 0.750000
vt 0.687500 0.750000
vt 0.687500 1.000000
vt 0.562500 0.750000
vt 0.562500 1.000000
vt 0.500000 1.000000
vt 0.500000 0.750000
vt 0.437500 0.750000
vt 0.437500 1.000000
vt 0.312500 0.750000
vt 0.312500 1.000000
vt 0.250000 1.000000
vt 0.250000 0.750000
vt 0.187500 0.750000
vt 0.187500 1.000000
vt 0.125000 1.000000
vt 0.125000 0.750000
vt 0.062500 0.750000
vt 0.062500 1.000000
vt 0.000000 1.000000
vt 0.000000 0.750000
vt 0.750000 0.490000
vt 0.834853 0.454853
vt 0.919706 0.419706
vt 0.954853 0.334853
vt 0.990000 0.250000
vt 0.954853 0.165147
vt 0.919706 0.080294
vt 0.834853 0.045147
vt 0.750000 0.010000
vt 0.665147 0.045147
vt 0.580294 0.080294
vt 0.545147 0.165147
vt 0.510000 0.250000
vt 0.545147 0.334853
vt 0.580294 0.419706
vt 0.665147 0.454853
vt 0.875000 0.500000
vt 0.208398 0.500000
vt 0.291730 0.500000
vt 1.000000 0.500000
vt 1.000000 1.000000
vt 0.750000 0.500000
vt 0.500000 0.500000
vt 0.250000 0.500000
vt 0.000000 0.500000
vt 0.419706 0.419706
vt 0.250000 0.490000
vt 0.080294 0.419706
vt 0.010000 0.250000
vt 0.080294 0.080294
vt 0.250000 0.010000
vt 0.419706 0.080294
vt 0.490000 0.250000
vt 0.062500 0.500000
vt 0.187500 0.500000
vt 0.312500 0.500000
vt 0.437500 0.500000
vt 0.562500 0.500000
vt 0.687500 0.500000
vt 0.812500 0.500000
vt 0.937500 0.500000
vt 1.000000 0.750000
vt 0.125000 0.582208
vt 0.375000 0.582208
vt 0.625000 0.582208
vt 0.375000 0.000000
vt 0.625000 0.000000
vt 0.625000 0.126688
vt 0.375000 0.126688
vt 0.625000 0.167792
vt 0.625000 0.208896
vt 0.375000 0.250000
vt 0.625000 0.250000
vt 0.625000 0.333269
vt 0.375000 0.333398
vt 0.454853 0.334853
vt 0.454853 0.165147
vt 0.334853 0.045147
vt 0.165147 0.045147
vt 0.045147 0.165147
vt 0.045147 0.334853
vt 0.165147 0.454853
vt 0.334853 0.454853
vt 0.375000 0.541104
vt 0.291667 0.623312
vt 0.365184 0.928707
vt 0.374806 0.947221
vt 0.366691 0.902041
vt 0.273908 0.776497
vt 0.289700 0.766402
vt 0.206979 0.665111
vt 0.230933 0.663056
vt 0.157159 0.671735
vt 0.240779 0.797646
vt 0.256571 0.787553
vt 0.181114 0.669680
vt 0.362536 0.981219
vt 0.364047 0.954570
vt 0.375210 0.969515
vt 0.366304 0.944329
vt 0.376276 0.960644
vt 0.167786 0.648669
vt 0.195541 0.646246
vt 0.142593 0.649817
vt 0.220732 0.645097
vt 0.181669 0.623312
vt 0.151666 0.623312
vt 0.366311 0.944414
vt 0.364589 0.942229
vt 0.364590 0.942224
vt 0.153510 0.630940
vt 0.160073 0.641168
vt 0.214198 0.638668
vt 0.194212 0.639310
vt 0.133244 0.631184
vt 0.209136 0.629877
vt 0.188713 0.630124
vt 0.140234 0.641805
s 1
usemtl Material
f 285/37/174 286/15/175 366/15/176 365/37/177
f 360/26/241 357/25/242 373/25/243 376/26/244
f 288/38/245 285/37/174 365/37/177 368/38/246
f 287/41/247 288/38/245 368/38/246 367/41/248
f 290/42/249 287/41/247 367/41/248 370/42/250
f 289/45/251 290/42/249 370/42/250 369/45/252
f 275/21/253 276/68/254 356/68/255 355/21/256
f 276/46/254 289/45/251 369/45/252 356/46/255
f 278/22/257 275/21/253 355/21/256 358/22/258
f 277/25/259 278/22/257 358/22/258 357/25/242
f 280/26/260 277/25/259 357/25/242 360/26/241
f 279/29/261 280/26/260 360/26/241 359/29/262
f 282/14/263 279/29/261 359/29/262 362/14/264
f 281/31/265 282/14/263 362/14/264 361/31/266
f 284/32/267 281/31/265 361/31/266 364/32/268
f 283/35/269 284/32/267 364/32/268 363/35/270
f 286/15/175 283/35/269 363/35/270 366/15/176
f 386/42/271 383/41/272 399/41/273 402/42/274
f 359/29/262 360/26/241 376/26/244 375/29/275
f 362/14/264 359/29/262 375/29/275 378/14/276
f 361/31/266 362/14/264 378/14/276 377/31/277
f 364/32/268 361/31/266 377/31/277 380/32/278
f 363/35/270 364/32/268 380/32/278 379/35/279
f 366/15/176 363/35/270 379/35/279 382/15/280
f 365/37/177 366/15/176 382/15/280 381/37/281
f 368/38/246 365/37/177 381/37/281 384/38/282
f 367/41/248 368/38/246 384/38/282 383/41/272
f 370/42/250 367/41/248 383/41/272 386/42/271
f 369/45/252 370/42/250 386/42/271 385/45/283
f 355/21/256 356/68/255 372/68/284 371/21/285
f 356/46/255 369/45/252 385/45/283 372/46/284
f 358/22/258 355/21/256 371/21/285 374/22/286
f 357/25/242 358/22/258 374/22/286 373/25/243
f 395/35/287 396/32/288 412/32/289 411/35/290
f 385/45/283 386/42/271 402/42/274 401/45/291
f 371/21/285 372/68/284 388/68/292 387/21/293
f 372/46/284 385/45/283 401/45/291 388/46/292
f 374/22/286 371/21/285 387/21/293 390/22/294
f 373/25/243 374/22/286 390/22/294 389/25/295
f 376/26/244 373/25/243 389/25/295 392/26/296
f 375/29/275 376/26/244 392/26/296 391/29/297
f 378/14/276 375/29/275 391/29/297 394/14/298
f 377/31/277 378/14/276 394/14/298 393/31/299
f 380/32/278 377/31/277 393/31/299 396/32/288
f 379/35/279 380/32/278 396/32/288 395/35/287
f 382/15/280 379/35/279 395/35/287 398/15/300
f 381/37/281 382/15/280 398/15/300 397/37/301
f 384/38/282 381/37/281 397/37/301 400/38/302
f 383/41/272 384/38/282 400/38/302 399/41/273
f 406/73/303 403/110/304 404/74/305 417/109/306 418/75/307 415/108/308 416/76/309 413/107/310 414/77/311 411/106/290 412/78/289 409/105/312 410/79/313 407/104/314 408/80/315 405/103/316
f 398/15/300 395/35/287 411/35/290 414/15/311
f 397/37/301 398/15/300 414/15/311 413/37/310
f 400/38/302 397/37/301 413/37/310 416/38/309
f 399/41/273 400/38/302 416/38/309 415/41/308
f 402/42/274 399/41/273 415/41/308 418/42/307
f 401/45/291 402/42/274 418/42/307 417/45/306
f 387/21/293 388/68/292 404/68/305 403/21/304
f 388/46/292 401/45/291 417/45/306 404/46/305
f 390/22/294 387/21/293 403/21/304 406/22/303
f 389/25/295 390/22/294 406/22/303 405/25/316
f 392/26/296 389/25/295 405/25/316 408/26/315
f 391/29/297 392/26/296 408/26/315 407/29/314
f 394/14/298 391/29/297 407/29/314 410/14/313
f 393/31/299 394/14/298 410/14/313 409/31/312
f 396/32/288 393/31/299 409/31/312 412/32/289
s 0
usemtl Material.002
f 4/1/1 3/2/1 197/3/1 200/1/1
f 201/4/2 204/5/2 8/6/2 7/7/2
f 191/8/3 192/9/3 6/10/3 5/11/3
f 5/11/4 6/10/4 207/12/4 208/13/4 2/14/4 1/15/4 206/16/4 205/17/4
f 189/18/5 212/19/5 206/16/5 1/15/5
f 9/48/5 157/49/5 11/50/5 161/51/5 13/52/5 164/53/5 15/54/5 167/55/5 17/56/5 170/57/5 19/58/5 173/59/5 21/60/5 176/61/5 23/62/5 179/63/5
f 26/64/3 25/23/3 215/23/3 216/64/3
f 35/1/15 36/1/15 225/1/15 226/1/15
f 25/65/16 27/66/16 218/66/16 215/65/16
f 164/53/94 15/54/94 26/64/94 28/6/94
f 25/23/95 26/64/95 32/6/95 31/10/95
f 28/6/96 27/10/96 33/23/96 34/64/96
f 34/1/97 13/1/97 164/1/97 28/1/97
f 36/1/98 161/1/98 13/1/98 34/1/98
f 26/1/99 15/1/99 167/1/99 32/1/99
f 32/1/100 167/1/100 17/1/100 30/1/100
f 198/90/5 214/1/5 212/19/5 189/18/5
f 192/1/101 191/8/101 195/91/101 193/92/101
f 1/93/102 2/94/102 190/95/102 189/96/102
f 199/97/103 170/57/103 19/58/103 200/98/103
f 3/99/104 4/100/104 203/101/104 202/102/104
f 202/102/104 203/101/104 204/5/104 201/4/104
f 203/101/105 176/61/105 23/62/105 204/5/105
f 205/17/106 206/16/106 208/16/106 207/17/106
f 25/65/5 27/66/5 207/66/5 208/65/5
f 217/6/107 216/64/107 215/23/107 218/10/107
f 27/1/108 207/1/108 6/1/108 33/1/108
f 33/1/107 6/1/107 35/10/107
f 36/1/107 35/1/107 6/1/107 192/1/107
f 208/1/95 25/1/95 31/1/95 2/1/95
f 17/1/109 199/97/109 190/95/109 30/1/109
f 199/1/110 17/1/110 170/1/110
f 19/1/111 173/1/111 4/1/111 200/1/111
f 29/23/107 2/1/107 31/1/107
f 190/1/107 2/1/107 29/1/107 30/1/107
f 11/50/112 161/51/112 193/1/112
f 36/1/113 192/1/113 193/92/113 161/51/113
f 194/1/114 157/1/114 11/1/114 193/1/114
f 8/1/115 9/1/115 157/1/115 194/1/115
f 9/1/116 8/1/116 179/63/116
f 21/60/117 4/1/117 173/1/117
f 4/1/118 21/1/118 176/1/118 203/1/118
f 204/1/119 23/1/119 179/1/119 8/1/119
f 221/6/107 220/64/107 219/23/107 222/10/107
f 225/6/107 224/64/107 223/23/107 226/10/107
f 29/23/120 31/1/120 222/1/120 219/23/120
f 30/1/3 29/1/3 219/1/3 220/1/3
f 33/1/106 35/10/106 226/10/106 223/1/106
f 28/6/121 26/64/121 216/64/121 217/6/121
f 34/64/122 33/23/122 223/23/122 224/64/122
f 32/1/123 30/1/123 220/1/123 221/1/123
f 27/10/124 28/6/124 217/6/124 218/10/124
f 36/1/4 34/1/4 224/1/4 225/1/4
f 31/10/125 32/6/125 221/6/125 222/10/125
f 194/1/317 193/92/317 195/91/317 196/111/317
f 8/1/318 194/1/318 196/111/318 7/7/318
f 197/3/125 198/90/125 199/97/125 200/1/125
f 198/90/319 189/96/319 190/95/319 199/97/319
f 210/1/5 211/112/5 212/19/5 214/1/5
f 191/8/5 211/112/5 210/1/5 195/91/5
f 195/91/5 210/1/5 209/1/5 196/111/5
f 210/1/5 214/1/5 213/1/5 209/1/5
f 198/90/5 197/3/5 213/1/5 214/1/5
f 196/111/5 209/1/5 201/4/5 7/7/5
f 201/4/5 209/1/5 213/1/5 202/102/5
f 202/102/5 213/1/5 197/3/5 3/2/5
f 212/19/5 211/112/5 205/17/5 206/16/5
f 5/11/5 205/17/5 211/112/5 191/8/5
f 431/113/107 430/114/107 421/16/107 424/115/107
f 433/116/107 431/113/107 424/115/107 425/117/107
f 438/118/107 433/116/107 425/117/107 435/119/107
f 436/120/107 426/121/107 434/122/107 437/123/107
f 437/123/320 434/122/320 476/122/320 477/123/320
f 426/121/107 423/124/107 432/125/107 434/122/107
f 434/122/321 432/125/321 474/125/321 476/122/321
f 423/124/107 419/15/107 429/126/107 432/125/107
f 480/127/107 479/128/107 430/114/107 431/113/107
f 441/129/95 437/123/95 438/118/95 442/130/95
f 440/131/107 436/120/107 437/123/107 441/129/107
f 442/130/107 438/118/107 435/119/107 439/132/107
f 427/133/107 442/130/107 439/132/107 422/19/107
f 420/18/107 440/131/107 441/129/107 428/134/107
f 428/134/95 441/129/95 442/130/95 427/133/95
f 459/113/5 452/115/5 448/16/5 447/114/5
f 460/116/5 454/117/5 452/115/5 459/113/5
f 462/118/5 463/119/5 454/117/5 460/116/5
f 455/120/5 461/123/5 456/122/5 451/121/5
f 462/118/322 460/116/322 469/116/322 472/118/322
f 451/121/5 456/122/5 453/125/5 443/124/5
f 460/116/323 459/113/323 467/113/323 469/116/323
f 443/124/5 453/125/5 458/126/5 444/15/5
f 482/135/5 459/113/5 447/114/5 481/128/5
f 465/129/324 466/130/324 462/118/324 461/123/324
f 464/131/5 465/129/5 461/123/5 455/120/5
f 466/130/5 449/132/5 463/119/5 462/118/5
f 446/18/325 445/134/325 493/134/325 494/18/325
f 450/19/326 449/132/326 495/132/326 496/19/326
f 465/129/327 464/131/327 498/131/327 499/129/327
f 425/117/328 424/115/328 452/115/328 454/117/328
f 419/15/329 423/124/329 443/124/329 444/15/329
f 426/121/330 436/120/330 455/120/330 451/121/330
f 420/18/16 428/134/16 445/134/16 446/18/16
f 439/132/331 435/119/331 463/119/331 449/132/331
f 435/119/332 425/117/332 454/117/332 463/119/332
f 421/16/333 430/114/333 447/114/333 448/16/333
f 440/131/334 420/18/334 446/18/334 464/131/334
f 427/133/120 422/19/120 450/19/120 457/133/120
f 436/120/335 440/131/335 464/131/335 455/120/335
f 422/19/336 439/132/336 449/132/336 450/19/336
f 428/134/337 427/133/337 457/133/337 445/134/337
f 423/124/338 426/121/338 451/121/338 443/124/338
f 429/126/339 419/15/339 444/15/339 458/126/339
f 424/115/340 421/16/340 448/16/340 452/115/340
f 479/128/341 429/126/341 458/126/341 481/128/341
f 461/123/342 462/118/342 472/118/342 471/123/342
f 482/135/343 453/125/343 468/125/343 483/136/343
f 453/125/344 456/122/344 470/122/344 468/125/344
f 456/122/345 461/123/345 471/123/345 470/122/345
f 469/1/346 467/1/346 473/1/346 475/1/346
f 483/136/347 484/137/347 473/113/347 467/113/347
f 431/113/348 433/116/348 475/116/348 473/113/348
f 433/116/349 438/118/349 478/118/349 475/116/349
f 438/118/350 437/123/350 477/123/350 478/118/350
f 480/127/351 431/113/351 473/113/351 484/137/351
f 472/1/352 469/1/352 475/1/352 478/1/352
f 471/1/353 472/1/353 478/1/353 477/1/353
f 470/1/354 471/1/354 477/1/354 476/1/354
f 468/1/355 470/1/355 476/1/355 474/1/355
f 432/125/356 480/127/356 484/137/356 474/125/356
f 468/125/357 474/125/357 484/137/357 483/136/357
f 459/113/358 482/135/358 483/136/358 467/113/358
f 430/114/359 479/128/359 481/128/359 447/114/359
f 453/125/5 482/135/5 481/128/5 458/126/5
f 432/125/107 429/126/107 479/128/107 480/127/107
f 485/138/360 491/139/360 507/139/360 501/138/360
f 487/140/361 492/141/361 508/141/361 503/140/361
f 493/134/5 497/133/5 500/130/5 499/129/5
f 464/131/362 446/18/362 494/18/362 498/131/362
f 457/133/363 450/19/363 496/19/363 497/133/363
f 466/130/327 465/129/327 499/129/327 500/130/327
f 449/132/364 466/130/364 500/130/364 495/132/364
f 445/134/365 457/133/365 497/133/365 493/134/365
f 485/138/366 486/142/366 494/18/366 493/134/366
f 487/140/367 488/143/367 496/19/367 495/132/367
f 488/143/368 489/144/368 497/133/368 496/19/368
f 486/142/369 490/145/369 498/131/369 494/18/369
f 491/139/370 485/138/370 493/134/370 499/129/370
f 489/144/371 492/141/371 500/130/371 497/133/371
f 492/141/372 487/140/372 495/132/372 500/130/372
f 490/145/373 491/139/373 499/129/373 498/131/373
f 506/145/374 502/142/374 510/142/374 514/145/374
f 508/141/375 505/144/375 513/144/375 516/141/375
f 489/144/376 488/143/376 504/143/376 505/144/376
f 486/142/377 485/138/377 501/138/377 502/142/377
f 491/139/378 490/145/378 506/145/378 507/139/378
f 492/141/379 489/144/379 505/144/379 508/141/379
f 490/145/380 486/142/380 502/142/380 506/145/380
f 488/143/381 487/140/381 503/140/381 504/143/381
f 515/139/382 514/145/382 522/145/382 523/139/382
f 510/142/383 509/138/383 517/138/383 518/142/383
f 504/143/384 503/140/384 511/140/384 512/143/384
f 503/140/385 508/141/385 516/141/385 511/140/385
f 501/138/386 507/139/386 515/139/386 509/138/386
f 505/144/387 504/143/387 512/143/387 513/144/387
f 502/142/388 501/138/388 509/138/388 510/142/388
f 507/139/389 506/145/389 514/145/389 515/139/389
f 521/144/5 520/143/5 519/140/5 524/141/5
f 518/142/5 517/138/5 523/139/5 522/145/5
f 516/141/390 513/144/390 521/144/390 524/141/390
f 514/145/391 510/142/391 518/142/391 522/145/391
f 512/143/392 511/140/392 519/140/392 520/143/392
f 511/140/393 516/141/393 524/141/393 519/140/393
f 509/138/394 515/139/394 523/139/394 517/138/394
f 513/144/395 512/143/395 520/143/395 521/144/395
f 537/113/107 536/114/107 527/16/107 530/115/107
f 539/116/107 537/113/107 530/115/107 531/117/107
f 544/118/107 539/116/107 531/117/107 541/119/107
f 542/120/107 532/121/107 540/122/107 543/123/107
f 543/123/396 540/122/396 582/122/396 583/123/396
f 532/121/107 529/124/107 538/125/107 540/122/107
f 540/122/397 538/125/397 580/125/397 582/122/397
f 529/124/107 525/15/107 535/126/107 538/125/107
f 586/127/107 585/128/107 536/114/107 537/113/107
f 547/129/107 543/123/107 544/118/107 548/130/107
f 546/131/107 542/120/107 543/123/107 547/129/107
f 548/130/107 544/118/107 541/119/107 545/132/107
f 533/133/107 548/130/107 545/132/107 528/19/107
f 526/18/107 546/131/107 547/129/107 534/134/107
f 534/134/96 547/129/96 548/130/96 533/133/96
f 565/113/5 558/115/5 554/16/5 553/114/5
f 566/116/5 560/117/5 558/115/5 565/113/5
f 568/118/5 569/119/5 560/117/5 566/116/5
f 561/120/5 567/123/5 562/122/5 557/121/5
f 568/118/398 566/116/398 575/116/398 578/118/398
f 557/121/5 562/122/5 559/125/5 549/124/5
f 566/116/399 565/113/399 573/113/399 575/116/399
f 549/124/5 559/125/5 564/126/5 550/15/5
f 588/135/5 565/113/5 553/114/5 587/128/5
f 571/129/400 572/130/400 568/118/400 567/123/400
f 570/131/5 571/129/5 567/123/5 561/120/5
f 572/130/5 555/132/5 569/119/5 568/118/5
f 552/18/327 551/134/327 599/134/327 600/18/327
f 556/19/401 555/132/401 601/132/401 602/19/401
f 571/129/365 570/131/365 604/131/365 605/129/365
f 531/117/402 530/115/402 558/115/402 560/117/402
f 525/15/403 529/124/403 549/124/403 550/15/403
f 532/121/404 542/120/404 561/120/404 557/121/404
f 526/18/123 534/134/123 551/134/123 552/18/123
f 545/132/405 541/119/405 569/119/405 555/132/405
f 541/119/406 531/117/406 560/117/406 569/119/406
f 527/16/407 536/114/407 553/114/407 554/16/407
f 546/131/408 526/18/408 552/18/408 570/131/408
f 533/133/123 528/19/123 556/19/123 563/133/123
f 542/120/409 546/131/409 570/131/409 561/120/409
f 528/19/410 545/132/410 555/132/410 556/19/410
f 534/134/411 533/133/411 563/133/411 551/134/411
f 529/124/412 532/121/412 557/121/412 549/124/412
f 535/126/413 525/15/413 550/15/413 564/126/413
f 530/115/414 527/16/414 554/16/414 558/115/414
f 585/128/415 535/126/415 564/126/415 587/128/415
f 567/123/416 568/118/416 578/118/416 577/123/416
f 588/135/417 559/125/417 574/125/417 589/136/417
f 559/125/418 562/122/418 576/122/418 574/125/418
f 562/122/419 567/123/419 577/123/419 576/122/419
f 575/1/420 573/1/420 579/1/420 581/1/420
f 589/136/421 590/137/421 579/113/421 573/113/421
f 537/113/422 539/116/422 581/116/422 579/113/422
f 539/116/423 544/118/423 584/118/423 581/116/423
f 544/118/16 543/123/16 583/123/16 584/118/16
f 586/127/424 537/113/424 579/113/424 590/137/424
f 578/1/425 575/1/425 581/1/425 584/1/425
f 577/1/426 578/1/426 584/1/426 583/1/426
f 576/1/427 577/1/427 583/1/427 582/1/427
f 574/1/428 576/1/428 582/1/428 580/1/428
f 538/125/429 586/127/429 590/137/429 580/125/429
f 574/125/430 580/125/430 590/137/430 589/136/430
f 565/113/431 588/135/431 589/136/431 573/113/431
f 536/114/432 585/128/432 587/128/432 553/114/432
f 559/125/5 588/135/5 587/128/5 564/126/5
f 538/125/107 535/126/107 585/128/107 586/127/107
f 591/138/433 597/139/433 613/139/433 607/138/433
f 593/140/376 598/141/376 614/141/376 609/140/376
f 599/134/5 603/133/5 606/130/5 605/129/5
f 570/131/434 552/18/434 600/18/434 604/131/434
f 563/133/327 556/19/327 602/19/327 603/133/327
f 572/130/365 571/129/365 605/129/365 606/130/365
f 555/132/365 572/130/365 606/130/365 601/132/365
f 551/134/435 563/133/435 603/133/435 599/134/435
f 591/138/436 592/142/436 600/18/436 599/134/436
f 593/140/437 594/143/437 602/19/437 601/132/437
f 594/143/438 595/144/438 603/133/438 602/19/438
f 592/142/439 596/145/439 604/131/439 600/18/439
f 597/139/440 591/138/440 599/134/440 605/129/440
f 595/144/441 598/141/441 606/130/441 603/133/441
f 598/141/442 593/140/442 601/132/442 606/130/442
f 596/145/443 597/139/443 605/129/443 604/131/443
f 612/145/444 608/142/444 616/142/444 620/145/444
f 614/141/445 611/144/445 619/144/445 622/141/445
f 595/144/361 594/143/361 610/143/361 611/144/361
f 592/142/446 591/138/446 607/138/446 608/142/446
f 597/139/447 596/145/447 612/145/447 613/139/447
f 598/141/448 595/144/448 611/144/448 614/141/448
f 596/145/360 592/142/360 608/142/360 612/145/360
f 594/143/449 593/140/449 609/140/449 610/143/449
f 621/139/450 620/145/450 628/145/450 629/139/450
f 616/142/451 615/138/451 623/138/451 624/142/451
f 610/143/452 609/140/452 617/140/452 618/143/452
f 609/140/453 614/141/453 622/141/453 617/140/453
f 607/138/454 613/139/454 621/139/454 615/138/454
f 611/144/455 610/143/455 618/143/455 619/144/455
f 608/142/456 607/138/456 615/138/456 616/142/456
f 613/139/457 612/145/457 620/145/457 621/139/457
f 627/144/5 626/143/5 625/140/5 630/141/5
f 624/142/5 623/138/5 629/139/5 628/145/5
f 622/141/458 619/144/458 627/144/458 630/141/458
f 620/145/459 616/142/459 624/142/459 628/145/459
f 618/143/460 617/140/460 625/140/460 626/143/460
f 617/140/461 622/141/461 630/141/461 625/140/461
f 615/138/462 621/139/462 629/139/462 623/138/462
f 619/144/463 618/143/463 626/143/463 627/144/463
usemtl Glass
f 188/20/6 158/21/6 12/22/6 160/23/6
f 187/24/7 162/25/7 14/26/7 163/27/7
f 186/28/8 165/29/8 16/14/8 166/10/8
f 185/30/9 168/31/9 18/32/9 169/33/9
f 184/34/10 171/35/10 20/15/10 172/11/10
f 183/36/11 174/37/11 22/38/11 175/39/11
f 20/15/12 171/35/12 235/35/12 238/15/12
f 182/40/13 177/41/13 24/42/13 178/43/13
f 181/44/14 180/45/14 10/46/14 159/47/14
s 1
f 37/67/17 38/68/18 40/22/19 39/64/20
f 39/64/20 40/22/19 42/26/21 41/69/22
f 41/69/22 42/26/21 44/14/23 43/6/24
f 43/6/24 44/14/23 46/32/25 45/70/26
f 45/70/26 46/32/25 48/15/27 47/7/28
f 47/7/28 48/15/27 50/38/29 49/71/30
f 72/22/19 70/68/18 102/68/31 101/22/32
f 49/71/30 50/38/29 52/42/33 51/2/34
f 51/2/34 52/42/33 38/46/18 37/72/17
f 79/7/28 81/71/30 155/71/35 154/7/36
f 53/67/17 54/68/18 56/22/19 55/64/20
f 55/64/20 56/22/19 58/26/21 57/69/37
f 57/69/37 58/26/21 60/14/23 59/6/24
f 59/6/24 60/14/23 62/32/25 61/70/26
f 61/70/26 62/32/25 64/15/27 63/7/28
f 63/7/28 64/15/27 66/38/29 65/71/30
f 70/46/18 84/42/33 108/42/38 102/46/31
f 65/71/30 66/38/29 68/42/33 67/2/34
f 67/2/34 68/42/33 54/46/18 53/72/17
f 59/6/24 61/70/26 145/70/39 144/6/40
f 69/67/17 70/68/18 72/22/19 71/64/20
f 71/64/20 72/22/19 74/26/21 73/69/41
f 73/69/41 74/26/21 76/14/23 75/6/24
f 75/6/24 76/14/23 78/32/25 77/70/42
f 77/70/42 78/32/25 80/15/27 79/7/28
f 79/7/28 80/15/27 82/38/29 81/71/30
f 76/14/23 74/26/21 103/26/43 104/14/44
f 81/71/30 82/38/29 84/42/33 83/2/34
f 83/2/34 84/42/33 70/46/18 69/72/17
f 49/71/30 51/2/34 140/2/45 139/71/35
f 86/46/31 92/42/46 116/42/47 110/46/48
f 100/42/46 99/38/49 123/38/50 124/42/51
f 107/38/49 106/15/52 130/15/53 131/38/54
f 42/26/21 40/22/19 85/22/32 87/26/43
f 52/42/33 50/38/29 91/38/49 92/42/46
f 62/32/25 60/14/23 96/14/55 97/32/56
f 82/38/29 80/15/27 106/15/52 107/38/49
f 48/15/27 46/32/25 89/32/56 90/15/52
f 58/26/21 56/22/19 93/22/32 95/26/43
f 68/42/33 66/38/29 99/38/49 100/42/46
f 78/32/25 76/14/23 104/14/44 105/32/56
f 44/14/23 42/26/21 87/26/43 88/14/55
f 38/46/18 52/42/33 92/42/46 86/46/31
f 40/22/19 38/68/18 86/68/31 85/22/32
f 64/15/27 62/32/25 97/32/56 98/15/57
f 74/26/21 72/22/19 101/22/32 103/26/43
f 84/42/33 82/38/29 107/38/49 108/42/38
f 50/38/29 48/15/27 90/15/52 91/38/49
f 60/14/23 58/26/21 95/26/43 96/14/55
f 54/46/18 68/42/33 100/42/46 94/46/31
f 80/15/27 78/32/25 105/32/56 106/15/52
f 56/22/19 54/68/18 94/68/31 93/22/32
f 46/32/25 44/14/23 88/14/55 89/32/56
f 66/38/29 64/15/27 98/15/57 99/38/49
f 109/73/58 110/74/48 116/75/47 115/76/50 114/77/53 113/78/59 112/79/60 111/80/61
f 117/73/58 118/74/62 124/75/51 123/76/50 122/77/53 121/78/63 120/79/60 119/80/61
f 125/73/58 126/74/64 132/75/51 131/76/54 130/77/53 129/78/63 128/79/60 127/80/65
f 108/42/38 107/38/49 131/38/54 132/42/51
f 85/22/32 86/68/31 110/68/48 109/22/58
f 94/46/31 100/42/46 124/42/51 118/46/62
f 93/22/32 94/68/31 118/68/62 117/22/58
f 102/46/31 108/42/38 132/42/51 126/46/64
f 87/26/43 85/22/32 109/22/58 111/26/61
f 101/22/32 102/68/31 126/68/64 125/22/58
f 95/26/43 93/22/32 117/22/58 119/26/61
f 88/14/55 87/26/43 111/26/61 112/14/60
f 103/26/43 101/22/32 125/22/58 127/26/65
f 96/14/55 95/26/43 119/26/61 120/14/60
f 89/32/56 88/14/55 112/14/60 113/32/59
f 104/14/44 103/26/43 127/26/65 128/14/60
f 97/32/56 96/14/55 120/14/60 121/32/63
f 90/15/52 89/32/56 113/32/59 114/15/53
f 105/32/56 104/14/44 128/14/60 129/32/63
f 98/15/57 97/32/56 121/32/63 122/15/53
f 91/38/49 90/15/52 114/15/53 115/38/50
f 106/15/52 105/32/56 129/32/63 130/15/53
f 99/38/49 98/15/57 122/15/53 123/38/50
f 92/42/46 91/38/49 115/38/50 116/42/47
f 133/48/66 134/50/67 135/52/68 136/54/40 137/56/39 138/58/36 139/60/35 140/62/45
f 141/48/66 142/50/67 143/52/68 144/54/40 145/56/39 146/58/36 147/60/35 148/62/45
f 149/48/66 150/50/67 151/52/68 152/54/40 153/56/69 154/58/36 155/60/35 156/62/45
f 45/70/26 47/7/28 138/7/36 137/70/39
f 55/64/20 57/69/37 143/69/68 142/64/67
f 65/71/30 67/2/34 148/2/45 147/71/35
f 75/6/24 77/70/42 153/70/69 152/6/40
f 41/69/22 43/6/24 136/6/40 135/69/68
f 51/2/34 37/72/17 133/72/66 140/2/45
f 37/67/17 39/64/20 134/64/67 133/67/66
f 61/70/26 63/7/28 146/7/36 145/70/39
f 71/64/20 73/69/41 151/69/68 150/64/67
f 81/71/30 83/2/34 156/2/45 155/71/35
f 47/7/28 49/71/30 139/71/35 138/7/36
f 57/69/37 59/6/24 144/6/40 143/69/68
f 67/2/34 53/72/17 141/72/66 148/2/45
f 77/70/42 79/7/28 154/7/36 153/70/69
f 53/67/17 55/64/20 142/64/67 141/67/66
f 43/6/24 45/70/26 137/70/39 136/6/40
f 63/7/28 65/71/30 147/71/35 146/7/36
f 73/69/41 75/6/24 152/6/40 151/69/68
f 83/2/34 69/72/17 149/72/66 156/2/45
f 69/67/17 71/64/20 150/64/67 149/67/66
f 39/64/20 41/69/22 135/69/68 134/64/67
s 0
f 179/81/70 181/44/70 159/47/70 9/72/70
f 23/2/71 178/43/71 181/44/71 179/81/71
f 178/43/72 24/42/72 180/45/72 181/44/72
f 176/82/73 182/40/73 178/43/73 23/2/73
f 21/71/74 175/39/74 182/40/74 176/82/74
f 175/39/75 22/38/75 177/41/75 182/40/75
f 173/83/76 183/36/76 175/39/76 21/71/76
f 19/7/77 172/11/77 183/36/77 173/83/77
f 172/11/78 20/15/78 174/37/78 183/36/78
f 170/84/79 184/34/79 172/11/79 19/7/79
f 17/70/80 169/33/80 184/34/80 170/84/80
f 169/33/81 18/32/81 171/35/81 184/34/81
f 167/85/82 185/30/82 169/33/82 17/70/82
f 15/6/83 166/10/83 185/30/83 167/85/83
f 166/10/84 16/14/84 168/31/84 185/30/84
f 164/86/85 186/28/85 166/10/85 15/6/85
f 13/69/86 163/27/86 186/28/86 164/86/86
f 163/27/87 14/26/87 165/29/87 186/28/87
f 161/87/88 187/24/88 163/27/88 13/69/88
f 11/64/89 160/23/89 187/24/89 161/87/89
f 160/23/90 12/22/90 162/25/90 187/24/90
f 157/88/91 188/20/91 160/23/91 11/64/91
f 9/67/92 159/89/92 188/20/92 157/88/92
f 159/89/93 10/68/93 158/21/93 188/20/93
f 233/31/126 234/14/126 250/14/126 249/31/126
f 165/29/127 14/26/127 232/26/127 231/29/127
f 180/45/128 24/42/128 242/42/128 241/45/128
f 16/14/129 165/29/129 231/29/129 234/14/129
f 158/21/130 10/68/130 228/68/130 227/21/130
f 10/46/131 180/45/131 241/45/131 228/46/131
f 12/22/132 158/21/132 227/21/132 230/22/132
f 174/37/133 20/15/133 238/15/133 237/37/133
f 22/38/134 174/37/134 237/37/134 240/38/134
f 168/31/135 16/14/135 234/14/135 233/31/135
f 18/32/136 168/31/136 233/31/136 236/32/136
f 162/25/137 12/22/137 230/22/137 229/25/137
f 177/41/138 22/38/138 240/38/138 239/41/138
f 14/26/139 162/25/139 229/25/139 232/26/139
f 24/42/140 177/41/140 239/41/140 242/42/140
f 171/35/141 18/32/141 236/32/141 235/35/141
f 246/22/142 243/21/142 259/21/142 262/22/142
f 236/32/143 233/31/143 249/31/143 252/32/143
f 235/35/144 236/32/144 252/32/144 251/35/144
f 238/15/145 235/35/145 251/35/145 254/15/145
f 237/37/146 238/15/146 254/15/146 253/37/146
f 240/38/147 237/37/147 253/37/147 256/38/147
f 239/41/148 240/38/148 256/38/148 255/41/148
f 242/42/149 239/41/149 255/41/149 258/42/149
f 241/45/150 242/42/150 258/42/150 257/45/150
f 227/21/151 228/68/151 244/68/151 243/21/151
f 228/46/152 241/45/152 257/45/152 244/46/152
f 230/22/153 227/21/153 243/21/153 246/22/153
f 229/25/154 230/22/154 246/22/154 245/25/154
f 232/26/155 229/25/155 245/25/155 248/26/155
f 231/29/156 232/26/156 248/26/156 247/29/156
f 234/14/157 231/29/157 247/29/157 250/14/157
f 272/38/158 269/37/158 285/37/158 288/38/158
f 245/25/159 246/22/159 262/22/159 261/25/159
f 248/26/160 245/25/160 261/25/160 264/26/160
f 247/29/161 248/26/161 264/26/161 263/29/161
f 250/14/162 247/29/162 263/29/162 266/14/162
f 249/31/163 250/14/163 266/14/163 265/31/163
f 252/32/164 249/31/164 265/31/164 268/32/164
f 251/35/165 252/32/165 268/32/165 267/35/165
f 254/15/166 251/35/166 267/35/166 270/15/166
f 253/37/167 254/15/167 270/15/167 269/37/167
f 256/38/168 253/37/168 269/37/168 272/38/168
f 255/41/169 256/38/169 272/38/169 271/41/169
f 258/42/170 255/41/170 271/41/170 274/42/170
f 257/45/171 258/42/171 274/42/171 273/45/171
f 243/21/172 244/68/172 260/68/172 259/21/172
f 244/46/173 257/45/173 273/45/173 260/46/173
f 271/41/178 272/38/178 288/38/178 287/41/178
f 274/42/179 271/41/179 287/41/179 290/42/179
f 273/45/180 274/42/180 290/42/180 289/45/180
f 259/21/181 260/68/181 276/68/181 275/21/181
f 260/46/182 273/45/182 289/45/182 276/46/182
f 262/22/183 259/21/183 275/21/183 278/22/183
f 261/25/184 262/22/184 278/22/184 277/25/184
f 264/26/185 261/25/185 277/25/185 280/26/185
f 263/29/186 264/26/186 280/26/186 279/29/186
f 266/14/187 263/29/187 279/29/187 282/14/187
f 265/31/188 266/14/188 282/14/188 281/31/188
f 268/32/189 265/31/189 281/31/189 284/32/189
f 267/35/190 268/32/190 284/32/190 283/35/190
f 270/15/191 267/35/191 283/35/191 286/15/191
f 269/37/192 270/15/192 286/15/192 285/37/192
usemtl Material.005
f 294/73/5 293/103/5 296/80/5 295/104/5 298/79/5 297/105/5 300/78/5 299/106/5 302/77/5 301/107/5 304/76/5 303/108/5 306/75/5 305/109/5 292/74/5 291/110/5
f 312/80/193 309/103/193 325/103/193 328/80/193
f 293/103/194 294/73/194 310/73/194 309/103/194
f 296/80/195 293/103/195 309/103/195 312/80/195
f 295/104/196 296/80/196 312/80/196 311/104/196
f 298/79/197 295/104/197 311/104/197 314/79/197
f 297/105/198 298/79/198 314/79/198 313/105/198
f 300/78/199 297/105/199 313/105/199 316/78/199
f 299/106/200 300/78/200 316/78/200 315/106/200
f 302/77/201 299/106/201 315/106/201 318/77/201
f 301/107/202 302/77/202 318/77/202 317/107/202
f 304/76/203 301/107/203 317/107/203 320/76/203
f 303/108/204 304/76/204 320/76/204 319/108/204
f 306/75/205 303/108/205 319/108/205 322/75/205
f 305/109/206 306/75/206 322/75/206 321/109/206
f 291/110/207 292/74/207 308/74/207 307/110/207
f 292/74/208 305/109/208 321/109/208 308/74/208
f 294/73/209 291/110/209 307/110/209 310/73/209
f 338/75/210 335/108/210 351/108/210 354/75/210
f 311/104/211 312/80/211 328/80/211 327/104/211
f 314/79/212 311/104/212 327/104/212 330/79/212
f 313/105/213 314/79/213 330/79/213 329/105/213
f 316/78/214 313/105/214 329/105/214 332/78/214
f 315/106/215 316/78/215 332/78/215 331/106/215
f 318/77/216 315/106/216 331/106/216 334/77/216
f 317/107/217 318/77/217 334/77/217 333/107/217
f 320/76/218 317/107/218 333/107/218 336/76/218
f 319/108/219 320/76/219 336/76/219 335/108/219
f 322/75/220 319/108/220 335/108/220 338/75/220
f 321/109/221 322/75/221 338/75/221 337/109/221
f 307/110/222 308/74/222 324/74/222 323/110/222
f 308/74/223 321/109/223 337/109/223 324/74/223
f 310/73/224 307/110/224 323/110/224 326/73/224
f 309/103/225 310/73/225 326/73/225 325/103/225
f 342/73/107 339/110/107 340/74/107 353/109/107 354/75/107 351/108/107 352/76/107 349/107/107 350/77/107 347/106/107 348/78/107 345/105/107 346/79/107 343/104/107 344/80/107 341/103/107
f 337/109/226 338/75/226 354/75/226 353/109/226
f 323/110/227 324/74/227 340/74/227 339/110/227
f 324/74/228 337/109/228 353/109/228 340/74/228
f 326/73/229 323/110/229 339/110/229 342/73/229
f 325/103/230 326/73/230 342/73/230 341/103/230
f 328/80/231 325/103/231 341/103/231 344/80/231
f 327/104/232 328/80/232 344/80/232 343/104/232
f 330/79/233 327/104/233 343/104/233 346/79/233
f 329/105/234 330/79/234 346/79/234 345/105/234
f 332/78/235 329/105/235 345/105/235 348/78/235
f 331/106/236 332/78/236 348/78/236 347/106/236
f 334/77/237 331/106/237 347/106/237 350/77/237
f 333/107/238 334/77/238 350/77/238 349/107/238
f 336/76/239 333/107/239 349/107/239 352/76/239
f 335/108/240 336/76/240 352/76/240 351/108/240
