# Blender 4.4.0
# www.blender.org
mtllib obj_Pencil_007.mtl
o obj_Pencil.007
v 0.000000 -0.026451 -0.008088
v 0.000000 0.085714 -0.008549
v 0.007004 -0.026451 -0.004044
v 0.007404 0.085714 -0.004274
v 0.007004 -0.026451 0.004044
v 0.007404 0.085714 0.004274
v 0.000000 -0.026451 0.008088
v 0.000000 0.085714 0.008549
v -0.007004 -0.026451 0.004044
v -0.007403 0.085714 0.004274
v -0.007004 -0.026451 -0.004044
v -0.007403 0.085714 -0.004274
v 0.000000 0.095632 -0.008794
v 0.007617 0.095632 -0.004397
v 0.007617 0.095632 0.004397
v 0.000000 0.095632 0.008794
v -0.007616 0.095632 0.004397
v -0.007616 0.095632 -0.004397
v 0.000000 0.086582 -0.008837
v 0.007654 0.086582 -0.004419
v 0.007654 0.086582 0.004419
v 0.000000 0.086582 0.008837
v -0.007653 0.086582 -0.004419
v -0.007653 0.086582 0.004419
v 0.000000 0.099888 -0.004730
v 0.004097 0.099888 -0.002365
v 0.004097 0.099888 0.002365
v 0.000000 0.099888 0.004730
v -0.004096 0.099888 0.002365
v -0.004096 0.099888 -0.002365
v 0.000000 -0.077103 -0.006051
v 0.005241 -0.077103 -0.003026
v 0.005241 -0.077103 0.003026
v 0.000000 -0.077103 0.006051
v -0.005240 -0.077103 0.003026
v -0.005240 -0.077103 -0.003026
v 0.000000 -0.078505 -0.002916
v 0.002526 -0.078505 -0.001458
v 0.002526 -0.078505 0.001458
v 0.000000 -0.078505 0.002916
v -0.002525 -0.078505 0.001458
v -0.002525 -0.078505 -0.001458
v -0.000032 -0.082725 -0.004449
v 0.002979 -0.082725 -0.002224
v 0.002979 -0.082725 0.002224
v -0.000032 -0.082725 0.004449
v -0.003043 -0.082725 0.002224
v -0.003043 -0.082725 -0.002224
v -0.000032 -0.098376 -0.002269
v 0.000157 -0.097976 -0.001134
v 0.000157 -0.097976 0.001134
v -0.000032 -0.098376 0.002269
v -0.001204 -0.098776 0.001134
v -0.001204 -0.098776 -0.001134
v 0.000991 -0.105748 -0.000293
v 0.001152 -0.105365 -0.000200
v 0.001152 -0.105365 0.000200
v 0.000991 -0.105748 0.000293
v 0.000702 -0.105681 0.000200
v 0.000702 -0.105681 -0.000200
v -0.002217 -0.090550 -0.001843
v -0.000555 -0.090550 -0.003685
v -0.000555 -0.090550 0.003685
v -0.002217 -0.090550 0.001843
v 0.000493 -0.090550 -0.001843
v 0.000493 -0.090550 0.001843
v -0.004664 -0.077943 -0.002693
v 0.000000 -0.077943 -0.005386
v 0.000000 -0.077943 0.005386
v -0.004664 -0.077943 0.002693
v 0.004665 -0.077943 -0.002693
v 0.004665 -0.077943 0.002693
vn 0.5000 -0.0036 -0.8660
vn 1.0000 -0.0036 -0.0000
vn 0.5000 -0.0036 0.8660
vn -0.5000 -0.0036 0.8660
vn 0.5000 0.0041 -0.8660
vn -1.0000 -0.0036 -0.0000
vn -0.5000 -0.0036 -0.8660
vn 0.7706 0.6373 -0.0000
vn 0.5000 0.0041 0.8660
vn -0.5000 0.0041 -0.8660
vn -0.5000 0.0041 0.8660
vn 1.0000 0.0041 -0.0000
vn -1.0000 0.0041 -0.0000
vn -0.9609 -0.2768 -0.0000
vn 0.9609 -0.2768 -0.0000
vn -0.4805 -0.2768 0.8322
vn -0.4805 -0.2768 -0.8322
vn 0.4805 -0.2768 0.8322
vn 0.4805 -0.2768 -0.8322
vn -0.0000 1.0000 -0.0000
vn -0.7707 0.6373 -0.0000
vn 0.3853 0.6373 0.6674
vn 0.3853 0.6373 -0.6674
vn -0.3853 0.6373 -0.6674
vn -0.3853 0.6373 0.6674
vn 0.9994 -0.0348 -0.0000
vn -0.9994 -0.0348 -0.0000
vn 0.4997 -0.0348 -0.8655
vn 0.4997 -0.0348 0.8655
vn -0.4997 -0.0348 -0.8655
vn -0.4997 -0.0348 0.8655
vn -0.1271 -0.9672 -0.2201
vn -0.1271 -0.9672 0.2201
vn 0.2541 -0.9672 -0.0000
vn -0.2541 -0.9672 -0.0000
vn 0.1271 -0.9672 0.2201
vn 0.1271 -0.9672 -0.2201
vn -0.9926 0.1217 -0.0000
vn 0.5367 0.2466 0.8069
vn 0.5367 0.2466 -0.8069
vn -0.5356 0.2542 -0.8053
vn -0.5356 0.2542 0.8053
vn 0.9943 0.1068 -0.0000
vn -0.7043 -0.1590 -0.6919
vn -0.7043 -0.1590 0.6919
vn 0.9990 -0.0452 -0.0000
vn -0.9925 -0.1223 -0.0000
vn 0.9247 -0.0414 0.3783
vn 0.9247 -0.0414 -0.3783
vn -0.9640 -0.2660 -0.0000
vn 0.9471 0.0676 0.3137
vn 0.9471 0.0676 -0.3137
vn -0.5806 -0.2752 -0.7662
vn -0.5806 -0.2752 0.7662
vn 0.9910 0.1335 -0.0000
vn 0.6957 -0.1846 -0.6942
vn 0.6957 -0.1846 0.6942
vn -0.9945 -0.1049 -0.0000
vn 0.9530 -0.3029 -0.0000
vn -0.6550 -0.0677 0.7526
vn -0.6550 -0.0677 -0.7526
vn -0.2273 -0.9738 -0.0000
vn 0.9210 -0.3896 -0.0000
vn 0.4125 -0.5652 -0.7144
vn 0.4125 -0.5652 0.7144
vn -0.8250 -0.5652 -0.0000
vn 0.8250 -0.5652 -0.0000
vn -0.4125 -0.5652 0.7144
vn -0.4125 -0.5652 -0.7144
vt 1.000000 0.500000
vt 1.000000 1.000000
vt 0.833333 1.000000
vt 0.833333 0.500000
vt 0.666667 1.000000
vt 0.666667 0.500000
vt 0.500000 1.000000
vt 0.500000 0.500000
vt 0.333333 1.000000
vt 0.333333 0.500000
vt 1.000000 1.000000
vt 0.166667 1.000000
vt 0.166667 0.500000
vt -0.000000 1.000000
vt -0.000000 0.500000
vt 0.500000 1.000000
vt 0.333333 1.000000
vt 0.457846 0.370000
vt 0.250000 0.490000
vt 0.042154 0.370000
vt 0.042154 0.130000
vt 0.250000 0.010000
vt 0.457846 0.130000
vt 0.166667 0.500000
vt -0.006657 0.500000
vt 0.333333 0.500000
vt 0.833333 0.500000
vt 0.666667 0.500000
vt 1.006657 0.500000
vt 0.146024 0.500000
vt -0.000000 0.500000
vt 0.500000 0.500000
vt 0.353975 0.500000
vt 0.853976 0.500000
vt 0.646024 0.500000
s 0
usemtl mat_Desk_main
f 1/1/1 2/2/1 4/3/1 3/4/1
f 3/4/2 4/3/2 6/5/2 5/6/2
f 5/6/3 6/5/3 8/7/3 7/8/3
f 7/8/4 8/7/4 10/9/4 9/10/4
f 9/10/6 10/9/6 12/12/6 11/13/6
f 11/13/7 12/12/7 2/14/7 1/15/7
f 15/5/8 14/3/8 26/3/8 27/5/8
f 12/12/14 10/9/14 24/17/14 23/12/14
f 6/5/15 4/3/15 20/3/15 21/5/15
f 10/9/16 8/7/16 22/16/16 24/17/16
f 2/14/17 12/12/17 23/12/17 19/14/17
f 8/7/18 6/5/18 21/5/18 22/16/18
f 4/3/19 2/2/19 19/11/19 20/3/19
f 26/18/20 25/19/20 30/20/20 29/21/20 28/22/20 27/23/20
f 18/12/21 17/9/21 29/9/21 30/12/21
f 16/7/22 15/5/22 27/5/22 28/7/22
f 14/3/23 13/2/23 25/2/23 26/3/23
f 13/14/24 18/12/24 30/12/24 25/14/24
f 17/9/25 16/7/25 28/7/25 29/9/25
f 3/4/26 5/6/26 33/6/26 32/4/26
f 9/10/27 11/13/27 36/13/27 35/10/27
f 1/1/28 3/4/28 32/4/28 31/1/28
f 5/6/29 7/8/29 34/8/29 33/6/29
f 11/13/30 1/15/30 31/15/30 36/13/30
f 7/8/31 9/10/31 35/10/31 34/8/31
f 67/24/32 68/25/32 37/15/32 42/13/32
f 69/8/33 70/26/33 41/10/33 40/8/33
f 71/27/34 72/28/34 39/6/34 38/4/34
f 70/26/35 67/24/35 42/13/35 41/10/35
f 72/28/36 69/8/36 40/8/36 39/6/36
f 68/29/37 71/27/37 38/4/37 37/1/37
f 31/1/64 32/4/64 71/27/64 68/29/64
f 33/6/65 34/8/65 69/8/65 72/28/65
f 35/10/66 36/13/66 67/24/66 70/26/66
f 32/4/67 33/6/67 72/28/67 71/27/67
f 34/8/68 35/10/68 70/26/68 69/8/68
f 36/13/69 31/15/69 68/25/69 67/24/69
usemtl Material.002
f 20/3/5 19/11/5 13/2/5 14/3/5
f 22/16/9 21/5/9 15/5/9 16/7/9
f 19/14/10 23/12/10 18/12/10 13/14/10
f 24/17/11 22/16/11 16/7/11 17/9/11
f 21/5/12 20/3/12 14/3/12 15/5/12
f 23/12/13 24/17/13 17/9/13 18/12/13
f 41/10/38 42/13/38 48/13/38 47/10/38
f 39/6/39 40/8/39 46/8/39 45/6/39
f 37/1/40 38/4/40 44/4/40 43/1/40
f 42/13/41 37/15/41 43/15/41 48/13/41
f 40/8/42 41/10/42 47/10/42 46/8/42
f 38/4/43 39/6/43 45/6/43 44/4/43
f 61/30/44 62/31/44 49/15/44 54/13/44
f 63/32/45 64/33/45 53/10/45 52/8/45
f 65/34/46 66/35/46 51/6/46 50/4/46
f 64/33/47 61/30/47 54/13/47 53/10/47
f 66/35/48 63/32/48 52/8/48 51/6/48
f 62/1/49 65/34/49 50/4/49 49/1/49
f 53/10/50 54/13/50 60/13/50 59/10/50
f 51/6/51 52/8/51 58/8/51 57/6/51
f 49/1/52 50/4/52 56/4/52 55/1/52
f 54/13/53 49/15/53 55/15/53 60/13/53
f 52/8/54 53/10/54 59/10/54 58/8/54
f 50/4/55 51/6/55 57/6/55 56/4/55
f 43/1/56 44/4/56 65/34/56 62/1/56
f 45/6/57 46/8/57 63/32/57 66/35/57
f 47/10/58 48/13/58 61/30/58 64/33/58
f 44/4/59 45/6/59 66/35/59 65/34/59
f 46/8/60 47/10/60 64/33/60 63/32/60
f 48/13/61 43/15/61 62/31/61 61/30/61
f 58/8/62 59/10/62 60/13/62 55/15/62
f 55/15/63 56/4/63 57/6/63 58/8/63
