# Blender 4.4.0
# www.blender.org
mtllib obj_Pencil_short.mtl
o obj_Pencil_short
v -0.000000 -0.110798 -0.004445
v 0.000000 -0.075338 -0.005132
v 0.003849 -0.110798 -0.002222
v 0.004445 -0.075338 -0.002566
v 0.003849 -0.110798 0.002222
v 0.004445 -0.075338 0.002566
v -0.000000 -0.110798 0.004445
v 0.000000 -0.075338 0.005132
v -0.003849 -0.110798 0.002222
v -0.004445 -0.075338 0.002566
v -0.003849 -0.110798 -0.002222
v -0.004445 -0.075338 -0.002566
v -0.000000 -0.129071 -0.001189
v 0.001030 -0.129071 -0.000594
v 0.001030 -0.129071 0.000594
v -0.000000 -0.129071 0.001189
v -0.001030 -0.129071 0.000594
v -0.001030 -0.129071 -0.000594
v -0.000000 -0.129222 -0.001273
v 0.001103 -0.129222 -0.000637
v 0.001103 -0.129222 0.000637
v -0.000000 -0.129222 0.001273
v -0.001103 -0.129222 0.000637
v -0.001103 -0.129222 -0.000637
v -0.000000 -0.135189 -0.000120
v 0.000104 -0.135189 -0.000060
v 0.000104 -0.135189 0.000060
v -0.000000 -0.135189 0.000120
v -0.000104 -0.135189 0.000060
v -0.000104 -0.135189 -0.000060
v 0.001182 -0.128933 0.000683
v 0.001182 -0.128933 -0.000683
v -0.001183 -0.128933 -0.000683
v -0.001183 -0.128933 0.000683
v -0.000000 -0.128933 -0.001365
v -0.000000 -0.128933 0.001365
v 0.000000 -0.071773 -0.005280
v 0.004572 -0.071773 -0.002640
v 0.004572 -0.071773 0.002640
v 0.000000 -0.071773 0.005280
v -0.004572 -0.071773 0.002640
v -0.004572 -0.071773 -0.002640
v 0.000000 -0.075026 -0.005306
v 0.004595 -0.075026 -0.002653
v 0.004595 -0.075026 0.002653
v 0.000000 -0.075026 0.005306
v -0.004595 -0.075026 -0.002653
v -0.004595 -0.075026 0.002653
v 0.000000 -0.070244 -0.002840
v 0.002459 -0.070244 -0.001420
v 0.002459 -0.070244 0.001420
v 0.000000 -0.070244 0.002840
v -0.002459 -0.070244 0.001420
v -0.002459 -0.070244 -0.001420
vn 0.4999 -0.0168 -0.8659
vn 0.9999 -0.0168 -0.0000
vn 0.4999 -0.0168 0.8659
vn -0.4999 -0.0168 0.8659
vn 0.5000 0.0069 -0.8660
vn -0.9999 -0.0168 -0.0000
vn -0.4999 -0.0168 -0.8659
vn 0.6720 -0.7405 -0.0000
vn -0.8997 0.4365 -0.0000
vn -0.6721 -0.7405 -0.0000
vn 0.3360 -0.7405 -0.5820
vn 0.3360 -0.7405 0.5820
vn -0.3360 -0.7405 -0.5820
vn -0.3360 -0.7405 0.5820
vn -0.4931 -0.1651 -0.8541
vn 0.4498 0.4364 0.7792
vn 0.4499 0.4364 -0.7792
vn -0.4499 0.4364 -0.7792
vn -0.4499 0.4364 0.7792
vn 0.8997 0.4365 -0.0000
vn -0.0000 -1.0000 -0.0000
vn -0.4931 -0.1651 0.8541
vn 0.9863 -0.1651 -0.0000
vn -0.9863 -0.1651 -0.0000
vn 0.4931 -0.1651 0.8541
vn 0.4931 -0.1651 -0.8541
vn -0.4947 -0.1455 0.8568
vn -0.4947 -0.1455 -0.8568
vn 0.4947 -0.1455 0.8568
vn 0.4947 -0.1455 -0.8568
vn -0.9894 -0.1455 -0.0000
vn 0.9894 -0.1455 -0.0000
vn 0.5864 0.8100 -0.0000
vn 0.5000 0.0069 0.8660
vn -0.5000 0.0069 -0.8660
vn -0.5000 0.0069 0.8660
vn 1.0000 0.0069 -0.0000
vn -1.0000 0.0069 -0.0000
vn -0.9011 -0.4336 -0.0000
vn 0.9011 -0.4336 -0.0000
vn -0.4505 -0.4336 0.7804
vn -0.4506 -0.4336 -0.7804
vn 0.4505 -0.4336 0.7804
vn 0.4505 -0.4336 -0.7804
vn -0.0000 1.0000 -0.0000
vn -0.5864 0.8100 -0.0000
vn 0.2932 0.8100 0.5079
vn 0.2932 0.8100 -0.5079
vn -0.2932 0.8100 -0.5079
vn -0.2932 0.8100 0.5079
vt 1.000000 0.500000
vt 1.000000 1.000000
vt 0.833333 1.000000
vt 0.833333 0.500000
vt 0.666667 1.000000
vt 0.666667 0.500000
vt 0.500000 1.000000
vt 0.500000 0.500000
vt 0.333333 1.000000
vt 0.333333 0.500000
vt 1.000000 1.000000
vt 0.166667 1.000000
vt 0.166667 0.500000
vt -0.000000 1.000000
vt -0.000000 0.500000
vt 0.833333 0.500000
vt 0.166667 0.500000
vt 0.750000 0.490000
vt 0.957846 0.370000
vt 0.957846 0.130000
vt 0.750000 0.010000
vt 0.542154 0.130000
vt 0.542154 0.370000
vt 0.500000 1.000000
vt 0.333333 1.000000
vt 0.457846 0.370000
vt 0.250000 0.490000
vt 0.042154 0.370000
vt 0.042154 0.130000
vt 0.250000 0.010000
vt 0.457846 0.130000
s 0
usemtl mat_Desk_main
f 1/1/1 2/2/1 4/3/1 3/4/1
f 3/4/2 4/3/2 6/5/2 5/6/2
f 5/6/3 6/5/3 8/7/3 7/8/3
f 7/8/4 8/7/4 10/9/4 9/10/4
f 9/10/6 10/9/6 12/12/6 11/13/6
f 11/13/7 12/12/7 2/14/7 1/15/7
f 32/16/8 31/6/8 15/6/8 14/4/8
f 34/10/10 33/17/10 18/13/10 17/10/10
f 35/1/11 32/16/11 14/4/11 13/1/11
f 31/6/12 36/8/12 16/8/12 15/6/12
f 33/17/13 35/15/13 13/15/13 18/13/13
f 36/8/14 34/10/14 17/10/14 16/8/14
f 39/5/33 38/3/33 50/3/33 51/5/33
f 12/12/39 10/9/39 48/25/39 47/12/39
f 6/5/40 4/3/40 44/3/40 45/5/40
f 10/9/41 8/7/41 46/24/41 48/25/41
f 2/14/42 12/12/42 47/12/42 43/14/42
f 8/7/43 6/5/43 45/5/43 46/24/43
f 4/3/44 2/2/44 43/11/44 44/3/44
f 50/26/45 49/27/45 54/28/45 53/29/45 52/30/45 51/31/45
f 42/12/46 41/9/46 53/9/46 54/12/46
f 40/7/47 39/5/47 51/5/47 52/7/47
f 38/3/48 37/2/48 49/2/48 50/3/48
f 37/14/49 42/12/49 54/12/49 49/14/49
f 41/9/50 40/7/50 52/7/50 53/9/50
usemtl Material.002
f 17/10/9 18/13/9 24/13/9 23/10/9
f 24/13/15 19/15/15 25/15/15 30/13/15
f 15/6/16 16/8/16 22/8/16 21/6/16
f 13/1/17 14/4/17 20/4/17 19/1/17
f 18/13/18 13/15/18 19/15/18 24/13/18
f 16/8/19 17/10/19 23/10/19 22/8/19
f 14/4/20 15/6/20 21/6/20 20/4/20
f 25/18/21 26/19/21 27/20/21 28/21/21 29/22/21 30/23/21
f 22/8/22 23/10/22 29/10/22 28/8/22
f 20/4/23 21/6/23 27/6/23 26/4/23
f 23/10/24 24/13/24 30/13/24 29/10/24
f 21/6/25 22/8/25 28/8/25 27/6/25
f 19/1/26 20/4/26 26/4/26 25/1/26
usemtl mat_Desk_parts
f 44/3/5 43/11/5 37/2/5 38/3/5
f 7/8/27 9/10/27 34/10/27 36/8/27
f 11/13/28 1/15/28 35/15/28 33/17/28
f 5/6/29 7/8/29 36/8/29 31/6/29
f 1/1/30 3/4/30 32/16/30 35/1/30
f 9/10/31 11/13/31 33/17/31 34/10/31
f 3/4/32 5/6/32 31/6/32 32/16/32
f 46/24/34 45/5/34 39/5/34 40/7/34
f 43/14/35 47/12/35 42/12/35 37/14/35
f 48/25/36 46/24/36 40/7/36 41/9/36
f 45/5/37 44/3/37 38/3/37 39/5/37
f 47/12/38 48/25/38 41/9/38 42/12/38
