# Blender 4.4.0
# www.blender.org
mtllib obj_Poster_002.mtl
o obj_Poster_002
v -0.401360 -0.016284 0.290282
v 0.393734 -0.047603 0.286765
v -0.401360 -0.016284 -0.290282
v 0.401360 -0.026767 -0.281309
v -0.371520 -0.008242 0.290282
v 0.371520 -0.025431 0.290282
v 0.371520 -0.013561 -0.285978
v -0.371520 -0.008242 -0.290282
v -0.401360 -0.008739 -0.273154
v -0.401360 -0.008739 0.273154
v 0.401360 -0.026355 0.273154
v 0.401360 -0.014371 -0.268559
v -0.371520 -0.003784 0.273154
v -0.371520 -0.003784 -0.273154
v 0.371520 -0.018586 0.273154
v 0.371520 -0.006237 -0.271416
v -0.185760 0.000002 0.282779
v -0.000000 -0.000000 0.286109
v 0.185760 -0.000002 0.286058
v 0.185760 -0.000002 -0.286058
v -0.000000 -0.000000 -0.286109
v -0.185760 0.000002 -0.282779
v 0.185760 -0.000002 0.269180
v -0.000000 -0.000000 0.269228
v -0.185760 0.000002 0.266095
v 0.185760 -0.000002 -0.269180
v -0.000000 -0.000000 -0.269228
v -0.185760 0.000002 -0.266095
v -0.401360 0.000000 -0.136577
v -0.401360 0.005509 -0.003524
v -0.401360 0.005509 0.134421
v 0.400377 -0.000751 0.137257
v 0.401360 0.000000 -0.000000
v 0.401360 0.000000 -0.136577
v -0.371520 0.000003 0.136577
v -0.371520 0.000003 -0.000000
v -0.371520 0.000003 -0.136577
v 0.371520 -0.000003 0.136577
v 0.371520 -0.000003 -0.000000
v 0.371520 -0.000003 -0.136577
v -0.185760 0.000002 0.133047
v -0.185760 0.000002 -0.000000
v -0.185760 0.000002 -0.133047
v -0.000000 -0.000000 0.134614
v -0.000000 -0.000000 -0.000000
v -0.000000 -0.000000 -0.134614
v 0.185760 -0.000002 0.134590
v 0.185760 -0.000002 -0.000000
v 0.185760 -0.000002 -0.136577
v 0.400981 -0.003114 -0.000000
v 0.400981 -0.003114 -0.136577
v 0.398016 0.004280 0.136109
v -0.401360 -0.003011 0.268903
v -0.401360 0.005509 -0.130631
vn -0.2013 0.9244 0.3239
vn 0.4037 0.6232 0.6698
vn -0.2013 0.9244 -0.3239
vn 0.3418 0.7619 -0.5501
vn -0.1196 0.9648 0.2343
vn 0.2923 0.8210 0.4904
vn 0.2080 0.8896 -0.4067
vn -0.1196 0.9648 -0.2343
vn -0.1458 0.9705 -0.1919
vn 0.2991 0.8362 0.4596
vn 0.2539 0.9073 -0.3352
vn -0.0416 0.9898 0.1364
vn -0.0827 0.9876 -0.1334
vn 0.2046 0.9247 0.3212
vn 0.1558 0.9547 -0.2535
vn -0.0137 0.9977 0.0663
vn -0.0000 1.0000 -0.0000
vn 0.0570 0.9933 0.1006
vn 0.0257 0.9930 -0.1153
vn -0.0137 0.9977 -0.0663
vn 0.0402 0.9970 0.0664
vn -0.0091 0.9993 0.0354
vn 0.0170 0.9979 -0.0631
vn -0.0091 0.9993 -0.0354
vn -0.0827 0.9955 -0.0457
vn 0.1815 0.9834 -0.0000
vn 0.1435 0.9894 0.0211
vn 0.1400 0.9775 0.1580
vn -0.0760 0.9970 -0.0166
vn 0.1382 0.9875 -0.0763
vn 0.0671 0.9976 0.0156
vn 0.0916 0.9958 -0.0000
vn 0.0155 0.9998 -0.0157
vn 0.0287 0.9982 0.0530
vn 0.0073 1.0000 -0.0042
vn 0.0653 0.9976 -0.0250
vn -0.0024 1.0000 0.0035
vn -0.0024 1.0000 -0.0035
vn 0.0121 0.9998 0.0170
vn 0.0042 1.0000 -0.0058
vn 0.1050 0.9945 -0.0000
vn 0.0997 0.9940 0.0451
vt 0.975646 0.039225
vt 0.972283 0.005439
vt 0.987294 0.005117
vt 0.992791 0.039034
vt 0.977693 0.908775
vt 0.977693 0.875329
vt 0.997857 0.875213
vt 0.997857 0.908579
vt 0.973015 0.248397
vt 0.992885 0.248397
vt 0.319348 0.248397
vt 0.314375 0.038726
vt 0.334539 0.038904
vt 0.339218 0.248397
vt 0.816905 0.248397
vt 0.816905 0.039386
vt 0.314375 0.908579
vt 0.314375 0.875213
vt 0.334539 0.875329
vt 0.334539 0.908775
vt 0.816905 0.909002
vt 0.816905 0.875427
vt 0.318515 0.013156
vt 0.334539 0.005128
vt 0.816905 0.005812
vt 0.812749 0.666417
vt 0.969382 0.666417
vt 0.814594 0.457407
vt 0.973071 0.457407
vt 0.323208 0.666417
vt 0.342850 0.666417
vt 0.319287 0.457407
vt 0.339162 0.457407
vt 0.989025 0.666417
vt 0.992945 0.457407
vt 0.497667 0.248397
vt 0.497639 0.457407
vt 0.656116 0.248397
vt 0.656116 0.457407
vt 0.499483 0.666417
vt 0.656116 0.666417
vt 0.495327 0.875427
vt 0.656116 0.875427
vt 0.494528 0.006898
vt 0.495327 0.039386
vt 0.497866 0.909144
vt 0.660265 0.909144
vt 0.809905 0.909144
vt 0.656116 0.039386
vt 0.656116 0.006158
vt 0.816905 0.006158
vt 0.495879 0.009685
vt 0.656116 0.005812
vt 0.339544 0.908923
s 1
usemtl tex_Calendar_Collection_70s
f 16/1/15 12/2/11 4/3/4 7/4/7
f 9/5/9 14/6/13 8/7/8 3/8/3
f 26/9/23 16/1/15 7/4/7 20/10/19
f 19/11/18 6/12/6 15/13/14 23/14/21
f 49/15/40 40/16/36 16/1/15 26/9/23
f 1/17/1 5/18/5 13/19/12 10/20/1
f 29/21/25 37/22/33 14/6/13 9/5/9
f 6/12/6 2/23/2 11/24/10 15/13/14
f 40/16/36 34/25/30 12/2/11 16/1/15
f 37/22/33 43/26/38 28/27/24 14/6/13
f 43/26/38 46/28/17 27/29/17 28/27/24
f 46/28/17 49/15/40 26/9/23 27/29/17
f 5/18/5 17/30/16 25/31/22 13/19/12
f 17/30/16 18/32/17 24/33/17 25/31/22
f 18/32/17 19/11/18 23/14/21 24/33/17
f 14/6/13 28/27/24 22/34/20 8/7/8
f 28/27/24 27/29/17 21/35/17 22/34/20
f 27/29/17 26/9/23 20/10/19 21/35/17
f 24/33/17 23/14/21 47/36/39 44/37/17
f 44/37/17 47/36/39 48/38/17 45/39/17
f 45/39/17 48/38/17 49/15/40 46/28/17
f 25/31/22 24/33/17 44/37/17 41/40/37
f 41/40/37 44/37/17 45/39/17 42/41/17
f 42/41/17 45/39/17 46/28/17 43/26/38
f 13/19/12 25/31/22 41/40/37 35/42/31
f 35/42/31 41/40/37 42/41/17 36/43/32
f 36/43/32 42/41/17 43/26/38 37/22/33
f 15/13/14 11/24/10 32/44/28 38/45/34
f 31/46/27 35/42/31 36/43/32 30/47/26
f 30/47/26 36/43/32 37/22/33 54/48/26
f 23/14/21 15/13/14 38/45/34 47/36/39
f 47/36/39 38/45/34 39/49/35 48/38/17
f 39/49/35 50/50/41 51/51/41 40/16/36
f 48/38/17 39/49/35 40/16/36 49/15/40
f 52/52/29 33/53/29 39/49/35 38/45/34
f 53/54/42 13/19/12 35/42/31 31/46/27
