# Blender 4.4.0
# www.blender.org
mtllib obj_Desk_rolling-drawer_shelves_001.mtl
o obj_Desk_rolling-drawer_shelves.001
v 0.393544 -0.031548 -1.576224
v 0.383771 -0.031548 -1.576224
v 0.393544 -0.031548 -1.569272
v 0.394902 -0.035944 -1.576954
v 0.393544 -0.040339 -1.576224
v 0.385095 -0.035944 -1.576954
v 0.394902 -0.035944 -1.569979
v 0.393544 -0.040339 -1.569272
v 0.394902 -0.035944 -1.159086
v 0.393544 -0.031548 -1.159793
v 0.393544 -0.040339 -1.159793
v 0.394902 -0.035944 -1.152111
v 0.393544 -0.040339 -1.152841
v 0.393544 -0.031548 -1.152841
v 0.385095 -0.035944 -1.152111
v 0.383771 -0.040339 -1.152841
v 0.383771 -0.031548 -1.152841
v -0.385095 -0.035944 -1.152111
v -0.383771 -0.040339 -1.152841
v -0.383771 -0.031548 -1.152841
v -0.394902 -0.035944 -1.152111
v -0.393544 -0.040339 -1.152841
v -0.393544 -0.031548 -1.152841
v -0.394902 -0.035944 -1.159086
v -0.393544 -0.040339 -1.159793
v -0.393544 -0.031548 -1.159793
v -0.394902 -0.035944 -1.569979
v -0.393544 -0.040339 -1.569272
v -0.393544 -0.031548 -1.569272
v -0.394902 -0.035944 -1.576954
v -0.393544 -0.031548 -1.576224
v -0.393544 -0.040339 -1.576224
v -0.385095 -0.035944 -1.576954
v -0.383771 -0.040339 -1.576224
v -0.383771 -0.031548 -1.576224
v -0.383771 -0.031548 -1.569272
v 0.383771 -0.031548 -1.569272
v -0.383771 -0.031548 -1.159793
v -0.375623 -0.033910 -1.564925
v 0.375623 -0.033910 -1.564925
v -0.375623 -0.033910 -1.164140
v 0.375623 -0.033910 -1.164140
v 0.383771 -0.031548 -1.159793
v 0.383771 -0.040339 -1.576224
v -0.383771 -0.040339 -1.569272
v 0.383771 -0.040339 -1.569272
v -0.383771 -0.040339 -1.159793
v -0.380839 -0.039652 -1.567708
v 0.380839 -0.039652 -1.567708
v -0.380839 -0.039652 -1.161357
v 0.380839 -0.039652 -1.161357
v 0.383771 -0.040339 -1.159793
vn -0.0000 -0.1639 0.9865
vn -0.0000 -1.0000 -0.0000
vn -0.9554 -0.2952 -0.0000
vn -0.9554 0.2952 -0.0000
vn -0.0000 0.1639 0.9865
vn -0.0000 0.1639 -0.9865
vn -0.0000 -0.1639 -0.9865
vn -0.0000 0.1640 -0.9865
vn -0.0000 -0.1640 -0.9865
vn 0.9554 0.2952 -0.0000
vn 0.9554 -0.2952 -0.0000
vn -0.0000 0.1640 0.9865
vn -0.0000 -0.1640 0.9865
vn -0.0000 -0.8787 -0.4774
vn -0.2784 -0.9605 -0.0000
vn -0.0000 -0.8787 0.4774
vn 0.2784 -0.9605 -0.0000
vn -0.0000 1.0000 -0.0000
vn -0.0000 0.9156 -0.4022
vn -0.2282 0.9736 -0.0000
vn -0.0000 0.9156 0.4022
vn 0.2282 0.9736 -0.0000
vt 0.157418 0.836195
vt 0.157339 0.836342
vt 0.157339 0.837404
vt 0.157418 0.837260
vt 0.156584 0.836342
vt 0.156584 0.837404
vt 0.156660 0.836195
vt 0.582644 0.750000
vt 0.582644 0.745895
vt 0.585201 0.746312
vt 0.585201 0.749569
vt 0.585201 0.752684
vt 0.582644 0.753104
vt 0.112023 0.836195
vt 0.112100 0.836342
vt 0.582644 0.504105
vt 0.585201 0.503688
vt 0.111265 0.836195
vt 0.111345 0.836342
vt 0.582644 0.500000
vt 0.585201 0.500431
vt 0.585201 0.497316
vt 0.582644 0.496896
vt 0.111345 0.837404
vt 0.111265 0.837260
vt 0.585201 0.252684
vt 0.582644 0.253104
vt 0.111345 0.920786
vt 0.111265 0.920930
vt 0.585201 0.249569
vt 0.582644 0.250000
vt 0.111345 0.921848
vt 0.111265 0.921995
vt 0.582644 0.262314
vt 0.585201 0.261063
vt 0.112023 0.921995
vt 0.112100 0.921848
vt 0.582644 0.987686
vt 0.585201 0.988937
vt 0.156660 0.921995
vt 0.156584 0.921848
vt 0.582644 1.000000
vt 0.585201 1.000431
vt 0.157418 0.921995
vt 0.157339 0.921848
vt 0.157418 0.920930
vt 0.157339 0.920786
vt 0.582644 0.996896
vt 0.585201 0.997316
vt 0.156584 0.920786
vt 0.112100 0.920786
vt 0.156111 0.838289
vt 0.156111 0.919901
vt 0.112572 0.919901
vt 0.112572 0.838289
vt 0.112100 0.837404
vt 0.582644 0.984683
vt 0.582644 0.748897
vt 0.582644 0.265317
vt 0.582644 0.501103
s 0
usemtl mat_Desk_parts
f 4/1/1 1/2/1 2/3/1 6/4/1
f 2/3/2 1/2/2 3/5/2 37/6/2
f 4/1/3 7/7/3 3/5/3 1/2/3
f 5/8/4 8/9/4 7/10/4 4/11/4
f 5/8/5 4/11/5 6/12/5 44/13/5
f 7/7/3 9/14/3 10/15/3 3/5/3
f 8/9/4 11/16/4 9/17/4 7/10/4
f 9/14/3 12/18/3 14/19/3 10/15/3
f 11/16/4 13/20/4 12/21/4 9/17/4
f 15/22/6 12/21/6 13/20/6 16/23/6
f 17/24/7 14/19/7 12/18/7 15/25/7
f 18/26/8 15/22/8 16/23/8 19/27/8
f 20/28/9 17/24/9 15/25/9 18/29/9
f 21/30/6 18/26/6 19/27/6 22/31/6
f 23/32/7 20/28/7 18/29/7 21/33/7
f 25/34/10 24/35/10 21/30/10 22/31/10
f 24/36/11 26/37/11 23/32/11 21/33/11
f 28/38/10 27/39/10 24/35/10 25/34/10
f 27/40/11 29/41/11 26/37/11 24/36/11
f 32/42/10 30/43/10 27/39/10 28/38/10
f 30/44/11 31/45/11 29/41/11 27/40/11
f 33/46/1 35/47/1 31/45/1 30/44/1
f 34/48/5 33/49/5 30/43/5 32/42/5
f 44/13/12 6/12/12 33/49/12 34/48/12
f 6/4/13 2/3/13 35/47/13 33/46/13
f 31/45/2 35/47/2 36/50/2 29/41/2
f 35/47/2 2/3/2 37/6/2 36/50/2
f 29/41/2 36/50/2 38/51/2 26/37/2
f 36/50/14 37/6/14 40/52/14 39/53/14
f 38/51/15 36/50/15 39/53/15 41/54/15
f 39/53/2 40/52/2 42/55/2 41/54/2
f 43/56/16 38/51/16 41/54/16 42/55/16
f 37/6/17 43/56/17 42/55/17 40/52/17
f 37/6/2 3/5/2 10/15/2 43/56/2
f 43/56/2 10/15/2 14/19/2 17/24/2
f 38/51/2 43/56/2 17/24/2 20/28/2
f 26/37/2 38/51/2 20/28/2 23/32/2
f 32/42/18 28/38/18 45/57/18 34/48/18
f 34/48/18 45/57/18 46/58/18 44/13/18
f 28/38/18 25/34/18 47/59/18 45/57/18
f 46/58/19 45/57/19 48/57/19 49/58/19
f 45/57/20 47/59/20 50/59/20 48/57/20
f 48/57/18 50/59/18 51/60/18 49/58/18
f 47/59/21 52/60/21 51/60/21 50/59/21
f 52/60/22 46/58/22 49/58/22 51/60/22
f 46/58/18 52/60/18 11/16/18 8/9/18
f 52/60/18 16/23/18 13/20/18 11/16/18
f 47/59/18 19/27/18 16/23/18 52/60/18
f 25/34/18 22/31/18 19/27/18 47/59/18
f 44/13/18 46/58/18 8/9/18 5/8/18
