# Blender 4.4.0
# www.blender.org
mtllib obj_Sharpener.mtl
o obj_Sharpener
v -0.002835 1.084637 -0.017672
v -0.002454 1.084637 -0.017833
v -0.002792 1.084637 -0.019393
v -0.002844 1.084637 -0.019069
v -0.002470 1.084637 -0.019231
v -0.002833 1.084637 -0.020791
v -0.002859 1.084637 -0.020467
v -0.002495 1.084637 -0.020629
v -0.002883 1.084637 -0.022188
v -0.002883 1.084637 -0.021865
v -0.002540 1.084637 -0.022026
v -0.002833 1.084637 -0.023586
v -0.002807 1.084637 -0.023262
v -0.002470 1.084637 -0.023424
v -0.002818 1.084637 -0.024984
v -0.002766 1.084637 -0.024660
v -0.002445 1.084637 -0.024822
v -0.002793 1.084637 -0.026381
v -0.002724 1.084637 -0.026058
v -0.002414 1.084637 -0.026219
v -0.002774 1.084637 -0.027779
v -0.002698 1.084637 -0.027455
v -0.002393 1.084637 -0.027617
v -0.002847 1.084637 -0.029176
v -0.002772 1.084637 -0.028853
v -0.002466 1.084637 -0.029015
v -0.002870 1.084637 -0.030574
v -0.002802 1.084637 -0.030251
v -0.002492 1.084637 -0.030412
v -0.002971 1.084637 -0.031972
v -0.002917 1.084637 -0.031648
v -0.002597 1.084637 -0.031810
v -0.002440 1.084637 -0.031438
v -0.002558 1.084637 -0.032182
v -0.002157 1.084637 -0.031810
v -0.002322 1.084637 -0.030041
v -0.002470 1.084637 -0.030784
v -0.002058 1.084637 -0.030412
v -0.002288 1.084637 -0.028643
v -0.002454 1.084637 -0.029387
v -0.002033 1.084637 -0.029015
v -0.002217 1.084637 -0.027245
v -0.002384 1.084637 -0.027989
v -0.001965 1.084637 -0.027617
v -0.002246 1.084637 -0.025848
v -0.002397 1.084637 -0.026591
v -0.001985 1.084637 -0.026219
v -0.002296 1.084637 -0.024450
v -0.002411 1.084637 -0.025194
v -0.002015 1.084637 -0.024822
v -0.002352 1.084637 -0.023052
v -0.002408 1.084637 -0.023796
v -0.002040 1.084637 -0.023424
v -0.002445 1.084637 -0.021655
v -0.002445 1.084637 -0.022398
v -0.002102 1.084637 -0.022026
v -0.002433 1.084637 -0.020257
v -0.002377 1.084637 -0.021001
v -0.002064 1.084637 -0.020629
v -0.002436 1.084637 -0.018859
v -0.002321 1.084637 -0.019603
v -0.002039 1.084637 -0.019231
v -0.002438 1.084637 -0.017462
v -0.002286 1.084637 -0.018205
v -0.002024 1.084637 -0.017833
v -0.002413 1.084637 -0.016064
v -0.002246 1.084637 -0.016808
v -0.001993 1.084637 -0.016436
v -0.002410 1.084637 -0.014666
v -0.002245 1.084637 -0.015410
v -0.001991 1.084637 -0.015038
v -0.002364 1.084637 -0.013269
v -0.002217 1.084637 -0.014012
v -0.001956 1.084637 -0.013640
v -0.002209 1.084637 -0.011871
v -0.002096 1.084637 -0.012615
v -0.001824 1.084637 -0.012243
v -0.002363 1.084637 -0.010473
v -0.002292 1.084637 -0.011217
v -0.001993 1.084637 -0.010845
v -0.002292 1.097298 -0.011217
v -0.002363 1.097298 -0.010473
v -0.001993 1.097298 -0.010845
v -0.002096 1.097298 -0.012615
v -0.002209 1.097298 -0.011871
v -0.001824 1.097298 -0.012243
v -0.002217 1.097298 -0.014012
v -0.002364 1.097298 -0.013269
v -0.001956 1.097298 -0.013640
v -0.002245 1.097298 -0.015410
v -0.002410 1.097298 -0.014666
v -0.001991 1.097298 -0.015038
v -0.002246 1.097298 -0.016808
v -0.002413 1.097298 -0.016064
v -0.001993 1.097298 -0.016436
v -0.002286 1.097298 -0.018205
v -0.002438 1.097298 -0.017462
v -0.002024 1.097298 -0.017833
v -0.002321 1.097298 -0.019603
v -0.002436 1.097298 -0.018859
v -0.002039 1.097298 -0.019231
v -0.002377 1.097298 -0.021001
v -0.002433 1.097298 -0.020257
v -0.002064 1.097298 -0.020629
v -0.002445 1.097298 -0.022398
v -0.002445 1.097298 -0.021655
v -0.002102 1.097298 -0.022026
v -0.002408 1.097298 -0.023796
v -0.002352 1.097298 -0.023052
v -0.002040 1.097298 -0.023424
v -0.002411 1.097298 -0.025194
v -0.002296 1.097298 -0.024450
v -0.002015 1.097298 -0.024822
v -0.002397 1.097298 -0.026591
v -0.002246 1.097298 -0.025848
v -0.001985 1.097298 -0.026219
v -0.002384 1.097298 -0.027989
v -0.002217 1.097298 -0.027245
v -0.001965 1.097298 -0.027617
v -0.002454 1.097298 -0.029387
v -0.002288 1.097298 -0.028643
v -0.002033 1.097298 -0.029015
v -0.002470 1.097298 -0.030784
v -0.002322 1.097298 -0.030041
v -0.002058 1.097298 -0.030412
v -0.002558 1.097298 -0.032182
v -0.002440 1.097298 -0.031438
v -0.002157 1.097298 -0.031810
v -0.002766 1.084637 -0.017995
v -0.002422 1.084637 -0.016436
v -0.002804 1.084637 -0.016274
v -0.002728 1.084637 -0.016598
v -0.002422 1.084637 -0.015038
v -0.002802 1.084637 -0.014876
v -0.002727 1.084637 -0.015200
v -0.002385 1.084637 -0.013640
v -0.002758 1.084637 -0.013479
v -0.002691 1.084637 -0.013802
v -0.002247 1.084637 -0.012243
v -0.002606 1.084637 -0.012081
v -0.002555 1.084637 -0.012405
v -0.002425 1.084637 -0.010845
v -0.002780 1.084637 -0.010683
v -0.002748 1.084637 -0.011007
v -0.002425 1.097298 -0.010845
v -0.002748 1.097298 -0.011007
v -0.002780 1.097298 -0.010683
v -0.002247 1.097298 -0.012243
v -0.002555 1.097298 -0.012405
v -0.002606 1.097298 -0.012081
v -0.002385 1.097298 -0.013640
v -0.002691 1.097298 -0.013802
v -0.002758 1.097298 -0.013479
v -0.002422 1.097298 -0.015038
v -0.002727 1.097298 -0.015200
v -0.002802 1.097298 -0.014876
v -0.002422 1.097298 -0.016436
v -0.002728 1.097298 -0.016598
v -0.002804 1.097298 -0.016274
v -0.002454 1.097298 -0.017833
v -0.002766 1.097298 -0.017995
v -0.002835 1.097298 -0.017672
v -0.002470 1.097298 -0.019231
v -0.002792 1.097298 -0.019393
v -0.002844 1.097298 -0.019069
v -0.002495 1.097298 -0.020629
v -0.002833 1.097298 -0.020791
v -0.002859 1.097298 -0.020467
v -0.002540 1.097298 -0.022026
v -0.002883 1.097298 -0.022188
v -0.002883 1.097298 -0.021865
v -0.002470 1.097298 -0.023424
v -0.002833 1.097298 -0.023586
v -0.002807 1.097298 -0.023262
v -0.002445 1.097298 -0.024822
v -0.002818 1.097298 -0.024984
v -0.002766 1.097298 -0.024660
v -0.002414 1.097298 -0.026219
v -0.002793 1.097298 -0.026381
v -0.002724 1.097298 -0.026058
v -0.002393 1.097298 -0.027617
v -0.002774 1.097298 -0.027779
v -0.002698 1.097298 -0.027455
v -0.002466 1.097298 -0.029015
v -0.002847 1.097298 -0.029176
v -0.002772 1.097298 -0.028853
v -0.002492 1.097298 -0.030412
v -0.002870 1.097298 -0.030574
v -0.002802 1.097298 -0.030251
v -0.002597 1.097298 -0.031810
v -0.002971 1.097298 -0.031972
v -0.002917 1.097298 -0.031648
v 0.015819 1.084637 -0.017672
v 0.015438 1.084637 -0.017833
v 0.015800 1.084637 -0.019393
v 0.015852 1.084637 -0.019069
v 0.015478 1.084637 -0.019231
v 0.015841 1.084637 -0.020791
v 0.015867 1.084637 -0.020467
v 0.015503 1.084637 -0.020629
v 0.015882 1.084637 -0.022188
v 0.015882 1.084637 -0.021865
v 0.015539 1.084637 -0.022026
v 0.015831 1.084637 -0.023586
v 0.015805 1.084637 -0.023262
v 0.015468 1.084637 -0.023424
v 0.015816 1.084637 -0.024984
v 0.015764 1.084637 -0.024660
v 0.015443 1.084637 -0.024822
v 0.015791 1.084637 -0.026381
v 0.015722 1.084637 -0.026058
v 0.015412 1.084637 -0.026219
v 0.015772 1.084637 -0.027779
v 0.015696 1.084637 -0.027455
v 0.015392 1.084637 -0.027617
v 0.015846 1.084637 -0.029176
v 0.015770 1.084637 -0.028853
v 0.015464 1.084637 -0.029015
v 0.015879 1.084637 -0.030574
v 0.015811 1.084637 -0.030251
v 0.015501 1.084637 -0.030412
v 0.015980 1.084637 -0.031972
v 0.015926 1.084637 -0.031648
v 0.015606 1.084637 -0.031810
v 0.015449 1.084637 -0.031438
v 0.015567 1.084637 -0.032182
v 0.015166 1.084637 -0.031810
v 0.015330 1.084637 -0.030041
v 0.015479 1.084637 -0.030784
v 0.015066 1.084637 -0.030412
v 0.015286 1.084637 -0.028643
v 0.015452 1.084637 -0.029387
v 0.015032 1.084637 -0.029015
v 0.015215 1.084637 -0.027245
v 0.015382 1.084637 -0.027989
v 0.014963 1.084637 -0.027617
v 0.015245 1.084637 -0.025848
v 0.015396 1.084637 -0.026591
v 0.014983 1.084637 -0.026219
v 0.015295 1.084637 -0.024450
v 0.015409 1.084637 -0.025194
v 0.015014 1.084637 -0.024822
v 0.015350 1.084637 -0.023052
v 0.015407 1.084637 -0.023796
v 0.015038 1.084637 -0.023424
v 0.015444 1.084637 -0.021655
v 0.015444 1.084637 -0.022398
v 0.015101 1.084637 -0.022026
v 0.015441 1.084637 -0.020257
v 0.015385 1.084637 -0.021001
v 0.015072 1.084637 -0.020629
v 0.015444 1.084637 -0.018859
v 0.015329 1.084637 -0.019603
v 0.015047 1.084637 -0.019231
v 0.015422 1.084637 -0.017462
v 0.015270 1.084637 -0.018205
v 0.015008 1.084637 -0.017833
v 0.015397 1.084637 -0.016064
v 0.015230 1.084637 -0.016808
v 0.014977 1.084637 -0.016436
v 0.015418 1.084637 -0.014666
v 0.015253 1.084637 -0.015410
v 0.014999 1.084637 -0.015038
v 0.015372 1.084637 -0.013269
v 0.015225 1.084637 -0.014012
v 0.014964 1.084637 -0.013640
v 0.015217 1.084637 -0.011871
v 0.015104 1.084637 -0.012615
v 0.014832 1.084637 -0.012243
v 0.015371 1.084637 -0.010473
v 0.015300 1.084637 -0.011217
v 0.015001 1.084637 -0.010845
v 0.015300 1.097298 -0.011217
v 0.015371 1.097298 -0.010473
v 0.015001 1.097298 -0.010845
v 0.015104 1.097298 -0.012615
v 0.015217 1.097298 -0.011871
v 0.014832 1.097298 -0.012243
v 0.015225 1.097298 -0.014012
v 0.015372 1.097298 -0.013269
v 0.014964 1.097298 -0.013640
v 0.015253 1.097298 -0.015410
v 0.015418 1.097298 -0.014666
v 0.014999 1.097298 -0.015038
v 0.015230 1.097298 -0.016808
v 0.015397 1.097298 -0.016064
v 0.014977 1.097298 -0.016436
v 0.015270 1.097298 -0.018205
v 0.015422 1.097298 -0.017462
v 0.015008 1.097298 -0.017833
v 0.015329 1.097298 -0.019603
v 0.015444 1.097298 -0.018859
v 0.015047 1.097298 -0.019231
v 0.015385 1.097298 -0.021001
v 0.015441 1.097298 -0.020257
v 0.015072 1.097298 -0.020629
v 0.015444 1.097298 -0.022398
v 0.015444 1.097298 -0.021655
v 0.015101 1.097298 -0.022026
v 0.015407 1.097298 -0.023796
v 0.015350 1.097298 -0.023052
v 0.015038 1.097298 -0.023424
v 0.015409 1.097298 -0.025194
v 0.015295 1.097298 -0.024450
v 0.015014 1.097298 -0.024822
v 0.015396 1.097298 -0.026591
v 0.015245 1.097298 -0.025848
v 0.014983 1.097298 -0.026219
v 0.015382 1.097298 -0.027989
v 0.015215 1.097298 -0.027245
v 0.014963 1.097298 -0.027617
v 0.015452 1.097298 -0.029387
v 0.015286 1.097298 -0.028643
v 0.015032 1.097298 -0.029015
v 0.015479 1.097298 -0.030784
v 0.015330 1.097298 -0.030041
v 0.015066 1.097298 -0.030412
v 0.015567 1.097298 -0.032182
v 0.015449 1.097298 -0.031438
v 0.015166 1.097298 -0.031810
v 0.015750 1.084637 -0.017995
v 0.015406 1.084637 -0.016436
v 0.015788 1.084637 -0.016274
v 0.015712 1.084637 -0.016598
v 0.015430 1.084637 -0.015038
v 0.015810 1.084637 -0.014876
v 0.015735 1.084637 -0.015200
v 0.015393 1.084637 -0.013640
v 0.015766 1.084637 -0.013479
v 0.015699 1.084637 -0.013802
v 0.015255 1.084637 -0.012243
v 0.015614 1.084637 -0.012081
v 0.015563 1.084637 -0.012405
v 0.015433 1.084637 -0.010845
v 0.015788 1.084637 -0.010683
v 0.015756 1.084637 -0.011007
v 0.015433 1.097298 -0.010845
v 0.015756 1.097298 -0.011007
v 0.015788 1.097298 -0.010683
v 0.015255 1.097298 -0.012243
v 0.015563 1.097298 -0.012405
v 0.015614 1.097298 -0.012081
v 0.015393 1.097298 -0.013640
v 0.015699 1.097298 -0.013802
v 0.015766 1.097298 -0.013479
v 0.015430 1.097298 -0.015038
v 0.015735 1.097298 -0.015200
v 0.015810 1.097298 -0.014876
v 0.015406 1.097298 -0.016436
v 0.015712 1.097298 -0.016598
v 0.015788 1.097298 -0.016274
v 0.015438 1.097298 -0.017833
v 0.015750 1.097298 -0.017995
v 0.015819 1.097298 -0.017672
v 0.015478 1.097298 -0.019231
v 0.015800 1.097298 -0.019393
v 0.015852 1.097298 -0.019069
v 0.015503 1.097298 -0.020629
v 0.015841 1.097298 -0.020791
v 0.015867 1.097298 -0.020467
v 0.015539 1.097298 -0.022026
v 0.015882 1.097298 -0.022188
v 0.015882 1.097298 -0.021865
v 0.015468 1.097298 -0.023424
v 0.015831 1.097298 -0.023586
v 0.015805 1.097298 -0.023262
v 0.015443 1.097298 -0.024822
v 0.015816 1.097298 -0.024984
v 0.015764 1.097298 -0.024660
v 0.015412 1.097298 -0.026219
v 0.015791 1.097298 -0.026381
v 0.015722 1.097298 -0.026058
v 0.015392 1.097298 -0.027617
v 0.015772 1.097298 -0.027779
v 0.015696 1.097298 -0.027455
v 0.015464 1.097298 -0.029015
v 0.015846 1.097298 -0.029176
v 0.015770 1.097298 -0.028853
v 0.015501 1.097298 -0.030412
v 0.015879 1.097298 -0.030574
v 0.015811 1.097298 -0.030251
v 0.015606 1.097298 -0.031810
v 0.015980 1.097298 -0.031972
v 0.015926 1.097298 -0.031648
v 0.013693 1.097298 -0.007871
v 0.013414 1.097298 -0.022026
v 0.013414 1.097298 -0.023424
v 0.013613 1.097298 -0.032874
v 0.003996 1.090779 -0.037794
v 0.004530 1.089434 -0.037794
v 0.004530 1.092123 -0.037794
v 0.005819 1.092680 -0.037794
v 0.007109 1.092123 -0.037794
v 0.005819 1.088877 -0.037794
v 0.007109 1.089434 -0.037794
v 0.007642 1.090779 -0.037794
v 0.008689 1.087785 -0.002007
v 0.002950 1.087785 -0.002007
v 0.002950 1.093773 -0.002007
v 0.008689 1.093773 -0.002007
v 0.009878 1.090779 -0.002007
v 0.005819 1.095013 -0.002007
v 0.005819 1.086545 -0.002007
v 0.001761 1.090779 -0.002007
v 0.005819 1.086537 -0.001892
v 0.005819 1.086382 -0.001738
v 0.005819 1.086487 -0.001783
v 0.008800 1.087669 -0.001738
v 0.008694 1.087779 -0.001892
v 0.008728 1.087744 -0.001783
v 0.010034 1.090779 -0.001738
v 0.009885 1.090779 -0.001892
v 0.009933 1.090779 -0.001783
v 0.001754 1.090779 -0.001892
v 0.001605 1.090779 -0.001738
v 0.001706 1.090779 -0.001783
v 0.002945 1.087779 -0.001892
v 0.002831 1.087678 -0.001738
v 0.002908 1.087747 -0.001783
v 0.002945 1.093778 -0.001892
v 0.002837 1.093885 -0.001738
v 0.002910 1.093812 -0.001783
v 0.005819 1.095176 -0.001738
v 0.005819 1.095020 -0.001892
v 0.005819 1.095070 -0.001783
v 0.008800 1.093888 -0.001738
v 0.008694 1.093778 -0.001892
v 0.008728 1.093813 -0.001783
v 0.006697 1.096372 -0.033404
v 0.006689 1.096372 -0.030274
v 0.006697 1.096372 -0.005300
v -0.002412 1.096963 -0.009447
v -0.002363 1.097298 -0.010473
v -0.002398 1.097200 -0.009748
v 0.015371 1.097298 -0.010473
v 0.015420 1.096963 -0.009447
v 0.015406 1.097200 -0.009748
v -0.001343 1.097298 -0.004200
v -0.001624 1.096963 -0.004133
v -0.001541 1.097200 -0.004153
v 0.000992 1.097298 -0.002073
v 0.000950 1.096963 -0.001738
v 0.000962 1.097200 -0.001836
v 0.000060 1.097298 -0.002484
v -0.000120 1.096963 -0.002227
v -0.000067 1.097200 -0.002302
v 0.012016 1.097298 -0.002073
v 0.012058 1.096963 -0.001738
v 0.012046 1.097200 -0.001836
v 0.014351 1.097298 -0.004200
v 0.014632 1.096963 -0.004133
v 0.014549 1.097200 -0.004153
v 0.012948 1.097298 -0.002484
v 0.013128 1.096963 -0.002227
v 0.013075 1.097200 -0.002302
v -0.002558 1.097298 -0.032182
v -0.002526 1.096993 -0.033208
v -0.002489 1.097209 -0.032907
v 0.015534 1.096993 -0.033208
v 0.015567 1.097298 -0.032182
v 0.015497 1.097209 -0.032907
v 0.000495 1.097298 -0.039145
v 0.000453 1.096993 -0.039455
v 0.000465 1.097209 -0.039361
v -0.001658 1.097298 -0.035983
v -0.001924 1.096993 -0.035832
v -0.001846 1.097209 -0.036023
v -0.000989 1.097298 -0.037520
v -0.001181 1.096993 -0.037545
v -0.001125 1.097209 -0.037684
v 0.014666 1.097298 -0.035983
v 0.014932 1.096993 -0.035832
v 0.014854 1.097209 -0.036023
v 0.012513 1.097298 -0.039145
v 0.012555 1.096993 -0.039455
v 0.012543 1.097209 -0.039361
v 0.013997 1.097298 -0.037520
v 0.014189 1.096993 -0.037545
v 0.014133 1.097209 -0.037684
v -0.002363 1.084637 -0.010473
v -0.002412 1.084934 -0.009447
v -0.002398 1.084724 -0.009748
v 0.015420 1.084934 -0.009447
v 0.015371 1.084637 -0.010473
v 0.015406 1.084724 -0.009748
v 0.000987 1.084637 -0.002036
v 0.000950 1.084934 -0.001738
v 0.000961 1.084724 -0.001825
v -0.001374 1.084637 -0.004192
v -0.001624 1.084934 -0.004133
v -0.001551 1.084724 -0.004151
v 0.000040 1.084637 -0.002455
v -0.000120 1.084934 -0.002227
v -0.000073 1.084724 -0.002294
v 0.014382 1.084637 -0.004192
v 0.014632 1.084934 -0.004133
v 0.014559 1.084724 -0.004151
v 0.012058 1.084934 -0.001738
v 0.012021 1.084637 -0.002036
v 0.012048 1.084724 -0.001825
v 0.013128 1.084934 -0.002227
v 0.012968 1.084637 -0.002455
v 0.013081 1.084724 -0.002294
v -0.002526 1.084934 -0.033208
v -0.002558 1.084637 -0.032182
v -0.002489 1.084724 -0.032907
v 0.015567 1.084637 -0.032182
v 0.015534 1.084934 -0.033208
v 0.015497 1.084724 -0.032907
v -0.001924 1.084934 -0.035832
v -0.001665 1.084637 -0.035569
v -0.001848 1.084724 -0.035608
v 0.000453 1.084934 -0.039455
v 0.000494 1.084637 -0.037551
v 0.000465 1.084724 -0.037761
v -0.000994 1.084637 -0.037110
v -0.001181 1.084934 -0.037545
v -0.001126 1.084724 -0.037270
v 0.012514 1.084637 -0.037551
v 0.012555 1.084934 -0.039455
v 0.012543 1.084724 -0.037761
v 0.014673 1.084637 -0.035569
v 0.014932 1.084934 -0.035832
v 0.014856 1.084724 -0.035608
v 0.014002 1.084637 -0.037110
v 0.014189 1.084934 -0.037545
v 0.014134 1.084724 -0.037270
v 0.006697 1.097298 -0.033404
v 0.006697 1.097064 -0.033404
v 0.006697 1.097181 -0.033404
v 0.006465 1.097298 -0.030274
v 0.006689 1.097064 -0.030274
v 0.006623 1.097229 -0.030274
v 0.006697 1.097064 -0.005300
v 0.006697 1.097298 -0.005043
v 0.006697 1.097181 -0.005300
v 0.006697 1.096718 -0.005300
v 0.006697 1.097240 -0.005300
v 0.006697 1.097122 -0.005300
v 0.011926 1.097298 -0.005229
v 0.006697 1.096718 -0.033404
v 0.006697 1.097240 -0.033404
v 0.006697 1.097122 -0.033404
v 0.012595 1.097298 -0.033377
v 0.012791 1.097298 -0.006138
v 0.013055 1.097298 -0.033391
v 0.008647 1.097189 -0.004508
v 0.008647 1.097189 -0.033394
v 0.006780 1.095834 -0.004508
v 0.006780 1.095834 -0.033394
v 0.008766 1.096621 -0.004508
v 0.008766 1.096621 -0.033394
v 0.006817 1.095750 -0.004508
v 0.006817 1.095750 -0.033394
v 0.013583 1.096498 -0.007976
v 0.011359 1.097189 -0.004771
v 0.013745 1.096498 -0.032703
v 0.011226 1.097189 -0.033394
v 0.013583 1.097299 -0.007976
v 0.011359 1.096611 -0.004771
v 0.013745 1.097299 -0.032703
v 0.011226 1.096611 -0.033394
v 0.012620 1.096844 -0.005972
v 0.012620 1.096955 -0.005972
v 0.013583 1.096899 -0.007976
v 0.011359 1.096900 -0.004771
v 0.012620 1.096899 -0.005972
v 0.013112 1.096844 -0.033407
v 0.013112 1.096955 -0.033407
v 0.011226 1.096900 -0.033394
v 0.013745 1.096899 -0.032703
v 0.013112 1.096899 -0.033407
v 0.008313 1.098207 -0.017175
v 0.008366 1.098207 -0.017060
v 0.008346 1.098207 -0.017184
v 0.008359 1.098207 -0.016994
v 0.008364 1.098207 -0.016935
v 0.007879 1.098207 -0.016872
v 0.008297 1.098207 -0.016696
v 0.008001 1.098207 -0.016391
v 0.007819 1.098207 -0.016345
v 0.007833 1.097349 -0.017053
v 0.007879 1.097349 -0.016872
v 0.007697 1.097349 -0.016825
v 0.007483 1.098207 -0.017669
v 0.007664 1.098207 -0.017716
v 0.007723 1.098207 -0.017721
v 0.007786 1.098207 -0.017235
v 0.007845 1.098207 -0.017698
v 0.008070 1.098207 -0.017589
v 0.008244 1.098207 -0.017411
v 0.008267 1.098207 -0.017357
v 0.008305 1.098207 -0.017302
v 0.007605 1.097349 -0.017189
v 0.007786 1.097349 -0.017235
v 0.006989 1.098207 -0.016839
v 0.006942 1.098207 -0.017021
v 0.006937 1.098207 -0.017079
v 0.007423 1.098207 -0.017143
v 0.007247 1.098207 -0.017600
v 0.007301 1.098207 -0.017623
v 0.007469 1.097349 -0.016961
v 0.007423 1.097349 -0.017143
v 0.007704 1.098207 -0.016292
v 0.007637 1.098207 -0.016299
v 0.007515 1.098207 -0.016779
v 0.007035 1.098207 -0.016657
v 0.007515 1.097349 -0.016779
v 0.007947 1.098207 -0.016350
v 0.008353 1.097917 -0.015449
v 0.008426 1.097813 -0.015285
v 0.008510 1.097459 -0.015099
v 0.008481 1.097057 -0.015164
v 0.008057 1.098207 -0.016411
v 0.008450 1.098040 -0.015833
v 0.008154 1.098207 -0.016491
v 0.008843 1.097917 -0.015783
v 0.009352 1.097813 -0.016187
v 0.009536 1.097459 -0.016098
v 0.009472 1.097057 -0.016129
v 0.009351 1.097917 -0.016836
v 0.009068 1.098040 -0.017113
v 0.009308 1.097917 -0.017428
v 0.009482 1.097813 -0.017472
v 0.009679 1.097459 -0.017522
v 0.009611 1.097057 -0.017505
v 0.008946 1.098040 -0.017591
v 0.009064 1.097917 -0.017969
v 0.008582 1.097023 -0.017641
v 0.008754 1.097813 -0.018540
v 0.008874 1.097459 -0.018706
v 0.008832 1.097057 -0.018648
v 0.008115 1.097917 -0.018652
v 0.008219 1.097252 -0.019022
v 0.007793 1.098040 -0.018421
v 0.007597 1.098207 -0.017727
v 0.007524 1.097917 -0.018712
v 0.007511 1.097813 -0.018891
v 0.007496 1.097459 -0.019095
v 0.007501 1.097057 -0.019024
v 0.007354 1.098207 -0.017665
v 0.006949 1.097917 -0.018566
v 0.006820 1.097654 -0.018851
v 0.007188 1.097023 -0.018034
v 0.006851 1.098040 -0.018182
v 0.007147 1.098207 -0.017524
v 0.006458 1.097917 -0.018232
v 0.006333 1.097813 -0.018360
v 0.006190 1.097459 -0.018507
v 0.006240 1.097057 -0.018456
v 0.006058 1.097023 -0.018154
v 0.006111 1.097917 -0.017750
v 0.005765 1.097252 -0.017917
v 0.005950 1.097917 -0.017179
v 0.005771 1.097813 -0.017197
v 0.005568 1.097459 -0.017217
v 0.005639 1.097057 -0.017210
v 0.006931 1.098207 -0.016954
v 0.006234 1.098040 -0.016902
v 0.006952 1.098207 -0.016830
v 0.005994 1.097917 -0.016587
v 0.006559 1.097023 -0.016730
v 0.006993 1.098207 -0.016711
v 0.006355 1.098040 -0.016424
v 0.007054 1.098207 -0.016601
v 0.006238 1.097917 -0.016045
v 0.006089 1.097813 -0.015944
v 0.005921 1.097459 -0.015829
v 0.005979 1.097057 -0.015869
v 0.006652 1.097917 -0.015620
v 0.007455 1.098207 -0.016313
v 0.007187 1.097917 -0.015362
v 0.007138 1.097813 -0.015189
v 0.007082 1.097459 -0.014993
v 0.007102 1.097057 -0.015061
v 0.007578 1.098207 -0.016290
v 0.007508 1.098040 -0.015594
v 0.007777 1.097917 -0.015303
v 0.007734 1.097023 -0.015884
vn 0.4184 -0.0000 -0.9083
vn -0.4184 -0.0000 -0.9083
vn -0.0000 1.0000 -0.0000
vn -0.0001 1.0000 -0.0000
vn -0.2129 -0.0000 0.9771
vn -0.4161 -0.0000 0.9093
vn -0.9174 -0.0000 -0.3981
vn -0.9501 -0.0000 -0.3121
vn 1.0000 -0.0000 0.0026
vn 1.0000 -0.0000 0.0011
vn -0.9989 -0.0000 -0.0459
vn -0.9802 -0.0000 -0.1982
vn -0.9894 -0.0000 -0.1453
vn -0.9641 -0.0000 -0.2656
vn -0.9697 -0.0000 -0.2443
vn -0.9857 -0.0000 -0.1688
vn -0.9900 -0.0000 -0.1413
vn -0.9945 -0.0000 0.1047
vn -0.9856 -0.0000 0.1693
vn -0.9748 -0.0000 0.2230
vn -0.9595 -0.0000 0.2818
vn -0.9686 -0.0000 0.2488
vn -0.9589 -0.0000 0.2837
vn -0.9256 -0.0000 0.3786
vn -0.9921 -0.0000 -0.1254
vn -0.0002 -1.0000 -0.0000
vn -0.0001 -1.0000 -0.0000
vn -0.0000 -1.0000 -0.0000
vn 0.0001 1.0000 -0.0000
vn -0.4427 -0.0000 0.8967
vn -0.4181 -0.0000 -0.9084
vn -0.4576 -0.0000 0.8892
vn -0.4073 -0.0000 -0.9133
vn -0.4679 -0.0000 0.8838
vn -0.4014 -0.0000 -0.9159
vn -0.4735 -0.0000 0.8808
vn -0.3997 -0.0000 -0.9167
vn -0.4727 -0.0000 0.8812
vn -0.3998 -0.0000 -0.9166
vn -0.4699 -0.0000 0.8827
vn -0.4030 -0.0000 0.9152
vn -0.4047 -0.0000 -0.9144
vn -0.4536 -0.0000 -0.8912
vn -0.4678 -0.0000 0.8838
vn -0.4007 -0.0000 0.9162
vn 0.0001 -1.0000 -0.0000
vn 0.0002 1.0000 -0.0000
vn -0.9951 -0.0000 -0.0990
vn -0.9875 -0.0000 -0.1574
vn -0.9793 -0.0000 -0.2024
vn -0.9740 -0.0000 -0.2266
vn -0.9734 -0.0000 -0.2290
vn -0.9780 -0.0000 -0.2085
vn -0.9871 -0.0000 -0.1598
vn -0.9969 -0.0000 -0.0791
vn -1.0000 -0.0000 -0.0000
vn -0.9969 -0.0000 0.0788
vn -0.9872 -0.0000 0.1593
vn -0.9782 -0.0000 0.2077
vn -0.9736 -0.0000 0.2284
vn -0.9738 -0.0000 0.2275
vn -0.9788 -0.0000 0.2047
vn -0.9865 -0.0000 0.1636
vn -0.4325 -0.0000 -0.9016
vn -0.4325 -0.0000 0.9016
vn -0.4438 -0.0000 -0.8961
vn -0.4192 -0.0000 0.9079
vn -0.4588 -0.0000 -0.8886
vn -0.4085 -0.0000 0.9128
vn -0.4692 -0.0000 -0.8831
vn -0.4027 -0.0000 0.9153
vn -0.4744 -0.0000 -0.8803
vn -0.4005 -0.0000 0.9163
vn -0.4711 -0.0000 -0.8821
vn -0.4187 -0.0000 -0.9081
vn -0.3983 -0.0000 0.9172
vn -0.4499 -0.0000 0.8931
vn -0.4655 -0.0000 -0.8851
vn -0.4164 -0.0000 -0.9092
vn -0.9988 -0.0000 -0.0480
vn -0.9982 -0.0593 -0.0114
vn -0.9893 -0.1231 0.0779
vn -0.9904 0.1150 0.0767
vn -0.9981 0.0614 -0.0081
vn 0.9180 -0.0000 0.3965
vn 0.7850 -0.0000 0.6195
vn 0.9994 -0.0000 -0.0334
vn 0.9923 -0.1022 -0.0698
vn 0.9688 -0.1954 -0.1524
vn 0.9814 0.1192 -0.1502
vn 0.9956 0.0630 -0.0694
vn 0.9989 -0.0000 -0.0459
vn 0.9831 -0.0000 -0.1829
vn 0.9894 -0.0000 -0.1453
vn 0.9641 -0.0000 -0.2656
vn 0.9697 -0.0000 -0.2443
vn 0.9857 -0.0000 -0.1688
vn 0.9900 -0.0000 -0.1413
vn 0.9960 -0.0000 0.0899
vn 0.9856 -0.0000 0.1693
vn 0.9665 -0.0000 0.2568
vn 0.9595 -0.0000 0.2818
vn 0.9767 -0.0000 0.2148
vn 0.9589 -0.0000 0.2837
vn 0.9256 -0.0000 0.3786
vn 0.9921 -0.0000 -0.1254
vn 0.0002 -1.0000 -0.0000
vn 0.4427 -0.0000 0.8967
vn 0.4181 -0.0000 -0.9084
vn 0.4576 -0.0000 0.8892
vn 0.4073 -0.0000 -0.9133
vn 0.4679 -0.0000 0.8838
vn 0.4014 -0.0000 -0.9159
vn 0.4735 -0.0000 0.8808
vn 0.3997 -0.0000 -0.9167
vn 0.4727 -0.0000 0.8812
vn 0.3998 -0.0000 -0.9166
vn 0.4699 -0.0000 0.8827
vn 0.4030 -0.0000 0.9152
vn 0.4047 -0.0000 -0.9144
vn 0.4536 -0.0000 -0.8912
vn 0.4678 -0.0000 0.8838
vn 0.4007 -0.0000 0.9162
vn -0.0002 1.0000 -0.0000
vn 0.9951 -0.0000 -0.0990
vn 0.9875 -0.0000 -0.1574
vn 0.9793 -0.0000 -0.2024
vn 0.9740 -0.0000 -0.2266
vn 0.9734 -0.0000 -0.2289
vn 0.9780 -0.0000 -0.2085
vn 0.9871 -0.0000 -0.1598
vn 0.9969 -0.0000 -0.0791
vn 1.0000 -0.0000 -0.0000
vn 0.9969 -0.0000 0.0788
vn 0.9872 -0.0000 0.1593
vn 0.9782 -0.0000 0.2077
vn 0.9736 -0.0000 0.2284
vn 0.9738 -0.0000 0.2275
vn 0.9788 -0.0000 0.2047
vn 0.9865 -0.0000 0.1636
vn 0.4325 -0.0000 -0.9016
vn 0.4325 -0.0000 0.9016
vn 0.4439 -0.0000 -0.8961
vn 0.4192 -0.0000 0.9079
vn 0.4588 -0.0000 -0.8886
vn 0.4085 -0.0000 0.9128
vn 0.4692 -0.0000 -0.8831
vn 0.4027 -0.0000 0.9153
vn 0.4744 -0.0000 -0.8803
vn 0.4005 -0.0000 0.9163
vn 0.4711 -0.0000 -0.8821
vn 0.4187 -0.0000 -0.9081
vn 0.3983 -0.0000 0.9172
vn 0.4499 -0.0000 0.8931
vn 0.4655 -0.0000 -0.8851
vn 0.4164 -0.0000 -0.9092
vn 0.9501 -0.0000 -0.3121
vn 0.9893 -0.1231 0.0779
vn 0.9904 0.1150 0.0767
vn -0.0000 -0.0000 1.0000
vn -0.7850 -0.0000 0.6195
vn -0.9180 -0.0000 0.3965
vn 0.7600 -0.0000 -0.6499
vn 0.4161 -0.0000 0.9093
vn 0.2129 -0.0000 0.9771
vn 0.9174 -0.0000 -0.3981
vn 0.9982 -0.0593 -0.0114
vn 0.9988 -0.0000 -0.0480
vn 0.9981 0.0614 -0.0081
vn 0.7270 0.6849 0.0491
vn 0.9988 -0.0000 0.0486
vn 0.9980 -0.0000 0.0632
vn 0.7265 0.6841 0.0646
vn -0.7270 -0.6849 0.0490
vn -0.9988 -0.0000 0.0486
vn -0.9980 -0.0000 0.0632
vn -0.7266 -0.6841 0.0643
vn -0.0000 -0.9978 0.0657
vn 0.0001 -0.9988 0.0493
vn -0.7270 0.6848 0.0492
vn -0.7266 0.6840 0.0646
vn -0.0000 0.9988 0.0496
vn -0.0000 0.9978 0.0662
vn 0.7255 0.6842 0.0735
vn 0.9984 -0.0000 0.0569
vn -0.0000 -0.3928 0.9196
vn 0.0001 -0.3930 0.9195
vn -0.2877 -0.2775 0.9166
vn -0.2924 -0.2738 0.9162
vn -0.0000 0.9971 0.0757
vn -0.7255 0.6843 0.0735
vn -0.7255 -0.6843 0.0735
vn -0.0000 -0.9971 0.0756
vn -0.9974 -0.0000 0.0717
vn 0.7270 -0.6849 0.0490
vn 0.7266 -0.6841 0.0644
vn 0.7255 -0.6843 0.0735
vn -0.9161 -0.0000 0.4009
vn -0.6661 -0.6247 0.4075
vn -0.6619 -0.6289 0.4079
vn -0.4069 -0.0000 0.9135
vn -0.6661 0.6248 0.4073
vn -0.6620 0.6290 0.4077
vn -0.2924 0.2737 0.9163
vn -0.2876 0.2776 0.9167
vn -0.0000 0.3928 0.9196
vn 0.2864 0.2794 0.9165
vn 0.2930 0.2725 0.9165
vn -0.0000 -0.9097 0.4154
vn -0.0000 -0.9096 0.4154
vn 0.6665 -0.6244 0.4074
vn 0.6612 -0.6297 0.4077
vn 0.6669 0.6237 0.4077
vn -0.0001 0.9096 0.4154
vn -0.0001 0.9096 0.4155
vn 0.6609 0.6299 0.4078
vn 0.9161 -0.0000 0.4010
vn 0.2926 -0.2734 0.9163
vn 0.4069 -0.0001 0.9135
vn 0.2872 -0.2780 0.9166
vn 1.0000 -0.0000 -0.0003
vn -0.7600 -0.0000 -0.6499
vn -0.8741 0.3177 0.3676
vn -0.8663 0.3191 0.3844
vn -0.4821 0.8728 0.0762
vn -0.4251 0.8897 0.1664
vn -0.4103 0.8923 0.1882
vn 0.1925 0.3805 0.9045
vn 0.3862 0.3630 0.8480
vn 0.2009 0.3800 0.9029
vn 0.0778 0.9229 0.3771
vn 0.2533 0.9107 0.3263
vn 0.2581 0.9102 0.3239
vn 0.0862 0.9225 0.3763
vn 0.4103 0.8923 0.1882
vn 0.4251 0.8897 0.1664
vn 0.8663 0.3191 0.3844
vn 0.7403 0.3279 0.5869
vn 0.8741 0.3177 0.3676
vn -0.7403 0.3279 0.5869
vn -0.2532 0.9107 0.3263
vn -0.2581 0.9102 0.3239
vn 0.4821 0.8728 0.0762
vn -0.0862 0.9225 0.3763
vn -0.0777 0.9229 0.3771
vn -0.2009 0.3800 0.9029
vn -0.3862 0.3629 0.8480
vn -0.1925 0.3805 0.9045
vn -0.9689 -0.1954 -0.1522
vn -0.9815 0.1192 -0.1500
vn 0.9414 0.2191 -0.2563
vn 0.9171 -0.0199 -0.3981
vn 0.9339 0.0639 -0.3518
vn 0.4619 0.8754 -0.1423
vn 0.3451 0.9067 -0.2424
vn 0.3593 0.9066 -0.2211
vn 0.4540 0.8790 -0.1456
vn -0.3789 0.2626 -0.8874
vn -0.7431 0.0474 -0.6675
vn -0.4356 0.2358 -0.8687
vn -0.1257 0.9281 -0.3506
vn -0.3451 0.9067 -0.2424
vn -0.3593 0.9066 -0.2211
vn -0.1786 0.9251 -0.3350
vn 0.1786 0.9251 -0.3350
vn 0.1257 0.9281 -0.3506
vn 0.4356 0.2358 -0.8687
vn 0.3789 0.2626 -0.8874
vn -0.5213 0.8454 -0.1163
vn -0.4539 0.8791 -0.1454
vn -0.4618 0.8755 -0.1421
vn -0.9956 0.0630 -0.0689
vn -0.9339 0.0639 -0.3517
vn -0.9414 0.2191 -0.2562
vn -0.9172 -0.0199 -0.3980
vn 0.5215 0.8452 -0.1166
vn 0.7430 0.0474 -0.6677
vn -0.9995 -0.0000 -0.0327
vn -0.9923 -0.1022 -0.0692
vn -0.4653 -0.8822 0.0720
vn -0.4022 -0.8965 0.1856
vn -0.4151 -0.8949 0.1636
vn -0.8642 -0.3256 0.3835
vn -0.8719 -0.3247 0.3667
vn 0.8719 -0.3247 0.3667
vn 0.7404 -0.3279 0.5868
vn 0.8642 -0.3256 0.3835
vn 0.4154 -0.8948 0.1636
vn 0.2531 -0.9110 0.3256
vn 0.2580 -0.9105 0.3232
vn 0.4025 -0.8964 0.1856
vn 0.0863 -0.9227 0.3757
vn 0.0778 -0.9231 0.3765
vn 0.2010 -0.3800 0.9029
vn 0.3863 -0.3629 0.8480
vn 0.1925 -0.3805 0.9045
vn -0.2578 -0.9106 0.3232
vn -0.2529 -0.9111 0.3256
vn -0.7404 -0.3279 0.5868
vn 0.4656 -0.8821 0.0719
vn -0.1925 -0.3805 0.9045
vn -0.3863 -0.3629 0.8480
vn -0.2010 -0.3800 0.9029
vn -0.0777 -0.9231 0.3765
vn -0.0862 -0.9227 0.3757
vn 0.4897 -0.8631 -0.1235
vn 0.4378 -0.8867 -0.1486
vn 0.4446 -0.8838 -0.1454
vn 0.8219 -0.5182 -0.2366
vn 0.7711 -0.5695 -0.2847
vn -0.7711 -0.5695 -0.2847
vn -0.8219 -0.5182 -0.2366
vn -0.4890 -0.8635 -0.1232
vn -0.4442 -0.8841 -0.1453
vn -0.4374 -0.8869 -0.1485
vn -0.0579 -0.9223 -0.3822
vn -0.2593 -0.9249 -0.2781
vn -0.2529 -0.9252 -0.2829
vn -0.0572 -0.9223 -0.3822
vn -0.0816 -0.9827 -0.1664
vn -0.1503 -0.9678 -0.2018
vn -0.0477 -0.9877 -0.1486
vn 0.2593 -0.9249 -0.2781
vn 0.2529 -0.9252 -0.2829
vn 0.7314 -0.6035 -0.3176
vn 0.0477 -0.9877 -0.1486
vn 0.1503 -0.9678 -0.2018
vn 0.0817 -0.9827 -0.1664
vn 0.0572 -0.9223 -0.3822
vn 0.0579 -0.9223 -0.3822
vn -0.7314 -0.6035 -0.3176
vn 0.7609 0.6481 0.0322
vn 0.7592 0.6508 0.0137
vn 0.8913 0.4533 0.0098
vn 0.8939 0.4477 0.0221
vn 0.9741 0.2261 0.0048
vn 0.9740 0.2261 0.0110
vn 0.7572 0.6531 -0.0040
vn 0.8918 0.4525 -0.0028
vn 0.9741 0.2260 -0.0014
vn -1.0000 -0.0000 -0.0065
vn -0.5873 0.8094 -0.0000
vn 0.4082 -0.9129 -0.0000
vn -0.0000 -0.0000 -1.0000
vn -0.0042 -1.0000 -0.0000
vn -0.9153 -0.4028 -0.0000
vn 0.0535 0.0056 0.9985
vn 0.0493 0.0051 0.9988
vn -0.1980 0.9540 -0.2252
vn -0.1074 0.9337 0.3416
vn -0.3374 0.9404 -0.0424
vn 0.2040 0.7216 -0.6616
vn 0.6783 0.4595 0.5734
vn 0.0622 0.9935 0.0949
vn -0.1082 -0.9335 0.3417
vn -0.1987 -0.9538 -0.2251
vn 0.0615 -0.9935 0.0954
vn 0.6778 -0.4595 0.5739
vn 0.2035 -0.7216 -0.6618
vn -0.3377 -0.9403 -0.0428
vn -0.5882 -0.0000 0.8087
vn 0.6898 -0.0000 0.7240
vn -0.9148 -0.0000 -0.4040
vn -0.7438 -0.0000 0.6684
vn 0.0986 0.0103 0.9951
vn -0.9013 -0.0000 -0.4332
vn -0.0071 -0.0000 -1.0000
vn -0.4847 0.8660 0.1231
vn 0.1216 0.9925 -0.0091
vn 0.1247 0.9917 -0.0316
vn -0.2738 0.9545 -0.1181
vn 0.1408 0.9896 0.0306
vn -0.7016 0.5774 -0.4175
vn 0.5927 0.8006 0.0885
vn 0.1483 0.9864 0.0705
vn 0.4381 0.8006 0.4088
vn 0.6317 0.7128 0.3047
vn 0.4846 0.8661 -0.1231
vn 0.3304 0.7627 -0.5559
vn -0.1231 0.8660 -0.4846
vn 0.0694 0.9923 0.1024
vn 0.1134 0.9894 0.0910
vn -0.2346 0.9545 -0.1842
vn 0.0438 0.9894 0.1383
vn -0.1237 0.8660 -0.4846
vn 0.0281 0.9897 0.1402
vn 0.0600 0.7968 0.6012
vn 0.1592 0.9069 0.3901
vn -0.4846 0.8660 0.1231
vn -0.5559 0.7626 -0.3307
vn 0.1232 0.8660 0.4846
vn -0.0458 0.9894 -0.1375
vn -0.0254 0.9894 -0.1427
vn -0.0458 0.9068 -0.4190
vn -0.1876 0.8716 -0.4529
vn 0.1231 0.8660 0.4846
vn -0.1177 0.9546 0.2737
vn 0.0140 0.9925 -0.1212
vn -0.4175 0.5773 0.7017
vn 0.0544 0.9896 -0.1332
vn -0.7468 0.6608 -0.0752
vn -0.9795 0.1952 -0.0497
vn -0.8157 0.1621 0.5553
vn -0.6205 0.6608 0.4223
vn -0.1844 0.9545 0.2343
vn 0.1087 0.9896 -0.0940
vn 0.1123 0.9924 -0.0506
vn -0.3307 0.7627 0.5559
vn 0.4847 0.8660 -0.1231
vn -0.1238 0.9923 0.0072
vn -0.1252 0.9916 0.0318
vn 0.2738 0.9545 0.1181
vn -0.1544 0.9868 -0.0487
vn 0.6765 0.6105 0.4118
vn -0.4136 -0.8841 -0.2176
vn -0.0015 -0.9998 -0.0221
vn -0.0199 -0.9997 0.0108
vn -0.0678 0.9927 -0.0999
vn -0.1359 0.9862 -0.0941
vn 0.2344 0.9545 0.1842
vn 0.5559 0.7626 0.3307
vn 0.8888 0.1621 0.4287
vn 0.6485 -0.6939 0.3130
vn 0.6989 -0.6934 -0.1753
vn 0.9564 0.1621 -0.2429
vn 0.1185 0.9545 -0.2737
vn -0.0102 0.9922 0.1246
vn 0.3987 0.6104 -0.6844
vn -0.0755 0.9863 0.1468
vn -0.1284 0.9069 0.4014
vn -0.3416 0.8113 0.4745
vn -0.2037 0.6609 0.7223
vn 0.1842 0.9545 -0.2344
vn -0.1138 0.9867 0.1161
vn -0.1129 0.9923 0.0509
vn 0.2696 -0.1171 -0.9558
vn -0.0823 0.1654 -0.9828
vn 0.6119 0.1952 -0.7665
vn 0.3081 0.6609 0.6843
vn 0.4239 0.8993 -0.1076
vn 0.7274 0.6608 -0.1847
vn 0.1690 0.9538 0.2484
vn -0.4266 -0.7026 -0.5695
vn -0.1164 -0.7125 -0.6919
vn -0.3902 0.3110 -0.8666
vn -0.0009 0.6839 -0.7296
vn 0.0180 -0.9998 -0.0110
vn 0.4608 -0.7125 -0.5291
vn 0.4098 0.7128 -0.5692
vn 0.3083 0.9511 0.0195
vn -0.8994 -0.0518 -0.4340
vn -0.6815 0.1653 -0.7129
vn 0.1902 0.8006 -0.5682
vn -0.5993 0.7860 0.1522
vn 0.2617 0.9511 -0.1642
vn -0.5459 0.6838 -0.4841
vn 0.4785 0.8006 -0.3606
vn 0.0962 0.9864 -0.1334
vn -0.3047 0.9068 -0.2915
vn -0.5263 0.8115 -0.2540
vn 0.0308 0.9539 -0.2984
vn -0.7109 -0.7033 0.0010
vn -0.1690 0.9538 -0.2483
vn -0.5962 -0.6918 0.4074
vn -0.4174 0.9069 -0.0569
vn 0.0032 -0.9998 0.0211
vn -0.3087 0.9509 -0.0196
vn -0.2679 0.1621 0.9497
vn -0.1972 -0.6918 0.6947
vn -0.3401 0.9068 0.2492
vn -0.2626 0.9509 0.1641
vn -0.0296 0.9539 0.2986
vn 0.4052 0.1621 0.8997
vn 0.2977 -0.6918 0.6579
vt 0.352502 0.478788
vt 0.511471 0.478788
vt 0.511471 0.711284
vt 0.352502 0.711284
vt 0.692502 0.216999
vt 0.692340 0.235354
vt 0.684123 0.235281
vt 0.680218 0.230363
vt 0.680100 0.221773
vt 0.683778 0.216921
vt 0.166592 0.722151
vt 0.325546 0.722151
vt 0.325547 0.730368
vt 0.166592 0.730368
vt 0.203151 0.803448
vt 0.203151 0.962688
vt 0.195121 0.962688
vt 0.195121 0.803448
vt 0.927529 0.000978
vt 0.927529 0.101221
vt 0.918148 0.101223
vt 0.918148 0.000980
vt 0.922838 0.000979
vt 0.876495 0.652876
vt 0.876495 0.819854
vt 0.867798 0.819854
vt 0.867798 0.652876
vt 0.453318 0.890244
vt 0.453318 0.722926
vt 0.462046 0.722925
vt 0.462046 0.890244
vt 0.206646 0.901261
vt 0.206646 0.733863
vt 0.215381 0.733863
vt 0.215381 0.901261
vt 0.844309 0.652302
vt 0.844309 0.819491
vt 0.835593 0.819491
vt 0.835593 0.652302
vt 0.884407 0.823349
vt 0.884407 0.990120
vt 0.875731 0.990120
vt 0.875731 0.823349
vt 0.750586 0.990054
vt 0.750586 0.823705
vt 0.759213 0.823705
vt 0.759213 0.990054
vt 0.855607 0.989614
vt 0.855607 0.823349
vt 0.864193 0.823349
vt 0.864193 0.989614
vt 0.816379 0.990064
vt 0.816379 0.823602
vt 0.824954 0.823602
vt 0.824954 0.990064
vt 0.481093 0.890203
vt 0.481093 0.722925
vt 0.489673 0.722925
vt 0.489673 0.890203
vt 0.784340 0.481157
vt 0.784340 0.649397
vt 0.775739 0.649397
vt 0.775739 0.481157
vt 0.640275 0.826636
vt 0.640275 0.657631
vt 0.648897 0.657631
vt 0.648897 0.826636
vt 0.693696 0.827157
vt 0.693696 0.657793
vt 0.702330 0.657794
vt 0.702330 0.827157
vt 0.705824 0.823145
vt 0.705824 0.653916
vt 0.714453 0.653916
vt 0.714453 0.823146
vt 0.772244 0.481157
vt 0.772244 0.649790
vt 0.763633 0.649790
vt 0.763633 0.481157
vt 0.787835 0.648970
vt 0.787835 0.481243
vt 0.796424 0.481243
vt 0.796424 0.648970
vt 0.649624 0.371214
vt 0.650324 0.375471
vt 0.645209 0.373300
vt 0.899649 0.333864
vt 0.894178 0.328931
vt 0.899846 0.328981
vt 0.904831 0.331150
vt 0.084734 0.658223
vt 0.084734 0.480324
vt 0.090020 0.480324
vt 0.090020 0.658223
vt 0.632367 0.336459
vt 0.635750 0.331603
vt 0.642070 0.334419
vt 0.638037 0.336509
vt 0.629291 0.194408
vt 0.626122 0.189494
vt 0.631393 0.189541
vt 0.635190 0.191700
vt 0.891726 0.163694
vt 0.897109 0.158858
vt 0.902057 0.161661
vt 0.897187 0.163743
vt 0.106135 0.837300
vt 0.106135 0.660799
vt 0.111760 0.660799
vt 0.111760 0.837300
vt 0.641550 0.359790
vt 0.636017 0.354855
vt 0.641887 0.354907
vt 0.646973 0.357078
vt 0.897559 0.324077
vt 0.903877 0.326892
vt 0.891103 0.186930
vt 0.887935 0.182018
vt 0.893204 0.182064
vt 0.897000 0.184223
vt 0.041101 0.179309
vt 0.041101 0.000977
vt 0.046295 0.000977
vt 0.046295 0.179309
vt 0.631234 0.184653
vt 0.636073 0.187457
vt 0.903358 0.352254
vt 0.897826 0.347320
vt 0.903695 0.347372
vt 0.908779 0.349542
vt 0.551634 0.470987
vt 0.551634 0.646538
vt 0.545736 0.646538
vt 0.545736 0.470987
vt 0.639628 0.350001
vt 0.646097 0.352819
vt 0.626320 0.212745
vt 0.623016 0.207830
vt 0.628131 0.207875
vt 0.631936 0.210035
vt 0.893046 0.177179
vt 0.897882 0.179981
vt 0.049687 0.656990
vt 0.049687 0.478732
vt 0.054896 0.478732
vt 0.054896 0.656990
vt 0.644626 0.378181
vt 0.639163 0.373246
vt 0.901437 0.342468
vt 0.907902 0.345285
vt 0.888133 0.205261
vt 0.884830 0.200347
vt 0.889943 0.200393
vt 0.893747 0.202551
vt 0.338342 0.658683
vt 0.338342 0.833419
vt 0.332174 0.833419
vt 0.332174 0.658683
vt 0.627774 0.202986
vt 0.632596 0.205789
vt 0.906433 0.370638
vt 0.900971 0.365705
vt 0.907015 0.365759
vt 0.912128 0.367929
vt 0.022266 0.658663
vt 0.022266 0.836441
vt 0.016953 0.836441
vt 0.016953 0.658663
vt 0.643093 0.368395
vt 0.624586 0.231094
vt 0.620993 0.226176
vt 0.626007 0.226220
vt 0.629914 0.228380
vt 0.889586 0.195505
vt 0.894406 0.198308
vt 0.612692 0.831896
vt 0.612692 0.657814
vt 0.619107 0.657814
vt 0.619107 0.831896
vt 0.904900 0.360856
vt 0.911429 0.363673
vt 0.886399 0.223603
vt 0.882808 0.218687
vt 0.887820 0.218731
vt 0.891726 0.220891
vt 0.070065 0.838357
vt 0.070065 0.661322
vt 0.075553 0.661322
vt 0.075553 0.838356
vt 0.625330 0.221328
vt 0.630250 0.224132
vt 0.908463 0.389013
vt 0.903216 0.384083
vt 0.909389 0.384137
vt 0.914445 0.386307
vt 0.642624 0.654136
vt 0.642624 0.480539
vt 0.649243 0.480539
vt 0.649243 0.654136
vt 0.624228 0.249454
vt 0.620322 0.244533
vt 0.625365 0.244578
vt 0.629296 0.246739
vt 0.887143 0.213841
vt 0.892062 0.216644
vt 0.523454 0.470986
vt 0.523454 0.647155
vt 0.517739 0.647155
vt 0.517739 0.470986
vt 0.693655 0.654298
vt 0.693655 0.481142
vt 0.700476 0.481142
vt 0.700476 0.654298
vt 0.907538 0.379237
vt 0.914023 0.382054
vt 0.886042 0.241957
vt 0.882137 0.237038
vt 0.887179 0.237083
vt 0.891108 0.239242
vt 0.662851 0.830346
vt 0.662851 0.657062
vt 0.669612 0.657062
vt 0.669612 0.830346
vt 0.574070 0.825093
vt 0.574070 0.649788
vt 0.580045 0.649788
vt 0.580045 0.825093
vt 0.624315 0.239683
vt 0.629333 0.242488
vt 0.648251 0.102758
vt 0.644015 0.097834
vt 0.650190 0.097889
vt 0.654788 0.100055
vt 0.574070 0.646293
vt 0.574070 0.470988
vt 0.580045 0.470988
vt 0.580045 0.646293
vt 0.673107 0.653567
vt 0.673107 0.480283
vt 0.679867 0.480283
vt 0.679867 0.653567
vt 0.624917 0.267824
vt 0.620667 0.262900
vt 0.625681 0.262945
vt 0.629887 0.265108
vt 0.886128 0.232189
vt 0.891145 0.234993
vt 0.643024 0.338679
vt 0.637977 0.316019
vt 0.638908 0.320279
vt 0.634074 0.318110
vt 0.634250 0.297623
vt 0.635058 0.301881
vt 0.630416 0.299714
vt 0.631323 0.279233
vt 0.631907 0.283489
vt 0.627479 0.281324
vt 0.629626 0.260854
vt 0.640249 0.169130
vt 0.639243 0.173372
vt 0.635377 0.171212
vt 0.644691 0.150806
vt 0.643661 0.155048
vt 0.639666 0.152887
vt 0.648966 0.132480
vt 0.648013 0.136723
vt 0.643842 0.134560
vt 0.652642 0.114149
vt 0.651867 0.118393
vt 0.647489 0.116229
vt 0.655285 0.095809
vt 0.899786 0.308499
vt 0.900716 0.312756
vt 0.895884 0.310589
vt 0.896061 0.290108
vt 0.896868 0.294365
vt 0.892227 0.292199
vt 0.893134 0.271725
vt 0.893717 0.275980
vt 0.889292 0.273816
vt 0.891438 0.253353
vt 0.891698 0.257605
vt 0.887494 0.255443
vt 0.901051 0.165902
vt 0.906497 0.143343
vt 0.905468 0.147584
vt 0.901474 0.145423
vt 0.910771 0.125024
vt 0.909819 0.129265
vt 0.905649 0.127103
vt 0.914445 0.106699
vt 0.913670 0.110942
vt 0.909295 0.108778
vt 0.469786 0.722925
vt 0.469786 0.890227
vt 0.465541 0.890227
vt 0.465541 0.722925
vt 0.767890 0.653285
vt 0.767890 0.821630
vt 0.763633 0.821630
vt 0.763633 0.653285
vt 0.632511 0.826818
vt 0.632511 0.657631
vt 0.636780 0.657631
vt 0.636780 0.826818
vt 0.156148 0.449965
vt 0.156148 0.619561
vt 0.151873 0.619561
vt 0.151873 0.449965
vt 0.372807 0.294144
vt 0.372807 0.463615
vt 0.368534 0.463615
vt 0.368534 0.294144
vt 0.748114 0.649919
vt 0.748114 0.481076
vt 0.752378 0.481076
vt 0.752378 0.649920
vt 0.557817 0.817656
vt 0.557817 0.649789
vt 0.562068 0.649789
vt 0.562068 0.817656
vt 0.879990 0.819775
vt 0.879990 0.652921
vt 0.884232 0.652921
vt 0.884232 0.819775
vt 0.786885 0.989998
vt 0.786885 0.823657
vt 0.791130 0.823657
vt 0.791130 0.989998
vt 0.898615 0.818667
vt 0.898615 0.652426
vt 0.902873 0.652426
vt 0.902873 0.818667
vt 0.557817 0.987739
vt 0.557817 0.821151
vt 0.562100 0.821151
vt 0.562100 0.987739
vt 0.847804 0.820023
vt 0.847804 0.652929
vt 0.852112 0.652929
vt 0.852112 0.820023
vt 0.657062 0.657629
vt 0.657062 0.825092
vt 0.652738 0.825092
vt 0.652738 0.657629
vt 0.812070 0.651840
vt 0.812070 0.819378
vt 0.807742 0.819378
vt 0.807742 0.651840
vt 0.477598 0.722925
vt 0.477598 0.890221
vt 0.473281 0.890221
vt 0.473281 0.722926
vt 0.895083 0.648931
vt 0.895083 0.482106
vt 0.899379 0.482106
vt 0.899379 0.648931
vt 0.629914 0.171164
vt 0.635299 0.166326
vt 0.052317 0.837975
vt 0.052317 0.660485
vt 0.057696 0.660485
vt 0.057696 0.837975
vt 0.894897 0.168606
vt 0.890423 0.310540
vt 0.893681 0.305685
vt 0.637840 0.341393
vt 0.048822 0.660485
vt 0.048822 0.837976
vt 0.043443 0.837976
vt 0.043443 0.660485
vt 0.895806 0.145373
vt 0.901364 0.140538
vt 0.633086 0.176078
vt 0.628611 0.318062
vt 0.631870 0.313205
vt 0.072458 0.479483
vt 0.072458 0.657384
vt 0.067172 0.657384
vt 0.067172 0.479483
vt 0.895720 0.315471
vt 0.633996 0.152836
vt 0.639556 0.148000
vt 0.108123 0.480802
vt 0.108123 0.657304
vt 0.102498 0.657304
vt 0.102498 0.480802
vt 0.899101 0.150287
vt 0.886958 0.292152
vt 0.890213 0.287297
vt 0.633910 0.322995
vt 0.028918 0.182805
vt 0.028918 0.361137
vt 0.023725 0.361137
vt 0.023725 0.182805
vt 0.899780 0.127051
vt 0.905398 0.122217
vt 0.637292 0.157752
vt 0.625144 0.299667
vt 0.628401 0.294810
vt 0.517739 0.826201
vt 0.517739 0.650650
vt 0.523637 0.650650
vt 0.523637 0.826201
vt 0.891982 0.297081
vt 0.637972 0.134508
vt 0.643591 0.129672
vt 0.046192 0.478176
vt 0.046192 0.656434
vt 0.040983 0.656434
vt 0.040983 0.478176
vt 0.903304 0.131967
vt 0.884179 0.273770
vt 0.887569 0.268916
vt 0.630170 0.304598
vt 0.583540 0.824002
vt 0.583540 0.649266
vt 0.589708 0.649266
vt 0.589708 0.824002
vt 0.903251 0.108725
vt 0.908799 0.103890
vt 0.641496 0.139425
vt 0.622364 0.281279
vt 0.625755 0.276423
vt 0.013458 0.483097
vt 0.013458 0.660875
vt 0.008144 0.660875
vt 0.008144 0.483097
vt 0.888848 0.278696
vt 0.641443 0.116175
vt 0.646993 0.111338
vt 0.619107 0.480237
vt 0.619107 0.654319
vt 0.612692 0.654319
vt 0.612692 0.480237
vt 0.907093 0.113643
vt 0.882482 0.255398
vt 0.886160 0.250547
vt 0.627035 0.286206
vt 0.093515 0.657701
vt 0.093515 0.480668
vt 0.099003 0.480668
vt 0.099003 0.657701
vt 0.679886 0.657062
vt 0.679886 0.830307
vt 0.673107 0.830307
vt 0.673107 0.657062
vt 0.645287 0.121095
vt 0.624346 0.258047
vt 0.639129 0.480368
vt 0.639129 0.653965
vt 0.632511 0.653965
vt 0.632511 0.480368
vt 0.593203 0.645628
vt 0.593203 0.471119
vt 0.599453 0.471119
vt 0.599453 0.645628
vt 0.886731 0.260320
vt 0.649350 0.092996
vt 0.126600 0.361034
vt 0.126600 0.184861
vt 0.132315 0.184861
vt 0.132315 0.361034
vt 0.690201 0.657881
vt 0.690201 0.831039
vt 0.683381 0.831039
vt 0.683381 0.657881
vt 0.341837 0.721988
vt 0.351364 0.723137
vt 0.355310 0.725911
vt 0.355310 0.884552
vt 0.351364 0.887678
vt 0.341837 0.888973
vt 0.246316 0.737762
vt 0.246315 0.896397
vt 0.237954 0.896414
vt 0.237954 0.737778
vt 0.887821 0.649491
vt 0.878193 0.648345
vt 0.874206 0.645569
vt 0.874206 0.486341
vt 0.878193 0.483489
vt 0.887821 0.482304
vt 0.855607 0.652307
vt 0.864303 0.652301
vt 0.864303 0.819305
vt 0.855607 0.819312
vt 0.227601 0.901215
vt 0.218876 0.901223
vt 0.218876 0.733872
vt 0.227601 0.733864
vt 0.442012 0.890359
vt 0.433279 0.890367
vt 0.433279 0.722935
vt 0.442012 0.722927
vt 0.832098 0.820098
vt 0.823383 0.820105
vt 0.823383 0.652886
vt 0.832098 0.652879
vt 0.750572 0.653417
vt 0.759248 0.653411
vt 0.759248 0.820203
vt 0.750572 0.820209
vt 0.890825 0.823547
vt 0.899452 0.823544
vt 0.899452 0.989902
vt 0.890825 0.989905
vt 0.736069 0.824322
vt 0.744654 0.824323
vt 0.744654 0.990581
vt 0.736069 0.990580
vt 0.841371 0.990043
vt 0.832795 0.990039
vt 0.832795 0.823595
vt 0.841371 0.823598
vt 0.509490 0.890177
vt 0.500909 0.890170
vt 0.500909 0.722927
vt 0.509490 0.722934
vt 0.726552 0.821982
vt 0.717948 0.821971
vt 0.717948 0.653777
vt 0.726552 0.653787
vt 0.735994 0.481100
vt 0.744619 0.481112
vt 0.744619 0.650064
vt 0.735994 0.650052
vt 0.712607 0.650418
vt 0.703971 0.650405
vt 0.703971 0.481099
vt 0.712607 0.481112
vt 0.724734 0.650285
vt 0.716102 0.650273
vt 0.716102 0.481099
vt 0.724734 0.481112
vt 0.649038 0.140664
vt 0.657652 0.140675
vt 0.657652 0.309258
vt 0.649038 0.309247
vt 0.796426 0.820163
vt 0.787835 0.820154
vt 0.787835 0.652467
vt 0.796426 0.652475
vt 0.390693 0.368917
vt 0.395071 0.371081
vt 0.389918 0.373161
vt 0.664896 0.331781
vt 0.659763 0.328976
vt 0.664786 0.326896
vt 0.670454 0.326946
vt 0.063677 0.656899
vt 0.058391 0.656899
vt 0.058391 0.478998
vt 0.063677 0.478998
vt 0.408564 0.334473
vt 0.402894 0.334423
vt 0.398899 0.332262
vt 0.405268 0.329558
vt 0.414159 0.192500
vt 0.408309 0.189687
vt 0.412144 0.187596
vt 0.417415 0.187643
vt 0.675837 0.161779
vt 0.670376 0.161731
vt 0.665544 0.159563
vt 0.670540 0.156848
vt 0.291153 0.137636
vt 0.296779 0.137636
vt 0.296779 0.314136
vt 0.291153 0.314136
vt 0.398969 0.357638
vt 0.393594 0.354830
vt 0.398718 0.352750
vt 0.404588 0.352802
vt 0.660792 0.324736
vt 0.667159 0.322033
vt 0.676047 0.185022
vt 0.670200 0.182211
vt 0.674033 0.180120
vt 0.679302 0.180167
vt 0.028918 0.179310
vt 0.023725 0.179310
vt 0.023725 0.000977
vt 0.028918 0.000977
vt 0.407502 0.185429
vt 0.412389 0.182712
vt 0.660862 0.350103
vt 0.655490 0.347295
vt 0.660611 0.345216
vt 0.666480 0.345268
vt 0.542241 0.646539
vt 0.536342 0.646539
vt 0.536342 0.470987
vt 0.542241 0.470987
vt 0.394546 0.350587
vt 0.401063 0.347885
vt 0.416804 0.210887
vt 0.411237 0.208077
vt 0.415080 0.205986
vt 0.420195 0.206031
vt 0.669392 0.177954
vt 0.674278 0.175238
vt 0.028784 0.655168
vt 0.023575 0.655168
vt 0.023575 0.476908
vt 0.028784 0.476908
vt 0.395566 0.375971
vt 0.401116 0.371135
vt 0.656441 0.343054
vt 0.662956 0.340353
vt 0.678692 0.203403
vt 0.673126 0.200594
vt 0.676968 0.198503
vt 0.682081 0.198549
vt 0.338342 0.655188
vt 0.332174 0.655188
vt 0.332174 0.480450
vt 0.338342 0.480450
vt 0.410653 0.203821
vt 0.415524 0.201104
vt 0.657461 0.368430
vt 0.651815 0.365620
vt 0.656966 0.363541
vt 0.663009 0.363595
vt 0.031075 0.837103
vt 0.025761 0.837103
vt 0.025761 0.659326
vt 0.031075 0.659326
vt 0.397273 0.366215
vt 0.418213 0.229263
vt 0.412934 0.226456
vt 0.416879 0.224365
vt 0.421892 0.224410
vt 0.672543 0.196339
vt 0.677412 0.193623
vt 0.629016 0.654319
vt 0.622602 0.654319
vt 0.622602 0.480237
vt 0.629016 0.480237
vt 0.652590 0.361377
vt 0.659167 0.358676
vt 0.674822 0.218967
vt 0.678766 0.216877
vt 0.093520 0.838751
vt 0.088031 0.838751
vt 0.088031 0.661718
vt 0.093520 0.661718
vt 0.412673 0.222202
vt 0.417643 0.219486
vt 0.655105 0.386766
vt 0.649172 0.383954
vt 0.654265 0.381874
vt 0.660439 0.381929
vt 0.659356 0.654134
vt 0.652738 0.654134
vt 0.652738 0.480539
vt 0.659356 0.480539
vt 0.418245 0.247627
vt 0.413226 0.244822
vt 0.417194 0.242732
vt 0.422238 0.242776
vt 0.674562 0.214715
vt 0.679529 0.211999
vt 0.390101 0.313828
vt 0.384386 0.313828
vt 0.384386 0.137656
vt 0.390101 0.137656
vt 0.283465 0.454062
vt 0.276645 0.454062
vt 0.276644 0.280903
vt 0.283465 0.280903
vt 0.649669 0.379709
vt 0.656204 0.377007
vt 0.680132 0.240130
vt 0.675115 0.237326
vt 0.679081 0.235237
vt 0.537246 0.650034
vt 0.544006 0.650034
vt 0.544006 0.823317
vt 0.537246 0.823317
vt 0.570575 0.646294
vt 0.564599 0.646294
vt 0.564599 0.470988
vt 0.570575 0.470988
vt 0.413264 0.240571
vt 0.418332 0.237856
vt 0.396828 0.100528
vt 0.390340 0.097710
vt 0.394976 0.095625
vt 0.401151 0.095680
vt 0.561104 0.646294
vt 0.555129 0.646294
vt 0.555129 0.470988
vt 0.561104 0.470988
vt 0.669612 0.653526
vt 0.662851 0.653526
vt 0.662851 0.480240
vt 0.669612 0.480240
vt 0.417230 0.265982
vt 0.412310 0.263178
vt 0.416553 0.261090
vt 0.421567 0.261134
vt 0.675152 0.233077
vt 0.397869 0.336504
vt 0.403317 0.313938
vt 0.407183 0.316098
vt 0.402311 0.318180
vt 0.407370 0.295610
vt 0.411167 0.297769
vt 0.406487 0.299853
vt 0.410624 0.277275
vt 0.414429 0.279434
vt 0.409964 0.281520
vt 0.412646 0.258929
vt 0.403652 0.167031
vt 0.408486 0.169200
vt 0.404583 0.171291
vt 0.399536 0.148631
vt 0.404523 0.150801
vt 0.400490 0.152891
vt 0.395586 0.130232
vt 0.400672 0.132403
vt 0.396463 0.134491
vt 0.392236 0.111839
vt 0.397351 0.114010
vt 0.392936 0.116096
vt 0.389918 0.093455
vt 0.665209 0.306418
vt 0.669073 0.308577
vt 0.664203 0.310658
vt 0.669260 0.288096
vt 0.673056 0.290255
vt 0.668378 0.292338
vt 0.672513 0.269768
vt 0.676317 0.271927
vt 0.671854 0.274012
vt 0.674534 0.251429
vt 0.678440 0.253588
vt 0.674199 0.255675
vt 0.666474 0.163821
vt 0.661429 0.141169
vt 0.666414 0.143338
vt 0.662383 0.145427
vt 0.657481 0.122777
vt 0.662565 0.124947
vt 0.658358 0.127034
vt 0.654132 0.104390
vt 0.659245 0.106560
vt 0.654832 0.108646
vt 0.493168 0.722927
vt 0.497414 0.722931
vt 0.497414 0.890198
vt 0.493168 0.890194
vt 0.771385 0.653287
vt 0.775643 0.653292
vt 0.775643 0.821588
vt 0.771385 0.821583
vt 0.732499 0.650206
vt 0.728228 0.650200
vt 0.728228 0.481067
vt 0.732499 0.481074
vt 0.151873 0.623059
vt 0.156150 0.623066
vt 0.156150 0.792602
vt 0.151873 0.792595
vt 0.622602 0.657816
vt 0.626876 0.657823
vt 0.626876 0.827236
vt 0.622602 0.827229
vt 0.760138 0.649864
vt 0.755873 0.649858
vt 0.755873 0.481068
vt 0.760138 0.481074
vt 0.783390 0.820724
vt 0.779138 0.820719
vt 0.779138 0.652894
vt 0.783390 0.652898
vt 0.743289 0.820387
vt 0.739046 0.820385
vt 0.739046 0.653558
vt 0.743289 0.653561
vt 0.849112 0.989851
vt 0.844866 0.989850
vt 0.844866 0.823519
vt 0.849112 0.823520
vt 0.803049 0.990258
vt 0.798791 0.990258
vt 0.798791 0.824011
vt 0.803049 0.824010
vt 0.812884 0.989962
vt 0.808601 0.989964
vt 0.808601 0.823358
vt 0.812884 0.823356
vt 0.735551 0.820826
vt 0.731243 0.820829
vt 0.731243 0.653706
vt 0.735551 0.653703
vt 0.815565 0.652361
vt 0.819888 0.652357
vt 0.819888 0.819854
vt 0.815565 0.819859
vt 0.799921 0.652937
vt 0.804247 0.652933
vt 0.804247 0.820510
vt 0.799921 0.820514
vt 0.445507 0.722931
vt 0.449823 0.722927
vt 0.449823 0.890253
vt 0.445507 0.890257
vt 0.895120 0.820048
vt 0.890824 0.820051
vt 0.890824 0.653206
vt 0.895120 0.653203
vt 0.413949 0.169248
vt 0.408650 0.164315
vt 0.034570 0.661718
vt 0.039948 0.661718
vt 0.039948 0.839209
vt 0.034570 0.839209
vt 0.672579 0.166634
vt 0.674534 0.308625
vt 0.671363 0.303713
vt 0.403004 0.339310
vt 0.066570 0.838369
vt 0.061191 0.838369
vt 0.061191 0.660879
vt 0.066570 0.660879
vt 0.672082 0.143388
vt 0.666611 0.138456
vt 0.410690 0.174105
vt 0.412646 0.316146
vt 0.409474 0.311232
vt 0.075953 0.479927
vt 0.081239 0.479927
vt 0.081239 0.657827
vt 0.075953 0.657827
vt 0.669151 0.313462
vt 0.410192 0.150851
vt 0.404720 0.145917
vt 0.097015 0.661196
vt 0.102640 0.661196
vt 0.102640 0.837698
vt 0.097015 0.837698
vt 0.668701 0.148243
vt 0.678325 0.290302
vt 0.675157 0.285389
vt 0.407261 0.320984
vt 0.032413 0.000977
vt 0.037606 0.000977
vt 0.037606 0.179309
vt 0.032413 0.179309
vt 0.668434 0.124999
vt 0.662903 0.120066
vt 0.406810 0.155707
vt 0.416438 0.297816
vt 0.413268 0.292902
vt 0.526949 0.470987
vt 0.532847 0.470987
vt 0.532847 0.646539
vt 0.526949 0.646539
vt 0.673214 0.295140
vt 0.406543 0.132455
vt 0.401010 0.127520
vt 0.032279 0.477572
vt 0.037488 0.477572
vt 0.037488 0.655831
vt 0.032279 0.655831
vt 0.664823 0.129851
vt 0.681430 0.271972
vt 0.678127 0.267058
vt 0.411325 0.302657
vt 0.583540 0.471032
vt 0.589708 0.471032
vt 0.589708 0.645771
vt 0.583540 0.645771
vt 0.665289 0.106614
vt 0.659827 0.101681
vt 0.402931 0.137309
vt 0.419544 0.279480
vt 0.416239 0.274565
vt 0.000977 0.664370
vt 0.006290 0.664370
vt 0.006290 0.842146
vt 0.000977 0.842146
vt 0.676674 0.276814
vt 0.403397 0.114064
vt 0.397933 0.109129
vt 0.593203 0.658239
vt 0.599617 0.658239
vt 0.599617 0.832321
vt 0.593203 0.832321
vt 0.661360 0.111463
vt 0.683452 0.253633
vt 0.679861 0.248716
vt 0.414786 0.284324
vt 0.084536 0.838751
vt 0.079048 0.838751
vt 0.079048 0.661718
vt 0.084536 0.661718
vt 0.683381 0.481141
vt 0.690160 0.481141
vt 0.690160 0.654386
vt 0.683381 0.654386
vt 0.399467 0.118915
vt 0.417974 0.256216
vt 0.527132 0.650034
vt 0.533751 0.650034
vt 0.533751 0.823629
vt 0.527132 0.823629
vt 0.602948 0.480236
vt 0.609197 0.480236
vt 0.609197 0.654744
vt 0.602948 0.654744
vt 0.679117 0.258478
vt 0.395903 0.090747
vt 0.117390 0.184861
vt 0.123105 0.184861
vt 0.123105 0.361034
vt 0.117390 0.361034
vt 0.547501 0.650033
vt 0.554322 0.650033
vt 0.554322 0.823191
vt 0.547501 0.823191
vt 0.807957 0.645557
vt 0.807957 0.486329
vt 0.312428 0.737780
vt 0.312428 0.896415
vt 0.287687 0.677635
vt 0.200048 0.677722
vt 0.243824 0.695782
vt 0.429784 0.725911
vt 0.429784 0.884552
vt 0.421416 0.884552
vt 0.421416 0.725912
vt 0.352502 0.470641
vt 0.511471 0.470641
vt 0.166592 0.480880
vt 0.325547 0.480880
vt 0.325547 0.489097
vt 0.166592 0.489097
vt 0.799919 0.645537
vt 0.799919 0.486309
vt 0.316375 0.735009
vt 0.325904 0.733865
vt 0.325904 0.900844
vt 0.316375 0.899544
vt 0.300534 0.008662
vt 0.256306 0.005485
vt 0.256387 0.003900
vt 0.300694 0.007082
vt 0.393772 0.008661
vt 0.349647 0.005445
vt 0.349728 0.003859
vt 0.393932 0.007081
vt 0.162346 0.004311
vt 0.162427 0.005897
vt 0.118262 0.008703
vt 0.118101 0.007122
vt 0.305426 0.004140
vt 0.305428 0.002552
vt 0.025097 0.469746
vt 0.069262 0.472554
vt 0.069181 0.474140
vt 0.024936 0.471327
vt 0.252179 0.477235
vt 0.232312 0.475808
vt 0.305909 0.633697
vt 0.304416 0.633697
vt 0.286669 0.590851
vt 0.287725 0.589796
vt 0.093381 0.002361
vt 0.073543 0.001099
vt 0.166670 0.477354
vt 0.186509 0.476093
vt 0.325580 0.475768
vt 0.305717 0.475181
vt 0.206648 0.004176
vt 0.206646 0.002587
vt 0.212493 0.475205
vt 0.212185 0.004143
vt 0.345401 0.477212
vt 0.212187 0.002555
vt 0.113483 0.474280
vt 0.113481 0.475869
vt 0.349807 0.002318
vt 0.394529 0.005578
vt 0.243824 0.571612
vt 0.199923 0.589796
vt 0.181739 0.633697
vt 0.243824 0.573104
vt 0.304988 0.000996
vt 0.200979 0.590851
vt 0.183231 0.633697
vt 0.201015 0.676579
vt 0.162268 0.002785
vt 0.207099 0.001040
vt 0.117504 0.005629
vt 0.113960 0.477416
vt 0.069103 0.475666
vt 0.211755 0.001000
vt 0.256462 0.002360
vt 0.243824 0.694289
vt 0.286658 0.676553
vt 0.301250 0.005576
vt 0.024339 0.472820
vt 0.113245 0.003136
vt 0.927529 0.443984
vt 0.922838 0.443985
vt 0.918148 0.443987
vt 0.511471 0.719431
vt 0.352502 0.719431
vt 0.421227 0.887679
vt 0.908876 0.398582
vt 0.907204 0.468184
vt 0.904095 0.467500
vt 0.328679 0.481873
vt 0.328679 0.489355
vt 0.665384 0.476557
vt 0.657972 0.473411
vt 0.660378 0.471011
vt 0.666031 0.473411
vt 0.658080 0.465317
vt 0.654959 0.465946
vt 0.246508 0.899531
vt 0.238895 0.899546
vt 0.428847 0.887678
vt 0.904060 0.475594
vt 0.901697 0.473152
vt 0.654522 0.396326
vt 0.896002 0.475451
vt 0.896593 0.478608
vt 0.328679 0.721892
vt 0.328679 0.729374
vt 0.128874 0.962688
vt 0.128874 0.803448
vt 0.800862 0.483453
vt 0.808234 0.483471
vt 0.658954 0.022524
vt 0.662009 0.015061
vt 0.664183 0.017204
vt 0.661795 0.023038
vt 0.349656 0.718519
vt 0.349656 0.711048
vt 0.900736 0.014076
vt 0.908154 0.017244
vt 0.905943 0.019349
vt 0.900143 0.016872
vt 0.670026 0.014830
vt 0.669483 0.012024
vt 0.349656 0.479024
vt 0.908227 0.025224
vt 0.911076 0.024761
vt 0.910110 0.094409
vt 0.124885 0.800597
vt 0.194842 0.800597
vt 0.202206 0.800597
vt 0.658685 0.092179
vt 0.659827 0.101681
vt 0.349656 0.471553
vt 0.115255 0.966616
vt 0.115255 0.799416
vt 0.124885 0.965466
vt 0.115255 0.966616
vt 0.646872 0.014322
vt 0.649642 0.013764
vt 0.649933 0.083436
vt 0.421248 0.723137
vt 0.238789 0.735009
vt 0.246486 0.734994
vt 0.397016 0.011523
vt 0.400197 0.004029
vt 0.402294 0.006196
vt 0.399776 0.012130
vt 0.408274 0.003782
vt 0.407749 0.000980
vt 0.163813 0.489326
vt 0.163813 0.481761
vt 0.644459 0.008344
vt 0.646595 0.006214
vt 0.428952 0.723137
vt 0.395489 0.081179
vt 0.163813 0.729486
vt 0.163813 0.721922
vt 0.639098 0.003032
vt 0.638523 0.005824
vt 0.396035 0.454683
vt 0.393258 0.455134
vt 0.394255 0.385456
vt 0.808226 0.648328
vt 0.194849 0.965466
vt 0.645769 0.387687
vt 0.645530 0.457372
vt 0.642761 0.456871
vt 0.634444 0.465166
vt 0.640348 0.462767
vt 0.642467 0.464856
vt 0.634973 0.467900
vt 0.514244 0.711054
vt 0.514244 0.718543
vt 0.398343 0.460620
vt 0.396188 0.462671
vt 0.800838 0.648309
vt 0.514244 0.471529
vt 0.514244 0.479018
vt 0.403626 0.465848
vt 0.404204 0.463123
vt 0.202230 0.965466
vt 0.930712 0.000977
vt 0.930730 0.101378
vt 0.929785 0.101267
vt 0.929121 0.000977
vt 0.929916 0.000977
vt 0.928325 0.000978
vt 0.930712 0.443983
vt 0.929916 0.443984
vt 0.929121 0.443984
vt 0.928325 0.443984
vt 0.690353 0.459258
vt 0.712417 0.459454
vt 0.734481 0.459649
vt 0.778609 0.460041
vt 0.784639 0.127841
vt 0.782418 0.030652
vt 0.738290 0.030261
vt 0.716226 0.030065
vt 0.694162 0.029869
vt 0.010040 0.410317
vt 0.010040 0.010040
vt 0.004783 0.010040
vt -0.000473 0.010040
vt -0.000473 0.410317
vt 0.004783 0.410317
vt 0.148378 0.377418
vt 0.148378 0.795823
vt 0.118099 0.795823
vt 0.118099 0.377418
vt 0.939267 0.865887
vt 0.911239 0.865887
vt 0.911239 0.447482
vt 0.939267 0.447482
vt 0.934225 0.000977
vt 0.986485 0.000977
vt 0.986485 0.419382
vt 0.934225 0.419382
vt 0.000977 0.480704
vt 0.000977 0.428443
vt 0.004771 0.428444
vt 0.008566 0.428444
vt 0.008427 0.479136
vt 0.989960 0.447482
vt 0.989960 0.865887
vt 0.019020 0.449490
vt 0.019020 0.031088
vt 0.020230 0.031088
vt 0.020230 0.449490
vt 0.012616 0.001494
vt 0.020067 0.003061
vt 0.012616 0.479084
vt 0.020067 0.477517
vt 0.995548 0.010040
vt 0.995548 0.410318
vt 0.991017 0.414850
vt 0.991017 0.005508
vt 0.999023 0.456546
vt 0.999023 0.856824
vt 0.994492 0.861356
vt 0.994492 0.452014
vt 0.004794 0.971586
vt 0.004801 0.971586
vt 0.001006 0.967044
vt 0.004801 0.967054
vt 0.004777 0.419380
vt 0.005508 0.419380
vt 0.001149 0.914784
vt 0.008595 0.916371
vt 0.008595 0.967065
vt 0.004788 0.971586
vt 0.000981 0.976107
vt 0.004788 0.976118
vt 0.008595 0.976128
vt 0.004046 0.419380
vt 0.206373 0.475320
vt 0.054794 0.882994
vt 0.054721 0.885215
vt 0.054202 0.883027
vt 0.055180 0.886506
vt 0.054762 0.888193
vt 0.060498 0.890129
vt 0.041426 0.856223
vt 0.055746 0.893632
vt 0.028348 0.860348
vt 0.033869 0.855294
vt 0.068123 0.880514
vt 0.068265 0.881928
vt 0.066966 0.882294
vt 0.063548 0.896148
vt 0.060162 0.897537
vt 0.065268 0.894513
vt 0.066823 0.894421
vt 0.068808 0.893361
vt 0.029896 0.876990
vt 0.018658 0.869657
vt 0.022952 0.864455
vt 0.065312 0.881121
vt 0.065610 0.882570
vt 0.060103 0.890206
vt 0.060323 0.890461
vt 0.066473 0.879341
vt 0.066661 0.867248
vt 0.042294 0.901174
vt 0.041559 0.915083
vt 0.034685 0.913687
vt 0.064669 0.868298
vt 0.061489 0.869764
vt 0.062467 0.868861
vt 0.060030 0.869943
vt 0.058767 0.875079
vt 0.057823 0.870591
vt 0.016749 0.902758
vt 0.012825 0.905278
vt 0.007295 0.889727
vt 0.011889 0.889190
vt 0.054835 0.879569
vt 0.054454 0.878150
vt 0.054483 0.880816
vt 0.065173 0.879696
vt 0.058473 0.874746
vt 0.058238 0.874987
vt 0.078640 0.878637
vt 0.078794 0.876396
vt 0.079302 0.878600
vt 0.078252 0.875120
vt 0.078666 0.873448
vt 0.072865 0.871650
vt 0.017537 0.919348
vt 0.044697 0.945200
vt 0.026616 0.946782
vt 0.069934 0.865565
vt 0.073300 0.864163
vt 0.068201 0.867136
vt 0.067826 0.879075
vt 0.073289 0.871407
vt 0.073177 0.871187
vt 0.032399 0.850794
vt 0.030759 0.845844
vt 0.049736 0.843472
vt 0.049434 0.848852
vt 0.071994 0.891902
vt 0.070985 0.892749
vt 0.073444 0.891754
vt 0.074569 0.886428
vt 0.075641 0.891066
vt 0.015685 0.875685
vt 0.014174 0.882219
vt 0.013500 0.874906
vt 0.078600 0.882065
vt 0.079023 0.883450
vt 0.079038 0.880831
vt 0.075068 0.886896
vt 0.075165 0.886679
vt 0.049744 0.925126
vt 0.040804 0.922362
vt 0.058746 0.921192
vt 0.021332 0.862773
vt 0.035141 0.872055
vt 0.048659 0.856434
vt 0.048975 0.853885
vt 0.027743 0.865184
vt 0.038472 0.870613
vt 0.022033 0.921322
vt 0.040174 0.927625
vt 0.033192 0.918211
vt 0.041328 0.917524
vt 0.049394 0.962731
vt 0.059657 0.926803
vt 0.033600 0.873028
vt 0.057386 0.915785
vt 0.044834 0.860034
vt 0.042056 0.870035
vt 0.016393 0.913540
vt 0.024755 0.916900
vt 0.043876 0.870115
vt 0.048839 0.914915
vt 0.015722 0.895456
vt 0.051259 0.861212
vt 0.047453 0.870948
vt 0.045698 0.870387
vt 0.027199 0.912873
vt 0.056260 0.858358
vt 0.049156 0.871750
vt 0.054780 0.873706
vt 0.049463 0.899485
vt 0.028412 0.910854
vt 0.023009 0.906715
vt 0.045017 0.911277
vt 0.045967 0.900807
vt 0.008463 0.908055
vt 0.035309 0.899089
vt 0.044146 0.901110
vt 0.032985 0.909040
vt 0.038671 0.900555
vt 0.002210 0.890318
vt 0.036956 0.899903
vt 0.018706 0.901495
vt 0.025034 0.964862
vt 0.020317 0.896939
vt 0.030015 0.894158
vt 0.009126 0.873355
vt 0.029102 0.892590
vt 0.004276 0.871637
vt 0.014193 0.888921
vt 0.018320 0.891394
vt 0.027870 0.889149
vt 0.028422 0.890893
vt 0.027523 0.887359
vt 0.020269 0.874200
vt 0.028295 0.880225
vt 0.028979 0.878545
vt 0.018086 0.859415
vt 0.014480 0.855698
vt 0.032230 0.874229
s 1
usemtl Material.003
f 475/1/1 520/2/1 513/3/2 463/4/2
f 387/5/3 386/6/3 299/7/3 297/8/3 301/9/4 302/10/3
f 487/11/5 442/12/5 445/13/6 493/14/6
f 469/15/7 517/16/7 510/17/8 466/18/8
f 529/19/9 532/20/10 430/21/10 429/22/9 541/23/9
f 37/24/11 123/25/11 127/26/11 33/27/11
f 40/28/12 120/29/12 124/30/12 36/31/12
f 43/32/13 117/33/13 121/34/13 39/35/13
f 46/36/14 114/37/14 118/38/14 42/39/14
f 49/40/15 111/41/15 115/42/15 45/43/15
f 52/44/16 108/45/16 112/46/16 48/47/16
f 55/48/17 105/49/17 109/50/17 51/51/17
f 58/52/18 102/53/18 106/54/18 54/55/18
f 61/56/19 99/57/19 103/58/19 57/59/19
f 64/60/20 96/61/20 100/62/20 60/63/20
f 67/64/21 93/65/21 97/66/21 63/67/21
f 70/68/22 90/69/22 94/70/22 66/71/22
f 73/72/23 87/73/23 91/74/23 69/75/23
f 76/76/24 84/77/24 88/78/24 72/79/24
f 79/80/25 81/81/25 85/82/25 75/83/25
f 31/84/26 30/85/27 32/86/28
f 91/87/3 92/88/3 154/89/29 156/90/3
f 57/91/30 103/92/30 168/93/30 7/94/30
f 41/95/28 39/96/28 25/97/26 26/98/28
f 64/99/28 65/100/28 2/101/28 129/102/28
f 119/103/3 117/104/3 182/105/3 181/106/29
f 102/107/31 58/108/31 6/109/31 167/110/31
f 37/111/28 38/112/28 29/113/28 27/114/28
f 92/88/3 90/115/3 155/116/3 154/89/29
f 115/117/3 116/118/3 178/119/29 180/120/3
f 60/121/32 100/122/32 165/123/32 4/124/32
f 65/100/28 63/125/28 1/126/28 2/101/28
f 88/127/3 89/128/3 151/129/29 153/130/3
f 99/131/33 61/132/33 3/133/33 164/134/33
f 38/112/28 36/135/28 28/136/28 29/113/28
f 61/137/28 62/138/28 5/139/28 3/140/28
f 116/118/3 114/141/3 179/142/3 178/119/29
f 63/143/34 97/144/34 162/145/34 1/146/34
f 34/147/28 35/148/28 32/86/28 30/85/27
f 89/128/3 87/149/3 152/150/3 151/129/29
f 112/151/3 113/152/3 175/153/3 177/154/3
f 96/155/35 64/156/35 129/157/35 161/158/35
f 62/138/28 60/159/28 4/160/28 5/139/28
f 85/161/3 86/162/3 148/163/29 150/164/3
f 66/165/36 94/166/36 159/167/36 131/168/36
f 35/148/28 33/169/28 31/84/26 32/86/28
f 58/170/28 59/171/28 8/172/28 6/173/28
f 113/152/3 111/174/3 176/175/3 175/153/3
f 93/176/37 67/177/37 132/178/37 158/179/37
f 86/162/3 84/180/3 149/181/3 148/163/29
f 109/182/3 110/183/3 172/184/29 174/185/3
f 69/186/38 91/187/38 156/188/38 134/189/38
f 59/171/28 57/190/28 7/191/28 8/172/28
f 82/192/29 83/193/3 145/194/29 147/195/3
f 90/196/39 70/197/39 135/198/39 155/199/39
f 55/200/28 56/201/28 11/202/28 9/203/28
f 110/183/3 108/204/3 173/205/3 172/184/29
f 72/206/40 88/207/40 153/208/40 137/209/40
f 33/210/41 127/211/41 192/212/41 31/213/41
f 83/193/3 81/214/3 146/215/3 145/194/29
f 106/216/3 107/217/3 169/218/29 171/219/3
f 87/220/42 73/221/42 138/222/42 152/223/42
f 126/224/43 34/225/43 30/226/43 191/227/43
f 56/201/28 54/228/28 10/229/28 11/202/28
f 79/230/28 80/231/28 142/232/27 144/233/28
f 75/234/44 85/235/44 150/236/44 140/237/44
f 36/238/45 124/239/45 189/240/45 28/241/45
f 52/242/28 53/243/28 14/244/27 12/245/28
f 107/217/3 105/246/3 170/247/3 169/218/29
f 28/136/28 27/114/28 29/113/28
f 25/97/26 24/248/27 26/98/28
f 22/249/28 21/250/28 23/251/28
f 19/252/26 18/253/27 20/254/27
f 16/255/28 15/256/28 17/257/27
f 13/258/28 12/245/28 14/244/27
f 10/229/28 9/203/28 11/202/28
f 7/191/28 6/173/28 8/172/28
f 4/160/28 3/140/28 5/139/28
f 1/126/28 129/102/28 2/101/28
f 131/259/28 132/260/28 130/261/28
f 134/262/28 135/263/28 133/264/28
f 137/265/46 138/266/46 136/267/28
f 140/268/28 141/269/28 139/270/28
f 143/271/28 144/233/28 142/232/27
f 146/215/3 147/195/3 145/194/29
f 149/181/3 150/164/3 148/163/29
f 152/150/3 153/130/3 151/129/29
f 155/116/3 156/90/3 154/89/29
f 158/272/3 159/273/3 157/274/29
f 161/275/3 162/276/3 160/277/3
f 164/278/3 165/279/3 163/280/3
f 167/281/3 168/282/3 166/283/29
f 170/247/3 171/219/3 169/218/29
f 173/205/3 174/185/3 172/184/29
f 176/175/3 177/154/3 175/153/3
f 179/142/3 180/120/3 178/119/29
f 182/105/3 183/284/3 181/106/29
f 185/285/3 186/286/3 184/287/29
f 188/288/47 189/289/47 187/290/29
f 191/291/47 192/292/47 190/293/29
f 146/294/48 144/295/48 143/296/48 147/297/48
f 149/298/49 141/299/49 140/300/49 150/301/49
f 152/302/50 138/303/50 137/304/50 153/305/50
f 155/306/51 135/307/51 134/308/51 156/309/51
f 158/310/52 132/311/52 131/312/52 159/313/52
f 161/314/53 129/315/53 1/316/53 162/317/53
f 164/318/54 3/319/54 4/320/54 165/321/54
f 167/322/55 6/323/55 7/324/55 168/325/55
f 170/326/56 9/327/56 10/328/56 171/329/56
f 173/330/57 12/331/57 13/332/57 174/333/57
f 176/334/58 15/335/58 16/336/58 177/337/58
f 179/338/59 18/339/59 19/340/59 180/341/59
f 182/342/60 21/343/60 22/344/60 183/345/60
f 185/346/61 24/347/61 25/348/61 186/349/61
f 188/350/62 27/351/62 28/352/62 189/353/62
f 191/354/63 30/355/63 31/356/63 192/357/63
f 68/358/28 66/359/28 131/259/28 130/261/28
f 105/360/64 55/361/64 9/362/64 170/363/64
f 118/364/3 119/103/3 181/106/29 183/284/3
f 95/365/3 93/366/3 158/272/3 157/274/29
f 40/367/28 41/95/28 26/98/28 24/248/27
f 54/368/65 106/369/65 171/370/65 10/371/65
f 122/372/3 120/373/3 185/285/3 184/287/29
f 67/374/28 68/358/28 130/261/28 132/260/28
f 44/375/28 42/376/28 22/249/28 23/251/28
f 108/377/66 52/378/66 12/379/66 173/380/66
f 94/381/3 95/365/3 157/274/29 159/273/3
f 71/382/28 69/383/28 134/262/28 133/264/28
f 51/384/67 109/385/67 174/386/67 13/387/67
f 121/388/3 122/372/3 184/287/29 186/286/3
f 98/389/3 96/390/3 161/275/3 160/277/3
f 43/391/28 44/375/28 23/251/28 21/250/28
f 111/392/68 49/393/68 15/394/68 176/395/68
f 125/396/3 123/397/3 188/288/47 187/290/29
f 70/398/28 71/382/28 133/264/28 135/263/28
f 47/399/28 45/400/28 19/252/26 20/254/27
f 48/401/69 112/402/69 177/403/69 16/404/69
f 97/405/3 98/389/3 160/277/3 162/276/3
f 74/406/28 72/407/28 137/265/46 136/267/28
f 114/408/70 46/409/70 18/410/70 179/411/70
f 124/412/3 125/396/3 187/290/29 189/289/47
f 101/413/3 99/414/3 164/278/3 163/280/3
f 46/415/28 47/399/28 20/254/27 18/253/27
f 45/416/71 115/417/71 180/418/71 19/419/71
f 128/420/3 126/421/29 191/291/47 190/293/29
f 73/422/28 74/406/28 136/267/28 138/266/46
f 50/423/28 48/424/28 16/255/28 17/257/27
f 117/425/72 43/426/72 21/427/72 182/428/72
f 100/429/3 101/413/3 163/280/3 165/279/3
f 77/430/28 75/431/28 140/268/28 139/270/28
f 42/432/73 118/433/73 183/434/73 22/435/73
f 127/436/3 128/420/3 190/293/29 192/292/47
f 104/437/3 102/438/3 167/281/3 166/283/29
f 49/439/28 50/423/28 17/257/27 15/256/28
f 120/440/74 40/441/74 24/442/74 185/443/74
f 81/444/75 79/445/75 144/446/75 146/447/75
f 76/448/28 77/430/28 139/270/28 141/269/28
f 53/243/28 51/449/28 13/258/28 14/244/27
f 39/450/76 121/451/76 186/452/76 25/453/76
f 78/454/77 82/455/77 147/456/77 143/457/77
f 103/458/3 104/437/3 166/283/29 168/282/3
f 80/231/28 78/459/27 143/271/28 142/232/27
f 123/460/78 37/461/78 27/462/78 188/463/78
f 84/464/79 76/465/79 141/466/79 149/467/79
f 480/468/80 482/469/81 481/470/82 432/471/83 434/472/84 433/473/80 82/473/80 78/468/80
f 496/474/85 451/475/85 454/476/86 501/477/86
f 226/478/87 507/478/87 509/479/88 508/480/89 459/481/90 461/482/91 460/483/87 318/483/87
f 229/484/92 225/485/92 319/486/92 315/487/92
f 232/488/93 228/489/93 316/490/93 312/491/93
f 235/492/94 231/493/94 313/494/94 309/495/94
f 238/496/95 234/497/95 310/498/95 306/499/95
f 241/500/96 237/501/96 307/502/96 303/503/96
f 244/504/97 240/505/97 304/506/97 300/507/97
f 247/508/98 243/509/98 301/510/98 297/511/98
f 250/512/99 246/513/99 298/514/99 294/515/99
f 253/516/100 249/517/100 295/518/100 291/519/100
f 256/520/101 252/521/101 292/522/101 288/523/101
f 259/524/102 255/525/102 289/526/102 285/527/102
f 262/528/103 258/529/103 286/530/103 282/531/103
f 265/532/104 261/533/104 283/534/104 279/535/104
f 268/536/105 264/537/105 280/538/105 276/539/105
f 271/540/106 267/541/106 277/542/106 273/543/106
f 223/544/107 224/545/28 222/546/46
f 283/547/4 348/548/4 346/549/4 284/550/4
f 249/551/108 199/552/108 360/553/108 295/554/108
f 233/555/28 218/556/28 217/557/107 231/558/28
f 256/559/28 321/560/28 194/561/28 257/562/28
f 311/563/3 373/564/4 374/565/3 309/566/3
f 294/567/109 359/568/109 198/569/109 250/570/109
f 229/571/28 219/572/28 221/573/28 230/574/28
f 284/550/4 346/549/4 347/575/3 282/576/3
f 307/577/3 372/578/3 370/579/4 308/580/3
f 252/581/110 196/582/110 357/583/110 292/584/110
f 257/562/28 194/561/28 193/585/28 255/586/28
f 280/587/3 345/588/3 343/589/4 281/590/3
f 291/591/111 356/592/111 195/593/111 253/594/111
f 230/574/28 221/573/28 220/595/28 228/596/28
f 253/597/28 195/598/28 197/599/28 254/600/28
f 308/580/3 370/579/4 371/601/3 306/602/3
f 255/603/112 193/604/112 354/605/112 289/606/112
f 226/607/28 222/546/46 224/545/28 227/608/28
f 281/590/3 343/589/4 344/609/3 279/610/3
f 304/611/3 369/612/3 367/613/3 305/614/3
f 288/615/113 353/616/113 321/617/113 256/618/113
f 254/600/28 197/599/28 196/619/28 252/620/28
f 277/621/3 342/622/3 340/623/4 278/624/4
f 258/625/114 323/626/114 351/627/114 286/628/114
f 227/608/28 224/545/28 223/544/107 225/629/28
f 250/630/28 198/631/28 200/632/28 251/633/28
f 305/614/3 367/613/3 368/634/3 303/635/3
f 285/636/115 350/637/115 324/638/115 259/639/115
f 278/624/4 340/623/4 341/640/3 276/641/3
f 301/9/4 366/642/4 364/643/4 302/10/3
f 261/644/116 326/645/116 348/646/116 283/647/116
f 251/633/28 200/632/28 199/648/28 249/649/28
f 274/650/4 339/651/3 337/652/4 275/653/3
f 282/654/117 347/655/117 327/656/117 262/657/117
f 247/658/28 201/659/28 203/660/28 248/661/28
f 302/10/3 364/643/4 365/662/3 300/663/3
f 264/664/118 329/665/118 345/666/118 280/667/118
f 225/668/119 223/669/119 384/670/119 319/671/119
f 275/653/3 337/652/4 338/672/3 273/673/3
f 298/674/3 363/675/3 361/676/4 299/7/3
f 279/677/120 344/678/120 330/679/120 265/680/120
f 318/681/121 383/682/121 222/683/121 226/684/121
f 248/661/28 203/660/28 202/685/28 246/686/28
f 271/687/28 336/688/28 334/689/46 272/690/28
f 267/691/122 332/692/122 342/693/122 277/694/122
f 228/695/123 220/696/123 381/697/123 316/698/123
f 244/699/28 204/700/28 206/701/46 245/702/28
f 299/7/3 361/676/4 362/703/3 297/8/3
f 220/595/28 221/573/28 219/572/28
f 217/557/107 218/556/28 216/704/46
f 214/705/28 215/706/28 213/707/28
f 211/708/107 212/709/46 210/710/46
f 208/711/28 209/712/46 207/713/28
f 205/714/28 206/701/46 204/700/28
f 202/685/28 203/660/28 201/659/28
f 199/648/28 200/632/28 198/631/28
f 196/619/28 197/599/28 195/598/28
f 193/585/28 194/561/28 321/560/28
f 323/715/28 322/716/28 324/717/28
f 326/718/28 325/719/28 327/720/28
f 329/721/27 328/722/28 330/723/27
f 332/724/28 331/725/28 333/726/28
f 335/727/28 334/689/46 336/688/28
f 338/672/3 337/652/4 339/651/3
f 341/640/3 340/623/4 342/622/3
f 344/609/3 343/589/4 345/588/3
f 347/575/3 346/549/4 348/548/4
f 350/728/3 349/729/4 351/730/4
f 353/731/3 352/732/4 354/733/3
f 356/734/3 355/735/3 357/736/3
f 359/737/3 358/738/4 360/739/3
f 362/703/3 361/676/4 363/675/3
f 365/662/3 364/643/4 366/642/4
f 368/634/3 367/613/3 369/612/3
f 371/601/3 370/579/4 372/578/3
f 374/565/3 373/564/4 375/740/3
f 377/741/3 376/742/4 378/743/3
f 380/744/124 379/745/4 381/746/124
f 383/747/124 382/748/4 384/749/124
f 338/750/125 339/751/125 335/752/125 336/753/125
f 341/754/126 342/755/126 332/756/126 333/757/126
f 344/758/127 345/759/127 329/760/127 330/761/127
f 347/762/128 348/763/128 326/764/128 327/765/128
f 350/766/129 351/767/129 323/768/129 324/769/129
f 353/770/130 354/771/130 193/772/130 321/773/130
f 356/774/131 357/775/131 196/776/131 195/777/131
f 359/778/132 360/779/132 199/780/132 198/781/132
f 362/782/133 363/783/133 202/784/133 201/785/133
f 365/786/134 366/787/134 205/788/134 204/789/134
f 368/790/135 369/791/135 208/792/135 207/793/135
f 371/794/136 372/795/136 211/796/136 210/797/136
f 374/798/137 375/799/137 214/800/137 213/801/137
f 377/802/138 378/803/138 217/804/138 216/805/138
f 380/806/139 381/807/139 220/808/139 219/809/139
f 383/810/140 384/811/140 223/812/140 222/813/140
f 260/814/28 322/716/28 323/715/28 258/815/28
f 297/816/141 362/817/141 201/818/141 247/819/141
f 310/820/3 375/740/3 373/564/4 311/563/3
f 287/821/4 349/729/4 350/728/3 285/822/3
f 232/823/28 216/704/46 218/556/28 233/555/28
f 246/824/142 202/825/142 363/826/142 298/827/142
f 314/828/3 376/742/4 377/741/3 312/829/3
f 259/830/28 324/717/28 322/716/28 260/814/28
f 236/831/28 215/706/28 214/705/28 234/832/28
f 300/833/143 365/834/143 204/835/143 244/836/143
f 286/837/4 351/730/4 349/729/4 287/821/4
f 263/838/28 325/719/28 326/718/28 261/839/28
f 243/840/144 205/841/144 366/842/144 301/843/144
f 313/844/3 378/743/3 376/742/4 314/828/3
f 290/845/3 352/732/4 353/731/3 288/846/3
f 235/847/28 213/707/28 215/706/28 236/831/28
f 303/848/145 368/849/145 207/850/145 241/851/145
f 317/852/3 379/745/4 380/744/124 315/853/3
f 262/854/28 327/720/28 325/719/28 263/838/28
f 239/855/28 212/709/46 211/708/107 237/856/28
f 240/857/146 208/858/146 369/859/146 304/860/146
f 289/861/3 354/733/3 352/732/4 290/845/3
f 266/862/28 328/722/28 329/721/27 264/863/28
f 306/864/147 371/865/147 210/866/147 238/867/147
f 316/868/3 381/746/124 379/745/4 317/852/3
f 293/869/3 355/735/3 356/734/3 291/870/3
f 238/871/28 210/710/46 212/709/46 239/855/28
f 237/872/148 211/873/148 372/874/148 307/875/148
f 320/876/3 382/748/4 383/747/124 318/877/4
f 265/878/28 330/723/27 328/722/28 266/862/28
f 242/879/28 209/712/46 208/711/28 240/880/28
f 309/881/149 374/882/149 213/883/149 235/884/149
f 292/885/3 357/736/3 355/735/3 293/869/3
f 269/886/28 331/725/28 332/724/28 267/887/28
f 234/888/150 214/889/150 375/890/150 310/891/150
f 319/892/3 384/749/124 382/748/4 320/876/3
f 296/893/3 358/738/4 359/737/3 294/894/3
f 241/895/28 207/713/28 209/712/46 242/879/28
f 312/896/151 377/897/151 216/898/151 232/899/151
f 273/900/152 338/901/152 336/902/152 271/903/152
f 268/904/28 333/726/28 331/725/28 269/886/28
f 245/702/28 206/701/46 205/714/28 243/905/28
f 231/906/153 217/907/153 378/908/153 313/909/153
f 270/910/154 335/911/154 339/912/154 274/913/154
f 295/914/3 360/739/3 358/738/4 296/893/3
f 272/690/28 334/689/46 335/727/28 270/915/46
f 315/916/155 380/917/155 219/918/155 229/919/155
f 276/920/156 341/921/156 333/922/156 268/923/156
f 508/480/89 523/924/157 472/925/157 459/481/90
f 496/474/85 483/926/158 436/927/159 451/475/85
f 421/928/160 442/12/5 487/11/5 418/929/160 415/930/160
f 493/931/161 445/932/161 439/933/162 490/934/162
f 478/935/163 526/936/163 520/2/1 475/1/1
f 501/937/164 454/938/164 448/939/165 498/940/165
f 472/925/157 523/924/157 526/941/166 478/942/166
f 483/926/158 485/943/167 484/944/168 270/944/168 274/945/168 435/945/168 437/946/169 436/927/159
f 398/947/170 404/948/171 414/949/172 417/950/173
f 400/951/174 401/952/175 412/953/176 427/954/177
f 424/955/178 402/956/179 400/957/174 427/958/177
f 412/953/176 401/952/175 397/959/180 409/960/181
f 397/961/180 403/962/182 405/963/183 409/964/181
f 390/965/184 389/966/185 404/948/171 398/947/170
f 423/967/186 425/968/187 428/969/188 426/970/189
f 394/971/190 403/962/182 397/961/180 395/972/191
f 393/973/192 400/957/174 402/956/179 392/974/193
f 396/975/194 395/976/191 397/959/180 401/952/175
f 399/977/195 402/956/179 424/955/178 420/978/196
f 389/966/185 391/979/197 399/980/195 404/948/171
f 393/981/192 396/975/194 401/952/175 400/951/174
f 404/948/171 399/980/195 420/982/196 414/949/172
f 403/962/182 398/983/170 417/984/173 405/963/183
f 413/985/198 428/986/199 427/954/200 412/953/198
f 418/929/160 487/11/5 498/940/165 448/939/165 442/12/5 421/928/160 423/967/160 426/970/160 411/987/160 408/988/160 406/989/160
f 411/987/201 426/970/189 428/969/188 413/990/201
f 410/991/202 413/985/198 412/953/198 409/960/203
f 408/988/204 411/987/201 413/990/201 410/992/205
f 406/989/206 407/993/206 419/994/207 418/929/208
f 424/955/209 425/995/210 422/996/211 420/978/212
f 428/997/199 425/995/210 424/955/209 427/958/200
f 419/998/213 407/999/214 405/963/215 417/984/216
f 422/1000/211 416/1001/217 414/949/217 420/982/212
f 421/928/218 415/930/219 416/1002/219 422/1003/220
f 417/950/216 414/949/217 416/1001/217 419/1004/213
f 409/964/203 405/963/215 407/999/214 410/1005/202
f 419/994/207 416/1002/219 415/930/219 418/929/208
f 410/992/205 407/993/206 406/989/206 408/988/204
f 425/968/187 423/967/186 421/928/218 422/1003/220
f 390/1006/184 398/983/170 403/962/182 394/971/190
f 532/20/10 534/1007/221 537/1008/221 431/1009/221 430/21/10
f 463/4/2 513/3/2 517/1010/222 469/1011/222
f 432/471/83 439/933/223 440/1012/224 434/472/84
f 434/1013/225 440/1014/226 438/1015/227 433/192/225
f 448/939/228 454/938/229 455/1016/229 449/1017/230
f 449/1018/231 455/1019/232 453/1020/233 447/1021/234
f 450/1022/235 453/1020/233 455/1019/232 452/1023/236
f 452/1024/237 455/1025/238 454/476/238 451/475/239
f 439/933/223 445/932/240 446/1026/240 440/1012/224
f 440/1014/226 446/1027/241 444/1028/242 438/1015/227
f 435/650/243 450/1022/235 452/1023/236 437/1029/243
f 437/946/169 452/1024/237 451/475/239 436/927/159
f 441/1030/244 444/1028/242 446/1027/241 443/1031/245
f 443/1032/246 446/1033/247 445/13/247 442/12/248
f 442/12/248 448/939/228 449/1017/230 443/1032/246
f 443/1031/245 449/1018/231 447/1021/234 441/1030/244
f 504/1034/249 457/1035/250 466/18/8 510/17/8
f 472/925/251 478/942/252 479/1036/252 473/1037/253
f 473/1038/254 479/1039/255 477/1040/256 471/1041/257
f 463/4/258 469/1011/259 470/1042/259 464/1043/260
f 464/1044/261 470/1045/262 468/1046/263 462/1047/264
f 462/1047/264 474/1048/265 476/1049/266 464/1044/261
f 464/1043/260 476/1050/267 475/1/268 463/4/258
f 456/421/269 465/1051/270 467/1052/271 458/1053/269
f 458/1054/272 467/1055/273 466/18/274 457/1035/250
f 465/1051/270 468/1046/263 470/1045/262 467/1052/271
f 467/1055/273 470/1056/275 469/15/275 466/18/274
f 459/481/90 472/925/251 473/1037/253 461/482/91
f 461/1057/276 473/1038/254 471/1041/257 460/1058/276
f 474/1048/265 477/1040/256 479/1039/255 476/1049/266
f 476/1050/267 479/1059/277 478/935/277 475/1/268
f 34/1060/278 126/1061/278 456/1061/278 458/1054/272 457/1035/250 504/1034/249 506/1062/279 505/1063/278
f 480/459/280 489/1064/281 491/1065/282 482/1066/280
f 482/469/81 491/1067/283 490/934/284 481/470/82
f 496/474/285 501/477/286 503/1068/286 497/1069/287
f 497/1070/288 503/1071/289 502/1072/290 495/1073/291
f 499/1074/292 502/1072/290 503/1071/289 500/1075/293
f 500/1076/294 503/1077/295 501/937/295 498/940/296
f 489/1064/281 492/1078/297 494/1079/298 491/1065/282
f 491/1067/283 494/1080/299 493/931/299 490/934/284
f 483/926/158 496/474/285 497/1069/287 485/943/167
f 485/1081/300 497/1070/288 495/1073/291 484/915/300
f 487/11/301 493/14/302 494/1082/302 488/1083/303
f 488/1084/304 494/1079/298 492/1078/297 486/1085/305
f 486/1085/305 499/1074/292 500/1075/293 488/1084/304
f 488/1083/303 500/1076/294 498/940/296 487/11/301
f 490/934/162 439/933/162 432/471/83 481/470/82
f 507/607/306 522/1086/307 524/1087/308 509/1088/306
f 509/479/88 524/1089/309 523/924/310 508/480/89
f 504/1034/249 510/17/311 512/1090/312 506/1062/279
f 506/1091/313 512/1092/314 511/1093/315 505/147/313
f 514/1094/316 516/1095/317 518/1096/318 515/1097/319
f 515/1098/320 518/1099/321 517/1010/321 513/3/322
f 522/1086/307 525/1100/323 527/1101/324 524/1087/308
f 524/1089/309 527/1102/325 526/941/325 523/924/310
f 520/2/326 526/936/327 527/1103/327 521/1104/328
f 521/1105/329 527/1101/324 525/1100/323 519/1106/330
f 513/3/322 520/2/326 521/1104/328 515/1098/320
f 515/1097/319 521/1105/329 519/1106/330 514/1094/316
f 510/17/311 517/16/331 518/1107/331 512/1090/312
f 512/1092/314 518/1096/318 516/1095/317 511/1093/315
f 46/415/28 42/376/28 44/375/28 43/391/28 39/96/28 41/95/28 40/367/28 36/135/28 38/112/28 37/111/28 33/169/28 35/148/28 34/147/28 505/147/28 511/1093/28 516/1095/28 514/1094/28 519/1106/28 525/1100/28 522/1086/28 507/607/28 226/607/28 227/608/28 225/629/28 229/571/28 230/574/28 228/596/28 232/823/28 233/555/28 231/558/28 235/847/28 236/831/28 234/832/28 238/871/28 239/855/28 237/856/28 241/895/28 242/879/28 240/880/28 244/699/28 245/702/28 243/905/28 247/658/28 248/661/28 246/686/28 250/630/28 251/633/28 249/649/28 253/597/28 254/600/28 252/620/28 256/559/28 257/562/28 255/586/28 259/830/28 260/814/28 258/815/28 262/854/28 263/838/28 261/839/28 265/878/28 266/862/28 264/863/28 268/904/28 269/886/28 267/887/28 271/687/28 272/690/28 270/915/46 484/915/28 495/1073/28 502/1072/28 499/1074/28 486/1085/28 492/1078/28 489/1064/28 480/459/28 78/459/27 80/231/28 79/230/28 75/431/28 77/430/28 76/448/28 72/407/28 74/406/28 73/422/28 69/383/28 71/382/28 70/398/28 66/359/28 68/358/28 67/374/28 63/125/28 65/100/28 64/99/28 60/159/28 62/138/28 61/137/28 57/190/28 59/171/28 58/170/28 54/228/28 56/201/28 55/200/28 51/449/28 53/243/28 52/242/28 48/424/28 50/423/28 49/439/28 45/400/28 47/399/28
f 528/1108/332 531/1109/333 533/1110/334 530/1111/335 542/1112/332
f 530/1111/335 533/1110/334 532/20/336 529/19/337 543/1113/337
f 531/1109/333 535/1114/338 538/1115/338 536/1116/339 533/1110/334
f 533/1110/334 536/1116/339 539/1117/340 534/1007/340 532/20/336
f 122/372/3 121/388/3 117/104/3 119/103/3 118/364/3 114/141/3 116/118/3 115/117/3 111/174/3 113/152/3 112/151/3 108/204/3 110/183/3 109/182/3 105/246/3 107/217/3 106/216/3 102/438/3 104/437/3 103/458/3 99/414/3 101/413/3 100/429/3 96/390/3 98/389/3 97/405/3 93/366/3 95/365/3 94/381/3 90/115/3 92/88/3 91/87/3 87/149/3 89/128/3 88/127/3 84/180/3 86/162/3 85/161/3 81/214/3 83/193/3 82/192/29 433/192/3 438/1015/3 444/1028/3 441/1030/3 447/1021/3 453/1020/3 450/1022/3 435/650/3 274/650/4 275/653/3 273/673/3 277/621/3 278/624/4 276/641/3 280/587/3 281/590/3 279/610/3 283/547/4 284/550/4 282/576/3 286/837/4 287/821/4 285/822/3 289/861/3 290/845/3 288/846/3 292/885/3 293/869/3 291/870/3 295/914/3 296/893/3 294/894/3 298/674/3 299/7/3 386/6/3 385/1118/3 545/1119/3 540/1120/3 535/1121/3 531/1122/3 528/1123/3 544/1124/3 546/1125/3 388/1126/3 387/5/3 302/10/3 300/663/3 304/611/3 305/614/3 303/635/3 307/577/3 308/580/3 306/602/3 310/820/3 311/563/3 309/566/3 313/844/3 314/828/3 312/829/3 316/868/3 317/852/3 315/853/3 319/892/3 320/876/3 318/877/4 460/1058/3 471/1041/3 477/1040/3 474/1048/3 462/1047/3 468/1046/3 465/1051/3 456/421/3 126/421/29 128/420/3 127/436/3 123/397/3 125/396/3 124/412/3 120/373/3
f 392/974/193 402/956/179 399/977/195 391/1182/197
usemtl Glass
f 557/1127/341 555/1128/341 565/1129/341 559/1130/341 561/1131/341 571/1132/341
f 547/1133/342 548/1134/342 550/1135/342 549/1136/342
f 551/1137/343 553/1138/343 554/1139/343 552/1140/343
f 547/1141/3 556/1142/3 558/1143/3 548/1144/3
f 548/1145/344 558/1146/344 570/1147/344 562/1148/344 552/1149/344
f 551/1137/345 552/1140/345 562/1150/345 560/1151/345
f 549/1152/346 550/1153/346 554/1154/346 553/1155/346
f 550/1153/344 548/1156/344 552/1157/344 554/1154/344
f 547/1158/347 549/1152/160 553/1155/160 551/1159/348
f 555/1160/349 557/1161/350 568/1162/351 558/1143/352 556/1142/353 563/1163/354
f 561/1164/355 559/1165/356 564/1166/357 560/1151/358 562/1150/359 569/1167/360
f 567/1168/361 563/1169/354 556/1170/353 566/1171/362
f 572/1172/363 568/1173/351 557/1127/350 571/1132/364
f 556/1170/365 547/1174/347 551/1175/348 560/1176/365 566/1171/365
f 564/1177/357 567/1168/361 566/1171/362 560/1176/358
f 559/1178/356 565/1179/366 567/1168/361 564/1177/357
f 565/1179/366 555/1180/349 563/1169/354 567/1168/361
f 569/1181/360 572/1172/363 571/1132/364 561/1131/355
f 562/1148/359 570/1147/367 572/1172/363 569/1181/360
f 570/1147/367 558/1146/352 568/1173/351 572/1172/363
usemtl Material.002
f 573/1183/368 574/1184/369 575/1185/370
f 573/1183/368 576/1186/371 574/1184/369
f 576/1186/371 577/1187/372 574/1184/369
f 576/1186/371 578/1188/373 577/1187/372
f 621/1189/374 579/1190/375 617/1191/376 618/1192/377
f 602/1193/378 608/1194/379 584/1195/380
f 578/1188/373 614/1196/381 616/1197/382
f 578/1188/373 580/1198/383 614/1196/381
f 580/1198/383 609/1199/384 614/1196/381
f 580/1198/383 581/1200/385 609/1199/384
f 609/1199/384 604/1201/386 678/1202/387 610/1203/388
f 582/1204/389 583/1205/390 576/1186/371 573/1183/368
f 583/1205/390 578/1206/373 576/1186/371
f 583/1205/390 580/1198/383 578/1207/373
f 583/1205/390 584/1195/380 581/1200/385 580/1198/383
f 602/1193/378 584/1195/380 582/1204/389 594/1208/391
f 641/1209/392 636/1210/393 637/1211/394 642/1212/395
f 585/1213/396 586/1214/397 636/1215/393
f 586/1214/397 587/1216/398 636/1215/393
f 586/1214/397 588/1217/399 587/1216/398
f 588/1217/399 589/1218/400 587/1216/398
f 655/1219/401 656/1220/402 668/1221/403 667/1222/404
f 588/1217/399 592/1223/405 591/1224/406
f 592/1223/405 593/1225/407 591/1224/406
f 592/1223/405 573/1183/368 593/1225/407
f 573/1183/368 575/1185/370 593/1225/407
f 594/1208/391 595/1226/408 586/1214/397 585/1213/396
f 595/1226/408 588/1227/399 586/1214/397
f 595/1226/408 592/1223/405 588/1228/399
f 595/1226/408 582/1204/389 573/1183/368 592/1223/405
f 596/1229/409 658/1230/410 660/1231/411
f 596/1229/409 597/1232/412 658/1230/410
f 597/1232/412 598/1233/413 658/1230/410
f 597/1232/412 599/1234/414 598/1233/413
f 651/1235/415 644/1236/416 662/1237/417
f 599/1234/414 600/1238/418 646/1239/419
f 599/1234/414 601/1240/420 600/1238/418
f 601/1240/420 641/1209/392 600/1238/418
f 601/1240/420 585/1213/396 641/1209/392
f 602/1193/378 603/1241/421 597/1232/412 596/1229/409
f 603/1241/421 599/1242/414 597/1232/412
f 603/1241/421 601/1240/420 599/1243/414
f 603/1241/421 594/1208/391 585/1213/396 601/1240/420
f 619/1244/422 620/1245/423 626/1246/424 625/1247/425
f 581/1200/385 605/1248/426 604/1249/386
f 605/1248/426 676/1250/427 604/1249/386
f 605/1248/426 606/1251/428 676/1250/427
f 606/1251/428 671/1252/429 676/1250/427
f 672/1253/430 670/1254/431 673/1255/432
f 606/1251/428 607/1256/433 665/1257/434
f 607/1256/433 663/1258/435 665/1257/434
f 607/1256/433 596/1229/409 663/1258/435
f 596/1229/409 660/1231/411 663/1258/435
f 584/1195/380 608/1194/379 605/1248/426 581/1200/385
f 608/1194/379 606/1259/428 605/1248/426
f 608/1194/379 607/1256/433 606/1260/428
f 608/1194/379 602/1193/378 596/1229/409 607/1256/433
f 634/1261/436 639/1262/437 631/1263/438
f 618/1192/377 617/1191/376 611/1264/439
f 579/1190/375 616/1265/382 617/1191/376
f 623/1266/440 621/1189/374 624/1267/441
f 610/1203/388 611/1264/439 617/1191/376
f 617/1191/376 615/1268/442 610/1203/388
f 577/1187/372 579/1269/375 621/1189/374
f 644/1236/416 650/1270/443 640/1271/444
f 643/1272/445 638/1273/446 639/1262/437
f 629/1274/447 632/1275/448 626/1246/424
f 616/1265/382 615/1268/442 617/1191/376
f 614/1276/381 615/1268/442 616/1265/382
f 582/1204/389 595/1226/408 594/1208/391
f 624/1267/441 625/1247/425 631/1263/438 630/1277/449
f 622/1278/450 577/1279/372 621/1189/374
f 653/1280/451 649/1281/452 650/1270/443
f 594/1208/391 603/1241/421 602/1193/378
f 653/1280/451 656/1220/402 649/1281/452
f 622/1278/450 574/1282/369 577/1279/372
f 577/1187/372 578/1188/373 579/1269/375
f 637/1211/394 633/1283/453 638/1273/446
f 584/1195/380 583/1205/390 582/1204/389
f 623/1266/440 622/1278/450 621/1189/374
f 667/1222/404 661/1284/454 655/1219/401
f 627/1285/455 593/1286/407 575/1287/370
f 648/1288/456 649/1281/452 656/1220/402 655/1219/401
f 623/1266/440 624/1267/441 628/1289/457
f 591/1290/406 628/1289/457 590/1291/458
f 634/1261/436 631/1263/438 632/1275/448
f 628/1289/457 627/1285/455 623/1266/440
f 627/1285/455 575/1287/370 622/1278/450 623/1266/440
f 589/1218/400 590/1292/458 633/1283/453
f 648/1288/456 643/1272/445 649/1281/452
f 574/1282/369 622/1278/450 575/1287/370
f 639/1262/437 640/1271/444 650/1270/443 649/1281/452
f 591/1290/406 627/1285/455 628/1289/457
f 647/1293/459 642/1212/395 648/1288/456
f 590/1291/458 588/1217/399 591/1290/406
f 633/1283/453 590/1291/458 628/1289/457 630/1277/449
f 639/1262/437 634/1261/436 640/1271/444
f 655/1219/401 652/1294/460 648/1288/456
f 593/1286/407 627/1285/455 591/1290/406
f 640/1271/444 632/1275/448 629/1274/447 644/1236/416
f 635/1295/461 589/1296/400 633/1283/453
f 656/1220/402 653/1280/451 657/1297/462
f 646/1298/419 647/1293/459 652/1294/460
f 635/1295/461 587/1299/398 589/1296/400
f 589/1218/400 588/1217/399 590/1292/458
f 637/1211/394 635/1295/461 633/1283/453
f 648/1288/456 642/1212/395 638/1273/446 643/1272/445
f 645/1300/463 641/1301/392 642/1212/395
f 637/1211/394 638/1273/446 642/1212/395
f 656/1220/402 657/1297/462 669/1302/464 668/1221/403
f 662/1237/417 657/1297/462 651/1235/415
f 649/1281/452 643/1272/445 639/1262/437
f 641/1209/392 585/1213/396 636/1210/393
f 652/1294/460 598/1233/413 599/1234/414 646/1298/419
f 645/1300/463 600/1303/418 641/1301/392
f 636/1210/393 635/1295/461 637/1211/394
f 587/1299/398 635/1295/461 636/1210/393
f 647/1293/459 645/1300/463 642/1212/395
f 652/1294/460 654/1304/465 598/1233/413
f 646/1298/419 645/1300/463 647/1293/459
f 629/1274/447 679/1305/466 662/1237/417 644/1236/416
f 673/1255/432 670/1254/431 667/1222/404
f 650/1270/443 651/1235/415 657/1297/462 653/1280/451
f 662/1237/417 669/1302/464 657/1297/462
f 672/1253/430 671/1252/429 670/1254/431
f 651/1235/415 650/1270/443 644/1236/416
f 600/1303/418 645/1300/463 646/1298/419
f 654/1304/465 655/1219/401 661/1284/454
f 647/1293/459 648/1288/456 652/1294/460
f 659/1306/467 598/1307/413 654/1304/465
f 667/1222/404 668/1221/403 674/1308/468 673/1255/432
f 659/1306/467 658/1309/410 598/1307/413
f 668/1221/403 669/1302/464 675/1310/469 674/1308/468
f 654/1304/465 652/1294/460 655/1219/401
f 666/1311/470 661/1284/454 667/1222/404
f 625/1247/425 626/1246/424 632/1275/448 631/1263/438
f 661/1284/454 659/1306/467 654/1304/465
f 664/1312/471 663/1313/435 660/1314/411
f 672/1253/430 673/1255/432 678/1202/387
f 666/1311/470 664/1312/471 661/1284/454
f 664/1312/471 660/1314/411 659/1306/467 661/1284/454
f 665/1315/434 666/1311/470 670/1254/431
f 658/1309/410 659/1306/467 660/1314/411
f 675/1310/469 669/1302/464 662/1237/417 679/1305/466
f 665/1315/434 664/1312/471 666/1311/470
f 670/1254/431 671/1252/429 606/1251/428 665/1315/434
f 678/1202/387 673/1255/432 611/1264/439
f 663/1313/435 664/1312/471 665/1315/434
f 677/1316/472 671/1317/429 672/1253/430
f 630/1277/449 631/1263/438 639/1262/437 638/1273/446
f 611/1264/439 610/1203/388 678/1202/387
f 677/1316/472 676/1318/427 671/1317/429
f 612/1319/473 611/1264/439 673/1255/432 674/1308/468
f 666/1311/470 667/1222/404 670/1254/431
f 678/1202/387 677/1316/472 672/1253/430
f 618/1192/377 619/1244/422 625/1247/425 624/1267/441
f 620/1245/423 613/1320/474 679/1305/466
f 624/1267/441 621/1189/374 618/1192/377
f 613/1320/474 612/1319/473 674/1308/468 675/1310/469
f 620/1245/423 619/1244/422 612/1319/473 613/1320/474
f 626/1246/424 620/1245/423 679/1305/466 629/1274/447
f 638/1273/446 633/1283/453 630/1277/449
f 675/1310/469 679/1305/466 613/1320/474
f 619/1244/422 618/1192/377 611/1264/439 612/1319/473
f 609/1199/384 581/1200/385 604/1201/386
f 604/1201/386 677/1316/472 678/1202/387
f 676/1318/427 677/1316/472 604/1201/386
f 615/1268/442 614/1276/381 609/1321/384
f 630/1277/449 628/1289/457 624/1267/441
f 579/1190/375 578/1188/373 616/1265/382
f 640/1271/444 634/1261/436 632/1275/448
f 615/1268/442 609/1321/384 610/1203/388
