# Blender 4.4.0
# www.blender.org
mtllib obj_Pinboard.mtl
o obj_Pinboard
v -0.006811 -0.444591 0.657229
v -0.006811 0.444591 0.657229
v -0.006811 -0.444591 -0.657229
v -0.006811 0.444591 -0.657229
v 0.013020 -0.419188 0.630271
v 0.013020 0.419188 0.630271
v 0.013020 -0.419188 -0.630271
v 0.013020 0.419188 -0.630271
v 0.013020 0.444591 -0.657229
v 0.013020 -0.444591 -0.657229
v 0.013020 -0.444591 0.657229
v 0.013020 0.444591 0.657229
v 0.001113 0.419188 -0.630271
v 0.001113 -0.419188 -0.630271
v 0.001113 -0.419188 0.630271
v 0.001113 0.419188 0.630271
vn -1.0000 -0.0000 -0.0000
vn -0.0000 -0.0000 -1.0000
vn -0.0000 -1.0000 -0.0000
vn -0.0000 -0.0000 1.0000
vn -0.0000 1.0000 -0.0000
vn 1.0000 -0.0000 -0.0000
vt 0.206372 0.782023
vt 0.079186 0.781531
vt 0.078458 0.969547
vt 0.205644 0.970039
vt 0.082107 0.965705
vt 0.082805 0.785401
vt 0.202025 0.966169
vt 0.202723 0.785865
vt 1.253429 0.003350
vt 1.253429 1.003744
vt -0.250716 1.003744
vt -0.250716 0.003350
s 0
usemtl mat_Desk_main
f 1/1/1 2/2/1 4/3/1 3/4/1
f 3/4/2 4/3/2 9/3/2 10/4/2
f 8/5/3 6/6/3 16/6/3 13/5/3
f 11/1/4 12/2/4 2/2/4 1/1/4
f 3/4/3 10/4/3 11/1/3 1/1/3
f 9/3/5 4/3/5 2/2/5 12/2/5
f 8/5/6 7/7/6 10/4/6 9/3/6
f 7/7/6 5/8/6 11/1/6 10/4/6
f 6/6/6 8/5/6 9/3/6 12/2/6
f 5/8/6 6/6/6 12/2/6 11/1/6
f 7/7/4 8/5/4 13/5/4 14/7/4
f 6/6/2 5/8/2 15/8/2 16/6/2
f 5/8/5 7/7/5 14/7/5 15/8/5
usemtl mat_Cork
f 14/9/6 13/10/6 16/11/6 15/12/6
