# Blender 4.4.0
# www.blender.org
mtllib obj_pictureframe_Sandmann.mtl
o Cube.007
v -0.006811 -0.444591 0.324713
v -0.006811 0.444591 0.324713
v -0.006811 -0.444591 -0.324713
v -0.006811 0.444591 -0.324713
v 0.013020 -0.419188 0.311394
v 0.013020 0.419188 0.311394
v 0.013020 -0.419188 -0.311394
v 0.013020 0.419188 -0.311394
v 0.013020 0.444591 -0.324713
v 0.013020 -0.444591 -0.324713
v 0.013020 -0.444591 0.324713
v 0.013020 0.444591 0.324713
v 0.001113 0.419188 -0.311394
v 0.001113 -0.419188 -0.311394
v 0.001113 -0.419188 0.311394
v 0.001113 0.419188 0.311394
vn -1.0000 -0.0000 -0.0000
vn -0.0000 -0.0000 -1.0000
vn -0.0000 -1.0000 -0.0000
vn -0.0000 -0.0000 1.0000
vn -0.0000 1.0000 -0.0000
vn 1.0000 -0.0000 -0.0000
vt 0.375000 0.000000
vt 0.625000 0.000000
vt 0.625000 0.250000
vt 0.375000 0.250000
vt 0.625000 0.500000
vt 0.375000 0.500000
vt 0.619873 0.505127
vt 0.619873 0.744873
vt 0.375000 0.750000
vt 0.625000 0.750000
vt 0.625000 1.000000
vt 0.375000 1.000000
vt 0.125000 0.500000
vt 0.125000 0.750000
vt 0.875000 0.500000
vt 0.875000 0.750000
vt 0.380127 0.505127
vt 0.380127 0.744873
vt 0.522622 0.611624
vt 0.522622 0.974445
vt 0.267445 0.974445
vt 0.267445 0.611624
s 0
usemtl tex_miscellaneous_Collection_noTime
f 14/19/6 13/20/6 16/21/6 15/22/6
usemtl mat_Desk_parts
f 1/1/1 2/2/1 4/3/1 3/4/1
f 3/4/2 4/3/2 9/5/2 10/6/2
f 8/7/3 6/8/3 16/8/3 13/7/3
f 11/9/4 12/10/4 2/11/4 1/12/4
f 3/13/3 10/6/3 11/9/3 1/14/3
f 9/5/5 4/15/5 2/16/5 12/10/5
f 8/7/6 7/17/6 10/6/6 9/5/6
f 7/17/6 5/18/6 11/9/6 10/6/6
f 6/8/6 8/7/6 9/5/6 12/10/6
f 5/18/6 6/8/6 12/10/6 11/9/6
f 7/17/4 8/7/4 13/7/4 14/17/4
f 6/8/2 5/18/2 15/18/2 16/8/2
f 5/18/5 7/17/5 14/17/5 15/18/5
