# Blender 4.4.0
# www.blender.org
mtllib Arm_Map_Autoatlas.mtl
o obj_Map_Autoatlas
v -0.005816 -0.233556 -0.282260
v 0.068682 -0.212968 -0.278841
v -0.005816 -0.233556 0.282260
v 0.062464 -0.219002 0.273536
v -0.002944 -0.216192 -0.282260
v 0.057995 -0.202216 -0.282260
v 0.053869 -0.203194 0.278076
v -0.002944 -0.216192 0.282260
v -0.003122 -0.233556 0.265606
v 0.058156 -0.220023 0.261138
v -0.001351 -0.216192 0.265606
v 0.051324 -0.203797 0.263916
v 0.000000 -0.108096 -0.282260
v -0.000707 0.006052 -0.282519
v 0.024225 -0.099129 -0.282260
v 0.024225 -0.099129 0.282260
v -0.000707 0.006052 0.282260
v 0.000001 -0.108096 0.282260
v 0.024225 -0.099129 0.265606
v -0.000707 0.006052 0.265606
v 0.000001 -0.108096 0.265606
v 0.000000 -0.233556 0.132803
v -0.000000 -0.233556 -0.000000
v 0.024225 -0.099129 -0.176096
v -0.000707 0.006052 -0.175748
v 0.053161 -0.221207 -0.000000
v 0.053161 -0.221207 0.132803
v 0.000000 -0.108096 -0.176096
v 0.000001 -0.216192 0.000000
v 0.000001 -0.216192 0.132803
v 0.052171 -0.203597 -0.176096
v 0.049157 -0.204311 -0.000000
v 0.049157 -0.204311 0.132803
v -0.000630 -0.216192 -0.176096
v 0.000001 -0.108096 0.000000
v 0.000001 -0.108096 0.132803
v 0.057435 -0.220194 -0.176096
v -0.000707 0.006052 0.000000
v -0.000707 0.006052 0.132803
v -0.001457 -0.233556 -0.176096
v 0.024225 -0.099129 0.000000
v 0.024225 -0.099129 0.132803
v 0.034138 -0.218688 -0.000000
v 0.034138 -0.218688 0.132803
v 0.038050 -0.199060 -0.000000
v 0.038050 -0.199060 0.132803
v 0.024225 -0.099129 0.000000
v 0.024225 -0.099129 0.132803
v 0.034775 -0.157651 -0.000000
v 0.034775 -0.157651 0.132803
v 0.054535 -0.220881 0.168107
v -0.000371 -0.216192 0.169336
v 0.049753 -0.204170 0.168871
v 0.000001 -0.108096 0.169336
v -0.000707 0.006052 0.169336
v 0.024225 -0.099129 0.169336
v -0.000859 -0.233556 0.169336
v 0.000000 -0.233556 0.056522
v 0.000001 -0.216192 0.056522
v 0.000001 -0.108096 0.056522
v -0.000707 0.006052 0.056522
v 0.024225 -0.099129 0.056522
v 0.034138 -0.218688 0.056495
v 0.038050 -0.199060 0.056495
v 0.024225 -0.099129 0.056495
v 0.034775 -0.157651 0.056495
v -0.000000 -0.233556 -0.020103
v 0.053161 -0.221207 -0.020103
v 0.000001 -0.216192 -0.020103
v 0.049157 -0.204311 -0.020103
v 0.000001 -0.108096 -0.020103
v -0.000707 0.006052 -0.020103
v 0.024225 -0.099129 -0.020103
v -0.000000 -0.233556 -0.097791
v 0.053161 -0.221207 -0.097791
v 0.000001 -0.216192 -0.097791
v 0.049157 -0.204311 -0.097791
v 0.000001 -0.108096 -0.097791
v -0.000707 0.006052 -0.097791
v 0.024225 -0.099129 -0.097791
v 0.024225 -0.099129 -0.252614
v -0.002880 -0.233556 -0.252614
v -0.000707 0.006052 -0.252703
v 0.000000 -0.108096 -0.252614
v 0.055115 -0.202898 -0.252614
v -0.001247 -0.216192 -0.252614
v 0.061612 -0.219204 -0.252614
v -0.000000 -0.005528 -0.282506
v 0.000000 -0.005528 0.282260
v 0.000000 -0.005528 0.265606
v -0.000000 -0.005528 -0.175766
v 0.000000 -0.005528 0.000000
v 0.000000 -0.005528 0.132803
v 0.000000 -0.005528 0.169336
v 0.000000 -0.005528 0.056522
v 0.000000 -0.005528 -0.020103
v -0.000000 -0.005528 -0.097791
v -0.000000 -0.005528 -0.252699
vn 0.9887 -0.1283 -0.0773
vn -0.8126 -0.5429 -0.2119
vn 0.9832 -0.1314 0.1265
vn -0.8496 -0.4657 0.2477
vn 0.9958 -0.0742 -0.0531
vn -0.8978 -0.4209 -0.1292
vn -0.9178 -0.3621 0.1628
vn 0.9932 -0.0761 0.0876
vn 0.9925 -0.0985 0.0721
vn -0.9069 -0.4001 0.1324
vn 0.9972 -0.0560 0.0489
vn -0.9386 -0.3315 0.0960
vn 0.9999 -0.0097 -0.0143
vn 0.1501 -0.9887 -0.0000
vn -0.9641 -0.2645 -0.0249
vn -0.9681 -0.2472 0.0419
vn 0.1463 -0.9892 -0.0000
vn 0.9997 -0.0099 0.0239
vn -0.9699 -0.2423 0.0234
vn 0.9999 -0.0070 0.0132
vn 0.9999 -0.0071 0.0084
vn 1.0000 -0.0001 -0.0000
vn -0.9696 -0.2445 -0.0099
vn -0.9731 -0.2306 -0.0000
vn -0.9669 -0.2534 0.0283
vn 1.0000 -0.0029 -0.0020
vn 1.0000 -0.0000 -0.0000
vn 1.0000 -0.0040 0.0055
vn -0.9594 -0.2799 -0.0337
vn -0.9730 -0.2306 -0.0000
vn -0.9697 -0.2434 0.0184
vn 0.9996 -0.0265 -0.0087
vn 1.0000 -0.0004 0.0013
vn -0.9522 -0.3016 -0.0476
vn 0.9988 -0.0473 -0.0133
vn -0.9728 -0.2316 0.0028
vn -0.9807 0.1955 -0.0000
vn -0.9983 0.0589 -0.0000
vn -0.9841 -0.1774 -0.0000
vn -0.9917 -0.1283 -0.0000
vn -0.9555 -0.2936 0.0283
vn 0.9997 -0.0222 0.0110
vn -0.9635 -0.2671 0.0184
vn 1.0000 -0.0024 0.0025
vn -0.9721 -0.2346 0.0042
vn 0.9991 -0.0395 0.0168
vn 0.9999 -0.0119 -0.0067
vn -0.9683 -0.2486 -0.0239
vn 1.0000 -0.0067 -0.0043
vn -0.9699 -0.2431 -0.0169
vn 1.0000 -0.0007 -0.0010
vn -0.9722 -0.2341 -0.0049
vn -0.9660 -0.2579 -0.0174
vn 0.9940 -0.0997 -0.0454
vn 0.9999 -0.0070 -0.0082
vn -0.9274 -0.3650 -0.0823
vn 0.9979 -0.0567 -0.0308
vn -0.8892 -0.4395 -0.1273
vn 0.9995 0.0305 -0.0000
vt 0.011985 0.016036
vt -0.000899 0.017932
vt -0.000899 0.009469
vt 0.011985 0.006370
vt 0.345692 0.014882
vt 0.332808 0.014882
vt 0.332808 0.003514
vt 0.345692 0.003514
vt 0.092191 0.014882
vt 0.092191 0.003514
vt 0.092191 0.388845
vt 0.092191 0.368609
vt 0.172396 0.368609
vt 0.172396 0.388845
vt 0.092191 0.080594
vt 0.011985 0.080912
vt 0.002394 0.386511
vt -0.000899 0.368609
vt 0.011985 0.368609
vt 0.011985 0.388845
vt 0.345692 0.080594
vt 0.332808 0.080594
vt -0.000899 0.081433
vt 0.252602 0.080594
vt 0.252602 0.014882
vt 0.176498 0.080594
vt 0.172396 0.080594
vt 0.172396 0.014882
vt 0.176498 0.014882
vt 0.332808 0.388845
vt 0.332808 0.368609
vt 0.345692 0.368609
vt 0.345692 0.388845
vt 0.176498 0.388845
vt 0.176498 0.368609
vt 0.252602 0.368609
vt 0.252602 0.388845
vt 0.252602 0.003514
vt 0.172396 0.003514
vt 0.176498 0.003514
vt 0.176498 0.316379
vt 0.176498 0.262930
vt 0.252602 0.262930
vt 0.252602 0.316379
vt 0.172396 0.209902
vt 0.092191 0.209902
vt 0.092191 0.196180
vt 0.172396 0.196180
vt 0.172396 0.157599
vt 0.092191 0.157599
vt 0.092191 0.105531
vt 0.172396 0.105531
vt 0.332808 0.262930
vt 0.332808 0.316379
vt 0.176498 0.209902
vt 0.176498 0.196180
vt 0.176498 0.157599
vt 0.176498 0.105531
vt -0.000899 0.316379
vt -0.000899 0.262930
vt 0.011985 0.262930
vt 0.011985 0.316379
vt 0.332808 0.209902
vt 0.252602 0.209902
vt 0.252602 0.196180
vt 0.332808 0.196180
vt 0.332808 0.157599
vt 0.252602 0.157599
vt 0.252602 0.105531
vt 0.332808 0.105531
vt 0.345692 0.262930
vt 0.345692 0.316379
vt 0.011985 0.209902
vt -0.000899 0.209902
vt -0.000899 0.196180
vt 0.011985 0.196180
vt 0.092191 0.262930
vt 0.092191 0.316379
vt 0.345692 0.209902
vt 0.345692 0.196180
vt 0.345692 0.157599
vt 0.345692 0.105531
vt 0.172396 0.316379
vt 0.017677 0.157617
vt 0.004175 0.157617
vt 0.004175 0.105531
vt 0.017677 0.105531
vt 0.048134 0.157617
vt 0.048134 0.105531
vt 0.092191 0.157617
vt 0.011985 0.105531
vt -0.000899 0.105531
vt 0.048134 0.196180
vt 0.017677 0.196180
vt 0.004175 0.196180
vt 0.172396 0.262930
s 1
usemtl tex_miscellaneous_Collection_noTime
f 12/1/12 10/2/10 4/3/4 7/4/7
f 9/5/9 11/6/11 8/7/8 3/8/3
f 19/9/19 12/1/12 7/4/7 16/10/16
f 15/11/15 81/12/53 83/13/17 14/14/14
f 56/15/45 53/16/43 12/1/12 19/9/19
f 2/17/2 87/18/58 85/19/56 6/20/6
f 57/21/46 52/22/42 11/6/11 9/5/9
f 6/20/6 85/19/56 81/12/53 15/11/15
f 53/16/43 51/23/41 10/2/10 12/1/12
f 52/22/42 54/24/44 21/25/20 11/6/11
f 94/26/59 55/27/17 20/28/17 90/29/59
f 55/27/17 56/15/45 19/9/19 20/28/17
f 5/30/5 86/31/57 82/32/54 1/33/1
f 88/34/59 98/35/59 84/36/55 13/37/13
f 11/6/11 21/25/20 18/38/18 8/7/8
f 90/29/59 20/28/17 17/39/17 89/40/59
f 20/28/17 19/9/19 16/10/16 17/39/17
f 91/41/59 97/42/59 78/43/51 28/44/26
f 72/45/17 73/46/30 41/47/30 38/48/17
f 61/49/17 62/50/30 42/51/36 39/52/17
f 28/44/26 78/43/51 76/53/49 34/54/32
f 96/55/59 72/45/17 38/48/17 92/56/59
f 95/57/59 61/49/17 39/52/17 93/58/59
f 37/59/34 75/60/48 77/61/50 31/62/29
f 69/63/27 71/64/27 35/65/27 29/66/27
f 59/67/27 60/68/27 36/69/33 30/70/28
f 34/54/32 76/53/49 74/71/47 40/72/35
f 70/73/30 68/74/24 26/75/24 32/76/30
f 31/62/29 77/61/50 80/77/52 24/78/23
f 67/79/22 69/63/27 29/66/27 23/80/22
f 58/81/22 59/67/27 30/70/28 22/82/21
f 81/12/53 24/78/23 25/83/17 83/13/17
f 73/46/30 70/73/30 32/76/30 41/47/30
f 64/84/38 63/85/37 44/86/37 46/87/38
f 66/88/40 64/84/38 46/87/38 50/89/40
f 65/90/39 66/88/40 50/89/40 48/51/39
f 39/52/17 42/51/36 56/15/45 55/27/17
f 93/58/59 39/52/17 55/27/17 94/26/59
f 30/70/28 36/69/33 54/24/44 52/22/42
f 33/91/31 27/92/25 51/23/41 53/16/43
f 22/82/21 30/70/28 52/22/42 57/21/46
f 42/51/36 33/91/31 53/16/43 56/15/45
f 23/80/22 29/66/27 59/67/27 58/81/22
f 29/66/27 35/65/27 60/68/27 59/67/27
f 92/56/59 38/48/17 61/49/17 95/57/59
f 38/48/17 41/47/30 62/50/30 61/49/17
f 47/47/39 49/93/40 66/88/40 65/90/39
f 49/93/40 45/94/38 64/84/38 66/88/40
f 45/94/38 43/95/37 63/85/37 64/84/38
f 80/77/52 77/61/50 70/73/30 73/46/30
f 74/71/47 76/53/49 69/63/27 67/79/22
f 77/61/50 75/60/48 68/74/24 70/73/30
f 76/53/49 78/43/51 71/64/27 69/63/27
f 97/42/59 79/96/17 72/45/17 96/55/59
f 79/96/17 80/77/52 73/46/30 72/45/17
f 98/35/59 91/41/59 28/44/26 84/36/55
f 84/36/55 28/44/26 34/54/32 86/31/57
f 87/18/58 37/59/34 31/62/29 85/19/56
f 86/31/57 34/54/32 40/72/35 82/32/54
f 85/19/56 31/62/29 24/78/23 81/12/53
f 24/78/23 80/77/52 79/96/17 25/83/17
f 13/37/13 84/36/55 86/31/57 5/30/5
f 83/13/17 25/83/17 91/41/59 98/35/59
f 78/43/51 97/42/59 96/55/59 71/64/27
f 35/65/27 92/56/59 95/57/59 60/68/27
f 36/69/33 93/58/59 94/26/59 54/24/44
f 60/68/27 95/57/59 93/58/59 36/69/33
f 71/64/27 96/55/59 92/56/59 35/65/27
f 25/83/17 79/96/17 97/42/59 91/41/59
f 21/25/20 90/29/59 89/40/59 18/38/18
f 14/14/14 83/13/17 98/35/59 88/34/59
f 54/24/44 94/26/59 90/29/59 21/25/20
