# Blender 4.4.0
# www.blender.org
mtllib obj_Passport.mtl
o obj_Passport
v 0.070621 -0.001094 0.058817
v 0.070621 -0.003766 0.058817
v -0.070621 -0.001094 0.058817
v -0.070621 -0.003766 0.058817
v 0.070621 0.003766 0.058817
v 0.070621 0.001095 0.058817
v -0.070621 0.003766 0.058817
v -0.070621 0.001095 0.058817
v 0.070621 0.000599 0.059044
v 0.070621 -0.000599 0.059044
v -0.070621 -0.000599 0.059044
v -0.070621 0.000599 0.059044
v -0.070621 -0.001741 0.060721
v -0.070621 0.001741 0.060721
v 0.070621 -0.001741 0.060721
v 0.070621 0.001741 0.060721
v 0.066586 -0.000461 -0.040881
v 0.070621 -0.000312 -0.037829
v 0.069439 -0.000345 -0.039987
v 0.066586 -0.001664 -0.040881
v 0.070621 -0.001898 -0.037832
v 0.069439 -0.001805 -0.039988
v -0.066586 -0.000461 -0.040881
v -0.070621 -0.000312 -0.037829
v -0.069439 -0.000345 -0.039987
v -0.066586 -0.001664 -0.040881
v -0.070621 -0.001898 -0.037832
v -0.069439 -0.001805 -0.039988
v 0.066586 0.001664 -0.040881
v 0.070621 0.001898 -0.037832
v 0.069439 0.001805 -0.039988
v 0.066586 0.000461 -0.040881
v 0.070621 0.000312 -0.037829
v 0.069439 0.000345 -0.039987
v -0.066586 0.001664 -0.040881
v -0.070621 0.001898 -0.037832
v -0.069439 0.001805 -0.039988
v -0.066586 0.000461 -0.040881
v -0.070621 0.000312 -0.037829
v -0.069439 0.000345 -0.039987
v -0.064385 0.000288 0.058905
v 0.064385 0.000288 0.058905
v -0.064385 0.000288 -0.036570
v 0.064385 0.000288 -0.036570
v -0.064385 0.000488 0.058905
v 0.064385 0.000488 0.058905
v -0.064385 0.000488 -0.036570
v 0.064385 0.000488 -0.036570
v -0.064385 0.000536 0.058905
v 0.064385 0.000536 0.058905
v -0.064385 0.000536 -0.036570
v 0.064385 0.000536 -0.036570
v -0.064385 0.000729 0.058905
v 0.064385 0.000729 0.058905
v -0.064385 0.000729 -0.036570
v 0.064385 0.000729 -0.036570
v -0.064385 0.000426 0.058905
v 0.064385 0.000426 0.058905
v -0.064385 0.000426 -0.036570
v 0.064385 0.000426 -0.036570
v -0.064385 0.000349 0.058905
v 0.064385 0.000349 0.058905
v -0.064385 0.000349 -0.036570
v 0.064385 0.000349 -0.036570
v -0.064385 -0.000955 0.058905
v 0.064385 -0.000955 0.058905
v -0.064385 -0.000955 -0.036570
v 0.064385 -0.000955 -0.036570
v -0.064385 0.000268 0.058905
v 0.064385 0.000268 0.058905
v -0.064385 0.000268 -0.036570
v 0.064385 0.000268 -0.036570
vn -0.0000 -0.0000 -1.0000
vn -1.0000 -0.0000 -0.0000
vn -0.0000 0.9998 -0.0193
vn -0.0000 -0.9998 -0.0193
vn 1.0000 -0.0000 -0.0000
vn -0.0000 -0.4159 -0.9094
vn -0.0000 -1.0000 0.0081
vn -0.0000 0.6849 0.7286
vn -0.0000 0.4159 -0.9094
vn -0.0000 -0.0000 1.0000
vn -0.0000 -0.6849 0.7286
vn 0.2988 0.0003 -0.9543
vn 0.8770 0.0006 -0.4805
vn -0.2988 0.0003 -0.9543
vn -0.8770 0.0006 -0.4805
vn -0.0000 0.9999 -0.0156
vn -0.0000 0.9917 -0.1289
vn -0.0000 -0.9991 -0.0430
vn -0.0000 -0.9878 -0.1556
vn 0.2988 -0.0003 -0.9543
vn 0.8770 -0.0006 -0.4805
vn -0.2988 -0.0003 -0.9543
vn -0.8770 -0.0006 -0.4805
vn -0.0000 0.9991 -0.0430
vn -0.0000 0.9878 -0.1556
vn -0.0000 -0.9999 -0.0156
vn -0.0000 -0.9917 -0.1289
vn -0.0000 1.0000 0.0081
vn -0.0000 -1.0000 -0.0000
vn -0.0000 1.0000 -0.0000
vt 0.403116 0.757142
vt 0.596885 0.757142
vt 0.596885 0.992858
vt 0.403116 0.992858
vt 0.625000 0.500000
vt 0.375000 0.500000
vt 0.458333 0.500000
vt 0.541667 0.500000
vt 0.125000 0.500000
vt 0.375000 0.742355
vt 0.125000 0.742355
vt 0.875000 0.500000
vt 0.875000 0.742355
vt 0.625000 0.742355
vt 0.375000 0.007653
vt 0.625000 0.007645
vt 0.625000 0.250000
vt 0.375000 0.250000
vt 0.625000 0.742355
vt 0.375000 0.742347
vt 0.403115 0.757142
vt 0.596884 0.757142
vt 0.596884 0.992858
vt 0.403115 0.992858
vt 0.875000 0.742347
vt 0.625000 0.742347
vt 0.375000 0.007645
vt 0.625000 0.007653
vt 0.375000 0.742355
vt 0.541667 0.250000
vt 0.458333 0.250000
vt 0.619546 1.000000
vt 0.384401 1.000000
vt 0.384401 0.000000
vt 0.619546 0.000000
vt 0.384401 0.750000
vt 0.619546 0.750000
vt 0.125000 0.742347
vt 0.372908 0.750000
vt 0.127092 0.750000
vt 0.375000 0.997908
vt 0.375000 0.752092
vt 0.872908 0.750000
vt 0.627092 0.750000
vt 0.625000 0.752092
vt 0.625000 0.997908
vt 0.615599 1.000000
vt 0.380454 1.000000
vt 0.380454 0.000000
vt 0.615599 0.000000
vt 0.380454 0.750000
vt 0.615599 0.750000
vt 0.625000 0.752092
vt 0.000000 0.000000
vt 1.000000 0.000000
vt 1.000000 1.000000
vt 0.000000 1.000000
s 0
usemtl Material.002
f 23/1/1 17/4/1 20/3/1 26/2/1
f 8/5/2 12/8/2 14/7/2 7/6/2
f 5/9/3 30/11/3 36/10/3 7/6/3
f 4/5/4 27/14/4 21/13/4 2/12/4
f 18/15/5 1/18/5 2/17/5 21/16/5
f 3/6/2 24/20/2 27/19/2 4/5/2
f 35/21/1 29/24/1 32/23/1 38/22/1
f 6/12/6 9/5/6 12/8/6 8/5/6
f 8/5/7 39/26/7 33/25/7 6/12/7
f 30/27/5 5/18/5 6/17/5 33/28/5
f 7/6/2 36/29/2 39/26/2 8/5/2
f 7/6/8 14/7/8 16/6/8 5/9/8
f 5/18/5 16/31/5 9/30/5 6/17/5
f 9/5/1 10/6/1 11/7/1 12/8/1
f 10/6/9 1/9/9 3/6/9 11/7/9
f 12/8/2 11/7/2 13/8/2 14/7/2
f 11/7/2 3/6/2 4/5/2 13/8/2
f 14/7/10 13/8/10 15/5/10 16/6/10
f 13/8/11 4/5/11 2/12/11 15/5/11
f 16/31/5 15/30/5 10/31/5 9/30/5
f 15/30/5 2/17/5 1/18/5 10/31/5
f 17/4/12 19/33/12 22/32/12 20/3/12
f 19/34/13 18/15/13 21/16/13 22/35/13
f 26/2/14 28/37/14 25/36/14 23/1/14
f 28/37/15 27/19/15 24/20/15 25/36/15
f 18/38/16 19/40/16 25/39/16 24/20/16
f 19/41/17 17/4/17 23/1/17 25/42/17
f 27/14/18 28/44/18 22/43/18 21/13/18
f 28/45/19 26/2/19 20/3/19 22/46/19
f 29/24/20 31/48/20 34/47/20 32/23/20
f 31/49/21 30/27/21 33/28/21 34/50/21
f 38/22/22 40/52/22 37/51/22 35/21/22
f 40/52/23 39/26/23 36/29/23 37/51/23
f 30/11/24 31/40/24 37/39/24 36/10/24
f 31/41/25 29/24/25 35/21/25 37/42/25
f 39/26/26 40/44/26 34/43/26 33/25/26
f 40/53/27 38/22/27 32/23/27 34/46/27
f 1/9/28 18/38/28 24/20/28 3/6/28
usemtl Material
f 41/54/29 43/57/29 44/56/29 42/55/29
f 45/54/29 47/57/29 48/56/29 46/55/29
f 57/54/29 59/57/29 60/56/29 58/55/29
f 61/54/29 63/57/29 64/56/29 62/55/29
f 65/54/30 66/55/30 68/56/30 67/57/30
f 69/54/29 71/57/29 72/56/29 70/55/29
f 68/56/10 72/56/10 71/57/10 67/57/10
f 65/54/1 69/54/1 70/55/1 66/55/1
f 66/55/2 70/55/2 72/56/2 68/56/2
f 67/57/5 71/57/5 69/54/5 65/54/5
usemtl writingonpaper
f 49/54/30 50/55/30 52/56/30 51/57/30
f 53/54/29 55/57/29 56/56/29 54/55/29
f 52/56/10 56/56/10 55/57/10 51/57/10
f 49/54/1 53/54/1 54/55/1 50/55/1
f 50/55/2 54/55/2 56/56/2 52/56/2
f 51/57/5 55/57/5 53/54/5 49/54/5
