# Blender 4.4.0
# www.blender.org
mtllib obj_Tape.mtl
o obj_Tape
v 0.015306 -0.004238 0.086938
v -0.015306 -0.004238 0.086938
v 0.015306 -0.004238 -0.086938
v -0.015306 -0.004238 -0.086938
v 0.015306 0.000339 -0.028979
v 0.015306 0.000339 0.028979
v -0.015306 0.000339 0.028979
v -0.015306 0.000339 -0.028979
vn -0.0000 0.9969 -0.0787
vn -0.0000 0.9969 0.0787
vn -0.0000 1.0000 -0.0000
vt 0.000000 0.666667
vt 1.000000 0.666667
vt 1.000000 1.000000
vt 0.000000 1.000000
vt 0.000000 0.000000
vt 1.000000 0.000000
vt 1.000000 0.333333
vt 0.000000 0.333333
s 0
f 5/1/1 3/4/1 4/3/1 8/2/1
f 1/5/2 6/8/2 7/7/2 2/6/2
f 6/8/3 5/1/3 8/2/3 7/7/3
