# Blender 4.4.0
# www.blender.org
mtllib obj_Pencil_003.mtl
o obj_Pencil.003
v 0.000000 -0.067933 -0.006349
v 0.000000 0.080856 -0.007331
v 0.005286 -0.067933 -0.003175
v 0.006103 0.080856 -0.003666
v 0.005286 -0.067933 0.003175
v 0.006103 0.080856 0.003666
v 0.000000 -0.067933 0.006349
v 0.000000 0.080856 0.007331
v -0.005286 -0.067933 0.003175
v -0.006103 0.080856 0.003666
v -0.005286 -0.067933 -0.003175
v -0.006103 0.080856 -0.003666
v -0.000000 -0.069565 -0.005445
v 0.004533 -0.069565 -0.002722
v 0.004533 -0.069565 0.002722
v -0.000000 -0.069565 0.005445
v -0.004533 -0.069565 0.002722
v -0.004533 -0.069565 -0.002722
v -0.000000 -0.069565 -0.004761
v 0.003964 -0.069565 -0.002381
v 0.003964 -0.069565 0.002381
v -0.000000 -0.069565 0.004761
v -0.003964 -0.069565 0.002381
v -0.003964 -0.069565 -0.002381
v -0.000000 0.082310 -0.005152
v 0.004289 0.082310 -0.002576
v 0.004289 0.082310 0.002576
v -0.000000 0.082310 0.005152
v -0.004289 0.082310 0.002576
v -0.004289 0.082310 -0.002576
v 0.000000 -0.064215 -0.006587
v 0.005484 -0.064215 -0.003294
v 0.005484 -0.064215 0.003294
v 0.000000 -0.064215 0.006587
v -0.005484 -0.064215 0.003294
v -0.005484 -0.064215 -0.003294
v 0.000000 -0.012733 -0.006598
v 0.005081 -0.012745 -0.003010
v 0.005081 -0.012745 0.003010
v 0.000000 -0.012733 0.006598
v -0.005493 -0.012733 0.003299
v -0.005493 -0.012733 -0.003299
v 0.000069 -0.062302 -0.007308
v 0.000069 -0.014641 -0.007312
v 0.006156 -0.014641 -0.003656
v 0.006153 -0.062302 -0.003654
v 0.006156 -0.014641 0.003656
v 0.006153 -0.062302 0.003654
v 0.000069 -0.014641 0.007312
v 0.000069 -0.062302 0.007308
v -0.006019 -0.014641 0.003656
v -0.006015 -0.062302 0.003654
v -0.006019 -0.014641 -0.003656
v -0.006015 -0.062302 -0.003654
vn 0.5441 -0.0092 -0.8389
vn 0.9999 -0.0109 -0.0000
vn 0.5441 -0.0092 0.8389
vn -0.5149 -0.0067 0.8572
vn -1.0000 -0.0065 -0.0000
vn -0.5149 -0.0067 -0.8572
vn 0.9080 -0.4189 -0.0000
vn -0.9081 -0.4188 -0.0000
vn 0.4651 -0.4291 -0.7743
vn 0.4651 -0.4291 0.7743
vn -0.4651 -0.4290 -0.7743
vn -0.4651 -0.4290 0.7743
vn -0.6255 0.7802 -0.0000
vn 0.3163 0.7891 0.5266
vn -0.3163 0.7891 -0.5266
vn 0.6254 0.7803 -0.0000
vn -0.3163 0.7891 0.5266
vn -0.0000 -1.0000 -0.0000
vn 0.5149 0.0022 0.8573
vn 0.5149 0.0022 -0.8573
vn -1.0000 0.0021 -0.0000
vn 1.0000 0.0021 -0.0000
vn -0.5149 0.0022 -0.8573
vn -0.5149 0.0022 0.8573
vn -0.5141 -0.0548 -0.8560
vn -0.9986 -0.0532 -0.0000
vn -0.5141 -0.0548 0.8560
vn 0.5141 -0.0548 0.8560
vn 0.9986 -0.0532 -0.0000
vn 0.5141 -0.0548 -0.8560
vn -0.4929 0.2893 -0.8206
vn -0.9641 0.2656 -0.0000
vn -0.4929 0.2893 0.8206
vn 0.4941 0.4206 0.7609
vn 0.8698 0.4933 -0.0000
vn 0.4941 0.4206 -0.7609
vn 0.4872 -0.3233 -0.8112
vn 0.5149 -0.0001 -0.8573
vn 0.9439 -0.3301 -0.0000
vn 1.0000 -0.0001 -0.0000
vn 0.4872 -0.3233 0.8112
vn 0.5149 -0.0001 0.8573
vn -0.4925 -0.2914 0.8200
vn -0.5149 -0.0001 0.8573
vn -0.9635 -0.2677 -0.0000
vn -1.0000 -0.0001 -0.0000
vn -0.4925 -0.2914 -0.8200
vn -0.5149 -0.0001 -0.8573
vn -0.0000 1.0000 -0.0000
vn 0.3163 0.7891 -0.5266
vt 1.000000 0.626801
vt 1.000000 1.000000
vt 0.833333 1.000000
vt 0.833333 0.626801
vt 0.666667 1.000000
vt 0.666667 0.626801
vt 0.500000 1.000000
vt 0.500000 0.626801
vt 0.333333 1.000000
vt 0.333333 0.626801
vt 0.166667 1.000000
vt 0.166667 0.626801
vt -0.000000 1.000000
vt -0.000000 0.626801
vt 0.833333 0.500000
vt 0.666667 0.500000
vt 0.333333 0.500000
vt 0.166667 0.500000
vt 1.000000 0.500000
vt 0.500000 0.500000
vt -0.000000 0.500000
vt 0.166667 0.621166
vt -0.000000 0.621166
vt 0.333333 0.621166
vt 0.500000 0.621166
vt 0.666667 0.621166
vt 0.833333 0.621166
vt 1.000000 0.621166
vt 0.166668 0.626674
vt 0.000046 0.626674
vt 0.333331 0.626674
vt 0.500000 0.626674
vt 0.666669 0.626674
vt 0.833331 0.626674
vt 0.999954 0.626674
vt 1.000000 0.621305
vt 1.000046 0.621432
vt 0.833334 0.621432
vt 0.833333 0.621305
vt 0.666666 0.621432
vt 0.666667 0.621305
vt 0.500000 0.621432
vt 0.500000 0.621305
vt 0.333334 0.621432
vt 0.333333 0.621305
vt 0.166666 0.621432
vt 0.166667 0.621305
vt -0.000046 0.621432
vt -0.000000 0.621305
vt 0.000000 0.000000
s 0
usemtl mat_Desk_parts
f 37/1/1 2/2/1 4/3/1 38/4/1
f 38/4/2 4/3/2 6/5/2 39/6/2
f 39/6/3 6/5/3 8/7/3 40/8/3
f 40/8/4 8/7/4 10/9/4 41/10/4
f 41/10/5 10/9/5 12/11/5 42/12/5
f 42/12/6 12/11/6 2/13/6 37/14/6
f 3/15/7 5/16/7 15/16/7 14/15/7
f 9/17/8 11/18/8 18/18/8 17/17/8
f 1/19/9 3/15/9 14/15/9 13/19/9
f 5/16/10 7/20/10 16/20/10 15/16/10
f 11/18/11 1/21/11 13/21/11 18/18/11
f 7/20/12 9/17/12 17/17/12 16/20/12
f 10/9/13 29/9/13 30/11/13 12/11/13
f 6/5/14 27/5/14 28/7/14 8/7/14
f 12/11/15 30/11/15 25/13/15 2/13/15
f 4/3/16 26/3/16 27/5/16 6/5/16
f 8/7/17 28/7/17 29/9/17 10/9/17
f 18/18/18 13/21/18 19/21/18 24/18/18
f 16/20/18 17/17/18 23/17/18 22/20/18
f 14/15/18 15/16/18 21/16/18 20/15/18
f 17/17/18 18/18/18 24/18/18 23/17/18
f 15/16/18 16/20/18 22/20/18 21/16/18
f 13/19/18 14/15/18 20/15/18 19/19/18
f 24/18/19 19/21/19 25/21/19 30/18/19
f 22/20/20 23/17/20 29/17/20 28/20/20
f 20/15/21 21/16/21 27/16/21 26/15/21
f 23/17/22 24/18/22 30/18/22 29/17/22
f 21/16/23 22/20/23 28/20/23 27/16/23
f 19/19/24 20/15/24 26/15/24 25/19/24
f 11/18/25 36/22/25 31/23/25 1/21/25
f 9/17/26 35/24/26 36/22/26 11/18/26
f 7/20/27 34/25/27 35/24/27 9/17/27
f 5/16/28 33/26/28 34/25/28 7/20/28
f 3/15/29 32/27/29 33/26/29 5/16/29
f 1/19/30 31/28/30 32/27/30 3/15/30
f 28/50/49 25/50/49 30/50/49 29/50/49
f 25/50/49 28/50/49 27/50/49 26/50/49
f 2/2/50 25/2/50 26/3/50 4/3/50
usemtl Material.002
f 53/29/31 42/12/31 37/14/31 44/30/31
f 51/31/32 41/10/32 42/12/32 53/29/32
f 49/32/33 40/8/33 41/10/33 51/31/33
f 47/33/34 39/6/34 40/8/34 49/32/34
f 45/34/35 38/4/35 39/6/35 47/33/35
f 44/35/36 37/1/36 38/4/36 45/34/36
f 31/36/37 43/37/37 46/38/37 32/39/37
f 43/37/38 44/35/38 45/34/38 46/38/38
f 32/39/39 46/38/39 48/40/39 33/41/39
f 46/38/40 45/34/40 47/33/40 48/40/40
f 33/41/41 48/40/41 50/42/41 34/43/41
f 48/40/42 47/33/42 49/32/42 50/42/42
f 34/43/43 50/42/43 52/44/43 35/45/43
f 50/42/44 49/32/44 51/31/44 52/44/44
f 35/45/45 52/44/45 54/46/45 36/47/45
f 52/44/46 51/31/46 53/29/46 54/46/46
f 36/47/47 54/46/47 43/48/47 31/49/47
f 54/46/48 53/29/48 44/30/48 43/48/48
