# Blender 4.4.0
# www.blender.org
mtllib obj_Flyer_WE-u-Sonderfahrten_2.mtl
o obj_Flyer_WE-u-Sonderfahrten_2
v -0.155119 0.000000 0.155119
v 0.155119 0.000000 0.155119
v -0.155119 0.000000 -0.155119
v 0.155119 0.000000 -0.155119
v -0.155119 -0.000160 0.155119
v 0.155119 -0.000160 0.155119
v -0.155119 -0.000160 -0.155119
v 0.155119 -0.000160 -0.155119
vn -0.0000 -1.0000 -0.0000
vn -0.0000 1.0000 -0.0000
vn 1.0000 -0.0000 -0.0000
vn -0.0000 -0.0000 1.0000
vn -0.0000 -0.0000 -1.0000
vn -1.0000 -0.0000 -0.0000
vt 0.183921 0.750350
vt 0.183921 0.998705
vt 0.432275 0.998705
vt 0.432275 0.750350
vt 0.863946 0.759698
vt 0.653470 0.752777
vt 0.652401 0.989647
vt 0.863310 0.982747
s 0
usemtl tex_Flyer_Collection_70s
f 1/1/1 3/2/1 4/3/1 2/4/1
f 5/5/2 6/6/2 8/7/2 7/8/2
f 3/2/3 1/1/3 5/1/3 7/2/3
f 4/3/4 3/2/4 7/2/4 8/3/4
f 1/1/5 2/4/5 6/4/5 5/1/5
f 2/4/6 4/3/6 8/3/6 6/4/6
