# Blender 4.4.0
# www.blender.org
mtllib obj_Poster_001.mtl
o obj_Poster_001
v -0.364143 -0.014774 0.263364
v 0.357224 -0.043189 0.260174
v -0.364143 -0.014774 -0.263364
v 0.364142 -0.024285 -0.255224
v -0.337070 -0.007477 0.263364
v 0.337070 -0.023073 0.263364
v 0.337070 -0.012304 -0.259460
v -0.337070 -0.007477 -0.263364
v -0.364143 -0.007929 -0.247825
v -0.364143 -0.007929 0.247825
v 0.364142 -0.023911 0.247825
v 0.364142 -0.013039 -0.243656
v -0.337070 -0.003433 0.247825
v -0.337070 -0.003433 -0.247825
v 0.337070 -0.016862 0.247825
v 0.337070 -0.005658 -0.246248
v -0.168535 0.000001 0.256558
v -0.000000 -0.000000 0.259579
v 0.168535 -0.000001 0.259533
v 0.168535 -0.000001 -0.259533
v -0.000000 -0.000000 -0.259579
v -0.168535 0.000001 -0.256558
v 0.168535 -0.000001 0.244219
v -0.000000 -0.000000 0.244263
v -0.168535 0.000001 0.241420
v 0.168535 -0.000001 -0.244219
v -0.000000 -0.000000 -0.244263
v -0.168535 0.000001 -0.241420
v -0.364142 0.000000 -0.123913
v -0.364142 0.004999 -0.003197
v -0.364142 0.004999 0.121956
v 0.363251 -0.000681 0.124529
v 0.364142 0.000000 -0.000000
v 0.364142 0.000000 -0.123913
v -0.337070 0.000003 0.123913
v -0.337070 0.000003 -0.000000
v -0.337070 0.000003 -0.123913
v 0.337070 -0.000003 0.123913
v 0.337070 -0.000003 -0.000000
v 0.337070 -0.000003 -0.123913
v -0.168535 0.000001 0.120710
v -0.168535 0.000001 -0.000000
v -0.168535 0.000001 -0.120710
v -0.000000 -0.000000 0.122131
v -0.000000 -0.000000 -0.000000
v -0.000000 -0.000000 -0.122131
v 0.168535 -0.000001 0.122110
v 0.168535 -0.000001 -0.000000
v 0.168535 -0.000001 -0.123913
v 0.363799 -0.002825 -0.000000
v 0.363799 -0.002825 -0.123913
v 0.361109 0.003883 0.123488
v -0.364143 -0.002732 0.243968
v -0.364142 0.004999 -0.118518
vn -0.2013 0.9244 0.3239
vn 0.4037 0.6232 0.6698
vn -0.2013 0.9244 -0.3239
vn 0.3418 0.7619 -0.5501
vn -0.1196 0.9648 0.2343
vn 0.2923 0.8210 0.4904
vn 0.2080 0.8896 -0.4067
vn -0.1196 0.9648 -0.2343
vn -0.1458 0.9705 -0.1919
vn 0.2991 0.8362 0.4596
vn 0.2539 0.9073 -0.3352
vn -0.0416 0.9898 0.1364
vn -0.0827 0.9876 -0.1334
vn 0.2046 0.9247 0.3212
vn 0.1558 0.9547 -0.2535
vn -0.0137 0.9977 0.0663
vn -0.0000 1.0000 -0.0000
vn 0.0570 0.9933 0.1006
vn 0.0257 0.9930 -0.1153
vn -0.0137 0.9977 -0.0663
vn 0.0402 0.9970 0.0664
vn -0.0091 0.9993 0.0354
vn 0.0170 0.9979 -0.0631
vn -0.0091 0.9993 -0.0354
vn -0.0827 0.9955 -0.0457
vn 0.1815 0.9834 -0.0000
vn 0.1435 0.9894 0.0211
vn 0.1400 0.9775 0.1580
vn -0.0760 0.9970 -0.0166
vn 0.1382 0.9875 -0.0763
vn 0.0671 0.9976 0.0156
vn 0.0916 0.9958 -0.0000
vn 0.0155 0.9998 -0.0157
vn 0.0287 0.9982 0.0530
vn 0.0073 1.0000 -0.0042
vn 0.0653 0.9976 -0.0250
vn -0.0024 1.0000 0.0035
vn -0.0024 1.0000 -0.0035
vn 0.0121 0.9998 0.0170
vn 0.0042 1.0000 -0.0058
vn 0.1050 0.9945 -0.0000
vn 0.0997 0.9940 0.0451
vt 0.937610 0.056676
vt 0.932560 0.021197
vt 0.953432 0.020779
vt 0.961470 0.056317
vt 0.949246 0.973070
vt 0.948922 0.937773
vt 0.976996 0.937423
vt 0.977310 0.972667
vt 0.936077 0.277090
vt 0.963757 0.276822
vt 0.025498 0.285914
vt 0.016379 0.065269
vt 0.044489 0.065116
vt 0.053178 0.285646
vt 0.718611 0.279197
vt 0.716498 0.058927
vt 0.025200 0.981893
vt 0.024885 0.946649
vt 0.052988 0.946455
vt 0.053312 0.981752
vt 0.725290 0.975392
vt 0.724950 0.940009
vt 0.021824 0.038488
vt 0.044125 0.029598
vt 0.716158 0.023544
vt 0.717048 0.719795
vt 0.935243 0.717680
vt 0.717505 0.499499
vt 0.938268 0.497360
vt 0.035102 0.726403
vt 0.062464 0.726138
vt 0.027528 0.506185
vt 0.055213 0.505917
vt 0.962606 0.717415
vt 0.965953 0.497091
vt 0.273903 0.283507
vt 0.275977 0.503778
vt 0.494627 0.281368
vt 0.496741 0.501638
vt 0.280659 0.724023
vt 0.498854 0.721909
vt 0.276983 0.944350
vt 0.500967 0.942179
vt 0.267086 0.029048
vt 0.268531 0.063268
vt 0.280876 0.979794
vt 0.507103 0.977602
vt 0.715556 0.975582
vt 0.492514 0.061097
vt 0.492170 0.026109
vt 0.716153 0.023939
vt 0.269011 0.031916
vt 0.492175 0.025714
vt 0.060302 0.981784
s 1
usemtl tex_Map_GDR_1979
f 16/1/15 12/2/11 4/3/4 7/4/7
f 9/5/9 14/6/13 8/7/8 3/8/3
f 26/9/23 16/1/15 7/4/7 20/10/19
f 19/11/18 6/12/6 15/13/14 23/14/21
f 49/15/40 40/16/36 16/1/15 26/9/23
f 1/17/1 5/18/5 13/19/12 10/20/1
f 29/21/25 37/22/33 14/6/13 9/5/9
f 6/12/6 2/23/2 11/24/10 15/13/14
f 40/16/36 34/25/30 12/2/11 16/1/15
f 37/22/33 43/26/38 28/27/24 14/6/13
f 43/26/38 46/28/17 27/29/17 28/27/24
f 46/28/17 49/15/40 26/9/23 27/29/17
f 5/18/5 17/30/16 25/31/22 13/19/12
f 17/30/16 18/32/17 24/33/17 25/31/22
f 18/32/17 19/11/18 23/14/21 24/33/17
f 14/6/13 28/27/24 22/34/20 8/7/8
f 28/27/24 27/29/17 21/35/17 22/34/20
f 27/29/17 26/9/23 20/10/19 21/35/17
f 24/33/17 23/14/21 47/36/39 44/37/17
f 44/37/17 47/36/39 48/38/17 45/39/17
f 45/39/17 48/38/17 49/15/40 46/28/17
f 25/31/22 24/33/17 44/37/17 41/40/37
f 41/40/37 44/37/17 45/39/17 42/41/17
f 42/41/17 45/39/17 46/28/17 43/26/38
f 13/19/12 25/31/22 41/40/37 35/42/31
f 35/42/31 41/40/37 42/41/17 36/43/32
f 36/43/32 42/41/17 43/26/38 37/22/33
f 15/13/14 11/24/10 32/44/28 38/45/34
f 31/46/27 35/42/31 36/43/32 30/47/26
f 30/47/26 36/43/32 37/22/33 54/48/26
f 23/14/21 15/13/14 38/45/34 47/36/39
f 47/36/39 38/45/34 39/49/35 48/38/17
f 39/49/35 50/50/41 51/51/41 40/16/36
f 48/38/17 39/49/35 40/16/36 49/15/40
f 52/52/29 33/53/29 39/49/35 38/45/34
f 53/54/42 13/19/12 35/42/31 31/46/27
