# Blender 4.4.0
# www.blender.org
mtllib Radio_Stern-Club-T110.mtl
o Radio_Stern-Club-T110
v -0.039917 0.011704 0.053969
v 0.032824 0.011704 0.053969
v -0.039917 0.011704 -0.017935
v 0.032824 0.011704 -0.017935
v -0.039917 -0.015215 0.053969
v 0.032824 -0.015215 0.053969
v -0.039917 -0.015215 -0.017935
v 0.032824 -0.015215 -0.017935
v -0.039686 -0.010338 -0.021395
v -0.039686 0.006828 -0.021395
v 0.035234 0.008465 -0.020308
v 0.035234 -0.011976 -0.020308
v -0.042327 0.009648 0.056342
v -0.042327 -0.013159 0.056342
v 0.036856 -0.009761 0.053387
v 0.036856 0.006251 0.053387
v -0.043427 0.011804 -0.009598
v -0.043427 0.011804 0.045632
v 0.036334 0.011804 0.045632
v 0.036334 0.011804 -0.009598
v -0.043427 -0.015315 0.045632
v -0.043427 -0.015315 -0.009598
v 0.036334 -0.015315 -0.009598
v 0.036334 -0.015315 0.045632
v 0.039324 -0.011976 -0.011396
v 0.039324 -0.011976 0.047430
v 0.039324 0.008465 -0.011396
v 0.039324 0.008465 0.047430
v -0.046417 0.009648 -0.013772
v -0.046417 0.009648 0.049806
v -0.046417 -0.013159 -0.013772
v -0.046417 -0.013159 0.049806
v -0.031204 0.011804 0.057874
v 0.024112 0.011804 0.057874
v 0.024112 0.011804 -0.021840
v -0.031204 0.011804 -0.021840
v 0.024112 -0.015315 -0.021840
v -0.031204 -0.015315 -0.021840
v 0.024112 -0.015315 0.057874
v -0.031204 -0.015315 0.057874
v 0.027029 -0.013159 0.060868
v -0.034121 -0.013159 0.060868
v 0.027029 0.009648 0.060868
v -0.034121 0.009648 0.060868
v 0.025913 0.008465 -0.024834
v -0.033005 0.008465 -0.024834
v 0.025913 -0.011976 -0.024834
v -0.033005 -0.011976 -0.024834
v 0.024233 -0.015616 -0.009738
v -0.031326 -0.015616 -0.009738
v 0.024233 -0.015616 0.045772
v -0.031326 -0.015616 0.045772
v 0.024233 0.012105 0.045772
v -0.031326 0.012105 0.045772
v 0.024233 0.012105 -0.009738
v -0.031326 0.012105 -0.009738
v -0.042327 -0.013159 -0.020308
v -0.042327 0.009648 -0.020308
v 0.035234 -0.013159 0.056342
v 0.035234 0.009648 0.056342
v 0.039324 -0.013159 0.049806
v 0.039324 0.009648 0.049806
v -0.034121 0.009648 -0.024834
v -0.034121 -0.013159 -0.024834
v 0.035234 -0.013159 -0.020308
v 0.039324 -0.013159 -0.013772
v 0.035234 0.009648 -0.020308
v 0.039324 0.009648 -0.013772
v 0.027029 0.009648 -0.024834
v 0.027029 -0.013159 -0.024834
v 0.041316 -0.011156 0.047529
v 0.041831 0.006253 0.047832
v 0.040350 0.004093 0.051053
v 0.040350 -0.007129 0.051053
v 0.025680 0.006696 -0.026924
v 0.036528 0.006520 -0.021114
v 0.037003 -0.009834 -0.022149
v 0.025680 -0.010206 -0.026924
v 0.040766 0.008465 -0.011711
v 0.041380 -0.009439 -0.011149
v -0.037200 0.004682 -0.025129
v -0.033241 0.006554 -0.026806
v -0.032909 -0.010178 -0.025915
v -0.037451 -0.007887 -0.024832
v 0.039697 -0.001474 0.052167
v -0.038510 -0.001662 -0.024531
v 0.036339 -0.001745 0.054606
v -0.040251 -0.001755 -0.021120
v 0.040045 0.008681 0.047588
v 0.040045 -0.012192 0.047588
v 0.037596 0.005754 0.052979
v 0.037596 -0.009276 0.052979
v 0.035743 0.008681 -0.020805
v 0.026078 0.008681 -0.025552
v 0.035743 -0.012192 -0.020805
v 0.026078 -0.012192 -0.025552
v 0.040045 0.008681 -0.011554
v 0.040045 -0.012192 -0.011554
v -0.033170 0.008681 -0.025552
v -0.039073 0.006147 -0.022749
v -0.033170 -0.012192 -0.025552
v -0.038911 -0.009548 -0.022667
v 0.037064 -0.001775 0.054368
v -0.040467 -0.001747 -0.022188
v 0.038802 0.005330 0.052549
v 0.041316 0.008227 0.047529
v 0.038408 -0.001761 0.053944
v 0.041831 -0.009446 0.047832
v 0.038802 -0.008754 0.052549
v 0.036251 0.008465 -0.021302
v 0.026243 0.008465 -0.026269
v 0.026243 -0.011976 -0.026269
v 0.036251 -0.011976 -0.021302
v 0.040766 -0.011976 -0.011711
v 0.041380 0.006245 -0.011149
v -0.033335 0.008028 -0.026086
v -0.038465 0.006002 -0.024251
v -0.038687 -0.009049 -0.024149
v -0.033335 -0.011539 -0.026086
v -0.039989 -0.001703 -0.023746
v 0.034805 -0.001684 0.047654
v 0.034805 -0.008233 0.047654
v 0.031162 -0.001784 -0.017382
v 0.031119 0.005158 -0.017325
v 0.023555 -0.001755 -0.021298
v 0.023555 -0.009035 -0.021298
v 0.034344 -0.001766 -0.011082
v 0.034344 0.004993 -0.011082
v -0.033487 -0.001755 -0.021499
v -0.033487 0.005540 -0.021499
v 0.031213 -0.008587 -0.017427
v 0.034344 -0.008233 -0.011082
v 0.034805 0.004993 0.047654
v 0.035192 -0.001742 0.050807
v 0.023555 0.005540 -0.021298
v -0.033487 -0.009035 -0.021499
v -0.036860 -0.001747 -0.020415
v 0.035251 0.004088 0.050570
v 0.035251 -0.007582 0.050570
v -0.036602 0.004483 -0.020533
v -0.036617 -0.007978 -0.020532
v 0.038889 -0.008865 -0.011537
v 0.034897 -0.009122 -0.020271
v 0.024732 -0.009648 -0.024307
v 0.024732 0.006145 -0.024307
v 0.038673 -0.008868 0.047704
v -0.033145 -0.009633 -0.024304
v -0.037342 -0.007599 -0.023075
v -0.033319 0.006071 -0.024770
v -0.037908 -0.001762 -0.022677
v -0.037024 0.004136 -0.023144
v 0.037018 0.004093 0.050751
v 0.038673 0.005652 0.047704
v 0.036480 -0.001747 0.051751
v 0.037018 -0.007511 0.050750
v 0.034223 0.005770 -0.019562
v 0.038446 0.005648 -0.011537
v -0.043213 -0.001755 -0.020765
v -0.044092 -0.001755 0.057732
v 0.035483 -0.001755 0.057128
v -0.048206 -0.001755 -0.013772
v -0.048206 -0.001755 0.049806
v -0.034121 -0.001755 0.062481
v 0.027029 -0.001755 0.062481
v -0.006721 0.011804 0.057874
v -0.000372 0.011804 0.057874
v -0.000372 0.011804 -0.021840
v -0.006721 0.011804 -0.021840
v -0.000372 -0.015315 -0.021840
v -0.006721 -0.015315 -0.021840
v -0.000372 -0.015315 0.057874
v -0.006721 -0.015315 0.057874
v -0.000053 -0.013159 0.060868
v -0.007039 -0.013159 0.060868
v -0.000053 0.009648 0.060868
v -0.007039 0.009648 0.060868
v -0.000053 0.009648 -0.024834
v -0.007039 0.009648 -0.024834
v -0.000053 -0.013159 -0.024834
v -0.007039 -0.013159 -0.024834
v -0.000358 -0.015616 -0.009738
v -0.006734 -0.015616 -0.009738
v -0.000358 -0.015616 0.045772
v -0.006734 -0.015616 0.045772
v -0.000358 0.012105 0.045772
v -0.006734 0.012105 0.045772
v -0.000358 0.012105 -0.009738
v -0.006734 0.012105 -0.009738
v -0.000175 0.008465 -0.024834
v -0.006918 0.008465 -0.024834
v -0.000175 -0.011976 -0.024834
v -0.006918 -0.011976 -0.024834
v -0.000448 0.008319 -0.026208
v -0.006954 0.008174 -0.026147
v -0.006954 -0.011685 -0.026147
v -0.000448 -0.011830 -0.026208
v -0.006936 -0.012192 -0.025552
v -0.000157 -0.012192 -0.025552
v -0.000157 0.008681 -0.025552
v -0.006936 0.008681 -0.025552
v -0.000560 0.006648 -0.026885
v -0.006994 0.006601 -0.026845
v -0.006922 -0.010187 -0.026251
v -0.000524 -0.010197 -0.026588
v -0.001051 -0.001755 -0.021365
v -0.007280 -0.001755 -0.021432
v -0.001051 0.005540 -0.021365
v -0.007280 0.005540 -0.021432
v -0.007280 -0.009035 -0.021432
v -0.001051 -0.009035 -0.021365
v -0.007077 -0.009638 -0.024305
v -0.000757 -0.009643 -0.024306
v -0.000776 0.006120 -0.024461
v -0.007115 0.006096 -0.024616
v -0.000362 -0.001755 0.062481
v -0.007039 -0.001755 0.062481
v 0.020652 0.003812 -0.018660
v 0.020652 -0.000027 -0.018660
v 0.001851 -0.000027 -0.018710
v 0.001851 0.003812 -0.018710
v 0.019732 0.003812 -0.008809
v 0.019732 -0.000027 -0.008809
v 0.002703 -0.000027 -0.008809
v 0.002703 0.003812 -0.008809
v 0.022617 -0.001180 -0.020613
v 0.022617 0.004965 -0.020613
v -0.000113 0.004965 -0.020674
v -0.000113 -0.001180 -0.020674
v 0.020017 -0.000232 -0.019622
v 0.002486 -0.000232 -0.019675
v 0.020017 0.004017 -0.019622
v 0.002486 0.004017 -0.019675
v -0.032686 -0.001739 -0.020633
v -0.032686 0.005211 -0.020633
v -0.008082 -0.001739 -0.020585
v -0.008082 0.005211 -0.020585
v -0.030283 -0.000089 -0.018749
v -0.030283 0.003874 -0.018749
v -0.010488 -0.000089 -0.018719
v -0.010488 0.003874 -0.018719
v -0.029406 0.000004 -0.012890
v -0.029406 0.003781 -0.012890
v -0.011386 0.000004 -0.012898
v -0.011386 0.003781 -0.012898
v -0.029771 -0.000261 -0.018956
v -0.011000 -0.000261 -0.018919
v -0.011000 0.004046 -0.018919
v -0.029771 0.004046 -0.018956
v -0.042918 0.002046 -0.020613
v -0.042622 0.005847 -0.020460
v 0.035400 0.002046 0.056866
v 0.035317 0.005847 0.056604
v -0.047610 0.002046 -0.013772
v -0.047013 0.005847 -0.013772
v -0.047610 0.002046 0.049806
v -0.047013 0.005847 0.049806
v -0.034121 0.002046 0.061943
v -0.034121 0.005847 0.061406
v 0.027029 0.002046 0.061943
v 0.027029 0.005847 0.061406
v -0.040063 0.001106 -0.021212
v -0.039874 0.003967 -0.021304
v 0.036512 0.000920 0.054200
v 0.036684 0.003586 0.053793
v 0.038539 0.000603 0.053479
v 0.038671 0.002967 0.053014
v -0.038973 0.003434 -0.024082
v -0.039481 0.000865 -0.023914
v 0.037242 0.000735 0.053905
v 0.037419 0.003245 0.053442
v -0.039538 0.003515 -0.022562
v -0.040002 0.000884 -0.022375
v 0.039915 0.000382 0.051796
v 0.040132 0.002237 0.051424
v -0.037637 0.002567 -0.024930
v -0.038074 0.000453 -0.024730
v 0.031148 0.000530 -0.017363
v 0.031133 0.002844 -0.017344
v 0.034344 0.000487 -0.011082
v 0.034344 0.002740 -0.011082
v -0.033487 0.000677 -0.021499
v -0.033487 0.003109 -0.021499
v 0.034805 0.002767 0.047654
v 0.034805 0.000542 0.047654
v 0.023555 0.003109 -0.021298
v 0.023555 0.000677 -0.021298
v 0.035212 0.000201 0.050728
v 0.035232 0.002145 0.050649
v -0.036688 0.002406 -0.020494
v -0.036774 0.000329 -0.020455
v -0.037319 0.002170 -0.022989
v -0.037614 0.000204 -0.022833
v 0.036659 0.000200 0.051417
v 0.036839 0.002147 0.051084
v -0.042915 0.005847 0.056805
v -0.043503 0.002046 0.057268
v -0.007280 0.003109 -0.021432
v -0.007280 0.000677 -0.021432
v -0.001051 0.003109 -0.021365
v -0.001051 0.000677 -0.021365
v -0.007039 0.002046 0.061943
v -0.007039 0.005847 0.061406
v -0.000259 0.002046 0.061943
v -0.000156 0.005847 0.061406
v 0.020652 0.002902 -0.018660
v 0.020652 0.000883 -0.018660
v 0.001851 0.002902 -0.018710
v 0.001851 0.000883 -0.018710
v 0.019732 0.002533 -0.008809
v 0.019732 0.001253 -0.008809
v 0.002703 0.002532 -0.008809
v 0.002703 0.001253 -0.008809
v -0.000113 0.002917 -0.020674
v -0.000113 0.000869 -0.020674
v 0.022617 0.000869 -0.020613
v 0.022617 0.002917 -0.020613
v 0.002486 0.003010 -0.019675
v 0.002486 0.000775 -0.019675
v 0.020017 0.000776 -0.019622
v 0.020017 0.003010 -0.019622
v -0.032686 0.000786 -0.020633
v -0.032686 0.002999 -0.020633
v -0.008082 0.002999 -0.020585
v -0.008082 0.000786 -0.020585
v -0.030283 0.001232 -0.018749
v -0.030283 0.002553 -0.018749
v -0.010488 0.002553 -0.018719
v -0.010488 0.001232 -0.018719
v -0.029406 0.001263 -0.012890
v -0.029406 0.002522 -0.012890
v -0.011386 0.002522 -0.012898
v -0.011386 0.001263 -0.012898
v -0.011000 0.001175 -0.018919
v -0.011000 0.002610 -0.018919
v -0.029771 0.002610 -0.018956
v -0.029771 0.001174 -0.018956
v 0.021593 0.004195 -0.021921
v 0.000910 0.004195 -0.021979
v 0.021593 -0.000409 -0.021921
v 0.000910 -0.000409 -0.021979
v 0.021593 0.002829 -0.021921
v 0.021593 0.000956 -0.021921
v 0.000910 0.000956 -0.021979
v 0.000910 0.002829 -0.021979
v -0.009279 -0.000548 -0.021923
v -0.031490 0.004333 -0.021969
v -0.031490 -0.000548 -0.021969
v -0.009279 0.004333 -0.021923
v -0.031490 0.001079 -0.021969
v -0.031490 0.002706 -0.021969
v -0.009279 0.002706 -0.021923
v -0.009279 0.001079 -0.021923
v -0.033330 -0.001739 -0.020633
v -0.008182 -0.001739 -0.020585
v 0.011586 -0.000031 -0.024130
v 0.011586 0.003767 -0.024130
v 0.015841 -0.000031 -0.023015
v 0.015841 0.003767 -0.023015
v 0.018956 -0.000031 -0.019967
v 0.018956 0.003767 -0.019967
v 0.020096 -0.000031 -0.015804
v 0.020096 0.003767 -0.015804
v 0.018956 -0.000031 -0.011641
v 0.018956 0.003767 -0.011641
v 0.015841 -0.000031 -0.008593
v 0.015841 0.003767 -0.008593
v 0.011586 -0.000031 -0.007478
v 0.011586 0.003767 -0.007478
v 0.007330 -0.000031 -0.008593
v 0.007330 0.003767 -0.008593
v 0.004215 -0.000031 -0.011641
v 0.004215 0.003767 -0.011641
v 0.003075 -0.000031 -0.015804
v 0.003075 0.003767 -0.015804
v 0.004215 -0.000031 -0.019967
v 0.004215 0.003767 -0.019967
v 0.007330 -0.000031 -0.023015
v 0.007330 0.003767 -0.023015
v -0.020762 -0.000031 -0.024130
v -0.020762 0.003767 -0.024130
v -0.016272 -0.000031 -0.023015
v -0.016272 0.003767 -0.023015
v -0.012986 -0.000031 -0.019967
v -0.012986 0.003767 -0.019967
v -0.011783 -0.000031 -0.015804
v -0.011783 0.003767 -0.015804
v -0.012986 -0.000031 -0.011641
v -0.012986 0.003767 -0.011641
v -0.016272 -0.000031 -0.008593
v -0.016272 0.003767 -0.008593
v -0.020762 -0.000031 -0.007478
v -0.020762 0.003767 -0.007478
v -0.025251 -0.000031 -0.008593
v -0.025251 0.003767 -0.008593
v -0.028537 -0.000031 -0.011641
v -0.028537 0.003767 -0.011641
v -0.029740 -0.000031 -0.015804
v -0.029740 0.003767 -0.015804
v -0.028537 -0.000031 -0.019967
v -0.028537 0.003767 -0.019967
v -0.025251 -0.000031 -0.023015
v -0.025251 0.003767 -0.023015
vn 0.0122 0.9999 -0.0122
vn 0.3230 0.9454 -0.0439
vn 0.2151 0.9511 -0.2216
vn 0.0529 0.9440 -0.3257
vn 0.3006 -0.3895 -0.8706
vn 0.6609 -0.3165 -0.6805
vn 0.2151 -0.9511 -0.2216
vn 0.0529 -0.9440 -0.3257
vn 0.0122 -0.9999 0.0122
vn 0.3230 -0.9454 0.0439
vn 0.2151 -0.9511 0.2216
vn 0.0529 -0.9440 0.3257
vn 0.2333 0.5118 0.8268
vn 0.6317 0.4880 0.6024
vn 0.2151 0.9511 0.2216
vn 0.0529 0.9440 0.3257
vn -0.8087 -0.5386 0.2366
vn -0.3230 -0.9454 0.0439
vn -0.2151 -0.9511 0.2216
vn -0.5760 -0.5530 0.6020
vn 0.8534 0.4061 0.3268
vn 0.3230 0.9454 0.0439
vn 0.8534 -0.4061 0.3268
vn 0.6407 -0.4874 0.5933
vn -0.3230 0.9454 0.0439
vn -0.8057 0.5393 0.2447
vn -0.5756 0.5510 0.6042
vn -0.2151 0.9511 0.2216
vn -0.9700 0.0001 0.2430
vn -0.6960 0.0001 0.7181
vn 0.2392 -0.5123 0.8248
vn 0.2584 0.1221 0.9583
vn 0.7363 0.0667 0.6734
vn 0.6609 0.3165 -0.6805
vn 0.3006 0.3895 -0.8706
vn -0.5603 -0.0017 -0.8283
vn -0.5568 -0.4918 -0.6694
vn -0.8084 -0.5275 -0.2613
vn -0.9576 -0.0002 -0.2882
vn -0.2151 0.9511 -0.2216
vn -0.5714 0.4911 -0.6575
vn -0.8107 0.5270 -0.2552
vn -0.3230 0.9454 -0.0439
vn 0.8846 -0.3042 -0.3536
vn 0.3230 -0.9454 -0.0439
vn 0.8846 0.3042 -0.3536
vn -0.2151 -0.9511 -0.2216
vn -0.3230 -0.9454 -0.0439
vn 0.0122 -0.9999 -0.0122
vn 0.0122 0.9999 0.0122
vn -0.0122 0.9999 0.0122
vn -0.0122 0.9999 -0.0122
vn -0.0000 -0.5173 0.8558
vn 0.2633 -0.0002 0.9647
vn -0.0000 -0.0000 1.0000
vn -0.0529 0.9440 0.3257
vn -0.0000 0.9999 0.0124
vn -0.0000 0.9999 -0.0124
vn -0.0122 -0.9999 -0.0122
vn -0.0122 -0.9999 0.0122
vn -0.0000 0.9479 0.3187
vn -0.0529 -0.9440 -0.3257
vn -0.0000 -0.9999 -0.0124
vn -0.0000 -0.9999 0.0124
vn -0.0529 0.9440 -0.3257
vn -0.2980 0.3999 -0.8668
vn -0.0000 -0.9479 -0.3187
vn -0.6805 0.1631 0.7144
vn -0.2357 0.1496 0.9602
vn -0.2244 0.5245 0.8213
vn -0.0000 0.9479 -0.3187
vn -0.0000 0.4560 -0.8900
vn -0.0529 -0.9440 0.3257
vn -0.2184 -0.5238 0.8234
vn -0.0000 0.1400 0.9902
vn -0.0000 0.5173 0.8558
vn -0.0000 -0.9479 0.3187
vn -0.2980 -0.3999 -0.8668
vn -0.0000 -0.4560 -0.8900
vn -0.7402 0.0855 -0.6669
vn -0.7201 0.0007 -0.6938
vn -0.5523 0.0708 -0.8307
vn 0.8022 -0.1281 0.5831
vn 0.7409 0.0027 0.6716
vn 0.7569 -0.0016 0.6535
vn 0.7129 -0.6487 0.2663
vn 0.8025 0.1264 0.5831
vn 0.7146 0.6467 0.2668
vn -0.2738 0.6580 -0.7015
vn -0.5524 0.1005 -0.8275
vn -0.5350 -0.0891 -0.8402
vn -0.2856 -0.6258 -0.7258
vn 0.3796 -0.8313 -0.4061
vn 0.5717 -0.8204 -0.0108
vn 0.5717 0.8204 -0.0108
vn 0.3796 0.8313 -0.4061
vn 0.0446 0.8352 -0.5482
vn 0.0446 -0.8352 -0.5482
vn -0.0000 0.8029 -0.5962
vn -0.0000 -0.8029 -0.5962
vn 0.4041 0.4899 0.7725
vn 0.5502 0.3786 0.7443
vn 0.7079 0.6511 0.2739
vn 0.1957 0.9326 0.3033
vn 0.4002 -0.4847 0.7778
vn 0.5927 -0.3460 0.7273
vn 0.5565 -0.0027 0.8309
vn 0.3677 0.0014 0.9300
vn 0.2998 -0.9068 0.2964
vn 0.7779 -0.5667 0.2717
vn 0.0379 -0.9779 -0.2056
vn 0.1304 -0.9776 -0.1649
vn 0.4787 -0.7088 -0.5181
vn 0.0268 -0.7702 -0.6373
vn 0.0434 0.9981 -0.0426
vn 0.5647 0.5881 -0.5791
vn 0.2128 0.6195 -0.7556
vn 0.0092 0.9975 -0.0704
vn 0.0092 -0.9975 -0.0704
vn 0.1784 -0.6761 -0.7149
vn 0.5322 -0.6778 -0.5073
vn 0.0434 -0.9981 -0.0426
vn 0.8049 0.5438 -0.2376
vn 0.9531 -0.0168 -0.3022
vn 0.4440 -0.0097 -0.8960
vn 0.4239 0.4967 -0.7574
vn 0.0480 0.9988 -0.0090
vn 0.7532 0.6274 -0.1976
vn 0.7617 -0.6266 -0.1650
vn 0.1140 -0.9934 -0.0084
vn 0.1737 0.6257 -0.7604
vn 0.1288 0.9682 -0.2144
vn 0.7378 0.6603 -0.1405
vn 0.6515 0.4962 -0.5739
vn 0.1981 0.9583 -0.2062
vn 0.0824 0.7159 -0.6934
vn -0.2369 0.9068 -0.3485
vn -0.2698 0.5927 -0.7589
vn -0.6623 0.4239 -0.6178
vn -0.7788 0.4943 -0.3861
vn -0.7882 -0.5000 -0.3588
vn -0.6918 -0.3337 -0.6403
vn -0.2715 -0.4425 -0.8547
vn -0.2574 -0.8886 -0.3797
vn -0.9724 0.1354 -0.1900
vn -0.7653 0.0988 -0.6360
vn -0.8007 -0.0030 -0.5991
vn -0.9819 -0.0010 -0.1893
vn 0.2794 -0.1572 -0.9472
vn 0.2772 0.0046 -0.9608
vn 0.8046 0.0001 -0.5938
vn 0.8084 -0.0705 -0.5844
vn 0.0039 -0.9801 -0.1984
vn 0.1340 -0.7137 -0.6875
vn -0.0041 0.9796 -0.2011
vn -0.0079 0.5983 -0.8013
vn 0.8049 -0.5667 -0.1761
vn 0.1847 -0.9647 -0.1879
vn 0.2619 -0.8034 -0.5348
vn 0.4703 -0.5025 -0.7254
vn 0.9646 -0.1463 -0.2193
vn 0.4882 -0.0768 -0.8693
vn 0.1512 -0.9640 -0.2187
vn 0.1454 -0.6038 -0.7837
vn 0.6109 -0.4774 -0.6316
vn 0.7342 -0.6591 -0.1630
vn 0.1850 -0.9807 -0.0639
vn 0.6939 -0.6969 -0.1812
vn 0.4086 0.1352 0.9026
vn 0.5661 0.1147 0.8163
vn 0.7322 0.0761 0.6768
vn -0.0034 -0.9959 -0.0909
vn -0.0153 -0.5944 -0.8040
vn 0.9405 -0.3393 0.0214
vn 0.9031 -0.3957 0.1670
vn 0.9286 -0.1343 -0.3460
vn 0.9021 0.4002 0.1614
vn 0.9377 0.3454 -0.0369
vn 0.6287 -0.5168 -0.5811
vn 0.1711 -0.4708 -0.8655
vn 0.1403 0.4407 -0.8866
vn 0.6367 0.4278 -0.6415
vn 0.8623 0.4816 -0.1563
vn 0.8448 -0.5086 -0.1664
vn -0.1030 -0.3617 -0.9266
vn -0.0249 -0.3166 -0.9482
vn 0.1030 0.3659 -0.9249
vn -0.0203 0.5296 -0.8480
vn 0.3267 -0.0269 -0.9447
vn -0.0026 -0.4497 -0.8932
vn 0.9535 -0.0101 -0.3012
vn 0.3723 -0.1316 -0.9187
vn 0.9975 -0.0000 -0.0700
vn -0.0761 0.0029 -0.9971
vn 0.7097 0.0051 -0.7045
vn 0.7097 0.0050 -0.7045
vn 0.1345 0.1029 -0.9856
vn 0.4531 0.7298 -0.5119
vn 0.9720 0.0025 -0.2348
vn 0.6873 0.7037 -0.1800
vn 0.4442 -0.0745 -0.8928
vn 0.2553 -0.0015 -0.9668
vn 0.0344 0.1441 -0.9890
vn 0.9971 -0.0037 -0.0757
vn 0.9711 0.0024 -0.2385
vn 0.7096 0.0051 -0.7045
vn 0.7500 -0.0731 -0.6574
vn -1.0000 -0.0000 -0.0090
vn -0.5016 0.8514 -0.1536
vn -0.7669 0.6229 0.1546
vn -0.9701 -0.0000 0.2426
vn 0.1436 0.6945 -0.7050
vn 0.1130 0.9801 -0.1630
vn 0.0199 0.9776 -0.2096
vn 0.1792 0.9819 -0.0619
vn 0.1134 0.0949 -0.9890
vn 0.0050 0.6307 -0.7761
vn -0.0013 0.9707 -0.2402
vn 0.0049 0.6310 -0.7757
vn 0.3889 -0.1327 -0.9117
vn 0.9246 -0.1368 -0.3555
vn -0.0153 0.5817 -0.8132
vn -0.0167 0.5236 -0.8518
vn -0.2245 -0.0000 0.9745
vn -0.9458 0.1373 -0.2944
vn -0.9555 0.1643 0.2452
vn -0.6828 0.1644 0.7119
vn -0.0029 -0.4650 -0.8853
vn 0.0039 -0.9805 -0.1967
vn -0.0147 -0.4474 -0.8942
vn -0.0013 0.9754 -0.2204
vn -0.1834 0.1369 -0.9735
vn -0.1760 -0.7505 -0.6370
vn -0.1387 -0.3741 -0.9170
vn 0.1444 -0.3735 -0.9163
vn -0.3903 -0.0000 -0.9207
vn 0.3173 -0.0000 -0.9483
vn -0.0085 0.6553 -0.7554
vn -0.0034 0.9959 -0.0909
vn -0.0041 -0.9796 -0.2011
vn 0.7660 -0.6235 0.1564
vn -0.7669 -0.6228 0.1545
vn -0.5474 -0.5824 -0.6009
vn 0.5498 -0.5820 -0.5991
vn 0.5026 -0.8508 -0.1533
vn -0.5016 -0.8514 -0.1537
vn 0.5026 0.8508 -0.1533
vn 0.7660 0.6235 0.1564
vn 1.0000 -0.0000 -0.0089
vn 0.9693 -0.0000 0.2457
vn 0.6761 -0.0000 -0.7368
vn -0.6734 -0.0000 -0.7392
vn -0.5474 0.5824 -0.6009
vn 0.5498 0.5820 -0.5991
vn 0.0704 -0.2192 -0.9731
vn -0.1351 -0.0000 -0.9908
vn 0.0704 0.2192 -0.9731
vn -0.0662 0.2196 -0.9733
vn -0.0662 -0.2196 -0.9733
vn 0.1378 -0.0000 -0.9905
vn 0.0323 -0.0000 -0.9995
vn -0.0975 0.2637 -0.9597
vn 0.0999 -0.2632 -0.9595
vn -0.0975 -0.2637 -0.9597
vn 0.0999 0.2632 -0.9595
vn -0.0313 -0.0000 -0.9995
vn -0.3954 0.8587 -0.3261
vn 0.3994 0.8572 -0.3250
vn 0.7231 0.5781 0.3780
vn -0.7207 0.5784 0.3822
vn 0.2572 -0.0015 -0.9664
vn -0.0084 -0.0000 -1.0000
vn 0.1468 0.5401 -0.8287
vn -0.1410 0.5410 -0.8291
vn 0.0140 -0.0000 -0.9999
vn -0.8669 -0.0000 0.4985
vn -0.5282 0.5805 -0.6196
vn -0.6511 -0.0000 -0.7590
vn 0.3994 -0.8573 -0.3248
vn -0.3953 -0.8587 -0.3261
vn -0.7206 -0.5784 0.3822
vn 0.7231 -0.5782 0.3780
vn 0.9447 -0.0000 0.3280
vn 0.8682 -0.0000 0.4962
vn -0.9433 -0.0000 0.3318
vn 0.6525 -0.0000 -0.7578
vn 0.5295 -0.5802 -0.6189
vn -0.5282 -0.5805 -0.6196
vn 0.5295 0.5802 -0.6189
vn -0.1046 -0.0000 -0.9945
vn 0.0845 -0.1496 -0.9851
vn 0.1055 -0.0000 -0.9944
vn -0.0613 0.2286 -0.9716
vn 0.0630 0.2285 -0.9715
vn -0.0827 -0.1498 -0.9853
vn -0.0747 0.0029 -0.9972
vn -0.2263 0.1492 0.9626
vn 0.7182 0.0816 0.6911
vn 0.7590 0.0640 0.6479
vn -0.9521 0.1646 0.2579
vn -0.5956 0.0735 -0.7999
vn -0.9487 0.1374 -0.2848
vn 0.1837 -0.1541 -0.9708
vn 0.9445 -0.1485 -0.2932
vn 0.9975 -0.0036 -0.0703
vn 0.9715 0.0024 -0.2370
vn -0.7639 0.0987 -0.6378
vn 0.5730 0.1130 0.8117
vn -0.9422 0.1247 -0.3109
vn -0.6893 0.0714 -0.7209
vn 0.3589 0.1419 0.9225
vn 0.2681 0.1220 0.9556
vn 0.2536 -0.0000 -0.9673
vn 0.6993 -0.0000 -0.7148
vn 0.9645 -0.0000 -0.2641
vn 0.9645 -0.0000 0.2641
vn 0.6993 -0.0000 0.7148
vn 0.2536 -0.0000 0.9673
vn -0.2536 -0.0000 0.9673
vn -0.6993 -0.0000 0.7148
vn -0.9645 -0.0000 0.2641
vn -0.9645 -0.0000 -0.2641
vn -0.0000 1.0000 -0.0000
vn -0.6993 -0.0000 -0.7148
vn -0.2536 -0.0000 -0.9673
vn -0.0000 -1.0000 -0.0000
vn 0.2411 -0.0000 -0.9705
vn 0.6800 -0.0000 -0.7333
vn 0.9607 -0.0000 -0.2776
vn 0.9607 -0.0000 0.2776
vn 0.6800 -0.0000 0.7333
vn 0.2411 -0.0000 0.9705
vn -0.2411 -0.0000 0.9705
vn -0.6800 -0.0000 0.7333
vn -0.9607 -0.0000 0.2776
vn -0.9607 -0.0000 -0.2776
vn -0.6800 -0.0000 -0.7333
vn -0.2411 -0.0000 -0.9705
vt 0.815792 0.821278
vt 0.956061 0.819662
vt 0.915379 0.916301
vt 0.814385 0.961558
vt 0.848195 0.996273
vt 0.943313 0.943800
vt 0.815792 0.177841
vt 0.956061 0.179457
vt 0.915379 0.082818
vt 0.814385 0.037561
vt 0.848195 0.002846
vt 0.943313 0.055320
vt -0.003149 0.131077
vt 0.031514 0.179457
vt 0.072195 0.082818
vt 0.044261 0.055320
vt 0.990724 0.131077
vt -0.023884 0.131077
vt 0.023805 0.039207
vt 0.848195 -0.003383
vt 0.944272 0.052282
vt 0.033992 0.949103
vt 0.044261 0.943800
vt -0.003149 0.868043
vt -0.023884 0.868043
vt 0.072195 0.916301
vt 0.031514 0.819662
vt 0.990724 0.868043
vt 0.171782 0.177841
vt 0.171782 0.821278
vt 0.534277 0.002846
vt 0.848195 -0.015841
vt 0.530697 -0.015841
vt 0.173189 0.037561
vt 0.530739 0.177841
vt 0.530739 0.821278
vt 0.530585 0.037561
vt 0.173189 0.961558
vt 0.139379 0.996273
vt 0.530585 0.961558
vt 0.037442 0.049949
vt 0.139379 -0.003383
vt 0.139379 0.002846
vt 0.534277 0.996273
vt 0.533084 -0.003383
vt 0.070506 0.954285
vt 0.068322 0.953222
vt 0.037415 0.947335
vt 0.962111 0.089570
vt 0.956123 0.075436
vt 0.946190 0.046208
vt 0.990724 0.158614
vt 0.152314 0.996273
vt 0.074875 0.956409
vt 0.074870 0.956409
vt 0.990724 0.840504
vt 0.835260 0.996273
vt 0.454709 0.996273
vt 0.453297 0.996273
vt 0.532864 0.996273
vt 0.970691 0.094299
vt 0.984673 0.099278
vt 1.013809 0.157475
vt 0.999081 0.156788
vt 0.980099 0.083111
vt 0.964525 0.078194
vt 0.821571 0.990157
vt 0.931593 0.935152
vt 0.895612 0.909224
vt 0.807928 0.955279
vt 0.949205 0.949564
vt 0.955096 0.955330
vt 0.839085 1.012907
vt 0.837173 1.004590
vt 0.102045 0.975880
vt 0.095478 0.971265
vt 0.107636 0.945049
vt 0.110446 0.946396
vt 0.999081 0.842331
vt 1.007439 0.844157
vt 0.963987 0.120129
vt 0.983170 0.155447
vt 0.938336 0.156022
vt 0.943508 0.122224
vt 0.150691 0.990121
vt 0.146725 0.957612
vt 0.150402 1.004590
vt 0.148489 1.010776
vt 0.089022 0.989509
vt 0.081974 0.972102
vt 0.083857 0.971150
vt 0.086448 0.988329
vt 0.071207 0.967765
vt 0.077245 0.985604
vt 0.071357 0.983651
vt 0.065823 0.965597
vt 0.959831 0.112401
vt 0.957754 0.108537
vt 0.942826 0.119479
vt 0.943053 0.120394
vt 0.525898 0.991948
vt 0.522705 0.956056
vt 0.454501 1.004590
vt 0.454292 1.011486
vt 0.105732 0.976683
vt 0.148677 0.995528
vt 0.110627 0.946411
vt 0.102314 0.974877
vt 0.109630 0.945957
vt 0.983170 0.155447
vt 0.963987 0.120129
vt 0.943508 0.122223
vt 0.980536 0.842139
vt 0.932999 0.836862
vt 0.968635 0.088931
vt 0.983148 0.093889
vt 0.960115 0.084859
vt 0.533073 1.004590
vt 0.529703 1.012197
vt 1.002611 0.116626
vt 1.019774 0.153957
vt 1.000089 0.112320
vt 1.019774 0.153957
vt 1.002611 0.116626
vt 0.958304 0.953145
vt 0.832564 1.020491
vt 0.963812 0.965140
vt 1.014550 0.837640
vt 0.149582 1.019127
vt 0.103684 0.999691
vt 0.100781 0.996246
vt 0.153431 1.008799
vt 0.088504 0.992754
vt 0.453819 1.019582
vt 0.995046 0.103709
vt 0.093564 0.995067
vt 0.807928 0.955279
vt 0.895942 0.909670
vt 0.896108 0.909893
vt 0.896704 0.910407
vt 0.108633 0.945503
vt 0.146725 0.957611
vt 0.895777 0.909447
vt 0.943280 0.121309
vt 0.766921 0.935857
vt 0.766921 0.935857
vt 0.774283 0.924699
vt 0.939401 0.943377
vt 0.985680 0.842139
vt 0.452860 0.990133
vt 0.450504 0.956834
vt 0.098624 0.997379
vt 0.997567 0.108014
vt 0.454659 1.012696
vt 0.528818 1.016593
vt 0.139379 -0.015841
vt -0.016973 0.868043
vt -0.016973 0.131077
vt 0.030624 0.044578
vt 0.528398 1.020036
vt 0.452420 0.993738
vt 0.526118 0.990145
vt 0.447289 0.956902
vt 0.149940 0.957544
vt 0.450504 0.956834
vt 0.522705 0.956056
vt 0.456835 0.821278
vt 0.456989 0.961558
vt 0.456835 0.177841
vt 0.456989 0.037561
vt 0.453297 0.002846
vt 0.453297 -0.003383
vt 0.453297 -0.015841
vt 0.556351 0.925281
vt 0.763622 0.810512
vt 0.566220 0.810515
vt 0.563713 0.936463
vt 0.563713 0.936463
vt 0.556351 0.925281
vt 0.566220 0.810515
vt 0.763622 0.810512
vt 0.527165 0.956249
vt 0.527165 0.956249
vt 0.803469 0.955513
vt 0.803469 0.955513
vt 0.535918 0.951510
vt 0.537435 0.952960
vt 0.793156 0.952252
vt 0.537435 0.952959
vt 0.793157 0.952252
vt 0.794681 0.950787
vt 0.407388 0.927709
vt 0.189805 0.928132
vt 0.183870 0.925736
vt 0.413319 0.925381
vt 0.146725 0.957612
vt 0.450504 0.956834
vt 0.447289 0.956901
vt 0.402908 0.857915
vt 0.402908 0.857915
vt 0.189805 0.928132
vt 0.407388 0.927709
vt 0.194039 0.857816
vt 0.194039 0.857816
vt 0.440572 0.951987
vt 0.438214 0.954340
vt 0.156606 0.952626
vt 0.158965 0.954961
vt 0.438214 0.954340
vt 0.158965 0.954961
vt 0.156606 0.952626
vt 0.183870 0.925736
vt 0.194039 0.857815
vt 0.413319 0.925381
vt 0.447289 0.956901
vt 0.149940 0.957544
vt 0.794681 0.950787
vt 0.766921 0.935858
vt 0.535918 0.951510
vt 0.563713 0.936463
vt 0.807928 0.955279
vt 0.803469 0.955513
vt 0.774283 0.924699
vt 0.531891 -0.009612
vt 0.453297 -0.009612
vt 0.139379 -0.009612
vt 0.958119 0.080147
vt 0.945231 0.049245
vt -0.010061 0.131077
vt 0.040838 0.945567
vt -0.010061 0.868042
vt 0.961909 0.116265
vt 0.098896 0.973071
vt 0.938336 0.156022
vt 0.932998 0.836862
vt 0.083134 0.987556
vt 0.981624 0.088500
vt 0.076590 0.969934
vt 0.072690 0.955347
vt 0.966580 0.083562
vt 0.848195 -0.009612
vt 0.665393 0.988107
vt 0.713650 0.975177
vt 0.748976 0.939851
vt 0.761906 0.891595
vt 0.748976 0.843338
vt 0.713650 0.808012
vt 0.665393 0.795082
vt 0.617137 0.808012
vt 0.581811 0.843338
vt 0.568880 0.891595
vt 0.581811 0.939851
vt 0.617137 0.975177
vt 0.298552 0.988107
vt 0.349466 0.975177
vt 0.386737 0.939851
vt 0.400379 0.891595
vt 0.386737 0.843338
vt 0.349466 0.808012
vt 0.298552 0.795082
vt 0.247639 0.808012
vt 0.210368 0.843338
vt 0.196726 0.891595
vt 0.210368 0.939851
vt 0.247639 0.975177
s 1
usemtl mat_Radio_Stern-Club-T110
f 55/1/1 20/2/2 4/3/3 35/4/4
f 70/5/5 65/6/6 8/3/7 37/4/8
f 51/7/9 24/8/10 6/9/11 39/10/12
f 43/11/13 60/12/14 2/9/15 34/10/16
f 32/13/17 21/14/18 5/15/19 14/16/20
f 62/17/21 19/8/22 2/9/15 60/12/14
f 24/8/10 61/17/23 59/12/24 6/9/11
f 18/14/25 30/13/26 13/16/27 1/15/28
f 162/18/29 32/13/17 14/16/20 159/19/30
f 39/10/12 6/9/11 59/12/24 41/11/31
f 260/20/32 252/21/33 60/12/14 43/11/13
f 35/4/4 4/3/3 67/6/34 69/5/35
f 158/22/36 57/23/37 31/24/38 161/25/39
f 161/25/39 31/24/38 32/13/17 162/18/29
f 3/26/40 58/23/41 29/24/42 17/27/43
f 17/27/43 29/24/42 30/13/26 18/14/25
f 8/3/7 65/6/6 66/28/44 23/2/45
f 23/2/45 66/28/44 61/17/23 24/8/10
f 67/6/34 4/3/3 20/2/2 68/28/46
f 68/28/46 20/2/2 19/8/22 62/17/21
f 57/23/37 7/26/47 22/27/48 31/24/38
f 31/24/38 22/27/48 21/14/18 32/13/17
f 37/4/8 8/3/7 23/2/45 49/1/49
f 49/1/49 23/2/45 24/8/10 51/7/9
f 34/10/16 2/9/15 19/8/22 53/7/50
f 53/7/50 19/8/22 20/2/2 55/1/1
f 18/14/25 54/29/51 56/30/52 17/27/43
f 173/31/53 41/11/31 164/32/54 215/33/55
f 1/15/28 33/34/56 54/29/51 18/14/25
f 185/35/57 53/7/50 55/1/1 187/36/58
f 22/27/48 50/30/59 52/29/60 21/14/18
f 166/37/61 34/10/16 53/7/50 185/35/57
f 7/26/47 38/38/62 50/30/59 22/27/48
f 181/36/63 49/1/49 51/7/9 183/35/64
f 3/26/40 36/38/65 63/39/66 58/23/41
f 169/40/67 37/4/8 49/1/49 181/36/63
f 295/41/68 258/42/69 44/43/70 13/16/27
f 167/40/71 35/4/4 69/5/35 177/44/72
f 5/15/19 40/34/73 42/43/74 14/16/20
f 304/45/75 260/20/32 43/11/13 175/31/76
f 13/16/27 44/43/70 33/34/56 1/15/28
f 171/37/77 39/10/12 41/11/31 173/31/53
f 21/14/18 52/29/60 40/34/73 5/15/19
f 175/31/76 43/11/13 34/10/16 166/37/61
f 57/23/37 64/39/78 38/38/62 7/26/47
f 183/35/64 51/7/9 39/10/12 171/37/77
f 17/27/43 56/30/52 36/38/65 3/26/40
f 179/44/79 70/5/5 37/4/8 169/40/67
f 261/46/80 88/47/81 158/22/36 249/48/82
f 15/49/83 87/50/84 160/51/85 59/12/24
f 26/52/86 15/49/83 59/12/24 61/17/23
f 16/49/87 28/52/88 62/17/21 60/12/14
f 46/53/89 10/54/90 58/23/41 63/39/66
f 9/55/91 48/53/92 64/39/78 57/23/37
f 12/6/93 25/56/94 66/28/44 65/6/6
f 25/56/94 26/52/86 61/17/23 66/28/44
f 27/56/95 11/6/96 67/6/34 68/28/46
f 28/52/88 27/56/95 68/28/46 62/17/21
f 11/6/96 45/57/97 69/5/35 67/6/34
f 187/36/58 55/1/1 35/4/4 167/40/71
f 47/57/98 12/6/93 65/6/6 70/5/5
f 190/58/99 46/53/89 63/39/66 178/59/72
f 191/60/100 47/57/98 70/5/5 179/44/79
f 91/61/101 105/62/102 106/63/103 89/64/104
f 92/61/105 109/62/106 107/65/107 103/66/108
f 90/64/109 71/63/110 109/62/106 92/61/105
f 145/67/111 156/68/112 124/69/113 135/70/114
f 93/71/115 110/72/116 111/73/117 94/74/118
f 96/74/119 112/73/120 113/72/121 95/71/122
f 148/75/123 150/76/124 137/77/125 141/78/126
f 97/79/127 79/80/128 110/72/116 93/71/115
f 95/71/122 113/72/121 114/80/129 98/79/130
f 155/81/131 146/82/132 122/83/133 139/84/134
f 89/64/104 106/63/103 79/80/128 97/79/127
f 98/79/130 114/80/129 71/63/110 90/64/109
f 147/85/135 148/75/123 141/78/126 136/86/136
f 99/87/137 116/88/138 117/89/139 100/90/140
f 102/91/141 118/92/142 119/88/143 101/87/144
f 272/93/145 268/94/146 120/95/147 104/96/148
f 293/97/149 154/98/150 134/99/151 287/100/152
f 213/101/153 145/67/111 135/70/114 207/102/154
f 200/103/155 194/104/156 116/88/138 99/87/137
f 151/105/157 149/106/158 130/86/159 140/107/160
f 291/108/161 151/105/157 140/107/160 289/109/162
f 153/110/163 152/111/164 138/112/165 133/83/166
f 157/113/167 153/110/163 133/83/166 128/114/168
f 154/98/150 155/81/131 139/84/134 134/99/151
f 156/68/112 157/113/167 128/114/168 124/69/113
f 270/115/169 266/116/170 105/62/102 91/61/101
f 104/96/148 120/95/147 118/92/142 102/91/141
f 88/47/81 104/96/148 102/91/141 9/55/91
f 264/117/171 270/115/169 91/61/101 16/49/87
f 198/118/172 196/119/173 112/73/120 96/74/119
f 191/60/100 198/118/172 96/74/119 47/57/98
f 261/46/80 272/93/145 104/96/148 88/47/81
f 9/55/91 102/91/141 101/87/144 48/53/92
f 46/53/89 99/87/137 100/90/140 10/54/90
f 25/56/94 98/79/130 90/64/109 26/52/86
f 28/52/88 89/64/104 97/79/127 27/56/95
f 12/6/93 95/71/122 98/79/130 25/56/94
f 27/56/95 97/79/127 93/71/115 11/6/96
f 47/57/98 96/74/119 95/71/122 12/6/93
f 11/6/96 93/71/115 94/74/118 45/57/97
f 26/52/86 90/64/109 92/61/105 15/49/83
f 15/49/83 92/61/105 103/66/108 87/50/84
f 16/49/87 91/61/101 89/64/104 28/52/88
f 73/120/174 72/121/175 106/63/103 105/62/102
f 274/122/176 73/120/174 105/62/102 266/116/170
f 108/123/177 74/124/178 109/62/106 71/63/110
f 76/125/179 75/126/180 111/73/117 110/72/116
f 78/126/181 77/127/182 113/72/121 112/73/120
f 77/127/182 80/128/183 114/80/129 113/72/121
f 115/128/184 76/125/179 110/72/116 79/80/128
f 72/121/175 115/128/184 79/80/128 106/63/103
f 82/129/185 81/130/186 117/89/139 116/88/138
f 84/131/187 83/132/188 119/88/143 118/92/142
f 86/133/189 84/131/187 118/92/142 120/95/147
f 190/58/99 200/103/155 99/87/137 46/53/89
f 80/128/183 108/123/177 71/63/110 114/80/129
f 202/134/190 82/129/185 116/88/138 194/104/156
f 74/124/178 85/135/191 107/65/107 109/62/106
f 276/136/192 86/133/189 120/95/147 268/94/146
f 122/83/133 121/83/193 134/99/151 139/84/134
f 286/137/194 277/138/195 123/139/196 125/70/197
f 131/140/198 123/139/196 127/114/199 132/114/200
f 132/114/200 127/114/199 121/83/193 122/83/133
f 290/141/201 281/142/202 129/86/203 137/77/125
f 283/83/204 280/114/205 128/114/168 133/83/166
f 280/114/205 278/143/206 124/69/113 128/114/168
f 288/144/207 283/83/204 133/83/166 138/112/165
f 319/145/208 229/146/209 218/147/210 306/147/211
f 137/77/125 129/86/203 136/86/136 141/78/126
f 125/70/197 123/139/196 131/140/198 126/70/212
f 143/148/213 144/67/214 126/70/212 131/140/198
f 146/82/132 142/149/215 132/114/200 122/83/133
f 142/149/215 143/148/213 131/140/198 132/114/200
f 205/102/216 125/70/197 126/70/212 210/102/217
f 211/150/218 147/85/135 136/86/136 209/151/219
f 80/128/183 77/127/182 143/148/213 142/149/215
f 108/123/177 80/128/183 142/149/215 146/82/132
f 77/127/182 78/126/181 144/67/214 143/148/213
f 76/125/179 115/128/184 157/113/167 156/68/112
f 85/135/191 74/124/178 155/81/131 154/98/150
f 115/128/184 72/121/175 153/110/163 157/113/167
f 72/121/175 73/120/174 152/111/164 153/110/163
f 275/152/220 81/130/186 151/105/157 291/108/161
f 81/130/186 82/129/185 149/106/158 151/105/157
f 273/153/221 85/135/191 154/98/150 293/97/149
f 83/132/188 84/131/187 148/75/123 147/85/135
f 74/124/178 108/123/177 146/82/132 155/81/131
f 84/131/187 86/133/189 150/76/124 148/75/123
f 75/126/180 76/125/179 156/68/112 145/67/111
f 203/154/222 83/132/188 147/85/135 211/150/218
f 204/155/223 78/126/181 112/73/120 196/119/173
f 14/16/20 42/43/74 163/156/224 159/19/30
f 253/157/225 161/25/39 162/18/29 255/158/226
f 249/48/82 158/22/36 161/25/39 253/157/225
f 41/11/31 59/12/24 160/51/85 164/32/54
f 255/158/226 162/18/29 159/19/30 296/159/227
f 158/22/36 88/47/81 9/55/91 57/23/37
f 252/21/33 264/117/171 16/49/87 60/12/14
f 201/160/228 75/126/180 145/67/111 213/101/153
f 82/129/185 202/134/190 214/161/229 149/106/158
f 202/134/190 201/160/228 213/101/153 214/161/229
f 83/132/188 203/154/222 195/104/230 119/88/143
f 203/154/222 204/155/223 196/119/173 195/104/230
f 78/126/181 204/155/223 212/162/231 144/67/214
f 204/155/223 203/154/222 211/150/218 212/162/231
f 144/67/214 212/162/231 210/102/217 126/70/212
f 212/162/231 211/150/218 209/151/219 210/102/217
f 129/86/203 206/151/232 209/151/219 136/86/136
f 206/151/232 205/102/216 210/102/217 209/151/219
f 130/86/159 208/151/233 236/163/234 234/164/235
f 297/165/236 208/151/233 207/102/154 299/166/237
f 75/126/180 201/160/228 193/119/238 111/73/117
f 201/160/228 202/134/190 194/104/156 193/119/238
f 45/57/97 94/74/118 199/118/239 189/60/99
f 189/60/99 199/118/239 200/103/155 190/58/99
f 48/53/92 101/87/144 197/103/240 192/58/100
f 192/58/100 197/103/240 198/118/172 191/60/100
f 101/87/144 119/88/143 195/104/230 197/103/240
f 197/103/240 195/104/230 196/119/173 198/118/172
f 94/74/118 111/73/117 193/119/238 199/118/239
f 199/118/239 193/119/238 194/104/156 200/103/155
f 149/106/158 214/161/229 208/151/233 130/86/159
f 214/161/229 213/101/153 207/102/154 208/151/233
f 48/53/92 192/58/100 180/59/79 64/39/78
f 192/58/100 191/60/100 179/44/79 180/59/79
f 45/57/97 189/60/99 177/44/72 69/5/35
f 189/60/99 190/58/99 178/59/72 177/44/72
f 56/30/52 188/167/58 168/168/71 36/38/65
f 188/167/58 187/36/58 167/40/71 168/168/71
f 64/39/78 180/59/79 170/168/67 38/38/62
f 180/59/79 179/44/79 169/40/67 170/168/67
f 52/29/60 184/169/64 172/170/77 40/34/73
f 184/169/64 183/35/64 171/37/77 172/170/77
f 44/43/70 176/171/76 165/170/61 33/34/56
f 176/171/76 175/31/76 166/37/61 165/170/61
f 40/34/73 172/170/77 174/171/53 42/43/74
f 172/170/77 171/37/77 173/31/53 174/171/53
f 258/42/69 302/172/75 176/171/76 44/43/70
f 302/172/75 304/45/75 175/31/76 176/171/76
f 36/38/65 168/168/71 178/59/72 63/39/66
f 168/168/71 167/40/71 177/44/72 178/59/72
f 38/38/62 170/168/67 182/167/63 50/30/59
f 170/168/67 169/40/67 181/36/63 182/167/63
f 50/30/59 182/167/63 184/169/64 52/29/60
f 182/167/63 181/36/63 183/35/64 184/169/64
f 33/34/56 165/170/61 186/169/57 54/29/51
f 165/170/61 166/37/61 185/35/57 186/169/57
f 54/29/51 186/169/57 188/167/58 56/30/52
f 186/169/57 185/35/57 187/36/58 188/167/58
f 42/43/74 174/171/53 216/173/55 163/156/224
f 174/171/53 173/31/53 215/33/55 216/173/55
f 220/174/241 217/147/242 221/175/243 224/176/244
f 232/177/245 231/146/246 217/147/242 220/174/241
f 229/146/209 230/177/247 219/174/248 218/147/210
f 317/178/249 232/177/245 220/174/241 307/179/250
f 311/180/251 224/176/244 221/175/243 309/181/252
f 306/147/211 218/147/210 222/175/253 310/175/252
f 307/179/250 220/174/241 224/176/244 311/180/251
f 218/147/210 219/174/248 223/176/254 222/175/253
f 299/166/237 207/102/154 227/182/255 313/183/256
f 125/70/197 205/102/216 228/182/257 225/184/258
f 207/102/154 135/70/114 226/184/259 227/182/255
f 286/137/194 125/70/197 225/184/258 315/185/260
f 344/186/261 338/187/262 232/177/245 317/178/249
f 339/188/263 340/189/264 230/177/247 229/146/209
f 338/187/262 337/190/265 231/146/246 232/177/245
f 342/191/266 339/188/263 229/146/209 319/145/208
f 246/192/267 245/193/268 237/194/269 239/195/270
f 282/196/271 130/86/159 234/164/235 322/164/272
f 206/151/232 129/86/203 233/164/273 235/163/274
f 298/197/236 206/151/232 235/163/274 324/198/275
f 328/195/276 239/195/270 243/199/277 332/200/278
f 248/193/279 247/192/280 240/195/281 238/194/282
f 335/201/283 248/193/279 238/194/282 326/194/284
f 333/202/285 246/192/267 239/195/270 328/195/276
f 330/203/286 242/204/287 244/199/288 331/200/278
f 239/195/270 237/194/269 241/204/289 243/199/277
f 238/194/282 240/195/281 244/199/288 242/204/287
f 326/194/284 238/194/282 242/204/287 330/203/286
f 352/205/290 345/206/291 246/192/267 333/202/285
f 350/207/292 346/208/293 248/193/279 335/201/283
f 346/208/293 348/209/294 247/192/280 248/193/279
f 345/206/291 347/210/295 245/193/268 246/192/267
f 347/210/295 349/211/292 336/201/283 245/193/268
f 349/211/292 350/207/292 335/201/283 336/201/283
f 348/209/294 351/205/290 334/192/285 247/192/280
f 351/205/290 352/205/290 333/202/285 334/192/285
f 237/194/269 325/212/284 329/213/286 241/204/289
f 325/212/284 326/194/284 330/203/286 329/213/286
f 241/204/289 329/213/286 332/200/278 243/199/277
f 329/213/286 330/203/286 331/200/278 332/200/278
f 247/192/280 334/192/285 327/214/276 240/195/281
f 334/192/285 333/202/285 328/195/276 327/214/276
f 245/193/268 336/201/283 325/212/284 237/194/269
f 336/201/283 335/201/283 326/194/284 325/212/284
f 240/195/281 327/214/276 331/200/278 244/199/288
f 327/214/276 328/195/276 332/200/278 331/200/278
f 208/151/233 297/165/236 323/215/275 236/163/234
f 297/165/236 298/197/236 324/198/275 323/215/275
f 129/86/203 281/142/202 321/216/272 233/164/273
f 281/142/202 282/196/271 322/164/272 321/216/272
f 337/190/265 341/217/266 320/218/208 231/146/246
f 341/217/266 342/191/266 319/145/208 320/218/208
f 340/189/264 343/219/261 318/220/249 230/177/247
f 343/219/261 344/186/261 317/178/249 318/220/249
f 135/70/114 285/221/296 316/222/260 226/184/259
f 285/221/296 286/137/194 315/185/260 316/222/260
f 205/102/216 300/166/237 314/182/256 228/182/257
f 300/166/237 299/166/237 313/183/256 314/182/256
f 219/174/248 308/179/250 312/176/251 223/176/254
f 308/179/250 307/179/250 311/180/251 312/176/251
f 217/147/242 305/223/211 309/181/252 221/175/243
f 305/223/211 306/147/211 310/175/252 309/181/252
f 223/176/254 312/176/251 310/175/252 222/175/253
f 312/176/251 311/180/251 309/181/252 310/175/252
f 230/177/247 318/220/249 308/179/250 219/174/248
f 318/220/249 317/178/249 307/179/250 308/179/250
f 216/173/55 215/33/55 303/224/75 301/225/75
f 301/225/75 303/224/75 304/45/75 302/172/75
f 163/156/224 216/173/55 301/225/75 257/226/297
f 257/226/297 301/225/75 302/172/75 258/42/69
f 206/151/232 298/197/236 300/166/237 205/102/216
f 298/197/236 297/165/236 299/166/237 300/166/237
f 160/51/85 87/50/84 263/227/298 251/228/299
f 251/228/299 263/227/298 264/117/171 252/21/33
f 30/13/26 256/229/300 295/41/68 13/16/27
f 256/229/300 255/158/226 296/159/227 295/41/68
f 58/23/41 250/230/301 254/231/302 29/24/42
f 250/230/301 249/48/82 253/157/225 254/231/302
f 29/24/42 254/231/302 256/229/300 30/13/26
f 254/231/302 253/157/225 255/158/226 256/229/300
f 73/120/174 274/122/176 294/232/303 152/111/164
f 274/122/176 273/153/221 293/97/149 294/232/303
f 86/133/189 276/136/192 292/233/304 150/76/124
f 276/136/192 275/152/220 291/108/161 292/233/304
f 231/146/246 320/218/208 305/223/211 217/147/242
f 320/218/208 319/145/208 306/147/211 305/223/211
f 134/99/151 121/83/193 284/234/305 287/100/152
f 287/100/152 284/234/305 283/83/204 288/144/207
f 127/114/199 123/139/196 277/138/195 279/235/306
f 279/235/306 277/138/195 278/143/206 280/114/205
f 121/83/193 127/114/199 279/235/306 284/234/305
f 284/234/305 279/235/306 280/114/205 283/83/204
f 140/107/160 130/86/159 282/196/271 289/109/162
f 289/109/162 282/196/271 281/142/202 290/141/201
f 135/70/114 124/69/113 278/143/206 285/221/296
f 285/221/296 278/143/206 277/138/195 286/137/194
f 81/130/186 275/152/220 267/236/307 117/89/139
f 275/152/220 276/136/192 268/94/146 267/236/307
f 85/135/191 273/153/221 265/237/308 107/65/107
f 273/153/221 274/122/176 266/116/170 265/237/308
f 10/54/90 100/90/140 271/238/309 262/239/310
f 262/239/310 271/238/309 272/93/145 261/46/80
f 87/50/84 103/66/108 269/240/311 263/227/298
f 263/227/298 269/240/311 270/115/169 264/117/171
f 103/66/108 107/65/107 265/237/308 269/240/311
f 269/240/311 265/237/308 266/116/170 270/115/169
f 150/76/124 292/233/304 290/141/201 137/77/125
f 292/233/304 291/108/161 289/109/162 290/141/201
f 152/111/164 294/232/303 288/144/207 138/112/165
f 294/232/303 293/97/149 287/100/152 288/144/207
f 100/90/140 117/89/139 267/236/307 271/238/309
f 271/238/309 267/236/307 268/94/146 272/93/145
f 10/54/90 262/239/310 250/230/301 58/23/41
f 262/239/310 261/46/80 249/48/82 250/230/301
f 215/33/55 164/32/54 259/241/312 303/224/75
f 303/224/75 259/241/312 260/20/32 304/45/75
f 159/19/30 163/156/224 257/226/297 296/159/227
f 296/159/227 257/226/297 258/42/69 295/41/68
f 164/32/54 160/51/85 251/228/299 259/241/312
f 259/241/312 251/228/299 252/21/33 260/20/32
f 314/182/256 313/183/256 344/186/261 343/219/261
f 228/182/257 314/182/256 343/219/261 340/189/264
f 316/222/260 315/185/260 342/191/266 341/217/266
f 226/184/259 316/222/260 341/217/266 337/190/265
f 315/185/260 225/184/258 339/188/263 342/191/266
f 227/182/255 226/184/259 337/190/265 338/187/262
f 225/184/258 228/182/257 340/189/264 339/188/263
f 313/183/256 227/182/255 338/187/262 344/186/261
f 323/215/275 324/198/275 352/205/290 351/205/290
f 236/163/234 323/215/275 351/205/290 348/209/294
f 321/216/272 322/164/272 350/207/292 349/211/292
f 233/164/273 321/216/272 349/211/292 347/210/295
f 235/163/274 233/164/273 347/210/295 345/206/291
f 234/164/235 236/163/234 348/209/294 346/208/293
f 322/164/272 234/164/235 346/208/293 350/207/292
f 324/198/275 235/163/274 345/206/291 352/205/290
s 0
usemtl Material.002
f 355/242/313 356/242/313 358/243/313 357/243/313
f 357/243/314 358/243/314 360/244/314 359/244/314
f 359/244/315 360/244/315 362/245/315 361/245/315
f 361/245/316 362/245/316 364/246/316 363/246/316
f 363/246/317 364/246/317 366/247/317 365/247/317
f 365/247/318 366/247/318 368/248/318 367/248/318
f 367/248/319 368/248/319 370/249/319 369/249/319
f 369/249/320 370/249/320 372/250/320 371/250/320
f 371/250/321 372/250/321 374/251/321 373/251/321
f 373/251/322 374/251/322 376/252/322 375/252/322
f 358/243/323 356/242/323 378/253/323 376/252/323 374/251/323 372/250/323 370/249/323 368/248/323 366/247/323 364/246/323 362/245/323 360/244/323
f 375/252/324 376/252/324 378/253/324 377/253/324
f 377/253/325 378/253/325 356/242/325 355/242/325
f 355/242/326 357/243/326 359/244/326 361/245/326 363/246/326 365/247/326 367/248/326 369/249/326 371/250/326 373/251/326 375/252/326 377/253/326
f 379/254/327 380/254/327 382/255/327 381/255/327
f 381/255/328 382/255/328 384/256/328 383/256/328
f 383/256/329 384/256/329 386/257/329 385/257/329
f 385/257/330 386/257/330 388/258/330 387/258/330
f 387/258/331 388/258/331 390/259/331 389/259/331
f 389/259/332 390/259/332 392/260/332 391/260/332
f 391/260/333 392/260/333 394/261/333 393/261/333
f 393/261/334 394/261/334 396/262/334 395/262/334
f 395/262/335 396/262/335 398/263/335 397/263/335
f 397/263/336 398/263/336 400/264/336 399/264/336
f 382/255/323 380/254/323 402/265/323 400/264/323 398/263/323 396/262/323 394/261/323 392/260/323 390/259/323 388/258/323 386/257/323 384/256/323
f 399/264/337 400/264/337 402/265/337 401/265/337
f 401/265/338 402/265/338 380/254/338 379/254/338
f 379/254/326 381/255/326 383/256/326 385/257/326 387/258/326 389/259/326 391/260/326 393/261/326 395/262/326 397/263/326 399/264/326 401/265/326
l 354 353
