# Blender 4.4.0
# www.blender.org
mtllib obj_Pictureframe_Sandmann_002.mtl
o obj_Pictureframe_Sandmann.002
v -0.006811 -0.393980 0.363197
v -0.006811 0.393980 0.363197
v -0.006811 -0.393980 -0.363197
v -0.006811 0.393980 -0.363197
v 0.013020 -0.371468 0.348300
v 0.013020 0.371468 0.348300
v 0.013020 -0.371468 -0.348300
v 0.013020 0.371468 -0.348300
v 0.013020 0.393980 -0.363197
v 0.013020 -0.393980 -0.363197
v 0.013020 -0.393980 0.363197
v 0.013020 0.393980 0.363197
v 0.001113 0.371468 -0.348300
v 0.001113 -0.371468 -0.348300
v 0.001113 -0.371468 0.348300
v 0.001113 0.371468 0.348300
vn -1.0000 -0.0000 -0.0000
vn -0.0000 -0.0000 -1.0000
vn -0.0000 -1.0000 -0.0000
vn -0.0000 -0.0000 1.0000
vn -0.0000 1.0000 -0.0000
vn 1.0000 -0.0000 -0.0000
vt 0.104904 0.774698
vt 0.104904 0.869716
vt 0.174301 0.869716
vt 0.174301 0.774698
vt 0.172878 0.867001
vt 0.106327 0.867001
vt 0.172878 0.777413
vt 0.106327 0.777413
vt 0.868523 0.684457
vt 0.868523 0.998715
vt 0.704872 0.998715
vt 0.704872 0.684457
s 0
usemtl tex_Calendar_Collection_70s
f 14/9/6 13/10/6 16/11/6 15/12/6
usemtl mat_Desk_parts
f 1/1/1 2/2/1 4/3/1 3/4/1
f 3/4/2 4/3/2 9/3/2 10/4/2
f 8/5/3 6/6/3 16/6/3 13/5/3
f 11/1/4 12/2/4 2/2/4 1/1/4
f 3/4/3 10/4/3 11/1/3 1/1/3
f 9/3/5 4/3/5 2/2/5 12/2/5
f 8/5/6 7/7/6 10/4/6 9/3/6
f 7/7/6 5/8/6 11/1/6 10/4/6
f 6/6/6 8/5/6 9/3/6 12/2/6
f 5/8/6 6/6/6 12/2/6 11/1/6
f 7/7/4 8/5/4 13/5/4 14/7/4
f 6/6/2 5/8/2 15/8/2 16/6/2
f 5/8/5 7/7/5 14/7/5 15/8/5
