# Blender 4.4.0
# www.blender.org
mtllib obj_Document_RBdDDR-Jugendtourist-Reiseprogramm-VRBulgarien_002.mtl
o obj_Document_RBdDDR-Jugendtourist-Reiseprogramm-VRBulgarien.002
v -0.170569 0.000000 0.094564
v 0.170569 0.000000 0.094564
v -0.170569 0.000000 -0.094564
v 0.170569 0.000000 -0.094564
v -0.170465 -0.000144 -0.094627
v -0.170465 -0.000144 0.094501
v 0.170673 -0.000144 0.094501
v 0.170673 -0.000144 -0.094627
vn -0.0000 -1.0000 -0.0000
vn -0.0000 1.0000 -0.0000
vn -0.8115 -0.5844 -0.0000
vn 0.8115 0.5843 -0.0000
vn -0.0000 -0.3980 0.9174
vn -0.0000 0.3980 -0.9174
vt 0.731972 0.450615
vt 0.731755 0.580713
vt 0.990901 0.580876
vt 0.990941 0.450143
vt 0.732042 0.450659
vt 0.991011 0.450187
vt 0.990971 0.580920
vt 0.731825 0.580757
s 0
usemtl tex_miscellaneous_Collection_noTime
f 1/1/1 3/2/1 4/3/1 2/4/1
f 6/5/2 7/6/2 8/7/2 5/8/2
f 2/4/3 4/3/3 8/7/3 7/6/3
f 3/2/4 1/1/4 6/5/4 5/8/4
f 4/3/5 3/2/5 5/8/5 8/7/5
f 1/1/6 2/4/6 7/6/6 6/5/6
