# Blender 4.4.0
# www.blender.org
mtllib obj_Booklet_Ferienhelfer_001.mtl
o obj_Booklet_Ferienhelfer.001
v 0.070621 -0.001094 0.058817
v 0.070621 -0.003766 0.058817
v -0.070621 -0.001094 0.058817
v -0.070621 -0.003766 0.058817
v 0.070621 0.003766 0.058817
v 0.070621 0.001095 0.058817
v -0.070621 0.003766 0.058817
v -0.070621 0.001095 0.058817
v 0.070621 0.000599 0.059044
v 0.070621 -0.000599 0.059044
v -0.070621 -0.000599 0.059044
v -0.070621 0.000599 0.059044
v -0.070621 -0.001741 0.060721
v -0.070621 0.001741 0.060721
v 0.070621 -0.001741 0.060721
v 0.070621 0.001741 0.060721
v 0.066586 -0.000461 -0.040881
v 0.070621 -0.000312 -0.037829
v 0.069439 -0.000345 -0.039987
v 0.066586 -0.001664 -0.040881
v 0.070621 -0.001898 -0.037832
v 0.069439 -0.001805 -0.039988
v -0.066586 -0.000461 -0.040881
v -0.070621 -0.000312 -0.037829
v -0.069439 -0.000345 -0.039987
v -0.066586 -0.001664 -0.040881
v -0.070621 -0.001898 -0.037832
v -0.069439 -0.001805 -0.039988
v 0.066586 0.001664 -0.040881
v 0.070621 0.001898 -0.037832
v 0.069439 0.001805 -0.039988
v 0.066586 0.000461 -0.040881
v 0.070621 0.000312 -0.037829
v 0.069439 0.000345 -0.039987
v -0.066586 0.001664 -0.040881
v -0.070621 0.001898 -0.037832
v -0.069439 0.001805 -0.039988
v -0.066586 0.000461 -0.040881
v -0.070621 0.000312 -0.037829
v -0.069439 0.000345 -0.039987
v -0.064385 0.000288 0.058905
v 0.064385 0.000288 0.058905
v -0.064385 0.000288 -0.036570
v 0.064385 0.000288 -0.036570
v -0.064385 0.000488 0.058905
v 0.064385 0.000488 0.058905
v -0.064385 0.000488 -0.036570
v 0.064385 0.000488 -0.036570
v -0.064385 0.000536 0.058905
v 0.064385 0.000536 0.058905
v -0.064385 0.000536 -0.036570
v 0.064385 0.000536 -0.036570
v -0.064385 0.000729 0.058905
v 0.064385 0.000729 0.058905
v -0.064385 0.000729 -0.036570
v 0.064385 0.000729 -0.036570
v -0.064385 0.000426 0.058905
v 0.064385 0.000426 0.058905
v -0.064385 0.000426 -0.036570
v 0.064385 0.000426 -0.036570
v -0.064385 0.000349 0.058905
v 0.064385 0.000349 0.058905
v -0.064385 0.000349 -0.036570
v 0.064385 0.000349 -0.036570
v -0.064385 -0.000955 0.058905
v 0.064385 -0.000955 0.058905
v -0.064385 -0.000955 -0.036570
v 0.064385 -0.000955 -0.036570
v -0.064385 0.000268 0.058905
v 0.064385 0.000268 0.058905
v -0.064385 0.000268 -0.036570
v 0.064385 0.000268 -0.036570
vn -0.0000 -0.0000 -1.0000
vn -1.0000 -0.0000 -0.0000
vn -0.0000 0.9998 -0.0193
vn -0.0000 -0.9998 -0.0193
vn 1.0000 -0.0000 -0.0000
vn -0.0000 -0.4159 -0.9094
vn -0.0000 -1.0000 0.0081
vn -0.0000 0.6849 0.7286
vn -0.0000 0.4159 -0.9094
vn -0.0000 -0.0000 1.0000
vn -0.0000 -0.6849 0.7286
vn 0.2988 0.0003 -0.9543
vn 0.8770 0.0006 -0.4805
vn -0.2988 0.0003 -0.9543
vn -0.8770 0.0006 -0.4805
vn -0.0000 0.9999 -0.0156
vn -0.0000 0.9917 -0.1289
vn -0.0000 -0.9991 -0.0430
vn -0.0000 -0.9878 -0.1556
vn 0.2988 -0.0003 -0.9543
vn 0.8770 -0.0006 -0.4805
vn -0.2988 -0.0003 -0.9543
vn -0.8770 -0.0006 -0.4805
vn -0.0000 0.9991 -0.0430
vn -0.0000 0.9878 -0.1556
vn -0.0000 -0.9999 -0.0156
vn -0.0000 -0.9917 -0.1289
vn -0.0000 1.0000 0.0081
vn -0.0000 -1.0000 -0.0000
vn -0.0000 1.0000 -0.0000
vt 0.839004 0.525240
vt 0.839004 0.358009
vt 0.760731 0.492277
vt 0.759165 0.492277
vt 0.760544 0.492277
vt 0.702792 0.350313
vt 0.700253 0.547639
vt 0.837909 0.547639
vt 0.837909 0.350899
vt 0.993729 0.547694
vt 0.993729 0.348157
vt 0.858591 0.348158
vt 0.858591 0.547694
vt 0.840203 0.376133
vt 0.840205 0.376133
vt 0.760731 0.376133
vt 0.840205 0.492276
vt 0.840203 0.492276
vt 0.006561 0.498390
vt 0.006561 0.745118
vt 0.006166 0.745118
vt 0.006166 0.498390
vt 0.175387 0.498390
vt 0.175387 0.745118
vt 0.702962 0.504125
vt 0.702962 0.367045
vt 0.700997 0.367045
vt 0.700997 0.504125
vt 0.760544 0.376133
vt 0.759165 0.376133
vt 0.841845 0.484115
vt 0.841845 0.398828
vt 0.839742 0.398828
vt 0.839742 0.484115
vt 0.837135 0.501645
vt 0.837135 0.364565
vt 0.835170 0.364565
vt 0.835170 0.501645
vt 0.837882 0.354426
vt 0.837881 0.354426
vt 0.841977 0.377105
vt 0.841978 0.377105
vt 0.837881 0.528823
vt 0.837882 0.528823
vt 0.841978 0.491305
vt 0.841977 0.491305
vt 0.179156 0.743053
vt 0.179156 0.500455
vt 0.180718 0.738069
vt 0.180718 0.505439
vt 0.855576 0.349827
vt 0.855576 0.546024
vt 0.854328 0.353858
vt 0.854328 0.541993
vt 0.841977 0.377105
vt 0.841977 0.491305
vt 0.841046 0.545993
vt 0.841046 0.352545
vt 0.842345 0.542018
vt 0.842345 0.356519
vt 0.179156 0.500455
vt 0.179156 0.743053
vt 0.006408 0.734224
vt 0.006408 0.509283
vt 0.173187 0.509283
vt 0.173187 0.734224
s 0
usemtl tex_Flyers-Fotos_Collection_80s_2
f 23/1/1 17/2/1 20/2/1 26/1/1
f 8/3/2 12/5/2 14/4/2 7/3/2
f 5/6/3 30/9/3 36/8/3 7/7/3
f 4/10/4 27/13/4 21/12/4 2/11/4
f 18/14/5 1/16/5 2/16/5 21/15/5
f 3/3/2 24/18/2 27/17/2 4/3/2
f 35/1/1 29/2/1 32/2/1 38/1/1
f 6/19/6 9/22/6 12/21/6 8/20/6
f 8/20/7 39/24/7 33/23/7 6/19/7
f 30/15/5 5/16/5 6/16/5 33/14/5
f 7/3/2 36/17/2 39/18/2 8/3/2
f 7/25/8 14/28/8 16/27/8 5/26/8
f 5/16/5 16/30/5 9/29/5 6/16/5
f 9/22/1 10/22/1 11/21/1 12/21/1
f 10/22/9 1/19/9 3/20/9 11/21/9
f 12/5/2 11/5/2 13/4/2 14/4/2
f 11/5/2 3/3/2 4/3/2 13/4/2
f 14/31/10 13/34/10 15/33/10 16/32/10
f 13/35/11 4/38/11 2/37/11 15/36/11
f 16/30/5 15/30/5 10/29/5 9/29/5
f 15/30/5 2/16/5 1/16/5 10/29/5
f 17/2/12 19/40/12 22/39/12 20/2/12
f 19/41/13 18/14/13 21/15/13 22/42/13
f 26/1/14 28/44/14 25/43/14 23/1/14
f 28/45/15 27/17/15 24/18/15 25/46/15
f 18/23/16 19/48/16 25/47/16 24/24/16
f 19/48/17 17/50/17 23/49/17 25/47/17
f 27/13/18 28/52/18 22/51/18 21/12/18
f 28/52/19 26/54/19 20/53/19 22/51/19
f 29/2/20 31/39/20 34/40/20 32/2/20
f 31/42/21 30/15/21 33/14/21 34/55/21
f 38/1/22 40/43/22 37/44/22 35/1/22
f 40/56/23 39/18/23 36/17/23 37/45/23
f 30/9/24 31/58/24 37/57/24 36/8/24
f 31/58/25 29/60/25 35/59/25 37/57/25
f 39/24/26 40/62/26 34/61/26 33/23/26
f 40/62/27 38/49/27 32/50/27 34/61/27
f 1/19/28 18/23/28 24/24/28 3/20/28
f 41/63/29 43/66/29 44/65/29 42/64/29
f 45/63/29 47/66/29 48/65/29 46/64/29
f 57/63/29 59/66/29 60/65/29 58/64/29
f 61/63/29 63/66/29 64/65/29 62/64/29
usemtl writingonpaper
f 49/63/30 50/64/30 52/65/30 51/66/30
f 53/63/29 55/66/29 56/65/29 54/64/29
f 52/65/10 56/65/10 55/66/10 51/66/10
f 49/63/1 53/63/1 54/64/1 50/64/1
f 50/64/2 54/64/2 56/65/2 52/65/2
f 51/66/5 55/66/5 53/63/5 49/63/5
f 65/63/30 66/64/30 68/65/30 67/66/30
f 69/63/29 71/66/29 72/65/29 70/64/29
f 68/65/10 72/65/10 71/66/10 67/66/10
f 65/63/1 69/63/1 70/64/1 66/64/1
f 66/64/2 70/64/2 72/65/2 68/65/2
f 67/66/5 71/66/5 69/63/5 65/63/5
