# Blender 4.4.0
# www.blender.org
mtllib obj_Booklet_Ferienhelfer_70s.mtl
o obj_Booklet_Ferienhelfer_70s
v 0.070621 -0.001094 0.058817
v 0.070621 -0.003766 0.058817
v -0.070621 -0.001094 0.058817
v -0.070621 -0.003766 0.058817
v 0.070621 0.003766 0.058817
v 0.070621 0.001095 0.058817
v -0.070621 0.003766 0.058817
v -0.070621 0.001095 0.058817
v 0.070621 0.000599 0.059044
v 0.070621 -0.000599 0.059044
v -0.070621 -0.000599 0.059044
v -0.070621 0.000599 0.059044
v -0.070621 -0.001741 0.060721
v -0.070621 0.001741 0.060721
v 0.070621 -0.001741 0.060721
v 0.070621 0.001741 0.060721
v 0.066586 -0.000461 -0.040881
v 0.070621 -0.000312 -0.037829
v 0.069439 -0.000345 -0.039987
v 0.066586 -0.001664 -0.040881
v 0.070621 -0.001898 -0.037832
v 0.069439 -0.001805 -0.039988
v -0.066586 -0.000461 -0.040881
v -0.070621 -0.000312 -0.037829
v -0.069439 -0.000345 -0.039987
v -0.066586 -0.001664 -0.040881
v -0.070621 -0.001898 -0.037832
v -0.069439 -0.001805 -0.039988
v 0.066586 0.001664 -0.040881
v 0.070621 0.001898 -0.037832
v 0.069439 0.001805 -0.039988
v 0.066586 0.000461 -0.040881
v 0.070621 0.000312 -0.037829
v 0.069439 0.000345 -0.039987
v -0.066586 0.001664 -0.040881
v -0.070621 0.001898 -0.037832
v -0.069439 0.001805 -0.039988
v -0.066586 0.000461 -0.040881
v -0.070621 0.000312 -0.037829
v -0.069439 0.000345 -0.039987
v -0.064385 0.000288 0.058905
v 0.064385 0.000288 0.058905
v -0.064385 0.000288 -0.036570
v 0.064385 0.000288 -0.036570
v -0.064385 0.000488 0.058905
v 0.064385 0.000488 0.058905
v -0.064385 0.000488 -0.036570
v 0.064385 0.000488 -0.036570
v -0.064385 0.000536 0.058905
v 0.064385 0.000536 0.058905
v -0.064385 0.000536 -0.036570
v 0.064385 0.000536 -0.036570
v -0.064385 0.000729 0.058905
v 0.064385 0.000729 0.058905
v -0.064385 0.000729 -0.036570
v 0.064385 0.000729 -0.036570
v -0.064385 0.000426 0.058905
v 0.064385 0.000426 0.058905
v -0.064385 0.000426 -0.036570
v 0.064385 0.000426 -0.036570
v -0.064385 0.000349 0.058905
v 0.064385 0.000349 0.058905
v -0.064385 0.000349 -0.036570
v 0.064385 0.000349 -0.036570
v -0.064385 -0.000955 0.058905
v 0.064385 -0.000955 0.058905
v -0.064385 -0.000955 -0.036570
v 0.064385 -0.000955 -0.036570
v -0.064385 0.000268 0.058905
v 0.064385 0.000268 0.058905
v -0.064385 0.000268 -0.036570
v 0.064385 0.000268 -0.036570
vn -0.0000 -0.0000 -1.0000
vn -1.0000 -0.0000 -0.0000
vn -0.0000 0.9998 -0.0193
vn -0.0000 -0.9998 -0.0193
vn 1.0000 -0.0000 -0.0000
vn -0.0000 -0.4159 -0.9094
vn -0.0000 -1.0000 0.0081
vn -0.0000 0.6849 0.7286
vn -0.0000 0.4159 -0.9094
vn -0.0000 -0.0000 1.0000
vn -0.0000 -0.6849 0.7286
vn 0.2988 0.0003 -0.9543
vn 0.8770 0.0006 -0.4805
vn -0.2988 0.0003 -0.9543
vn -0.8770 0.0006 -0.4805
vn -0.0000 0.9999 -0.0156
vn -0.0000 0.9917 -0.1289
vn -0.0000 -0.9991 -0.0430
vn -0.0000 -0.9878 -0.1556
vn 0.2988 -0.0003 -0.9543
vn 0.8770 -0.0006 -0.4805
vn -0.2988 -0.0003 -0.9543
vn -0.8770 -0.0006 -0.4805
vn -0.0000 0.9991 -0.0430
vn -0.0000 0.9878 -0.1556
vn -0.0000 -0.9999 -0.0156
vn -0.0000 -0.9917 -0.1289
vn -0.0000 1.0000 0.0081
vn -0.0000 -1.0000 -0.0000
vn -0.0000 1.0000 -0.0000
vt 0.090130 0.738665
vt 0.090130 0.504845
vt 0.001388 0.745750
vt -0.000307 0.745750
vt 0.001186 0.745750
vt 0.001388 0.497761
vt 0.087416 0.745750
vt 0.087416 0.497761
vt 0.087413 0.497761
vt 0.087413 0.745750
vt 0.001186 0.497761
vt 0.008483 0.746782
vt 0.008483 0.496170
vt 0.006661 0.496170
vt 0.006662 0.746782
vt -0.000307 0.497761
vt 0.003529 0.496170
vt 0.003529 0.746782
vt 0.001708 0.496170
vt 0.001708 0.746782
vt 0.089335 0.499836
vt 0.089334 0.499836
vt 0.089334 0.743675
vt 0.089335 0.743675
vt 0.001310 0.734801
vt 0.001310 0.508710
vt 0.086293 0.508710
vt 0.086293 0.734801
s 0
usemtl tex_Flyer_Collection_70s
f 23/1/1 17/2/1 20/2/1 26/1/1
f 8/3/2 12/5/2 14/4/2 7/3/2
f 5/6/3 30/8/3 36/7/3 7/3/3
f 4/3/4 27/7/4 21/8/4 2/6/4
f 18/9/5 1/6/5 2/6/5 21/8/5
f 3/3/2 24/10/2 27/7/2 4/3/2
f 35/1/1 29/2/1 32/2/1 38/1/1
f 6/6/6 9/11/6 12/5/6 8/3/6
f 8/3/7 39/10/7 33/9/7 6/6/7
f 30/8/5 5/6/5 6/6/5 33/9/5
f 7/3/2 36/7/2 39/10/2 8/3/2
f 7/12/8 14/15/8 16/14/8 5/13/8
f 5/6/5 16/16/5 9/11/5 6/6/5
f 9/11/1 10/11/1 11/5/1 12/5/1
f 10/11/9 1/6/9 3/3/9 11/5/9
f 12/5/2 11/5/2 13/4/2 14/4/2
f 11/5/2 3/3/2 4/3/2 13/4/2
f 14/15/10 13/18/10 15/17/10 16/14/10
f 13/18/11 4/20/11 2/19/11 15/17/11
f 16/16/5 15/16/5 10/11/5 9/11/5
f 15/16/5 2/6/5 1/6/5 10/11/5
f 17/2/12 19/22/12 22/21/12 20/2/12
f 19/22/13 18/9/13 21/8/13 22/21/13
f 26/1/14 28/24/14 25/23/14 23/1/14
f 28/24/15 27/7/15 24/10/15 25/23/15
f 18/9/16 19/22/16 25/23/16 24/10/16
f 19/22/17 17/2/17 23/1/17 25/23/17
f 27/7/18 28/24/18 22/21/18 21/8/18
f 28/24/19 26/1/19 20/2/19 22/21/19
f 29/2/20 31/21/20 34/22/20 32/2/20
f 31/21/21 30/8/21 33/9/21 34/22/21
f 38/1/22 40/23/22 37/24/22 35/1/22
f 40/23/23 39/10/23 36/7/23 37/24/23
f 30/8/24 31/21/24 37/24/24 36/7/24
f 31/21/25 29/2/25 35/1/25 37/24/25
f 39/10/26 40/23/26 34/22/26 33/9/26
f 40/23/27 38/1/27 32/2/27 34/22/27
f 1/6/28 18/9/28 24/10/28 3/3/28
f 41/25/29 43/28/29 44/27/29 42/26/29
f 45/25/29 47/28/29 48/27/29 46/26/29
f 57/25/29 59/28/29 60/27/29 58/26/29
f 61/25/29 63/28/29 64/27/29 62/26/29
usemtl writingonpaper
f 49/25/30 50/26/30 52/27/30 51/28/30
f 53/25/29 55/28/29 56/27/29 54/26/29
f 52/27/10 56/27/10 55/28/10 51/28/10
f 49/25/1 53/25/1 54/26/1 50/26/1
f 50/26/2 54/26/2 56/27/2 52/27/2
f 51/28/5 55/28/5 53/25/5 49/25/5
f 65/25/30 66/26/30 68/27/30 67/28/30
f 69/25/29 71/28/29 72/27/29 70/26/29
f 68/27/10 72/27/10 71/28/10 67/28/10
f 65/25/1 69/25/1 70/26/1 66/26/1
f 66/26/2 70/26/2 72/27/2 68/27/2
f 67/28/5 71/28/5 69/25/5 65/25/5
