# Blender 4.4.0
# www.blender.org
mtllib obj_Document_Reiseb_roderDDR-BulgarischeSchwarzmeerk_ste__001.mtl
o obj_Document_ReisebüroderDDR-BulgarischeSchwarzmeerküste_.001
v -0.186003 0.000000 0.129890
v 0.186003 0.000000 0.129890
v -0.186003 0.000000 -0.129890
v 0.186003 0.000000 -0.129890
v -0.185890 -0.000200 -0.129976
v -0.185890 -0.000200 0.129804
v 0.186117 -0.000200 0.129804
v 0.186117 -0.000200 -0.129976
vn -0.0000 -1.0000 -0.0000
vn -0.0000 1.0000 -0.0000
vn -0.8696 -0.4937 -0.0000
vn 0.8696 0.4937 -0.0000
vn -0.0000 -0.3957 0.9184
vn -0.0000 0.3957 -0.9184
vt 0.269332 0.332213
vt 0.505367 0.332213
vt 0.505367 0.003831
vt 0.269332 0.003831
vt 0.246866 0.703372
vt 0.003500 0.703372
vt 0.003500 0.993996
vt 0.246866 0.993996
vt 0.000553 0.001423
vt 0.222081 0.001423
vt 0.222081 0.318652
vt 0.000553 0.318652
s 0
usemtl tex_Documents_Collection_70s
f 1/1/1 3/2/1 4/3/1 2/4/1
f 6/5/2 7/6/2 8/7/2 5/8/2
f 2/9/3 4/10/3 8/10/3 7/9/3
f 3/11/4 1/12/4 6/12/4 5/11/4
f 4/10/5 3/11/5 5/11/5 8/10/5
f 1/12/6 2/9/6 7/9/6 6/12/6
