# Blender 4.4.0
# www.blender.org
mtllib obj_Booklet_Ferienhelfer_70s_002.mtl
o obj_Booklet_Ferienhelfer_70s.002
v 0.058273 -0.001094 0.133758
v 0.058273 -0.003766 0.133758
v -0.058273 -0.001094 0.133758
v -0.058273 -0.003766 0.133758
v 0.058273 0.003766 0.133758
v 0.058273 0.001095 0.133758
v -0.058273 0.003766 0.133758
v -0.058273 0.001095 0.133758
v 0.058273 0.000599 0.134273
v 0.058273 -0.000599 0.134273
v -0.058273 -0.000599 0.134273
v -0.058273 0.000599 0.134273
v -0.058273 -0.001741 0.138087
v -0.058273 0.001741 0.138087
v 0.058273 -0.001741 0.138087
v 0.058273 0.001741 0.138087
v 0.054944 -0.000461 -0.092969
v 0.058273 -0.000312 -0.086029
v 0.057298 -0.000345 -0.090936
v 0.054944 -0.001664 -0.092969
v 0.058273 -0.001898 -0.086035
v 0.057298 -0.001805 -0.090938
v -0.054944 -0.000461 -0.092969
v -0.058273 -0.000312 -0.086029
v -0.057298 -0.000345 -0.090936
v -0.054944 -0.001664 -0.092969
v -0.058273 -0.001898 -0.086035
v -0.057298 -0.001805 -0.090938
v 0.054944 0.001664 -0.092969
v 0.058273 0.001898 -0.086035
v 0.057298 0.001805 -0.090938
v 0.054944 0.000461 -0.092969
v 0.058273 0.000312 -0.086029
v 0.057298 0.000345 -0.090936
v -0.054944 0.001664 -0.092969
v -0.058273 0.001898 -0.086035
v -0.057298 0.001805 -0.090938
v -0.054944 0.000461 -0.092969
v -0.058273 0.000312 -0.086029
v -0.057298 0.000345 -0.090936
v -0.053128 0.000288 0.133957
v 0.053128 0.000288 0.133957
v -0.053128 0.000288 -0.083166
v 0.053128 0.000288 -0.083166
v -0.053128 0.000488 0.133957
v 0.053128 0.000488 0.133957
v -0.053128 0.000488 -0.083166
v 0.053128 0.000488 -0.083166
v -0.053128 0.000536 0.133957
v 0.053128 0.000536 0.133957
v -0.053128 0.000536 -0.083166
v 0.053128 0.000536 -0.083166
v -0.053128 0.000729 0.133957
v 0.053128 0.000729 0.133957
v -0.053128 0.000729 -0.083166
v 0.053128 0.000729 -0.083166
v -0.053128 0.000426 0.133957
v 0.053128 0.000426 0.133957
v -0.053128 0.000426 -0.083166
v 0.053128 0.000426 -0.083166
v -0.053128 0.000349 0.133957
v 0.053128 0.000349 0.133957
v -0.053128 0.000349 -0.083166
v 0.053128 0.000349 -0.083166
v -0.053128 -0.000955 0.133957
v 0.053128 -0.000955 0.133957
v -0.053128 -0.000955 -0.083166
v 0.053128 -0.000955 -0.083166
v -0.053128 0.000268 0.133957
v 0.053128 0.000268 0.133957
v -0.053128 0.000268 -0.083166
v 0.053128 0.000268 -0.083166
vn -0.0000 -0.0000 -1.0000
vn -1.0000 -0.0000 -0.0000
vn -0.0000 1.0000 -0.0085
vn -0.0000 -1.0000 -0.0085
vn 1.0000 -0.0000 -0.0000
vn -0.0000 -0.7208 -0.6931
vn -0.0000 -1.0000 0.0036
vn -0.0000 0.9058 0.4237
vn -0.0000 0.7208 -0.6931
vn -0.0000 -0.0000 1.0000
vn -0.0000 -0.9058 0.4237
vn 0.6533 0.0005 -0.7571
vn 0.9808 0.0005 -0.1950
vn -0.6533 0.0005 -0.7571
vn -0.9808 0.0005 -0.1950
vn -0.0000 1.0000 -0.0069
vn -0.0000 0.9984 -0.0571
vn -0.0000 -0.9998 -0.0189
vn -0.0000 -0.9976 -0.0691
vn 0.6533 -0.0006 -0.7571
vn 0.9808 -0.0005 -0.1950
vn -0.6533 -0.0006 -0.7571
vn -0.9808 -0.0005 -0.1950
vn -0.0000 0.9998 -0.0189
vn -0.0000 0.9976 -0.0691
vn -0.0000 -1.0000 -0.0069
vn -0.0000 -0.9984 -0.0571
vn -0.0000 1.0000 0.0036
vn -0.0000 -1.0000 -0.0000
vn -0.0000 1.0000 -0.0000
vt 0.496204 0.444584
vt 0.496870 0.309928
vt 0.355460 0.445878
vt 0.352773 0.445825
vt 0.355140 0.445872
vt 0.356166 0.303062
vt 0.491880 0.448579
vt 0.492587 0.305762
vt 0.492583 0.305762
vt 0.491876 0.448578
vt 0.355847 0.303056
vt 0.497123 0.449277
vt 0.497837 0.304950
vt 0.494949 0.304893
vt 0.494235 0.449219
vt 0.353479 0.303009
vt 0.497516 0.449284
vt 0.498231 0.304958
vt 0.494082 0.304876
vt 0.493368 0.449202
vt 0.358852 0.446540
vt 0.359567 0.302213
vt 0.356678 0.302156
vt 0.355964 0.446482
vt 0.495624 0.307018
vt 0.495623 0.307018
vt 0.494928 0.447444
vt 0.494929 0.447444
vt 0.355367 0.439570
vt 0.356011 0.309365
vt 0.490775 0.312033
vt 0.490130 0.442238
s 0
usemtl tex_Flyer_Collection_70s
f 23/1/1 17/2/1 20/2/1 26/1/1
f 8/3/2 12/5/2 14/4/2 7/3/2
f 5/6/3 30/8/3 36/7/3 7/3/3
f 4/3/4 27/7/4 21/8/4 2/6/4
f 18/9/5 1/6/5 2/6/5 21/8/5
f 3/3/2 24/10/2 27/7/2 4/3/2
f 35/1/1 29/2/1 32/2/1 38/1/1
f 6/6/6 9/11/6 12/5/6 8/3/6
f 8/3/7 39/10/7 33/9/7 6/6/7
f 30/8/5 5/6/5 6/6/5 33/9/5
f 7/3/2 36/7/2 39/10/2 8/3/2
f 7/12/8 14/15/8 16/14/8 5/13/8
f 5/6/5 16/16/5 9/11/5 6/6/5
f 9/11/1 10/11/1 11/5/1 12/5/1
f 10/11/9 1/6/9 3/3/9 11/5/9
f 12/5/2 11/5/2 13/4/2 14/4/2
f 11/5/2 3/3/2 4/3/2 13/4/2
f 14/17/10 13/20/10 15/19/10 16/18/10
f 13/21/11 4/24/11 2/23/11 15/22/11
f 16/16/5 15/16/5 10/11/5 9/11/5
f 15/16/5 2/6/5 1/6/5 10/11/5
f 17/2/12 19/26/12 22/25/12 20/2/12
f 19/26/13 18/9/13 21/8/13 22/25/13
f 26/1/14 28/28/14 25/27/14 23/1/14
f 28/28/15 27/7/15 24/10/15 25/27/15
f 18/9/16 19/26/16 25/27/16 24/10/16
f 19/26/17 17/2/17 23/1/17 25/27/17
f 27/7/18 28/28/18 22/25/18 21/8/18
f 28/28/19 26/1/19 20/2/19 22/25/19
f 29/2/20 31/25/20 34/26/20 32/2/20
f 31/25/21 30/8/21 33/9/21 34/26/21
f 38/1/22 40/27/22 37/28/22 35/1/22
f 40/27/23 39/10/23 36/7/23 37/28/23
f 30/8/24 31/25/24 37/28/24 36/7/24
f 31/25/25 29/2/25 35/1/25 37/28/25
f 39/10/26 40/27/26 34/26/26 33/9/26
f 40/27/27 38/1/27 32/2/27 34/26/27
f 1/6/28 18/9/28 24/10/28 3/3/28
f 41/29/29 43/32/29 44/31/29 42/30/29
f 45/29/29 47/32/29 48/31/29 46/30/29
f 57/29/29 59/32/29 60/31/29 58/30/29
f 61/29/29 63/32/29 64/31/29 62/30/29
usemtl writingonpaper
f 49/29/30 50/30/30 52/31/30 51/32/30
f 53/29/29 55/32/29 56/31/29 54/30/29
f 52/31/10 56/31/10 55/32/10 51/32/10
f 49/29/1 53/29/1 54/30/1 50/30/1
f 50/30/2 54/30/2 56/31/2 52/31/2
f 51/32/5 55/32/5 53/29/5 49/29/5
f 65/29/30 66/30/30 68/31/30 67/32/30
f 69/29/29 71/32/29 72/31/29 70/30/29
f 68/31/10 72/31/10 71/32/10 67/32/10
f 65/29/1 69/29/1 70/30/1 66/30/1
f 66/30/2 70/30/2 72/31/2 68/31/2
f 67/32/5 71/32/5 69/29/5 65/29/5
