# Blender 4.4.0
# www.blender.org
mtllib obj_Booklet_Ferienhelfer_70s_004.mtl
o obj_Booklet_Ferienhelfer_70s.004
v 0.073563 -0.001094 0.133761
v 0.073563 -0.003766 0.133761
v -0.073563 -0.001094 0.133761
v -0.073563 -0.003766 0.133761
v 0.073563 0.003766 0.133761
v 0.073563 0.001095 0.133761
v -0.073563 0.003766 0.133761
v -0.073563 0.001095 0.133761
v 0.073563 0.000599 0.134276
v 0.073563 -0.000599 0.134276
v -0.073563 -0.000599 0.134276
v -0.073563 0.000599 0.134276
v -0.073563 -0.001741 0.138091
v -0.073563 0.001741 0.138091
v 0.073563 -0.001741 0.138091
v 0.073563 0.001741 0.138091
v 0.069359 -0.000461 -0.092971
v 0.073563 -0.000312 -0.086031
v 0.072332 -0.000345 -0.090939
v 0.069359 -0.001664 -0.092971
v 0.073563 -0.001898 -0.086038
v 0.072332 -0.001805 -0.090940
v -0.069359 -0.000461 -0.092971
v -0.073563 -0.000312 -0.086031
v -0.072332 -0.000345 -0.090939
v -0.069359 -0.001664 -0.092971
v -0.073563 -0.001898 -0.086038
v -0.072332 -0.001805 -0.090940
v 0.069359 0.001664 -0.092971
v 0.073563 0.001898 -0.086038
v 0.072332 0.001805 -0.090940
v 0.069359 0.000461 -0.092971
v 0.073563 0.000312 -0.086031
v 0.072332 0.000345 -0.090939
v -0.069359 0.001664 -0.092971
v -0.073563 0.001898 -0.086038
v -0.072332 0.001805 -0.090940
v -0.069359 0.000461 -0.092971
v -0.073563 0.000312 -0.086031
v -0.072332 0.000345 -0.090939
v -0.067067 0.000288 0.133961
v 0.067067 0.000288 0.133961
v -0.067067 0.000288 -0.083168
v 0.067067 0.000288 -0.083168
v -0.067067 0.000488 0.133961
v 0.067067 0.000488 0.133961
v -0.067067 0.000488 -0.083168
v 0.067067 0.000488 -0.083168
v -0.067067 0.000536 0.133961
v 0.067067 0.000536 0.133961
v -0.067067 0.000536 -0.083168
v 0.067067 0.000536 -0.083168
v -0.067067 0.000729 0.133961
v 0.067067 0.000729 0.133961
v -0.067067 0.000729 -0.083168
v 0.067067 0.000729 -0.083168
v -0.067067 0.000426 0.133961
v 0.067067 0.000426 0.133961
v -0.067067 0.000426 -0.083168
v 0.067067 0.000426 -0.083168
v -0.067067 0.000349 0.133961
v 0.067067 0.000349 0.133961
v -0.067067 0.000349 -0.083168
v 0.067067 0.000349 -0.083168
v -0.067067 -0.000955 0.133961
v 0.067067 -0.000955 0.133961
v -0.067067 -0.000955 -0.083168
v 0.067067 -0.000955 -0.083168
v -0.067067 0.000268 0.133961
v 0.067067 0.000268 0.133961
v -0.067067 0.000268 -0.083168
v 0.067067 0.000268 -0.083168
vn -0.0000 -0.0000 -1.0000
vn -1.0000 -0.0000 -0.0000
vn -0.0000 1.0000 -0.0085
vn -0.0000 -1.0000 -0.0085
vn 1.0000 -0.0000 -0.0000
vn -0.0000 -0.7208 -0.6931
vn -0.0000 -1.0000 0.0036
vn -0.0000 0.9058 0.4237
vn -0.0000 0.7208 -0.6931
vn -0.0000 -0.0000 1.0000
vn -0.0000 -0.9058 0.4237
vn 0.5643 0.0006 -0.8255
vn 0.9699 0.0007 -0.2434
vn -0.5643 0.0006 -0.8255
vn -0.9699 0.0007 -0.2434
vn -0.0000 1.0000 -0.0069
vn -0.0000 0.9984 -0.0571
vn -0.0000 -0.9998 -0.0189
vn -0.0000 -0.9976 -0.0691
vn 0.5644 -0.0006 -0.8255
vn 0.9699 -0.0007 -0.2434
vn -0.5644 -0.0006 -0.8255
vn -0.9699 -0.0007 -0.2434
vn -0.0000 0.9998 -0.0189
vn -0.0000 0.9976 -0.0691
vn -0.0000 -1.0000 -0.0069
vn -0.0000 -0.9984 -0.0571
vn -0.0000 1.0000 0.0036
vn -0.0000 -1.0000 -0.0000
vn -0.0000 1.0000 -0.0000
vt 0.328866 0.989580
vt 0.328866 0.776444
vt 0.009289 0.996038
vt 0.003187 0.996038
vt 0.008563 0.996038
vt 0.006683 0.768085
vt 0.006683 0.997940
vt 0.321699 0.997940
vt 0.321699 0.768085
vt 0.009289 0.769986
vt 0.319093 0.769986
vt 0.319093 0.996038
vt 0.319084 0.769986
vt 0.319084 0.996038
vt 0.008563 0.769986
vt 0.331006 0.996979
vt 0.331006 0.768536
vt 0.324446 0.768536
vt 0.324446 0.996979
vt 0.003187 0.769986
vt 0.331899 0.996979
vt 0.331899 0.768536
vt 0.322477 0.768536
vt 0.322477 0.996979
vt 0.017001 0.996979
vt 0.017001 0.768536
vt 0.010440 0.768536
vt 0.010441 0.996979
vt 0.326003 0.771877
vt 0.326001 0.771877
vt 0.326001 0.994147
vt 0.326003 0.994147
vt 0.320569 0.769002
vt 0.320569 0.995054
vt 0.327480 0.993163
vt 0.327480 0.770893
vt 0.009008 0.986058
vt 0.009008 0.779966
vt 0.315048 0.779966
vt 0.315048 0.986058
s 0
usemtl tex_Flyers-Fotos_Collection_80s_2
f 23/1/1 17/2/1 20/2/1 26/1/1
f 8/3/2 12/5/2 14/4/2 7/3/2
f 5/6/3 30/9/3 36/8/3 7/7/3
f 4/3/4 27/12/4 21/11/4 2/10/4
f 18/13/5 1/10/5 2/10/5 21/11/5
f 3/3/2 24/14/2 27/12/2 4/3/2
f 35/1/1 29/2/1 32/2/1 38/1/1
f 6/10/6 9/15/6 12/5/6 8/3/6
f 8/3/7 39/14/7 33/13/7 6/10/7
f 30/11/5 5/10/5 6/10/5 33/13/5
f 7/3/2 36/12/2 39/14/2 8/3/2
f 7/16/8 14/19/8 16/18/8 5/17/8
f 5/10/5 16/20/5 9/15/5 6/10/5
f 9/15/1 10/15/1 11/5/1 12/5/1
f 10/15/9 1/10/9 3/3/9 11/5/9
f 12/5/2 11/5/2 13/4/2 14/4/2
f 11/5/2 3/3/2 4/3/2 13/4/2
f 14/21/10 13/24/10 15/23/10 16/22/10
f 13/25/11 4/28/11 2/27/11 15/26/11
f 16/20/5 15/20/5 10/15/5 9/15/5
f 15/20/5 2/10/5 1/10/5 10/15/5
f 17/2/12 19/30/12 22/29/12 20/2/12
f 19/30/13 18/13/13 21/11/13 22/29/13
f 26/1/14 28/32/14 25/31/14 23/1/14
f 28/32/15 27/12/15 24/14/15 25/31/15
f 18/13/16 19/30/16 25/31/16 24/14/16
f 19/30/17 17/2/17 23/1/17 25/31/17
f 27/12/18 28/32/18 22/29/18 21/11/18
f 28/32/19 26/1/19 20/2/19 22/29/19
f 29/2/20 31/29/20 34/30/20 32/2/20
f 31/29/21 30/11/21 33/13/21 34/30/21
f 38/1/22 40/31/22 37/32/22 35/1/22
f 40/31/23 39/14/23 36/12/23 37/32/23
f 30/33/24 31/36/24 37/35/24 36/34/24
f 31/29/25 29/2/25 35/1/25 37/32/25
f 39/14/26 40/31/26 34/30/26 33/13/26
f 40/31/27 38/1/27 32/2/27 34/30/27
f 1/10/28 18/13/28 24/14/28 3/3/28
f 41/37/29 43/40/29 44/39/29 42/38/29
f 45/37/29 47/40/29 48/39/29 46/38/29
f 57/37/29 59/40/29 60/39/29 58/38/29
f 61/37/29 63/40/29 64/39/29 62/38/29
usemtl writingonpaper
f 49/37/30 50/38/30 52/39/30 51/40/30
f 53/37/29 55/40/29 56/39/29 54/38/29
f 52/39/10 56/39/10 55/40/10 51/40/10
f 49/37/1 53/37/1 54/38/1 50/38/1
f 50/38/2 54/38/2 56/39/2 52/39/2
f 51/40/5 55/40/5 53/37/5 49/37/5
f 65/37/30 66/38/30 68/39/30 67/40/30
f 69/37/29 71/40/29 72/39/29 70/38/29
f 68/39/10 72/39/10 71/40/10 67/40/10
f 65/37/1 69/37/1 70/38/1 66/38/1
f 66/38/2 70/38/2 72/39/2 68/39/2
f 67/40/5 71/40/5 69/37/5 65/37/5
